<mxfile host="65bd71144e">
    <diagram id="BWTqptX_jwTRF9XWY2FB" name="Page-1">
        <mxGraphModel dx="1783" dy="941" grid="1" gridSize="10" guides="1" tooltips="1" connect="1" arrows="1" fold="1" page="1" pageScale="1" pageWidth="1100" pageHeight="850" math="0" shadow="0">
            <root>
                <mxCell id="0"/>
                <mxCell id="1" parent="0"/>
                <mxCell id="14" style="edgeStyle=orthogonalEdgeStyle;curved=1;html=1;exitX=1.018;exitY=0.08;exitDx=0;exitDy=0;entryX=0;entryY=0.25;entryDx=0;entryDy=0;exitPerimeter=0;" edge="1" parent="1" source="3" target="4">
                    <mxGeometry relative="1" as="geometry"/>
                </mxCell>
                <mxCell id="16" value="&amp;nbsp;Raw Vehicle&amp;nbsp;&lt;br&gt;Data" style="edgeLabel;html=1;align=center;verticalAlign=middle;resizable=0;points=[];" vertex="1" connectable="0" parent="14">
                    <mxGeometry x="0.1795" y="6" relative="1" as="geometry">
                        <mxPoint x="-11" y="-55" as="offset"/>
                    </mxGeometry>
                </mxCell>
                <mxCell id="3" value="" style="shape=image;verticalLabelPosition=bottom;labelBackgroundColor=default;verticalAlign=top;aspect=fixed;imageAspect=0;image=data:image/png,iVBORw0KGgoAAAANSUhEUgAAAS4AAAE8CAYAAAB+XlzTAAAAAXNSR0IArs4c6QAAAARnQU1BAACxjwv8YQUAAAAJcEhZcwAAFxEAABcRAcom8z8AAP+lSURBVHhe7P11eFvntu+L73/O77n3nnvPORvX3mvvvbqoXV3tKqZJIZw4DidNk0JSZmZMm6RhRoeZGR0yM9uSZUmWxUwWM8P394xXVuK4DrXpatLMb5+3UjSnpqZkzY/GGO8Y4/0HcOLEidMtpn/o+QAnTpw43eziwMWJE6dbThy4OHHidMvp1wuueBwJqQyRYycRWr0Wga++ReD1d+B/9c3MeOVNBN77CMH5ixDevguxqhqknM6eR+HEidNNqF8VuNLhMOI8PoLLVsL3/CvwvfU+gt/PQ3jHLkROnEL07HnESsoQK6tAtKAY0dNnED58BKGVaxD4/Gt4p74E/8dfIHLsOJIWM5BK9XwJTpw43QT6VYAr5XQhcvoM/O99CN8LryK0aSviLTykLBak/f6rAigdiTBrK6lUMbgFvpoO3zPPI7RiNRLtHUAy2fMpnDhx+gV1S4MrHYkier4A/vc+gv+NdxE9cx4pnx9Ip3vuel1Kx2JIKpUILVoG7/OvMIssqdH03I0TJ06/kG5ZcCXVGgRnz4PvpdcRPXIMSCR67nJDlFBrEJjxPXyvvonoyfyrWm+cOHH6+XVLgitWWQ3vS6+xwHrSZuu5+WdRrKCYQTK4aClSHm/PzZw4cfo76pYDV+TocfiefQGRYyd6bvrZldQbEJg+A4EvpiNpNPXczIkTp7+TbilwRfYdhG/qi4jX1ffc9HdT5OQpuEeMgf+dDxnIOHHi9PfXLQMusrC8015GnM/vuenvopTbw3LBPCPHI7hxM4Lfz4X/48+Qslp77sqJE6efWbcEuOLVtfA+9yJitT+PpZWORq84E5kOBJmF5X6kP+I1tZn0iGgUwVlzEPjueyAc7vkUTpw4/Yy66cGV1Onhffl1lkB6I5VOJhFvbkFo6w4Evp2J0PJVvWbOpxMJBOYtgut3dyK8e+8l21JuN/zvfIDI9l2XPM6JE6efVzc1uNLhCILffc9mDwkgN1LR84Vw3fcInP/r3+D8x9/C+X/+A8GZczLWVzcRMJ3/9Wf43/8Y6Wjskm2khKQD3mdfRJzf2nMTJ06cfibd1OCKniuA7413kLJ29tz0kxX4bhac//yfcP3HH+D6rz/D9e9/gOu/70R43cYLkEyIxHA/9Cjcffsjobp8Amp41z6WtU+Jq5w4cfr5ddOCK+Vwwv/RZ4gev7EuYlaxpiZ4Bo2A61//G67//FNm/PN/spIhUkKtgnfUBDh/cwcr1L6SUl4f/B9+iujxK+/HiROnG6ObFlxkbTl/dycrek7o9D033xAl2iXwvfQag5PrN7+Hp/9QFseKFpcwaDn+339lAfh0PN7zqT8QuZ7+195GKhTquYnTTaRIJAKxWAxbL4nL6XQasVgMqZu1OoI8gWv4Lt4OuinBlQ4G4f/4c7j6PgHH//o3eMZPRlwk6rnbDVGsrh6uP94N17/+Dt4Jk+F9Zhpcf74Xjv/5z/C99AaSDkfPp/QqKvQOfP7Nz2Z1BQIBaLVaNDc3o7KyEvX19ZBKpXBc4/lxykitVmPIkCE4fPhwz00oLy9n23bs2NFz0w0VdTFJGYyItwkRr2tEvKkZSZmCeRmXm92mZgH0I+p7+XWkfqYf8ltJNyW44s08+F55E7HaOnjGTmIQcT8xBNGSsqvGkVIeD+L1jYieOo1Y/lmWSpGQyZE0W9gsYDoaYTOK6WAASZ0OoWUr4LrjLrh++0e4fncXXL+5g1lavqenIaFU9jz8FRXZewCBL7+9oXWTZBnQhTR58mQ89NBD+NOf/oS//e1vuOeee3DfffchNzcX33//Pdrb23s+lVMvUigUeOCBB7Bnz56em7Bz50784z/+I2bOnNlz041RMolYeQX8H3wCz+iJ8AzJhTdnDLxDR8EzbBS8z72A4MIliPMFSEcuTbFJmUzwTp4K9wP9kBC0XbLtdtRNCa7wug0IrVnH7if1etZTy/3YILjueZDN7kX3H0KsvoHN6KU6LwbuaUYwWl7OEkM9w0fB/dBjcP7uLjj/ch9LHGXNA6fPQHDuQmbR0T4EKhbfogA9weu//gT/2+8jqVJ3O6NrE3M9P/6MBfVvhEpLSzFw4EAGq9deew1bt25FQ0MDlEolOjo6kJ+fz6DVv39//PWvf8XatWvhcrl6HoZTN9Fn98gjj2Dfvn09NzHr9dy5czAajT03/XQlEgiv38QmewLvfcwSqun7mzSZkNBoEauuQXjtRvieewHuISMQKyvveQQkhGLE6xquKXTxa9dNBy4yo30vv4F466XpBayb6Y7d8L/9AVz3PgjnHXfCM2A4q1sMzluEhFDErGwCWcrrQdJgQLxVwL4ggS+nwzMoB85/+U84/uH/zoz/+5/g+rffwfWff85Ai8Zv7oD70UFIms2XvPa1isAZmDkb0b37e266bh08eBD/+Z//iUmTJjH38Epyu93MSiDrq7XH58bpUl0JXD+noqfPwf3gowhv3tZz0yVKx6KI5J9BQizpuYlTN9104CL3zPvS60i73T03MVEEgJoEBt79CM7f/A7O/+v/wPn//gs8A4cjcvCHcYusEtQk8Hwhwlt3ILxtJ0J56+G+876L6RBkdf3mDnjHTUY6EOj59GsWHTe4YHHPh69LZGkRtN59912EriPYr1Kp4KfGiZwuq18EXMkkm7ihnnFcU8obo5sOXPTLFPh2FutKeiVRAD965hwL3Lv+/fcMXq4/3M3SGYLLViGyZz+bmYzLZD9IKiUltFq4//pgxlXMguvffsfiD73tf62KFpaw/l3pHxk0t9vtePTRRzF27NjrgtbVRLNlEokER48eZTGzwsLCa3KJNBoNs+Li3dwTi8XCnk8xoePHjzO3tfv23kTvi8/ns0mGrMhSrKmpYfGm/fv3g8fjIRgMXvK8K4k+HzomWad0DDoWHfNKuhK4CPp0vCtNeNCsJE2KnDp16sL7p38nrhDXTHm98I6bhPDGLT03XZeSWi0SHR29JmMntDrEO6RId82IkueSaBMievIUogePMFeUYry9KR0KIiEQIHrsJKKHjiJWU8tixTezbjpwhdZtRGjLtmtu2EczMeFNW+B5YghLKHX+z3/JgOjP98J994PMPPfkjkNgznzWa54F6U1mBGZ+zxJOM3GtrvjWv/8e0dNne77EdYlcWv+nXyHR9uNmQSmORTEtuoBuhGhq/8yZMxg1ahTuvfdeFg8bOnQo+vTpw4L8ZNUReC6nJUuWsOf6fD5YrVZMnz4dDz/8MIPr8OHD8fjjj7OJgvHjx6OoqKjn0y+ooKCA7U+vFQ6HkZeXx86FzmPYsGEYMGAAOw7F9AisVwJhMpnEkSNHmGv84IMPIicnh50jHYvOZ82aNex8e9OVwCUQCNg5ksXbXZQm4XQ62XmNHDmSTYrQ7CP9uND5Unzx6aefZs/vTWTB+8Y/hdCSFT03XZeoLC1AFRyBH8I9u24CzT7GKqvYDzgL/E96Gt6JU+AZMgKenDFs/QVkJ7gSCQY2alPuHT46s++EyZlJgxFjEdm156ZNv7jpwBWc8T0i5wp6PnxVUYAzOGM2PA89Cuc//gec//vf4fq3O1iCqTObZPrHe+C++wG4//JABlrZoDyNf/otfJOeQaqX/J7rEdU70sxi/EcUhJNVRBfGs88+23PTjxJZAQsWLMB///d/45133kFjYyOzSLxeL4MQWV8EDQIaWVC9iWJnBANKFZgwYQKefPJJnD17lllQdBy6oCk9Y9q0aex1Vq9ezcDSU2Sh0KxocXExPv74YwwaNIiBgKw+Oo7H42EX/hdffIE77rgD77//fq8WZzQaZRMSf/nLXzBjxgxm7dDzCVQGg4FNUBDMXnzxRXZuPXUlcFEskaBEAfruouMT4AmMixYtgkgkYudLr0mfZ0lJCfsc6biUI9abAp99Bc/wMUhqdT03XbNokso/7RWk/T8MZYTmLoTvzfcQ3rINvknPIrRmLevem/b52EjIFQjOng/3A30RWp3HPJrQ2vXwjBiD0Jr1SKi1F/dVKBGcMx/u+2nfdUCq9xSNX1I3Hbj8r7+DWEVVz4evWdT2xv/Bp3Df1ycDr3/93SUWFXMNaWQtrf++E85//i+4/3L/T3rdrCi4SkXb8dIfzgpdTXQR33333eziuxHavHkzfvOb3zCX5nKiWciXX36ZWTu9XXTz589nkCArjUDRG0xIZJWQpfPb3/4WBw4c6LmZWX0EFLKSXnnlFej1l89FOn/+PIPXt99+y2DeXVu2bGHnc/r06Use7y5ybcki/Pzzz3+QTHolcLW0tDA4kXXYXeTe0gyuTCa75PHuIpe6b9+++PLLL3t1G+MtfHiGjoRv4tOIVVUjFbj+WCSbDX/pjd7BtXQF3P2HwTthCksB6l1pBi06Dyp58z71LDuXyym0Ko+Vu1F6xs2mmw5cPta+pq7nw9ctMpepDMf11wdZITWDVta6yg6CFllj1Plhy3aW3/VTRRcwgStWcHm36XKiGA8BpKrqpwNUp9MxF+abb77puekHIuvpiSeeYCkXZNF0F4HrH/7hH5grSC7e1USWCUHDZLq0QyxZMf/2b//G3GCaRLiaNmzYwOBVW3vxIqTnPfbYY1i4cOEl+/Ymsgrps6yuvvTC/DHgulYR2OnYPd97VvHGZvhfeBXuvk/AN+0lhFflseXykqZrm8W+IrhWrGbf88iW7T03XSKadfeOfwrOf78DkW2X/0EjpVxueEeOQ3De1T/vv7duTnDVN/R8+EeJgpixikoEPv2KAYzVJZKLmAXXv/2OdX4ILV/NVgy6ESKjOjB9JmI/wt2l4DJZXHQB/VRt2rSJuT1kCVyLCBQEFUrQ7K45c+bgf/7P/3nF+FV3kbVDwKSgdXcRuP75n/+ZuVrXInLFyJ2cPXs2+zEgbd++nYGFst+vJrIMn3rqKXz22WeXPP5zgovOjz7D3izXrFgMqqAIwVlzmXXkHjoS3tET2Sx5ZPdeJK8wYXJFcC1ZAdf9fZGUX/r3+4GoTdM338HzSH8kO6Q9t16qRIK1bfK/8Ar7Xt9MuunA5Z/6EltV+kaKsuWjhcXwDhuVsbAIWmSB3XEXgouXsxmYGyWa1QlMn4VYUUnPTVdV9qIvKyvruem69cILL7CAdU9X63KiWBEF63u6YAQOginFj65FFFQnd5BiY1ngkMhVvPPOO1k87FpFcbkxY8ZcmIn8+uuvMWXKFPYaNOi99Tay2ykWNm7cuEtctxsBLnoNintRfCs7yBolN5Y+K4qBXYtSnTbEm1oQ2X8QgY8+h2fYSJZBTyurI/HDoPgVwbVwKbxTpiJlv/yMaFahJcvhe+q5y6YcXVA6xeLGvinTLsxW3iy66cAV+OATRHvJGv7JisfZr4fz//x7Jr71H39A4INPf1LqQ29KB0PM4oqXX/sFmhW5GPTFX7VqVc9N1y2a9Zo6dWqvgfLeRKVFFKMhS627CFz9+vVjwfxrFVk6b7755iUzgwRECs5fjzVJ8SKyGrMF0R9++CFzN0eMGMFmEmkG8HKDtpP10zOt5MeCiz5Hcj9ff/11DB48mH0m3QdNYPzxj39kExT0I3C9Ymt5qtSZAPpfH2BZ9j1n1q8IrgVL4Hv1rWtKYyDrzEdWVOiHs5OXKJ3OLAH49PM3JIxyI3XTgSs4fzEiJ258oTLLav/0Szj/928ySaf/fSdCy346IHqK0i1oWjre0NRz01VFFzpdaHTh/1TRLBfNTl4ruDo7O9lFu23bpZndBC4CGuVuXato5vGtt966xNIhcFGN4NWqALqLZhjpORSDI9FMI1lgVPZEbjXFAq80aB8KqHf/DH4MuOh9UFyNZl/p86ioqGAzoG1tbeyWBsGK4oF33XXXT6sbTaUQoo67fR5DQnzpcW4YuBYvv3ZwfT+XA9e1KLJjFws03uj8kXQqyXx75//qAtfv7rpQD3kjFRe0wf/VdFbY/WNEiZQUlK6r+2kTFG+//TabCewZbL+csm4qpSt0F12oZLlQZ4prEVk39Lo9A+jkKv7+97//wfGvpFdffZXlR1HSJ2nWrFksJeOn6MeAiwBIQNq9e/clj/cUdZygz/BaXcXLKdHCZ7W5sVOX5hRy4Lqomw5c8epq+D/9EunLTLv/WKXTFHuamQEXdTv9w18ROXK0524/WZEjxxCYNZdl9v8YUbyE3DyymChA/WNFOVp0sV1r7SJZC2RR9Mymnzt3Lv7H//gfvXZT6E2U0/SHP/zhB8F8Cs5T54VPP/30kscvJ0qXoPSJ5cuXX3js5MmTDAzdZxqvVz8GXJQsSwmyVyun2rVrF4vj/WRwtbfDM3gEoifyL3mcA9dF3XTgSlksbGYxZbn2mMq16FJw3QHXXffdsNnL7gotWZaxGH+C6MIk64Tyq64VXuTOCIXCC/sTACkznYL0veUVdRe5OX/+859ZVnzPfQloBC6K41zNXaQLm4LhlETbs/SGcrMox+s//uM/WC+xq4nSOAhS3d0uSiglV5Fc6e6lQ5dTb9bmjwEX5afRDOeVwEXuKMW//umf/ukHMS5abZ0SQK9VkUNHM/lTLbxLHufAdVE3HbjIRQx8+BmiPyIP6kq6BFz/9jtWp3ilPvI/RlSTRu5oLP9Mz03XLco0J8uFgsxXm4mjoP5HH33EgsbdS4UIFhQs/uqrry57oRPsKIeLAtq9BeDnzZvHZhspXkbZ8XTh9yaq76OAPAWoeztfchWpVIhgTHG8y+WqUZxv2bJlDHA0UdB9ZpJE0KMJDHqt3rqYkugYK1euZLOQPUH8Y8BFMS36IaF6yt5E57hx40b2OdEPANWEdleMlteb9DT7QettJanuivN48AzOQeDrb38w282B66JuPnCxX5wjLLP3RootM/blt13guoN1k7iWP/L1KF5dw/qFpcxXtkyuVVSiQxYGAYwaCVJGPUGBgsFNTU2sXo/ylMilIouILsaeNXrZuAuBiXK1KDhOVgylXJCFRVnoZCXJ5b3H5CjGRZYb5SbRrB7NnpH7SImddBwCCblz9DjNABJwexMF5wkYtD+VBdF9gi3BlY5NwKU8KDoXgh8dszeLiUTuKCWiUqLr4sWLL5wLvTeaXKBjECQpg79n5jzlqd1///29xqvoM+2t5IfOgyxAOi+K3VFQnn4sKO5HMbs33niDVQPQZ0V/C9reXWmPF5F9B+AdM5GN4JwFiJ47j4RYzMprKAhPP9SU2+XuPwSBdz/stfSMtvunvtw7uOYsYPWJlyuk7q7Q/MXwPfv8tYHru1nwPfkMB65rUVKpYu5i4jIZyD9G1Hwt8MX0DLh+cwfLXO75i/ZTRS1t6JfvRorcE4rtkMtHFytlg1Msim7JOqAZPALa5bK1SVTYTJCigmC6aOnipNQEyoYnq4Zyki6n7KwilQZR4J1gQLlUBJ7ssciNouP3TF7trmw6BMXcCCYETsrUp/dExyBrhe7TpALBrael1VOUV0YQIbeUZh7pGDQoNkjn0tPqyYoSckePHv2DBFkS/SBQ7hvVZfYUwYtKp+iHhN47vRe6pX9TUi3NfFJxNlnIlytap6aB4V174H/zPdbZl/IKWSH08NHwjJoA/1vvI3r0+GXju6yQ+qPPey2yDq9ZB/8nX7CFW64mWsnK//4nl32dC0qnEVq+kjXW5MB1DaLUBeppdSNn/S6CK1P+c6NbLCfVWvjeep8lFP4cIpeH4leUNU4WCk3z08WSnXG7mggEBCiyEui5ZrP5mkp4ekuHoOfR8+k4dLyeVl5vyoKLrJqsKJGT3D0CHpXzEByvNX0jK2qDQxMKdC5U5kTnciXoETTpOb11n6DXpm093cvuou0ETYpjEQTpb5J9vezzr/Ye6PudcrmQUKlZ11y6pTULrtaWnLo6sHZPvb2/aCzzQ9zbtp66cJyeG3pRNMrWN73ZdFOCixRvbILv5dcuac38U3QBXP/fv7F0iPD+gz13+UmiBoWUv/VrU2/g+jHqDVycOP1Y3bTgYqtYz1nAyhNuhC7EuP6/f2WZ87H6xp67/GglVRr4XnyVtYr+tYkDF6ebUTctuEjUR9734its+aafKjLng9/NhvP/+We47n0IScXVOxRci8j3D8yaw9qK/BpF9X4US/up4KK2MBSLogkHTpx+qm5qcJEi23fBR7MsnT+cZbleUTmR4//6R3iGj75hM3+0jqKfpqFvkEt7s4my1WmG7qeCi2YbKXjOWVycboRuenBREJFW6QnOX/STC6KpMZrj//e/WTO3a6miv5ri/FY2Oxmv+WnlOT1FwW8KONO41u4OPdUzDeBqooA01StSgLt7oiUFzmmW71onAS4nyhGj0plrTajtKUpopWA45YvRe6MAOOWmXSkQ31OsV1ogcNng+fV+Zpx+Od304CJRNr3/jXcySzv9hC8XWUfO3/4B3qemslmcnyJajcj30ussP+dGimbWyK2ikhm6pWTI3pJHe7tgs48RhAg21woJ2p/ywygORa9HqQLX2sbmWtTzXHv++2qimVSy2CgRlEqZKGmWZu8oX+p6wE77Ut5YNv2j+3nQ7CY1csw+dr3nyOnvq1sCXKSEVMqWH2e9itI/Dl60ACclnvomPsOmo3+sqP2I77W3EM5bf0P7FNEvPuUC0QVE9wko1AmBIEKWD+UZURoCpUHQxUuP0bQ+5VdR3hJtJ8uGLCfKOaJ8IrKU6Jbq5y63WCzlVlFSJx2HXpeSUelYZPnRfQIEuYqUy0SZ53Q8SvgkoNBx6ZwIrpSSQNvoXLK9sejfdHx6Ph2brMjsuZPlQ3Cl9A7ar7cVfgggBFUaBBw6Dp0TWYVkHdJ7otej86Bzo3Oi86V9aVsWwFT7SJ8N/RiQ1UafET2H3gcdi7LmKVmX7tN22kavc7kkWE6/rG4ZcJHi4nb4X3kDobx1V12+rDel/H74nnmBdZz8sRYXzRz6XnwtA60r5Pv8GNFF0lv2O4kWliC4UHb4iRMnWMnMsWPHGGDoYiU3jJI6aRtdcHQREgzI8iJLip5LF21vVhhlive2qhBBk7bRa9IxCEx0XHqcbum1qIsFWUOUh0UlMXQcgi+BgAZZcBTXopIfOh/ahxbmoMcIJHSfrCDaj6zM3nKoCCS0D2Wp0/ukfxOU6N8EPSoAp+PRMmX0GCWQ0n4EyGwyKb0O/Zteh5J1aX86v0OHDrH79DlSvy1yR7PWHVmetM/lXEtOv5xuKXCRkgoF/O9+yGoCKRP5ehQrLYP73ofZ0ks/JthPSzl5p72MyE7qlHDjXQmyUOhC6m4ZUWExDXKRaDslPlJpDF2wVOpCs3QEBAII3Sc4EUQIVGRl0PFoG1k9dNGSpdFTdFF37yJBVhpZRvR4tp0NXcAEpGx3VjomAZL2peOS5ZJtxUNWC50vlSRlIUzPJeAR2AguBAsCIu1H5033CVw9LRyy0ghwZP3R+6Ln0iBYE1zoc6D3mn2N7KK4tA/BKFs3Sf8mK4rOld4bvSZZtgQrOi96n/QYvQ/q8kBWG8GPtvUGU06/rG45cJFoBi+4YBG8L76G6NnzPTdfVpGDR1iMy/3owCv29u6pFLlCc+fD9+qbiP2I1XuuVeQW0YVCFyBdsOR+ZS0dKvshV47cob179zI3ibpIEFDImqFbsigIVLQPWUpkPdCFSVYXQYYuXnIzewaoyW2jY1AAnF6X9icoEqQINPS6BDG6sLPgou10TDoWWUMEVDpXOgaBlGBCICI3jp5PxydY0TkSbOi86BzpOQQYeoysI3IXCTzdY01Z95nuE4wJPvR6vYGL3juBnx6j49I50OsTIAlG9Fw6B/o3wY/Og+CWBSG9Jypron/T50Dvn+B8pc4QnP7+uiXBRaLyiGj+WQYT/zczEBeJr1rCQ91JaYECWvGa6iGvJiqODe8/wCrpg/MX/qQ18a5VZFlkXT5yBQlI9BhdVHQBktVFFyCBhC50CioTHLIWDT2XYk4ENbrwyC2ibXTBZiFCAOrezphgRRZX9jXpoqcLNVt/Rxc3QYCsNQIIic6BIELnRkAi+JGFRedFzyeXNOvOEbTo+WR90TnRPnR+tJ1Ak30OHS+74nX3GT5yDek8CHK0L8WtKIZFnw0Bhm5JdG5kTdHr0H16HoGLnkuQJKuKPiP6TMjVJvgStOi9ZN1Wgj1ZXXSfnkfvOXtOnG4e3bLgyor6doU2bmZpCYHv57GlzVI2OxWO9dyVOXdUyEqLZCQ1vXf0pAJWglp47/4MFD/+jB3zp6ZiXI8ITuQe0oWdvYDJhepeE0eWTRY+9DhdyGSt0HPpOXSb3U6PE0iyx6J/95z6p3/TMeli7+6uEZiyz6XXydb40S2dR/YxuuAJmt3Pi0T36bGshUfnlV1cgkTPJ9BkLRrar/vzs6Jzoud1D+Bnz+Fy50Si16HPhqym7OdC27PnQY+TK0jb6HWz9+k9Z1+LHuvtnDj9crrlwcWUTiNJRcPbdsL/ypvwvfMhQpu2Ina+kGXfUyyMrKdUJMy204KYSYuVdSlN2e0MVLGaOkQOH2Er+FJ7kMC3szLA+hGTALej6EIn95UTp7+Hfh3g6i5amqq+gS2E4X/jXfje/xj+6TPY6imhlavhGT4K3knPILhmLYKLlyEw43v4v/wGvtfeRvDL6YgcOMQg+Evrx+YRZa0NsjRoXOk4WSuKE6dbTb8+cPVQ0tqJeE0tokeOI7JrLyK797FZQVrFN7L3AGJnzyPR0XH1liJ/R5G7RrGhy+VdXUnk/mRjN9mVcHrrbEquF8Wleku96C56bm8JsJw4/ZL61YPrVhNZQTTrRc0BKZBMIguKYkAUdM/Giwg42bhR91gYBaApD4lm3SjYTUFvCo6Tsr2kKK5D9wlqFIimAHT2+bSN9snCio5FgXQul4nTzSQOXDeZCBg0E0Y5R9lsdrLACCBkQdFjlB6RnTEkoNHsYjbXiOJM2VQIAlI265wyzsmKo1wruiUIUhoDzdTRjCXNmmVn4bL70DFoOwGuZzCfE6dfUhy4bjLR9D5lz5PFRDlZlBNFKQ/ZrHdKZaD0AwJXdlFSGtlYFVlL9DyCEuUj0S3NoJH7SJYTWVTZEh8CGsGJ4EdgJFhlC6oJXtls/Cu1ZObE6ZcQB66bSGTVZEtfsnlVZE2R+0eQIXeNIEVQySZZUjJq957xBCICELmUZGVRaQ5ZXmQ1EfQIcNkMcjomWV4U7yJwEeSyK03TbdbCo6RMeh6XQc7pZhEHrptIFLei+rhszhABKVvrR/EuinVRpng29kVgo4z67kChuBZZV9ljZLPHyWoiCFFiJv2bXEpKsKTHCFD0GuR60utRQiclYJL1RwCj45EbSQmsXKyL080gDlw3kShgTvDonqJA/ybLKduHitxFyuQm94/iTz3XOaRjkGuZTcAka4qsMNqfnkcWGyW30mvQLcGJ3NJsexiy1LJZ8tnjEfRoX7L8uFgXp5tBHLhuUWVr9a5lpR5OnH5t4sB1iyq7ziEnTrejOHBx4sTplhMHLk6cON1y4sDFiROnW04cuDhx4nTLiQMXJ06cbjlx4OLEidMtJw5cnDhxuuXEgYsTJ063nDhwceLE6ZYTBy5OP1AyRgtkuBDpKkv0WE0IRq6+WIidVsRxXbmjak+5bTbYbNlOr2n4XZ1sbUSFTAqL3QGupJtTb+LAxekHigftqKysQKueVt6J48TunVCbbbCbzXB5qTMqrZIThcPlZsXZZpMRdocdvBYe2qR6IBmBxWKGh8iXTiEa8MLeaUU4min8zirodePwxhUoKKtBhpEpWLUdqKqpxe7165F/vhyXPoMTp4w4cHHqRSnw6mpQXcNHPGTGvvwytLbUQySSoKVNAlF7G2qry8ETy9HRXIW2dgnMBh14bRJ0SOWs3xeP3wo+nwcZrfl48gwEQh6q+BJ4Q11LiYW8EDc34eSBbWgVNfcAVBTNdbUQyX75RUs43ZziwMWpV9lVbawbanNdBRr4zdi7ZTMaWnjIP5WPAzs3obCyBkZHAFVHN6GsvhkOmwmlZTU4dWQ/ShrFcPnDkAvKsWNfPs4cOIlg2IMjx0qhMmeaHspF9dh75AzOnziA02dOwxe72C5HJ+Gj4FwpQlzfQk6XEQcuTr0qHfeirKQAC5duhVIhwfHd+6HS6FlvMHVrKSqa2+AIAe5OI3gNtTh18igOnqlB/uHdqBLI4PKFoJbWYdv+s6g6XURLweLowWIoDU52fL/PDavdDX7ZcZSUFyMQTyAWSyARdKG8+DxqRcaep8SJ0wVx4OJ0WYnK87F13xk4Qwno2xtQXtMMgVACKb8CTSIpnME45A2NqC2vQF1FGQqrm9HCE4LX0ojyigpUVtdAKBCgobiKuX+F5+qgs3gueQ2DuBbtklbYrGqU1IigU8lQcq4EIa5fIacriAMXp8sqnUx0a9WcZt1Uo7H4hWXqqU9rIhZFNBpDKpVGKpVEKk3x+ARbcCOeSGZWGe86RjKRpH9eojQ9p2vQsWnfRJybS+R0ZXHg4sSJ0y0nDlycOHG65cSBixMnTrecOHBx4sTplhMHLk6cON1y4sDFiROnW04cuDhx4nTLiQMXJ043XD2S1TjdcHHg4sTpRqmLV3ST7vo/Zdz2TLrl9NPFgYsTp59ZHLduvDhwceL0E5Tubk4x6yqBdDKGdCKKVDLOSpqyNtilg9NPEQcuTpyuQwSq7KA6cHIJU4kYYiE/Qm47vJ16OE1yOA3tcJnl8DsMCPscSIR9SCWjtDdzHbPH4PTjxIGLE6frUAY4GZspmUogHHTDa1HDoRbBrhLAqRbAo2qFV82Hh4ZOCI9eBK9JioDLiGjEjxRZZawpddYa43S94sDFidN1KGspJRMx+J1GdKra0Kngwaniwa3jw6drg1/TBr+2DR6NAG6tAB69AD69EB6DGD6rHJGQnRqeZY/Y4xU4XYs4cHHidAVl3TkGLGpqTdZWMgaf3QC7UgCHkgenmg+3phUBvRBhoxhBkxh+oxhesrR0QjY8WiF8ehECJjGCdhWSIT/HrJ8gDlycOF1FF+JaFKFKJuB3muHQCOFUt8Kl4sOlFSBgECNq6UC8U4ZopxRBSwcCpnYGM69WALdGAI+2DX6DGCGrFHGvGalY6GKqBAex6xIHLk6crqBLg+hpRLwOOHUdcKrb4GZWlBhhixQxmwwJpxwptxpJtwZxtxphu5xZX17mNrbBqyWICRE0diDuUyMesSGZ5NYx+jHiwMWJ01WUBZfVYkb+kQPYu3UdDmxfj1P7t6OxJB9GWTOCnTIgaALCJiCoQzqkR9yjRtAiYW6iVdoCWVMpJPVFULRUwqFrQzJqRTodzeSp9nxRTlcUBy5OnK4gaklN8vsDWL1qFSaMH4NJE8Zg4tiRmDAmF0+NH403X52GTasXobWqAC6TmAErFdAi4VEjapPD1NGExpLTENaWQM6rhrixFLyaAnTq25GO+1mKRJIc0ex0JaerigMXJ05XUNZLVCiUePXVVzFu7BhMHD8a40flYEzuEIzOGYyxI4ZgXM4ATBo7DN9++RGEdSVIutRIebRwagQQVhdAwa+FsYMPvbgZGmE9tKIGSHiVcJqVQCqWyQnLJHj1PAVOvYgDFydOV1EimcTx48cxYeJETHpyIp4cPwYTx4zA2FFD2BifOxzjcgcjN3cQxo4cgYrTh5C0KxEwSiBrKYeMVwU5vxaVZ4+itvAkNG31MIqbIONVQt3eiHgos/JRJqGV07WIAxcnTleR1+fFrFmzMX7Ck5jy1FN4+qkJmDh2BMaMHMIGWVxjRw7GiGED8Om7b0ArrEPEKoVeWANB9RkoBTU4vnczls35GmsWzkTpmUMwS/kwiBsgbiqDx2m6+GKcxXVN4sDFidNVZDab8e6772PSU89g2nPP47lnpmD8mByMHjEIY0YMxuicQRg1YiCGDXkMG1Yshk3RCpeaD0VLGaTNZSjNP4jlc7/ByvnfYtncr7F9w1IoeDXolLeioTwfVpOKvU5mEoAD17WIAxcnTleRXKnAiy++gmeefR4vv/Q6nnn6GYwbNQKjhw/EqOEDGbhyh/dHzrAncGLfTng0YhhEdeBVnIGyrRYHt+dhyfdfYvXCGQxe61bMRUv5WTjUQtSVnoTZyIHresWBixOnq0gql+HZqS/gk48/xYK5czHpqckYlZuDkV3gopEz9AmMzBmEwuP74NOKoOJXobbwOGSCauzasBRLZ3+FNYtmYsW8b7Fx1UK01RTBpmxFU+VZ2Kw69jocuK5dHLg4cbqK2iUdmPLMNGzesBZqmRCfffYxhg0egNyhBKwBGD64Pwb274fB/R/D2SN74NaJoOBVMnCpxQ3Ys2k5Fs/6AqsXfsdcxt2bV0EvrodJ0ghhUzl8Hjt7nUuTXTldSRy4OHG6iuRKFb6Z/i1qK0qQDDhQdOownhybi4FP9EXusEEYP2YEpj4zCR+88zqqCk/BphZCzq9CU1k+THI+ik7tw5Lvv8DCGZ8xq6uy4BgcqlaoBNWQCZsRDYczXbrSXLeIaxUHLk6crqQ04A/40cprglWjgMekhk0pxIHtm7B2+SLs3LgKR/duRfm5YxA3lEDfXgdzRyN0ojoIawuhaK2GTtKE4pP7cHTXetQWnoBZxoNV1gx+TSG0ShnSqWwtZJKzuK5RHLg4cbqKCChBrxOdKjlsWhk61e2wKqn/lhg2pQg2hRBWuQAmSTNLcdCL6qEXNaC9vgStVWfh1IpZIN4ia4FD1QaHUgC1oAqtdSXwuh1dL8Iln16POHBx4nQVpZBCKOCBWSmDWSWBWSmGSdoKI4GqvQkGMVlYDdCJMrdaYT00bXVQ8avRWnkWspYKdKpaWTDeKuNB3VoDfs15GNQSJJOJni/H6RrEgYsTpysoawRR40CHWQ+9rA0GaSv07c0ZSHUDFWXEq9vqoBbUQcmvgVpQCwWviqU+NBSfRFNpPgvYN5Wfg1zczLqncvpx4sDFidMV1L2lTSjgg0EhgbZDAJ2EB524GVpRE7TCRqiFDdDQbVsDGypBPZSCelaj2NFchbaaErRUnEdLVQFaGyphMWmQSiW6pUBwqRDXIw5cnDhdQd1TFNKpFBxWI6QiHtoaqyCoLYWgrgT86iK0VJ5HS8U5tFScBb/yHAQ1hWitLoC4sQyCulKIm+sgE/GglAqh16kQDgczx8wOWnwjTQtpJJFKpdjgQl6XFwcuTpy6rbqTadDcu2hLJBpBp9UMjVIGmYiPjtZ6SFvr0FZbDH4lQess+FXn0FZbCFF9MaS8Cshaa6GVi2AxquG0mxDyuRHwuBAM+BCNxRCJxZBIJRFPxpFIRNgSZxT7yrbU4fRDceDidNvrUjx0d9kudeOoewONrGhZsojPhYTfDq9RDqdGxAbNINppEQ0Kxiv4sMh5aK8vQnN5PptpVPMroWqpYMXYho5mGKUtrBW0QyuGSdUOm1mPeJzrjHolceDidFvqgoWVXSMxnUI8HkXQ54bfaYPP0YmA04agz4F41I90KoFUMolgwA+HzQq9RsmsrpDHgZjbDLeW0iJ4sCv5cKgEsCn5MHc0wyLjwSBpgLS5HMrWarTXFYNffgKy+rNQNxdB1Xgeysbz0DQXQMcrgqa1FEZ5CzqtOmaNdT9XThfFgYvT7SkGgxRS6SSS8RACTjNcZiVcBincehmcOrqVwmdWwm1SwKKRQt0hgFYqgFklhlnWCouyHWGXGWGngeVq0bqKnQo+GyZpEzRttZA0lELWXI72BsrpOgdxfQkkjWVorcyHrOEc9IIS6Pgl0LeWwiAogUlYAqeuAXazCA67GQlaDZvOM5XqaRre1uLAxem2VGYyL4VEJAifVQ+ntgNufTu8BhG8Rgk8Rik8BglMUh7k/BpoRI3QiBthlPPRqRLAoRagU86DVc6HQdoCvaQR5o4m6MV1UPAqIKw+B0lDMUwdjXBphWztRaOkgWXMS1vK0Fx2Am01+TCJy9EpqYRZVA6TqByG1lLYFNUIOyUwGyQIhX0Zi4uLd10iDlycbkulkEY8GoCvUwe3TgqvXgqPXgqvsYMNn0kJk4wPYc15CCpOo63yNForTqG9oRAdLRVoqy+FtKkcKn4lRHUFaKs6C2VLKVuyzKZogZ0tEtsKu6IFNnkzWzCWenSxhWPVPHTKGlmvro7GEqhby+BSNcKnaYa+rQLG9mqEOsUIOJVwO01IUJIq5ypeIg5cnG5LRRNRuDt18Jhk8Bml8Ok72PCbpHAZ2qERNUHaVAplcyHUTZk4lKqpAIqG82ivPQdexWl0KgXwm2QImDoQNHWwVs2a1kooW8pgkTZlYl6KZrhUPDhp4VgVDx5tK2yyRrSUnULR8b04c2QPqouOQ95SgqBJAJu8Htq2Mji1zfBb26FXiZFIkLvILaTRXRy4ON12Igum02qEXSeD16SAz6SARy+DzyCFXS2EQlSP1uoidNSdg7q5AKrGQigbC6BoLIS0nsB1BpaOOsRsCkQ75YhYOtitUdLIahN14gY2q+hQtsKhbIFTRYMHr66NWV2C6nMQNhSz/ZRtDZC01KCl6izkvBIYRTTjWASjpAZ2DR9KSTOisUjXmXPkyooDF6fbTrFoBBa9HF6TCh6TkqUy+EwyFmDXtTdBJqhDW00h5F1WlrKxEKqmIrTXngW/4iT0omoEjGIETe0I6oWImiWwylsgqitmbWycuvbMSteq1guuoU8vRMwmh0PFB688Hy5NBmK0sKxN2QatuJHlfjWXHIO08TwU/BKo2yogbatDOBTgoNVDHLg43RbqnlKQjMfgs+nh79TBZ9Ewd9FrkrGYlkUhhEEmQGv1eXTUn4e07hwk9efRWn6CDYOoBl6dEF6dCB6dCD5tG/x6EYS1RZDUl8Jr6IBLK2ZAcqkFF8AVpvUWnUo4DSKoeCUIGERs+PV0rDa4dGIYpHzwqorQWHYc7Q3n0dFYCGFzOYIBLxfj6iEOXJxuC10o22EWVxQ+mxFBlxVRlxkhhx6dmnaoxM0wKNth0sjRIWhEU1UByk4fRNX5w9C01cChzLh7Hm0b3FohPHohg49ZUs8KqU1SPnwMXCK41N0sLhUPAYMQCl4pjLJGGNqrkXSrkPRoETCJ2D4BqxRBhw7tzVWoOLMX4tqzEBMwG0vh83HF2D3FgYvTbaHuFlc8FoPXbkHEY0Mq4EDEa4VBJYFK1gadSoJowIVE1I9YxI+g1wG9XAy1qInFrXx6Ebxaus2AK2qRQN1agcbSfLhodpLApSMYtTFwZWNcHk0rZI2F0LRVQs4vRdguR9SphFcngF3RwNIwkj4zK8guPbkbbdX5ENaeA7++FB6Pq+fbue3FgYvTbScqlg64HQg4zEgGXfA7LbAY1PC6bEhFQ0jFAkAiBCTCmRELwtdpgLa9hbl/fqMYfoMIQZMEMWsHdMJq1vXBpcvMULoN7XBrxXBRvpeyBQ5FM5zKFjabqGurZHEsO5thFMCj5sMub4JL24qwXcGy62vOHwKv4hRaq8+CX1eOgN/X8y3c9uLAxem2UM+ymUgoALtJg4DLArtZxzqcIhEF4mGk40GkCVzxANKxANJhPxD2I+g0wyBpgVcnRtgiYTOJKYccelEVBPWlLF4WtmsRsirh00uY1cXyuGSNbDiVzbBKGyCuLYCKVwG3ms+Gk/K+lM0Idkph17ShufwUmstOgV91Brz6ckQioa43cfH93O7iwMXpthSlGJh1Sph1CjgsBiSjQaQJWjECVvDCYOAKeZEMuJnlZTeoWDZ91NKBWKcMcKmgbauEoK4Mcb8DMY8FgU4N3Np22OV82GTNsFJWPRv1LLhP4JI3l7L8LpeqhQ3K9/JRsN4qh6S5FE1lJ8CvOovm2lLEYtGus+bIlRUHLk63peKJGIw6FeQSEewWI1Kx0AVwpWPdwBX3Ix1yIxVwIR3xsfiXUS5gsa5YpxwJuxIaQRWaqwoQdpsRcBjgMilgVwlh6WiBSVIHvaiW1S2qWmsgrClEQ9ExtqAGuYjkQrrUvIxLqeIhZJPD0FHPwNVSeRZtvNpM5jw13OFmFi+IAxen20gXL3yyuPRqGQTNjbAYdAxaSEQyriJZWV0jFfMiFXAi6XcgGXYjGfXCrpfC2NEEl0YEn0ECi6QBLeX50Mv4rCBbI24Cv6qAtXFWCqog51dA0ljOklobik9D0lgKi6wJndIG5j5SPheBy6ZoQsDcDoe2Fa21Z9FYcQZSMe8CuDhdFAcuTreFLiZDZDpqBUMBdBqUUEtFsBr1DFi9g8uXAZfXngFX2AV/pxYKfhWzmpwUgFfwIa4vhqipgqVV6NpbUHn6GBpLzqK1uhjN1HO+5BTqik5BK2pBp6oNZlkjOmUNcCiamMtI4CJ30a1tRbBTBmVbNRrLT8NqVLO6SjpzzuK6KA5cnG4PdbvmCQABr5O1qqEe8rQIRipKrmH4B+BKRrvARX25gk7Egw6E7Hrm+pGLSB0iqP9WW00BGsvPQiflM1dS2lKNyrNHUVt4DPUlJ1BbcBRyXjWbeXRoxDBJGmDpqGdB+0zKBC8TxJc3IWJXwKZpBb+uiK1yzaDV/b1w4sDF6TZRGkimM/ZWIhxgmfMWtQQ6qRgOk57FuDLgohhXd3B5mZuY8NqQCDqRCDgQsulYOxvq7mDqaGL9twhk/MrzkLRUQd3eDJW4EYK6IrS3lMKmbYVV2YL2hlLY1ZTn1cG6olo7MrONlC6RCdTz4FDwYJY2or2piCWfhkN+ds7Uf5WzuC6KAxen20SZ1svJZAphtw0ukxJmapOsVcDVNavIwEUAi2agBXIVL4DLjnjAgbjfziwuWiNRya+EvKWcLfTaqWhFR1MJqzdsb66EQtCADl4NmivPQ9RYDJuKD0lzBbTtrXDq5bCphLBSBwkK0NPMopoPFb8cbdXnmYVWdGoPpO08JGglIGYlJnu+odtaHLg43RbKLIORRjIehd9uhsuogdOggtusgqfzCuCKeJmbmPDYWLpDwmdH0KZj3U4N4nrWr8vQ3sDgZWyvB7/iDDoay9FWXwJxSxWEjRVsHcXqghPg15aAX1cGm04Gu6YdVjk1F6yHtKkY/Ip8SBqKIGsph0pUC7W4DnazAvF4hFmL1FqacxgvigMXp9tCmThRipXx+Gwm2PVqBJ0WOAlcNuMPwMXSIQhcITcSPhsSHisSfhviPhsDl0PVBou0GarWKqgF1bAp+LDJeWgsOs7qGlXCWvCqz6OttgRt9WWoLz2L6sJTOHt0H4wKEcxKEdobS1B+ai/rlqppq4JV3swSUqk8yKNuhVsrQMCmQTzsZ+2bOWxdFAcuTreF2HxiIga/ywKbQYWAqxPxoAcGtQQ2oxrpaAiIZcp7CFgXweVCwtfJEksz4OpkMS4CF7Vj1onqIK4rglnaDKuMh6aS4wxmFnkL68+laq2GsLYQ/KrzEDeUoaOJYmB8SHg1bO1FBa8cnbImuDWtcKrJZWyFR9OWGdSoUCdEwKFiC3aw98EtnMHEgYvTr1bdL/JEIoaQuxNmhQgyIQ8RnxuJsA86BQXnNQCBKxoGyPLqDq6gk0GLBllbMW8GXFRwbZE3w6pogaShhA1ajow6m1LPeXIDM6OFQcwkb4RF0QyzlO4LIeVVo6nsFLPaXJpM+xuPjs/yuMLWDgTNEgR0Itg7mqBurYTXpkAasa4gPec2cuDi9KtV9tJOp5IIeezwmalcpxUyYQu8nRZ4rUZoOtpYi5t0JJCB1pXA5SXLy9oFLiEscuoYIWBBesqIN0t5LLieDdiTFUbQotEp5zNotdUUwSITQCOqR3t9AexyHutT71TzEDAJkXApkPaqkXSrEbZ1oCx/LzYsm42q4qNIJDwZcP1ghcfbTxy4OP1qxeySVBIRvwM+q4bVEPqtahiVbbCqldBL2yFra4LfbmLlPAxY2dFVp5gFV9RtZuCKuq2ZGJdayFbsIXfR1NEMGc0YCglGJew+QYrAZaZaRRkPdjkF85vQWnGeLc5BKRNyXgVcyla4VK1sVjFoFiHpkCPtUrAayKBFjP1bl2PFgm+wa/NSmHVimhft6inIgYsTp1+FMvnlXS4iu00hGvIiwDqdKuHv1LCmgaxxoFoJYUM1pK0N8NmNSBK4GKz8SMfpPllgAZa3lQUXWVtRt4VZXE6NuGt5Mh6zushVJGAp+dXoaKT8LloMtiWTKiGnch4eNEIqAaqBzyyHUS6EQlDb1bOLz7pIuDSZhoNBgxAhgxB+nQBFx7Zj1bwvsW3NApYblkpm+s/f7nEuDlycfkW6uBIO3cSCPrZmIllb/k71BWgFbDq4zWrIBPVoa6iAw6xGioLf2W4Qsa77UT8SfjuDVsRlYuCKuMzM4nJpJSx3i8BEq1bToq+0+CsVUtOyZUZJ0wVwEdzoVi2sh0HWiqjHDJ/dAKO8jUGPOqva5JQ138gA5lA2ZwqwFS1QtVagLH8fagqOsoVoY+TScuLAxenXowtWSBrsAg/Y9fBZ1AxaQbsWQfq3VcMKoZ0GKWzaDmZxmTQyVtrDXEPK4erqDJEKe1lAnsAVZeCyMICRxeXStjNwXVi5uqMZSn4VFLxqBrAMuCgYn3EXKVNeI26AStyEdMyLiNcGfQcfVlkL3OpWeLWt8OkzrZ6pZ5e5owFmSQNM7fXQCGugEdbCqmlHnCYQupI7bmdx4OL0qxErRk6nkYhG4Xea4OtUwWdVMXAFbFrW6M9lVMChl8FOFpNaAr1SAodFh2TE21VUTeDKNBFMhT0s/YGBi4bHgrDLhGCnlrmKlD1P1hZZVAQvchfJTRRWF8LY3nghQM+GnAdDBw/CpgqEvVaYFCIo+NXMwqLcrbBZjKRDxvp8ORXNMElqoRPWQiuogYrWahRUwmFSIpVMdgXnOXBx4nTLqiuqdeFeIh6Gz0XQ0sBnJWtLw6DlNavgNikz0NJ0wKQQQ69sh8tuQdjvQiLsycS3YsFM3SLdhtxdca2Mq0i3YacRAasGTm07AxcBi8BlU7VCXF/AcrraKgtgbM+4ihfARZn1HTxImquhEDZCxq+BSUL5WwL4dALEbVKknXJEze1wKVtgkTZCL65nqRWypjKoBHUI+pyZfDQuHYIDF6dbXRcv4HQyiaDHBm+nHAGLCn6rlrWg8VrUDFp2vYy5hwxaina4HRZmwURDfsRDHhbTSsVoUCrERXARtLLgCjmM8FvUcGouBVenkg+dqBbt9cVoLM6H4RJwUayLiqdboW5rgLCuFFaFAG41JZoKEDCKkHQqmMUV0AtglzXCKm1mpUSSxjKIG8ph06uQSiUyiRApsiwv+RBuO3Hg4nRLi9Id6CJmwfiQPwMrimtZ1Cye5SFLy6iAk1laEhiVtKy9FB6XE6kUFS6nEfJ7EA95kY4HkIx5u0p/gmwhjay1FXEaEXVZELQbWD6YWyeBXSlgpT40u0izhjYlD4LKs6g8fZitUk3Qou4RJuqE2kFpE5TLxYdZ1srWXnQr+fBqWhG2SpByKxG1SeBWtaJTStBrgF5cC1F9KXTKdsQoq5+9YYJWtkPX7SsOXJxuaZEVQu1qEqkkwl57BlxWLXxmNTwmFesCQdCyaSQwKcUMWn6P80LKRCKZhMtmQSzgYZZWZnYx05Mr2ZXDFXEZmYvIZhS7wOXSSWDrAhdzFSmRVCVg5T2lpw5CJ+oOLrK6yOKi9IlW2GnNRbWAgcuva0PcIWfgogRU1qNe1gRjRx007Y2wm7Ws0Jo5hxdYdXtDi8SBi9MtrWQyzqyPSNgHN61KbVYz15BZWhTTMsiZe2hWimFSZ6F1sUUMAcxs0MGgUiDkdSIVpuRT6oYaYnWKFyyurnEBXHoJK/sheNHsIgGMYKRuq0XBsT1QC2ovgItmGMnqInDZlLTCNa25mFnhJ2RqR8qtQsKpgFPTApOsHiZpA/TtjXDajBe7n7J7nLLiwMXpllYynUY0GoTNqIRB2gqTvA1OgxzOLvewU93O8qXMGgVCAVqf8IdtkH0eD9pamtFUVQl1RzucViMCLisCDgKVEQG7kQEr5DQiaDMwN9RjkMKhFcOmFqKTWV6USNoKY0czCo/vybR27mZxZcFFpUJUSE1dTz3aVsRsMqTdGkStMtZz3tRRB0N7HesVFu1aliydpp7zye4m120vDlycbkFdvICjqRQ6LTq2gEWYMuJVYug6WmHVymBVtbO0A6tWjkgw012hN8ViMUjb2yFuaYGklQdBUx1qSgvQVFUEWWsjlEIelMJmqMXNUAuboBE2QS2sg5xfCWlLOcQNxWivL4SkrhDCmgIUHN2NjqZMobVZ2sSARUuaWWR8OFRCli1P+Vp+QxuSLiXSXg38RhHrEkHtnPXiGjgtukvy0jhz61Jx4Lqqen5jsv/u+Tinv4/oc8+0MaZ74WiEpTVQ3yrK0TLIBDDKRTCpOmAzauBzdiIWCV7x75VKpWDQayHk8yBpa4VUyIdcyEcHrx6tNWVoqShAfWk+qs8fQXn+QZTn70dZ/h6Un9yNyvy9qDq9F3XnDqL2zH5U5h/A+UM7UXpyP6TNBC8BLLJWmGWUqCqAQy2CU5nptxWxdgA+DWJOGVuizCqph6mjHiphDVydxp6nyambOHBds7ifvZtHaaRTmb9HwO2AQS6E06SAXNQErVQIm0GNgMuOZCLWtTflPl1sc9NbnV8gGIBEJIKIx4OY3wxxSwPam2ogqq9AW00xeJXnWBuappJTaC49jqayY2guPooWGiXH0Fh4BDVnDqD42B6cObgDR3asw4l9W1BfdobFvSxyPouJ2Sm+peTBp2tD0iln4AqYxayFs6WdZhLrIBPUwuuy9zxFTt3Egas3ZaecU2kkUxer8LNpf7SNfqUzF0FX6KGXi4HTjRd95vTZJ1NJBAJeaGViWDUd0MlaIRW3wGRQIxIOXvh7XPgb9TxQN2XAlobNYoWguQmtjXUQ1Fejta4cgppStFYVgVdxDs2l+WgqPoWmouNoKDqC+oLDqD9/GLVnD6L69H6UHt+N/H1bcXTXRhzesRZ7t61D/tG9qCvJR0dzBcv7sitb4FbyEDaJkfYq2WyiVyeAVdrIWj+rBJVQS/iIdcW3OPUuDly9iL7ElONDX3oqsAiGwzDI2iCrOgqP04JEKoUEwasrizmZTiDRNVPV2685pxsn9jdJJhm4lEo5JPxGyIVNULTzYDKoEApRLOv6Wr5k/2KJWBzKDikaairRXF2OluoytFSWoLm8EE2lZ9BQdBJ1BSdQe/4Yas4eRvW5Q6g8sx9lJ3aj6PAO5O/djCM7N2D/1jwc37MFTbUVELbUQcavhU7cDIe6jQXlvWoe4rYuN9Euy5T4tFNsqw7tTcXQKiTc9+gq4sB1GRGGErEQtK01KNvwHTQ7Xod73zNQHvgCHeUH2KotvoATiVRmOj7BXJeMuC/dzycGLrKEkwnwmurBb6xEXWUR9CoZAj5PV/yLLOJr/xtkrLKMBR0JhSHrkKC+shz1ZSWoLytCfVkB6opOo+bccVScOYKy/EMshlVyci+Kju3G2cPbcXLvJhzcthb7CFr7tkEm5sNuNUDMq4VVKYBD0w63RgSXkge/ho+UU4GUj4LyQnR2NMAkroOSXwF+bTEcnebsmfU4U05ZceBiyrgfmXtAMOhHp7gWbXtmQLb2KXh2T0Jo95NwbJ0EzerRUK17CrKNL6L98PewCgsQDrkY6LK8ytSScfo5ResNtjRUouDMUXS08+FxOS7AJ+vGX6vYc9jI/N0ikTCkEjFqK0pRUXwO5QX5qDx3CmVnjqMk/xAKT+zDuaO7cObQTpzatx1Hd2/B0T2bcfrQLlQV5cOklQHJGDrNerZQhl0tgk3dDhcF5hUtCBrELAUiZpOzFjam9lo2kyisL4KsvRXJRJx9EzMtmjn1ptsXXNkgLfuiZ9aui0ajsMsaYDqxEA3fDkPTjCfg2vk0jFsmw7R5Aqxbn4Jl8yTo14+Ba+ckJA8+B8fel6ErWstWi0l0XSuJZIyD18+kjHWUhtNugbydh8ryAjgcVqTSGdc+8ye9dmiRsrCj/+KJGNwOKyx6JXQyIUTNtaguOYfi/GMoPH4I547uw6mDO3GcgLVrM47v2YqiU4fQXFOSWXQjHkA6GQJSMdjMerTWlkLT3gQpr4q1uXGr+IiwEh81C9BbOuqgE1dDzq+AuLkSAZ+765yuD763m25bcLHO3ekEUslM4Wog6IWxYi8USydAPX8glAtyoJo/BJL5IyBckAPxilGQr5sAz67ngBOvIHl0GiKHnkPy0NMI7nkahsNfwCqsRCgWAvu9vM5f/RulX+I1fwkZtGrI2nnQ65SZ4mP2effc69p0Yc3FZAZadp0cXrMSAauKlQ5RfFPaWo+2unK0lBdBUF2GmoLTaCw5A1FDGWRtddAq2pAIu4FUplwIqThMWjlqSk9B1VEPrYzWXmyCV93K2jPH7HK2grVJVAMlrwLCpkpYjOrM+fwI+N5uun3BRXGQZIy5eF6HCYaTiyFbOByWuU/AMn8A/CtzYJo7EPVfPg7x7EEQL8iBfvUEuLZPQvLYS0gcfRnRIy8ieeR54MhUxPZPgmffizCWbYDNKL8QHs78cl6P9UVf2Oy4PmWtkdtBeq0aBk0H4rEwe88UsL+euFZ3ZVIlUnDarZAKW2DTKRCw6eFl4FIh4tDD26mFpqMFLkMHvCY59JIm2NRidKrFMKraoJPx4LerWfPCoMPIaiSV7Q0wanhIRA1AuhN+iwRhYzvgySScmtrrIG8ug7ixHGajBrFk/JK0DU6X120NLvqVpcVA5YdnQz37cZgWDEBkzRhg3RjE1+TCPG8ILHMGQvDNE1AtGIrwpgmwrx0Nw4aJ8B14AanjLyJ97EWkDz+P5LEXgEPPIrh7IgxHvmAZ0PE4Be4vmv3dx+XF5iq7JV9cu6583F+H2OcHwNFpgVmvQDwWvfD4jxU9M5lIQMBrQFXJOVjUcoSdVvgsVKytRNimRXtzJUtrCNjU0Et50HU0o7W+BIWnDqCjpRoegwxurQhOnQgqYR3Uwgr4rGIgbgWSFiQiOgjqz4JXfhI2Fa3808hqEhsrT0Or7EA6malFvN27Plyrbl9wAawDpmbHp9DMHwDbosGIrxmLdN5IYM0IeJaOgGX+MNjnDYRl3jB4l+XCMH8QHHkT4dowDtb1Y+De9QwSR6cBR6chdeRlpI68iNThyYjumwzHwbehL98Gl1WfsQTYMurUyeDSYtmsW8Byk5I0G5ZgawDG41FEIiGEQkEEAn74/V54PB64XC44HA643W6Ew6EMHH/CRXurKuD3oF3Ig4/NJP50xWIRVJYXorzodKb3VcCNkN0Aj0kOhbAOx/ZtQenZo/BYVJC11kHXwUPpuaM4uGsDWmuKEbBoYJK2QNpcDL2oBn5jG5JuJZs5TIX1iIe0cFslsBlE0EpqIRWUI+RSQiKohsNhYefArZd47bptwRWJBqHYPwu6WY/BsWggkutGI7VmJNJrcxFdMQyG2YPQuWgYTHMeR2z1CKTXjEJk+QiY5g+GbsloBDaMhXP9SFg3jUPwwFTg+EvA0eeROPICUkdfYLGv0L5nYTvxDewdNQgGg4jFEwjFoghHwggFgwgGA/B6vXC5nLDZOmEymWA06mEw6KDXa2GkrgVd93VaNTQaFVQqBctfoqFWKdljVosJfr//toBYBvQ0kRKBoLWFfXY/VfSJ+fxuVBafRenZY2jnNyDotMBhVKK9pRrnju/DIZaXVQKHXgqVqBF6KR9iXjWKTh+GUSmCrr0Z6tYq5v4ZRbXwaPmI2aSIO+VIetVIeFRA2AjEOxEPGRAO6pBOWdFplcLWaWQNDTldu24rcFEmfPa61gkr0L5oPFyL+iOZNxKpvFwk1uYgtX407ItyoP1+AExzB6Bz0WAgbxhSq4cDq3ORXJMDx6Jh0CwcCue6kfBsehLW9ePh3v004kcyrmPyKMW+piF9+FmkDj4D5/43ISvYCLmgAVKVBlKFHB0SMaRSCTo62iGXdkAuk7DHJO0iNtrFQojFbRAJWyEWtXbd0r8FXbeZ+8I22pZ5TKmQw2I2wefzIhKJ/mohlk38jUQjLLb1U98mPV0l72DQKj57FCXnTqCm9CxLbSg8eQiHd21G8ekjkLc1QkfNAJUiKIWNEPPrUF9+nrmGJkk9zO31aC0/yxJRdcIqNnsY7ZQgbpey8p6kR4U0AStiRCpqZi6k3a6GxWxgeWm/1r/Xz6HbBlwsgJvIBD99bgfkOz+GefZjSOaRNTUS6TW5zNoKLcuBftZAuJfkoHP2E0itGYV03ihgzWiA7q8eAawagcCKYdAvGADDshHMdXSuH4vOTRMROPgcUidfRvrI80gfmYrUkWnA4WcQPvgsdEe+gqD0CARtreDzmlFXX4f6ulo01tejuamRjZbmzGhuakBTYx2aGmvR3FSHlhbahx5rAK+lCc1NTWhsqGeDnkePNzXWs8Hn8yASCaHVquGw2xCJZNbi6/5ZZN3TW/FiycwB3jhRM8H66nIUnz6MknPHUXTmKApOHWLj7PF9OL5vK2qK8mGm2UV+LbSSTLeIkoLTOHfyEBqLT6K99jwaS06AX1mIxtLTsMlbEDSKETIJEbGIEbNJkGDwUiLhUyHl0yIZ0EGnaYfP6828Ky4F4pp124CLgJVIRlh5jrLyCMRzchBYNpRZW8m8UUgRwNaPgnXuQDgWDoF53mAElg9j8S6symVgI6ssmZeL1CqyvoYhsWYELPP6Q7cgB64NufBtHQND3lg4dkxB8sTLwPEXkD42jc08Jo4/j9i+p1A7byQkLdWwWO2QdEjR2NCI8rJiNqoqy1FTXYnamip2S/+urChBVWUpqqrKUFNdheqq7PYqVFVWoLKiDBXlpaiuqmCP19VWs/tVlWUoLyth23n8FqhUStgZxDLB7O76qRfLT33+L6EMvDP3nU4HKorPo+TMEZScO4aSM8dQfOYoCk8fwdF9m3HmyE60VJ6DxyiDSSGEXFDP8rPyjx/G2fxjaKwshaixirmRJqkA0qYytsgrFVP79W0Im4SImcWIdXawEp+4Q8HqFDvVAnRaDKweNvNDcut9jr+Ubhtw0a9ZMp2Eo1MN+aZ3YZwzAIk1I5FcMwqptSORWj8CgZXDGbBcCwbDNIeC9QSpYcDakUhvGovU1vFIbZuA1NYJSG0cy6AXX5sD7zKyvobAtHw4/OvGwbJmLDo3j0dk/1Skjr2I1IkXETv2GoyrR6J81pMwKRWgkEYgGIat08ZcvObmJpSWlqCoqICNwsLzKCo4i9KisyimUXgWRYXnUFx0HiXF59n9wgLadp7dFhVm7peWFLDb4qLM9oLzZ3D+/Gl2W1ZWjJbmZsjlcphNZoRCVMh7Pakalyprud2K6n7uSlkHSs+dYsH34rNHUHT6CArzD+Pssf04sX8LSvL3Q9lWC5dRCpdRDqtaDJWoCVWF+Th37AAUwlYEHWaY1BKUnTrMlhPTCKrALz3OVvGhdRODOgHCRhEiZjHi1g6ETAKWXuH1ZCYXWALsLWoB/xK6bcCFrtk8eXMxRN/nILZyMLBuRMYNXDsCyQ0joZv1BDyLh8GzYAjCK0YhuTInY2FtGov0jieR3jMZ2P80UvufRerQNCT3P4PktolIrx2JxMpc2BYOgXLRUNjyxsC7aQIMa8bAvvs5JI4/h/TxqfDveRId29+GQdKCaCSJQDTCLKBQKAKfLwCDwYS2tlaUlZXg9Jl8nDpxFKdPHEL+ycM4feoo8k8dY+PM6RPs9tTJo93GEZw+dRyn84/h9Gm6zYzu+508cQQnTxxlzz9/7jQqK0rR0tIEo1GHyGV6Vl0OThkLIbPYxA9Fj2UcOiql+WEQ6tLUkF/igs28Xqb7B7+5lsGq9MyxDLTI2so/jCO7t+D04V0oP3MYZiV1VpWxhWQJXrQAR2NlEY4f3IWCk4dRXXIGp4/uQ9GxfVDzynFi91pI6s5D3lwKfsWZTKtmVTMCej4iRhEktecg5NWxWeZLz4nTtei2ARd9JegrIszfDNWcgcC6HGBdLrCOwDUc1oWDYF4wDLE1oxBYNQzu5YPhWZ0D+5oRsK0dBd+WiQjtmILI3qeQOvwcUiemIX3iBaSPP4/0ninAxjFI5I2Ac8UY6BcMgnVlLjwbx8O6YQzMm55E5NBLSB5/EYEjz0B98B1IG07DRzON0RTCoTiikTjC4RhLfbDb7ZBKO1BVVYEz+Sdx5NABHNi/FwcP7MbhQ3tx5PB+HD1yAEePHsDhw/tx+NA+ti37+JEjXduPHMCxowe7tu9ht9nH6TiHDu3F4UP7cezYQRQUnAGP1wyLhSyxAKsouOTz65YYyTpipCjhM45wJMRmTEORMDx+H6wOB7QmC8RqLSoFQpyubUS1UAyd3YZQOMI6MGT1S1oZmZdMszSTmvIiFJw8iKL8IwxCBflHcPrIXpzYvw2lZw6jgWJWWgkDl8MgzdxqJSg/dxL5R/fj1OG9OH5wD3ZtWg1R7Xk0l53ErnULYZU2ofbcQfArTrOVqdsqT8KpbIJN1ojGomOQinhIJLjZxB+j2wZcpFA4CNG+BXAuGQSsH8EsLqzPQWxNLhRzh0K3eDQ6lw6FY+VweDdNRHDf8/Dufx7eA8+jc9skaPNGwbBuLLy7pyB+/HngxItInH4ZifOvAoefQ5hAte452DY8D9vSYVAvzoV97Sh4NoyCcc14GLY8A/OWpyBf/ASa170Hh8kIn8+PYDDMrC4a4XCUjVAozLYZ9EYIWttQUFCEQwf3YdfOrdi+bRP27NqOfXt2Yu/uHdizezt279rG/r1v707s3ZN5jAb9m27pefT4vr00dmLvXtp3B/bR83duxe4dW7F35zYc3Lcb50+fRBu/BXqdjgWOacaru7IlMulUApW8VuwrLMeW/EIsO3gMCw8ew+Kj+Vh49DTmHD2DOcfzsfDkGSw/dQ7bCkpxpq4RIqUKNocTiUS2VOeXAFfmNS0mHXh1FWipKUFLdQkaygtQV3oWpWeOQNxUDq9FxXK2OmkdxS540aD7JaeP4vTR/Thz7AAO7t6GklOHoGwpxYHtq8GryIewtghlp/bBKKlH7flDEFWfgUXahI6WMshba6Bob0M0mml2yOn6dFuBy2nVQ7brGwRW5gJ5NIs4CtgwHLblo6CYPxyW5SPhWT8Brg0TYMkbA+O68TBtGAvr5jHw7HkKseMvILjnOZjXjoF9x2REDz+PVMGrSFa9j0TxO3DvfBqKFSPQvmISdGunwr16NLSzH2NWm3ZFDuSrJyC0+znEdk+EbcdLENYVQadTs2RS5jKGIwgGKemUQBbuAlgGaG63l1lhZWWlOHz4ELZt2YzN6/OwddN67NiyEdu3bMDWTXnYsnENtmzKw9Yt67F920Zs37aB3W7bSmMDNm3Mw+ZNa9n9Hds3Ydf2Tdi5fRN20PYtG7B5w1ps2rCGHZdgR65lY0MtdDoNS7PILP+eUSKZwOlWCQ7ITFhZ0YwFZ8ow/dBpfLbrEKbvO4yv9h3FFzt247Otu/HJlr14f9NOfLBhKz5aswGLduyB0Xjl9sTMwsu6oj8D2wjINosBTqMKAZsOvk4du6XVgawqMcJUwmNTwygXwK7rgFMnhUOXsbgsGjGbdSRr69SRfTi0cyNaK8+h+swhHNqWB3lTKY7vXIva84chbSlD8fGdMAir0dFQwuJl+o4WyER81omC0/XrtgIXxSn4K56Hb9mQDLTWjkRwxTC0zx4M04oxcK8eAduyHGjmDYN8xgCoZg6EfvYgqGY+BsOiHHSunQD3lkmI7Xka9nVjYd44DrGCt5Dmf42EYDrcp16CfekQGGb0hWLOcITWjmJ5X5aFORDNGgRT3njgyPNI7XkWvq2T0Xp6J8ydNnjcLoQZoMIMXBl4ZW8jCAQyt5EIuZIhmExWNDc2oeBsPvbs3I71eauxds1KrF2zDHlrlmDN6iVYvWop1uWtxMYNa7Bh/So21q9bhbV5K9i2vDXL2f0NG9Zg48Y8bFi/+sKgx9esXoY1a5Zhbd5y9rytWzcw17SmphxyeQfcLidi0TCOt0pwzptAeRgo9kRxUG5CXkUTPtm0E2+u2oTXl23ES4vX4IUlq/HqivV4N28b3srbjm+27AG/rQ2BUAh6qxlihRIt7RJI1Gp4/d0Xtkhm6kpTmVm3bPuh3nV9dKPP2GbKrHTtt2oyt51aWJQimOUCxJw6WJVtMMhaGaxcehmc+g64DHIYlUKcp/jjkX04eWgvTh3cgdL8/Ti8cwPaKgtQc/ogTu1eCwWvDGWnDqC16ixkjUUQ1xXBoRGzBTQUklaEwlyn0x+j2wpcyrZqNC0Yhciy/kivG4X0ulzIZg9FyWf9IJ83GMZ5T8CzdDASlKu1biSwluJgOcDaXMTzcuFfNhy6BcNgXDEEqW2T4MkbC/P2KYgJvgUMixHgf43O1WMQ/vIRROYPRDovY9khbzSU8wdCtWos0oenIbFnCoKbxqN+06fQmIwIRjNxonA4Y2mR69hzELBoMLcyHEU0EmMzUjQjWVdbh0MHDmDVyuVYunQhli1bgGVL5mPp4nlYvmwhVixfiJUrF2PVyiVYsXwRG8uWLsDSJfOwZMk8LF++CCtXZLavXLkkc7tiMZYvzxyLjrFs6UIsXULPWYC8tSuwf98uVJSW4HC9AAWeJIoCQGEgjfIYUOKN45Nt+/Ha8i14a90+vLl1Pz7cuh8fbdiOt1atx7trNuOLzbux9uR5bDpfioVHjmP67kP4dPs+fLf7MDafLsaZmkbwZTJ4/V05TgDilGxKq7921/Wx6hK5nA5YNDIEOrXwda187TIqoZcJ4NR1IOk2QM6vhlkpzMS19B1wU4xLL4VWKsC5E10W1+F9LEi/a9s67N21CY3Fp3By13q0lJ0Br+IsSo7thpJXxfrWm6UtbBVrWo9R1dEGf+Dyqw9xurxuK3C18yrRtGgMYqsGsUJq16oJKJ8xFNIZg+FZPAixlQSpkUjn5SCRNxzxdcORWDcCqTx6nGCWi/iqHJjnDoJt1TCWFkFF146zbyCtWoyUfAE6978I/Td9EV8xBMij544E8nLgXDYElg2TWEF2ePfT0K4cDv2256ApzoNZK0eYrKnQRdewJ7h6AixjhYUQjWTcS4vZCqFQiLNnz2D9+jwsXjwPc+fNxNw5MzF39neYP3cmFi2YjWWL52IZAWsRjblYtOB7LJw/EwvmzcDC+bOwZOFsLFk8h+2zdPFcLFk4B4vmz8KCebTPLCyYOxMLF8zCwnkzsXzJIuytbkGxDyjxE7DSKAkABc4IPt19FK+v2YG3N+zGG5v34ONNO7C6qBKLz1fgw8278fbabXh70268tXEX3tm2Fx/uPIQPdh/Be7sO462t+/D2lj34fMd+LDl4HLtP5qNVImLdZq9EqusJlVFTbqfNApuWwKVj0CKLixaPNcpaEXPpELVroRI2oFMjZjlaBCy3oQMOgwwKUTPyj+zFyUO7cOLgTpw6uAcn9u3Bnu2bUFlyEsKGItbu+czB7WgqPg5RbSEUgnp4dGJWjN2pErBOFFR/yun6dVuBSykToHX1C4isGoTomuEQzpsI4eJx6FyaA2zIuI6pNcORWjsMqbXDGbDSeSMYgCgRle6n19Hjw2FZOAj2VcMR2zgW+rwxiNR9jbRoBiLl78G/9xnEN4zOPI9iaetHIL5qGMyrR8C162no8sbDvn0ikieeR+TwVJiPfAlD63l4PPYLcS0GqV7AdQFeXbd+P9U8Ujwsxp7rcnuhUqlRU1OFPXt2Y/mypZg9czpmTP8CM6Z/jjnff4W533+NebNnYv6cWVgw5zvMnz0dc2Z+jdkzvsTsmV9h/pxvMW/2dHabGZn7c2Z9je+/y+wzd8bXWDDve+xr4KM4ABT7wQBG9887gvh05yG8unor3tq0G29vPoD3123HrnYlisIJnLC4sEOsxKLSanyy5xDe2rgDr+VtwQvL12HK/GWYMm8ppixYiSfnLceEmYswYcZCrD54tBuzulIZaNKgm+vIImI9OnFcTtRVwmkxMAvLb9UycLnNKuYmOlQiJDw6eMwKGKQCFognWLkMUniMUrhNCkgFDSg+fRSNFQVob6mBup0HjaQVEl4dLCoBom4NNKIGNJbno77oGHjl+WzRWLK2aNAismJ+A1xuV89T43QNuq3ApTcqUZf3KvwrhsCxIheVM0bBtGocbIsoPYJcui5IXWEQtLBuGOJ5oyD9fig8K3PgXTMC5l1Tkar7DMny95DOfxXpLeMvWGkpOvb6XMjn9kfD90PQuWky4hTrOjoV6WPPIH1sCjRbpkLfVolgOI5gMJKBVjfLKxvrutLIACwzI0mup9PphLSjA6fzT2L92tWYM3smvvziQ3z+2Xv47NP38NWXH2Hm9C8YjL7/7gvMnvEFvp/xBb775jN8/cVH+PqLDzFj+if4fsbn7HEC1vczvsSsbz/Hd198gm+//RpHWttRGsyAq8iXRnEQOGMP4JPtB/DG6m14iyyu9fvw2ZZ92NuhRkkCKE4ARXHgfCiOs74gZp8txpNzlmLi3GV4av5KTF60GpMW52HSwjV4bslaPL1wNZbuOwILJesajWhTalDWKsDh8iqUtggg1xvg8XuQTFBpUzeQUW3qZWYtA34fzGopvBYtvFYNi205DQoYOgQIW1RIeDTQdzQzcDn05CaSxdUBl66D5XCpxC0wyoTwmlTwmTQIktVGPbvEzfCbpUDQCLuuHdr2RlgULWxxWJdGCLdWDDe1clYKIGiqhd1h63lqnK5BtxW4rA4r6nd+AffSwdDOHwzevNHQLx6F1JqcHwCqt0EWF9t3zTAgbxSsi3JY/ldo1TAoloxG4swbwJnXAOrRtWU80mupjIjANYJZdNKZA9A2bxgie55B/MBkpA49jdSxafBuH4vWmSOgb+chmgLCNLtIrmBvltZVRna/bIA/FAwh4A/CarGiproaO3fswIrlS/DVl5/ig/ffwAfvvYaPP3gTn3/6Lr756iN8+/Wn+PbrT/Dt1x8zcH3+ybv49KN38MmHb+GLT97DN19m9iFwfff1l8iXqFAWAkrJVSSri8Bl8+Pjbfvx5uodeHvjXry5djdm7jmOQwojiqJAYTSN4igYxMoBzC2qwqR5KzF58Xo8vXQTpizbiGnLN+KNVRvw8tLVmDZvJd5YmoeP127E2+u34K31O/BS3ha8vGEnXlm/DW+t2YT5+w7hTEMT2rV6WJ1OxC706eo9sTPg98KilsLfqWGBeRoOvRxmmQhJlw5JjxZyQS2MUgFLOGXgoviWTsJAJhc0srZIwU4t/BZ6vhp+iwoKXhVCVikQMMCmoa4RTXBq2uCiXl0aIZzqzHCohRA01sBm48D1Y3QbgSuNQCgM/vE1aPnycSgXjYU2bxIU3w9AYv0YFofqCareBhVig6wu5kbmQvbto3AvGYTOxTnwbZsCHHwO6d1PAZvHAutHZqC1cRRcy4ehZeZAeLY8CeydjNSeJ4EDU+DaNBH8bx6HNu8ZuNrOw+f0IBCkfK4wwl2B+ozr2OU+9gBUz0GuY8996LmZWckI/IEglEoVCgsLsWnjenw7/Su8+84bePPNF/Heu6/io/ffxMfvv4GPP3gDn338Dj77mMD1Hj5+7w18+M5rmfH+6/jonVfxxSfvIl+qRFkYKCNry5dGUShjcX264yDeWrsL72zch3fW78G3Ow7hoMKI4jgYtIojaRRGM+D67nQRJs5ZgcmLN2DK0o2Ysmg9XluzBevqGrCqogbTj57BK1t24MkVazBp9XpMXbcVr2zdi9e27sfLW/bgxQ07MXXNJjyzbA2mLVqOdxavRN6BY1Dq9F1O5Q8V8LqZheWzqDLgsajZSjx+kxzwGhGxK6GTNMOiEncF5qVdowNOgxxScgnV7fBZ1fCYlWzQbKNKUIOwVQYEjGyRDJ2ogYGLLU2mboNdRatZC+HUiiFsroXNau15apyuQbcHuKiJX9d/HrMGp2a+AOG8XHSuHg/7wv5IUNlPL5DqfeRmXECacVw7GrLvHoNvYX94Fw+FZtEwYPt4YMMYZmH5Vo2Ab+1IRLeNg2JRDtrnD4dh9UgEtj0J7H8K4e0TIZg9FJq1E4DjzyJ86n2oCjdBKGiByeqEx+1js4ehUJS5fmRFEZi6w6k7sC4Hs4tWWyatIhpNIBqNw9ZpR0sTH8eOHsO8Od/j3bffwOuvvoA3Xnseb7w2DW+98QLefvN5vPf2S/jo3dcYvD5+93W8987LeOf15/Hhu6/jlFSJ8jhQGkijzJ9AaSiNszY/Pt91CG/m7cBbG/fg7Y278c2OgzikMqE4CRTFukY8jUoA3548jwmzl2HK4vWYsmQ9nl68Hq+v24Z9eg3qABREotihUmNZTR2+PXUWr2zcimcWr8LE2UswdtYijP9+MSZ8vwSjZy7EsK/noP/H32LopzNxupyOnqmwZwDrsrworcJp64RTJ2OxLZ9VC49BAY2wHlG7BmmvAW5jOwwyPmy6ji5rSwa7ngLzEriMMigFDbDryNVUdYFLzfK8zDIeYg4V0gED7Boh9OLGTGdUDVlZXeDSCODSidBaVwWrObsUGafr0e0Brq7IRxJJtpBF28FF0C8bCvO8/pki6x/A6RrH2hHQzR2A0IJB8M3vD+l3j2Yst5U5iK4ZCf2SYQjsfRbhg1Pg3jkZ8W1PwbGK4JUDy5oxEM0fAunyscDJVxE/9iycuybCuvMpdBydAbmoFZ2dDuh0elg7HcxtvOg6EpAuD6neHsuO7KxlBmBxxOMpdiy5XIXKiips27IF07/+Cq+98gJef3kaXnv5abz84iS88vxkvPrC03j7tRfxwduv4L23X8bbb72KrWfOodAeQDlZT2GgPAScswfw+e7DeGvtdryzaR/e2bwb3+48jOO6TpSmyNoCirvAVZEGvjlxloHr6SUb2HhmyUZ8tHEPDuh0qABQCqAaQA2AklAY29pFmLp0FYZ8NgNDp8/H8O8WIpfANXs5xsxegTFzVmLywjyUNrawv32mD9tFu4uy1Y36rvwtSoOwaBh0rIpWlgIBvwVGWQs07Y3MurrU2iJwySFvrWMuIx3DY1axY9jV7bCrhUi4NUj7dLCpBNCLG5ibmLW4aDi15DoK0VJdCpPB0O1byula9asGV/eZJfp/IpWEWtSAjnXToJ39OAIrRiC2lsA1LBOPus5BNY6m+UMQmjMA/lmPQvFNP2DpEGD5MBgWDoZz00Tg6HPAseeQOv4SEsemIb1jIiJrR0Awexia5g5BbP8U4Ahtfx7KdWMRPPQ8PAeegerg5/CbhXD5/NAbLazbqd3qgN/nQyAQZO5kb65jb+DqCa/sCASD8If8CIZDiMbjSCTScLu8kMsUKDh3HgvmzcV7b7+Bl198Fi9MnYznn30SL057Ci899ySee/ZJTJs6EW++8yq+mjsbKw8fweF2JbO6ClxhfHHgFN5ctxvvbD6AtzbtwsebduOw2oyKJFBK8a14BlzlBK7jpzFh9vIL4JqyaB0+3X4Ax6ydzJUsSyZRmkqirAtexf4A3li/E7kzlmLsgrUYuyAPY2jMX43Rc1cid/YKPDV3JcoamjN/+x41kdR5Vi0Tsyz5DLjUMEr5CFjkSPkMSPnNMMtaYZDwmPtHWfM0MpZXB5xGOdoaytGpkTCLjcBFAX6jjKwpWjNRh5RHzQLwOnEDnD8AVyZITzOSVJHA6fr1qwZXZq28NBLpFDwGCXgH56N6zngIZzwB96LBSFFXiHWUtjCyq+D6escIqGc8Dv83feGe3hfGbx8DFgxAbCGtDtQH0qW5CO9+EslDzyF19MVMf/qDTyO4cSJ4CwbBe+JF4MQ0JA8/i/SRZ6Hb9CTse56FbdckBHZNROzsJwhJzsPttMLmckOjMaBDIoHRaIbL6WEdJTLW07UF8HuC6+LIxNBoRjIWo573KZalb7HY0NjQhK1btuGTDz/Aqy9Nw7RnJ2LqlLGY+vQEvPjceDw3ZSQmjhuKp58cg9fefA1fLV2GNafP49O1G/HK7Pl49ZtZmPr+h3j1869wVKZDFVlN8TSK4ykUk8WVAqYfP4sJczLgembpRjw5fzW+PnQS53yBDLjSaZSlUyhPp5nlddzciZdWb8bwGYsxZt5qjJ23GuPmr8G4+aswZu5KjJi1ApPnrERlU8biInX/EWMziqp2BAlcNBtoUUMrbkTUpUM6aGY5XDaVBFa5ECa5ABpJMyv7oXpFl4lcRimaqgph1XZkSoUouG/TQS1uhlMtBrw6JF0q2JUC6Mlq016EFhs0u6hrR1NlISv54nT9+pWDK8kWeW2vPoaOza9CuTQXom+fgHPRAJYZT4F2lkFPcasfQKn3wSwtuk9F2huGo/2rvnB+/jdYPnsI0blPALMfQ2LJMGgXDId0US4UK8ZAt2o0ErufQfLoc0gcfQ6q1RNhP/EKEhXvIl3wCtInX0L6yHPw7pwM9eox8O5/GjjxLKJ7psC1eQp0O9+Ctmw7wgEnfJE49AYLpBIZC7KbzVZ4PD4GoEwsjODVPUB/NWhlRncXkgZBLBsLo+0GnQFFhYVYvHAh3nnrdTw7ZQImjhuBJ8fnYMpTo/HsxJGYMm4oJo3JwVMTx2Ly5PF4ZvJYPDtpNJ4anYNPvvsMhTY3A08JWV2xFLO6yhPAV4dP48k5Kxi0nlm6GZPmr8Y3B4/jvD+QcRVTGWhlwXVAbcDU5esxdNZFcNEgi2vsvJXI/X4Vnp6/Gk1twgvfhQv5XQA8bjfMaopXyVmdolWdmSlMB21AwIygTQmNsAnqtkZY1CJYNWJo25uhaKtnyamU0yXi1cJhUGSy7q0aBO16qNoa4NaIAY8WKZcSDmUr9KIGOAhcmrbMrCLFujQiuPXtENSXMZeV0/Xr1w0uqv5vqwBvwTi0zOoP1ZJc2JfkILRyOMurynaHSNNtL5DqDVjp9RngUfCdGghqP34Yzi/vhuL9e5GY1QeJ2Y+y7PrUhpEIrh4G4cwBqP/6CcQ35gL7J8G6eTJkeWMRPfca0gSuyreQLnwLOP0ia/UcPzANsSPPwLN7CuSLc2FYPASO1cPh2D4JkYZVSNjlSKTTiCRTMBpNkLRLIJMqoNPqWSE2pVKwWUgWA8uMDMwuD6+e0MrMYmZywghcmdsIEok4fF4fxEIx9uzahU8//hhTnpqIcbkDMWb44xg/chAmjR2Op8aOwFPjchnExo8cgBHDH8Vr772KbaWVOG1zMhjVA8z6Ko6l8MXBE5g0ewWeW0ozg5vx9KK1+PbQCZzxeFnwvjyZQkWa4mFp1ALY1aHA00vWYsT3Sy9Ai425GVcxZ85KPLcoDyK58sJ3oXuMi9pZN1aXQcyrg6S1EaLmOihFPGZJxXxGdGqEkDRWwKmXsXiWpgtaCmEDlIJ66GVt6GhrhsuUKc6mHDC61Yqb4NW3A14tkk4l7IrWLlcxk/6QBZeTwKVrB7+mCDrNxXPkdO36lYIr88tKU97GQ1/CvmQAxHOGwLRiFGxLhiPFoEV1iJQJ39XephdYZYCVAVw2rpVi/6Z2z7lQf9UP7g/vhvHDu2H65EHEZjyM5OIhSLLjDkdo9QiIPn8YpvkDgU25CK0fBeWC4QjsnAScmIrk+deRLn8H6fL3kCp5G6nTLyN97Dng8LNwbH4SkiXDocsbCdf2KWz1oPjByYif+wgJeTESMT8DczyRgNVigVyugFQmQ4e0A51WOyLhBMLBOAKBTOJqT1j1BFf3ThTdrS5yGTOtdujfEbaSEHVvjcdSrOVOeWkZ1ufl4c3XX8WoUcMxdHA/DB/UF7lDH8fo4f0xcdQgTBo/BE+NGoanJ0/EBzOmY8H+fdjS0IxzXh9zBT87egYT5+fh2eVb8eyKLZi2aC3mHj6Fc/7M9opkCpWpNBsNALYKxJi8cBVGfr/sEnCR9TVm/irkzFqGlxatgc6cWfYrK2pqSP/ZbRbw6iugl4ugFPOgEPMhEzZD1FwNlYQHuaAOelETgp1qFhPVd/DgNivZArFOrRTixhpI2prhtWaA5bdlah2NHXwEzB3M4qIfmE4CV3sDm0G0KfksCbVTwYdDK4ZHL0FrXSl0GtUl58jp2nTTgKtnkmDPso2et72JtpB7mEon2UVtbCqEa91oWBYNgWXFaOjmD0JszVAkLwDpWgYBayRSa3MYuJLrqVvqKNjnPAHjx/fB/dFd0L51L3xfPQLXrL6IUMucdSMRzxsJ/hf9oJjej+V90epBalpgdulQpLePAXZNROrgs0iffhmp4reQIoCVvoUUWWInXmRZ9akjtOzZiwD1/qLibAryH34azl3PwV64AHGHFJlOWZnyF4fTDoVcDoGgDW0CIesiQRZXFkI94ZQFWk9gZS0uus1YXJmUjEg4hkg48+9sLIw+9HA4AZVKg6KS85g+/UtMnjgOw4Y8jsED+iBnyKMYMexRDBn4EIY8fh8GPXY/hgx8FE8SxGZ9g6WHDuL1hcsx5oPPMfadD5E77UUMHz8R361di5JYlAXkK1IZa6sqDTQBWFvXhAlzliJ3znKMmXsRXOPmrcFochVnr8CzMxdh/6GDbFk36n6bVTKVgFIhgVYuRNhthdemQ9BuYGso+kxqlg2vFvHhVItYXSItO9apEkHaWoN2fjU8RgW0HQIIW5tgJ1eRgYviZBpYFQIELe1IuzSIWxUwy/hsxWudsBaatmqYpc3QtzdAxqtgsS5RUyVbkZvT9eumARcT5VulUojH6aJIsKWnMstPZRZUZbtcAVyUJk0Lqiaps6XPAeuBL9C5YAAsK4bDvIR6ypOVNRzJtcNZZ4gfQuqHgywnZm2tG4XkhjGIrKEi68ehff+vsL39F6je/AOsH/0N0QX94aJE1AWDkFw/DrIZj0H4SR/EqGkhuXoLB0M7dxAiLCF1JLBpNLB9ArD/GaRPvoB0wWtAyZtAyTtIFL6ORP7zwNFnkT70LNIHngEOPI300Wfg2PM0DJtzEdj1JIx73oKurRCBaBisiXIqiWQqDbfbBalUiubmFjaoJTQF8rMWVBZMV3IVsyNrcdH97PO7D4qDZRsN0t+m02IDv4WPLVs24a03XsWY3GEY3L8vBvZ/CIMGPowhAx9GzsCHMLTfPXjs/jvR//EHMXT4Exie8wRyCHD9H8SAh/+C79evYjOI5FZWptOoTOMCuFZU1rCcrdz5Ky+xuMbNWY0xc1dh1Lw8jPl8FsZPGIO3X3+RFZQXF5xlllY0EmLLwXUaNEAijFTYg5TfhZTPgZTXhqDNCItCAre+A/r2JphkbayR4KlD25F/dBcr6aHYVhu/EVaN5KLFZVbDa5QjYlMg5VQj3qlkC8R2NFdC01rDLC2dqA7CmvNoqyuEuL4IjRXnYOCC8z9KNw242GIWiRgS8RjiUfqlJwuBLioqWwkiGgmzbdR1Mwu0nt0z6T61FI6n09BVHYRlxTDoFufAsGI4y2xnnR/W5SC1juoNL+8eXgIuttZiLoIrR0H/zSNQvv83mN/+K5Sv/gGy1+6A+aO/IryoP8uQp1lK56KB0Mx5AuqZTyC0ZChiy/ojvnwgW+rMs3gg0uuogDsH6Q0jkd44Cumt44E9BKVpwJmXGMCSxW8gWfg6s8bSx6exwD0OPoPgzqegXTuaBe8Vq8ZCu3YEvEemwVC6CV6XGdEkNcdL0XryCPgCrA7O0mlhEGtsbGS3drvjQiIqfb7ZrPreRtZK6w1cZInRIMsrFqN/xxCLZgBGi9VQraVeb0BlRSWWLV2M556bgoH9+2Dg4w/giX5/Q/9+96H/ow/g8b5/wxOP3IP+j9yNRx+8E/0e/Av6PXA3PpozE+ftdpSlUiwgT4modMsDsKSoHLnfzMPIeSsxZt4qFpRnqRDz12Ds/NUYtXA9xn01C48//hDu/+vv0eeBuzA6dyBef+U5zJk1Hbu2bUZDdRmcVgOifjciPheiATfiQS8iPg+smkwLG6WwDtr2FtbmhnrPnz++F0bqhqqVQtouhF2vQMiuR9BhYEF6r1GGmF2JtEuFlFMDTVsN64Lq1klglfGgFlTD1NHEZhXNsia0VJ2Hnotx/Sj9DOC6WKFPVlPWcvqBpdTt3wQgglIiFkEkHGR1ZF6vGx6PGz6fD8GAH6FgZoRDQXahZGIt3SyyLleRFh8IRsJoPzQf8jn90Ll2DHTzBiLBMt5pibFMm5of5GT1Ai0CHd2G80ZA+dlDML93D3Sv34GaZ/8bbe/eD/+8J5Cg3lx5wy/EtRJrh8O7fDgCa0YikTcMyVVDEVn0OGJLByK1chjiKwYhtZpWDqKZyZGsHAhbJ7AyIbKucHIacPZlpAreRKrwTaTOvoLkqZcQJUDljYd/x1OsK6tu/XhYt0yEe+dEBA5PheH8QpblHU0kEU+l4PcHEAj6WRM++hu4PR60t7ejqqoKYrGIdR+lVbQJPlkrrOe4Eri6A4zgdRFimVvmRnZlqVO6hkwmw4G9+/DVZ58hZ9gA/O2eP+Bvf/09Hr7/L3jskfvwxKN/w2P9/sqgRiAb0L8PxkybjG+3rMOedhEKfV4W0BcBWFxM4FqI0QvzMHrROoxdtA7jFmTcxLEzlyD324UY9f5HLN424NG/of+j9+Kxvn9Fv4fvxON970HOkL54ctwwzJv1FZpqy9HR1oiW2lK0NdXAZtLArJHBqBJCL+exgHynVsIC9Mq2OpZWo+1ohVqlgJOaEFJXCZMKNm2moNqm4sNnECJgkkDBK4eitYp1lJA0FGegpRbC1NHM9jPJebAatOzvk7kkruBNcLpEPwu4kkn6Ugfh93nYwgsEG4IPDer0GQlHkexaJIDAQ9P3XrcLfo8LHreTQSsU8CIU8CEc9CEaDrBumwQ1doxwmFlkBK8swNgr09qJqQQDmLR4P5RLRkG36AmEVtDM4agfwOpK4KLlylhLmo3DYf6+Lyzv3A3Le3dB+eHdaP+oD2QzhyCUNxTYRJYWWXE5SLAZysEsVcI2dxD0sx6Had5gqGc8huSSgUgtGYTk8sFIrRgKrKJi7a7X3TgSqa1jkNo5AakDk5GmpNVTLyF99lWkC15H6vybsO19GrZtk+HZNgHGtWORPPgcYoeeg2XLONh3PYPAwamw5X8CS0clwpEMZIIBH5Ksh1XXXyZNi0P4IZFIUF9fj7a2NqjVWjYbSbDp7kZmgdWbq9ib5XURXBdHPJ685IeLhsvlRllpCVYuX8YC+kMGPYYH7v8T7rvnD3jgb3/EQ/f/EY8+8hf07XMXHrrvD+j38F8wNGcgXv3sAyzPP4J8jQrTj57A0M9mYsQ3s5H7xbfI+eATDH/zbeS+8jJGTpqMYePGYuCQxzD4sXsxtP/9yB36CEbn9MWonD4Ym/sIxozsi5HDH8GEMQPxzRdv4/TxfagtOYf25hpI+HVob22Aqr0FFpUI7c0VrPTHY5azflzU+dRm0cHlckLEb0JjVREqCk6i9PRRlJ89jvqSMxDWlkDOr4GkpRwWBQ+dKj4U/EpY5C1obyjG8V3rwKs8A5dODGV7K1sgJfv34XRtuuHgSiWTiIX9iAR9CPrc8HmccDttsJoNrLzBYrLAZrXB6/Kwi4j6rdvsNtipdsxhY7AjWMXDATYSBK1wgMUmaDDrixro9QKuTE0i4PY4YM5fAP2SHDiWDUZiw7XHtGhQMJ4sKGwcAfuSEdB8eA863/sTVG/9Ec55w6E9shyta9+H9NOHWYF1ily+9TlIkgu6Pge+lcOhef8u6N+5E/K3/wTtV/0QWTkaycX9kVrQF2mKe60YBlBaBnWboLrHDbnA5lEscJ/eM5ElqoLa3px+Gd6jL8C462kEDr8A7YpcBKnzxN6JiB96GtHDU+HZNQmW7U8iePhpWPa8AMHZrbBb9YjEyZ3usYRY18VBVqtWq0VLSwsaG5vQ2iqAzWZnsMn0vM8sndYTYFlYXRlcmfsZcCXZayUSsS7Xvut7kgJMJjNOnDyBOXO/x7PPTMbjjz6E+/72B/R5+C945OG70eeBP6PP/X9En/vvQL+H/oR+ff6CseNzMOnFqRg8cRyGjslFzogBGND/IQzu/wBGDOmDMUP7YsywvpiQ0wcTcvth4ujHMGnM43hy9BMYn/s4xo14FCMGPcissEcevAv33/N7PP3kaJScPcG6PVAiKiWXtjVUQi1uYe1r2ltq0d5cDVlbEzrNevZeYvEEeA11bKENSo2Qi1qgkwvhMmsQdFrgtxthVJBLyINJ2gRlWw0sCj7K8vdj/crZOHt4J6tblLbVs17+mc/kSm2pOXXXNYOLxce7tQjJNG27dB/64INkIUU8iIb86LSYYNCooFcrYNKpYLMY4bJ1wmXvhNVogNFogNVqgd3RCZvNCoe9Ez6vCzHmEgYQJbcwEkIsFkY0QnEuinf5mYVGU/N0gWRWiiErK3MyoXgM+ppDMK0cC9OiAYitzUViQy6SrA3zDyHV20hSusTaUQitGQbpFw+j8/17oHn7Tpg/fwDG7V8hFE3Ca7NCvmchJF/lwDirL4LLKXY1EslNY6D+5lE43v8zIp/cg9jHd8L5wd1Qzh4B//5PkVg1Bum5fYAlA5CmtR1X0RgCrB2WiXttzgUIXrsJXk8hvH8yNBsnwHf8JRi3ToJt3QRgz1NI7xqD2I5J6Nw4Ed69k+HdNwX6LU9BMG8I6mcOQfPe76BTSS50p+rem6rngsnkNjY1NaGhoQEtLTyYzWbWSSIWS14AVHdoXRlcdEuzjuTOZ+AVj8URp/glG3H249Z91eZINA6RUIytW7fgjTdfw8jcYXjkob+i74N3of8j92LwgAcwZMCDGPzYfRjU7x4MefxvyB3WB6OGPMwANXFkP4wf+QgmjnoM4wlQIx/D2Nx+GDX8EQwnSPUjCN6JB+/9Mx7+21146N4/476/3oEH7v0DHvrbn/How3dh3qwvGJjs2g4IGyrYYq+8mlKImmvAqy9nlpVU1MK+36R4LAaVVAxXpxFIRjMjEQLiQSAeRioeQqdewYqsOxU8dDSVwyrno72xHMf2bkN9cT5LSm1vrWcue1ac1XVtug5w0SWQuQzIwqH19KjnUTqdddPSrA2tVquGyaiCQaeCQauG1aiHs9MMr9MGv9sBn8sGv8cBp80Ms9mIzk4Lg1ZnJ8HLDrfTjrDfg3DAh4DPze5H/H4E/H6EqANCIIBgyMdgRrNZVM5D6Q+0SjXJrhNDvfkl6Oc9Dv+KLhiQK3fN4BrJkkdphWrdjMdg+uDPsL5zN6wfPQDbglxYxPWgBaXo6xWOh+FoLkHtvJdR9cHDsM7qB813/SB/5264PvgjIh/9BYF37gD/nQchPbkRXpcJsfYSJHe/gvj8R5Ge3w+pZYOQXjEY6dVDkM4bjvSGYUhtzkV62zikd46DZcNo2HdMgWv/VNi2TsykSBx8Bok9E5HcNQGBLeNhWz8eru2T4Nr/HMTLRkP43SNQzRkMft6bUPJLECNrh350kgmk0nHWtji7puHFv2+a9YYiN5IgVlNTA4VCxVImeoKqp9XV3TW8FFx0n6CVRDSZRCJJEzAptmYjubDJZJz96HSX1WpFfX0Dtm/djLdefwHDBj6M3CEPYeyIfpgw6nFMGP0EJox+HONGPsrgND73MYwZ/ghyBt6P/v3uwUMP/An333sHHvjbH/DIA39Bn/vuzIz770K/h/6CJ/r+DUMHPIQRgx/CqGF9MCanH0YOfRBTnx6FmrJCOHRyKIWNENSXo62+HK11ZRC3VEMpaoJC3AKZpA3BgIe9B0WHGCatEnHyMHwuBFyd8DkssBrUcHYaoVeI0dFMqQ9CiGqLWMG1U9MOjagJNjkfdiUfGnk7c+2zrjSna9M1g4ugRfCiL6RGrWLr0TntVrhddrjdTpiNRlZHR0HYDkk75FIJrGY9fK5O+F02BD0ORGgGx+9G2OdGwOOAyWSA2WKCxWJCZ2cXvDotcDto5RsHi714fH62vqA/GEAgEoI/GISPlu6ii4Pc0lScwYuwRTNb5rIN0C58AnY2g0cxJArED2WB8x9C6iKsMrddMacNuXAuHQrde/fC8d5dMH50H0Iz+kC6YBwsnUaQfZdKRVkOFUWQOjuN0FbkQzJ/Kkqe/wvKpvwWlc/fgbIX7kXJuwPQdHI9wrEoEmlkguc2KSJn5iKxZATS858AljyB1PJBSK8agtSaQZlZz02j4M8bBcf6MQjuewaylWPg3z0lkyJx5DkkDj8H77bxiGybgPCWsRAvzIFk+XBYt0+BPG88WmcOgHb2APAXToSkaA+8biuLE8ZT8UynDAZ8ysO69IKh+zQhotFoUVlZjTNnzkEoFLO/RRZSZEl1B9nlwRVjlhbFJDVqBfhNdTDr1IjFgsj8xdgrIklWc9bd7xKdo0Ipw/czv8SonEcxalhfjB5Oia19Maj/Q+jX525mMd37l9/jnjt/j/vu/hOzqPo++Bc83vde9H/sPgx54j7kDHwAuYMfYnAbk9MXY3P6slv69+hhD2PMcALjgxg3cgBb+MKsEMEib2NwMcvbYFEKYVK0sUGxLk1HC4MVVRLQ97axthKi5nrw68rRUFGAysJ8VJw/hdb6coibqyBpqWIrl2uF9ehoLINFxoNd08agpRU1wWWzXoAW5ypeu/4h8xW53PihaKavrY0Pg04Om0ULg7oDWoUEQn4ThAIepB0SSCRSyKRSmE16hHwuBi2fsxMBtwMhr5NZXR6HFRazkbmLZHlZrWZ0Ws1w2K1suS6nzQqDUoROeQs8OgG8aiE0reXQ1ByD8uwGdJxYBfnpPEgqD7MZHYqNUcM2+Zpn0bloACJrM6DKpD8MYzCg3u+9DraiD4Erh830RVYNg/bLvnB+cBdkb9+Nzm/7wDrzEQiXPYtOk47N91PaBVkPMbJiuiwwp0YJUcFBSEtOQNNUCp24BRa9AsF4JJPlHosimogjngSc1Lyubi+i215Ecn5fpOf1Q2opuY+U9zUMsdW50C0YBPfaETCvGgHlvAHQLBwA14axCG0fh9S+pxDaMQma5cMhWzocTV8/hopP+6Fx9hBYd06DZuNk8Gb3h3Zuf8gWjUDZ6rdRtnMxzK2FCDq0iCWiLJOc9aqii4Zg3C1Rk0TuotlsQXV1Nc6fLwCfL2AF3vRDQvAiSLE0iG4xre7gIsvc53VDQK7XmQOoOrMbDaVHIaKLWauAo9OCcDjEoMXgle3i0O0c1GoVvp81HQ8/8Bf89c7f4p67/hMP3PMn9Ln/bjzWJzNjOPiJ+zFs4EPIHdIHo4b2wdgRBKd+GD2cRub+mOH9WOwre5uBVh92mzPkAeQO64f5M7+Eoq0RDm0H5LwaGKR8uE1yuLoWgaXOEG5jByyaDrjoe+rxorTwPAR1lZDwatDBr0djRSGaKgrBrzyP2oLjqC87D3FjJSsHkrdUo7HkFJoq8lFTfAo6lexC/PGnW1vdr9ufeqybX9cNLofDDomkDRazAnpVOywqKRQiHtrbmmAza6DXKiESiZn1RUtn2SwmODtN6DTpYTZqYeoaRoMGer2GWV3kKtqzMS6fly2LLjizGaJlk6FZNRaatU9CnTcVvPmj0LFgMAwrh8O4IhfSRUNQM70fGhZOQv6CV9CycwY6l+dmrK0NBCSaHcxYUAQobOh9UHtlZmlRgH39SOhn9IPxw79C/+6dMH/5IDpnPIL6rx4D7/RGxOIx9skkKYWDMvS7Lnz6qpDN0CMUfkEEhUg8monJJeKw2+ysmV1Q14Tk2flILRuB1OyHgQWPI7F8KCxzBsI6/3HYVg6DZd5AJFcNQXTlYBgXDIJ64QBEto5Fes8ExPZMgSFvHGq/eBylH/ZD8/THoFn3JFQbJkKeNwbVMwZC+G1fyGcPRPOMQdCtHQfDkY9hFpxFNBbLQJhc7lS3tJIeFxG5fDSJQuDKzz+DysoqZlmTZUai3LGeMS7mJsbjMOo0ENSeZoXuraVH0Fh0EEXHtmDfpiXYsW4JJOI2dgyaDc5OsrhcLjQ1NjIrnKTV6zB16hQMevxB5Ax6ECOHPoyRQ/tg9PBHMJZB6VGMHf5oBlYMShlAjR72CEYN78NiXQxgw2nbIxg5hKDVl1lx40c+jnGj+mPYoEfw9qvTIG6pY5aWQdoKWWs9S4WgxTEy4JLCRW1tDDLWr57is4KWJiiFLWx1IFpowyBvY5aWRdoCZWsNqovyUVlwCnUlZyBqrISwoQz8uiI015ZBq9Wwkq2ei3z8ON1m4KIY1eXHxaB8Jj8rzdaiE/AaIWlrgailEQphGwTNjZB3CGHVymAzqqGQSyHtaIekXQSlTAKNQgadSg6tSg6dVgmr1QhbZ8ZFJEjF4lROEmSBd1rZ1+/3QXJgNmIr+sK7oj/qv3gUJ78agJLpQ3D2vftx/O17ceT1B3D6jXtQ+dnDEH0/EA3T+6Pim8HQLxmK+HqaFSRrKwMvNhjAfggtGqn1lGQ6HOlNubAtGQjtB3fD/u5d0H9yP/zfP4aWD+9H7bpP4PdnVmShj4OC3T2/H1mAsdFtMiP7ZcxMJiQRT6aZi+DoNMMTDCAVDSAuOIbUpqlIzeoHz+yHYZz1KELLhsEw9zEEFj2O9MohSNFYk4voqmGIrhmGJJuFHMvKh8RzhqLm80eR2jIa1hWDocobg6rZQ9AwJwcl03NQN30QxItHQb10NKzrxsB+4CVYRYWIU4kUsx4p9nXpG+p+7uw2nWZuH8XBzp47h/LycvB4PLhcHvZeydPpDi5amdtmNcNp08CqFUApKEdD8REc3r4Ux3csx8k9eVDL29nxCZz0Y0CB6oaGJixdtgo7d+6GXqdl8dTFS+ZixOC+GD20Txd0HmFjNFlNDEzk+j3CgEVAGjmkD0aSizjsEYxncSxKh+iP8aMGY+zIgRg25DE81u8BDOrfB0MGPoYH7/srnpk0ARJeE9TCRtg0Ekj5tTDILvacdxvk8Ohl7NamlUKnlsKgVYFXV81SJ2zqdtajS9HWAFVbLTqVbWitLUbp2WOoIHiVnQOvthTi5gp08GogqK+GWtaBSDjEPl96/9nP/Oqj53es+3V7bSsd3VTqdq1cy/iHFAVILwyKNVwc9EtMg92Px+D3eqBTK1BTWYbSkkIUFpxDUUkBxK1NULYLwK+rhLi1mQXk9VoVFFIJm1GkuIbNrIfLboHP60TA74afXMiAj70uZcOzjPgEuRcJuBw2lK36APJZj0A+ZxAKP3oE5V8NQOP80TAvHQr1gqFo/KIP5F8+BPv8QVDPfwL8OUOhX5EL/cJBLC+KuYDM0ro4egLrArg2jEBy4zCEVw+D9rMH4P3gXujeuxuemX1h+OZR1H72MFqPrkA4nMm3IXeGvmTMrSFLpWuwOsnLDJrRozUQyV2MpZIsq91uNbHPgxhI1ltCz0fs9Bxov34C2k/+Cuvc/nDOfgJY/jgSywYgRTlgNFYOQXrVUFbwnd6UA8eK4aj8pC9ceaOQ3jwcyZ3j4d0+Ae0bJsB86AXItk5G/aJRUG19Hvod70C9dgr068fBdPx9dGoFGQuSLMkkvR+afcwO+jcF0+m9Zt9HxiqiGA9Z1QXnz6Oyqhq1tXUsLpbN2SLLkjq2dpptiNPfNh5F0GtFybkjOLRzDY7uXov6igJ0mk2ZiQMAPr8fhYXFOFdQivMlVdixYx+WL10CrVaJU6eOYsTgfhg95CGMprwsgtawvhhFVlQOxb76MDiNHPoYRg17FGNH9MeE0UMxduQgDB7wMPr1uRd9+9yPAY/3wWN9H8C9d/0Rd93xX/jDb3+D//rNv+Df//X/4JXnp7AeW5QCoZcKWDoDFVzT8mQEL7K83DoZPHo5WxjWqhUzi1IkaIWEX8NmJK3qdhjlbZA0V0Iv4bE4lrCuBHJeFeQtlZA0lEHSUIqOplJoBLWsh5dZq2A/3GS5Zt3lzPjh9yg7MsnXF69RmujIDnb9dtuX1Wp2jczM8k8c7HvR43tyuW09n3u5/bp9x65l/AODRXbE6Qt2cSTItYlHkUrF4bbZoFXI0NRQjZLSAhQVnEZ1RSEaa0uhZH9oIVoba9BQUwFZuxDtAh6MWhW8DisCbjuLc0WDXkRjNBsZQiTsZxcxfaHpNdiHzma/0rDq1Tj7RS4k3z2OipnDcWbGCDTNGIKCzwfCTcmkm0dBN/9xKL+8F5aZfVH87kMo/bI/NCtyEaWseHL/NlBuFI0fgurSkbHMYptyofnmYTg+uAfG9/4K+7d94Jn7BKRfPgT58hwINk6CtPooEvFMbItMfJrev+Tzu8Ig95C+nPFYhBX6uhwO2C1GtpZimrbT501ACNnRWbYDirljwXv/b3B99zCwqB/Si/sjvXQQkksHIrl8CJKrhiO5JgfhVUNQ+F4fyL9/HNg5Fslt45DY+SRSVCZU/h6idR/AX/wOzAdegm3XFFh3TYV001RoNkyFJm8EzBWbEIxRjlUM6UQSqUsGubVJpCgfjM0Adv2NkpkfGvZDmUrCoDegvq4O586dQ1FREWRyOcuzi0aisFo62Wxi9ne/+Owx7N2yDCeP7EUkSn/3rtnNdBomoxlHj55EUUklSirqUFnVjE0bN+HI4UNo4bWw/l+jB1Nc6hGMIotqyCMYOexRjMkdgIljh2DiuOEY2L8fHnn4b3j4gXvwyIN/xQP3/hl3/um/8Mff/Tv+8N+/wX/9x7/gv/79n/D73/4rG3/47b/id//xL/jD7/4dK5fMhc9ugE4uglzYzPp0Sfk1LDBP4KKRcRdlcBtlcOk7YKaUB70WTVVl0HcImKVmVYlZrKytoQwWuQDSxlJoBdXw6sRsePRiuHVi1hmVFs2gZoV6pYQlbWerTchipdSRnt+j7GCVJl3XTs9BP0KXfPcuMU5uwMh+L7p/Ty63redzL7MfxTh7vscrjX/o+aYzH8ilHwy9kMVkgKhNgLKi86gtL0JZwVk0lJ2HRlAHdVsD5IJ6KIVNLCFP1NoCtVLGgq+UzxUP+1hQnpJSAwEP/AFPF7goVygz4nEaUfYltxpUaJ1N6QsD8P8n7a+j5DqyfV3Uf933xjhvn7vvPhsazMwk27ItyWKyzCS3u9vdbbvR7TYzs2WBhRZbzFDMzIxZlczMmcWCqvremLEyq0qye59736sxfiMW5arMtSK+mHMGBX74FbWH3qLj6/tpeXMGPR/OpPeTeyl86XYK/3wD5vfvJe8vd9L2yWwMn92npo/5MZx+LAW3zang/JaFuD+/B/ffbyDy4jU4X76F/s/uwfL2bTi+no1v5+NE9jxK+47n8Vu7ODs6rqB79vSwaqlLS37PP9PZMyMMy7OQLiSj4ySicdXPLRYLa+MzT59SfYNU14WzQ/i7KmhZ+Se6X76T4JsySeFdjH1zL3wzm/GVczi7WlohZ9P8xjTK/3EnY1uXwC7pQiHDhx5h/OhTUPxHxmteVAAbKvgDwf1P4dvyIPotT9L73VM4vp2F7cArqq+d1ronmUIKy09pasbRjqkMKD3zU7W5dCJubW0mLz+X/Pw8OjrasVqtmnmf8geKso6zf/u3FORmaEcm+gaOq3UgT57Mpqi0gpKyWioqm5S7uH/fHtweN6+/+ndm33Mr9y+exWMPLWTpwlnce9etTLv5Om65/ipuuu4qrrziEi65+Odc+Iv/5ML/+jcu+tm/cYlA6pf/wSW/+Hcu+eW/c9mF/6WOiS676Gf88r/+F9decSkFmceIB5wEnNq6iTLAWqBi7W5UVpdASyYc1OJdRuIuA0GZiz7sw6TrorupWs2sKlaX29SFrqkSS0cdHn0z3TVFeHqaiDtl4Ywp0zirCQa71XhIn8uayivSuCGz0Uqe+Gc6N3+ly9FEeZpyrdxP3psq0z8Bgf/n+qn88FPb/51+fF2aNz/+rT/WBec/gHMLW4rgZ2U6k36MZjOVxUU42uoxtzdSnZ9BR3UxPU2VNFQWUF9WSFVxAS67mcH+BMl4hGg0pDqV9ieiDCRjDInVNSJDeAYnCrxYIqdPDWn/c/QsIZ+T6hWPMbJuDp5ty2nK/4rE3t8wun4+g+sXMbRxAYaP7sXw7p2MrrmP3vfuxLZyAYlV/3csLE3SV0sN69mygNjqWThfvYmBf1yL66Ub6ftkBtGP78b24T0EtyzhdOazhHc9im/Pw3Qe/4xkIs6odIiV/jvDgxNK9+7/KcnvlTGYZ06dUgHxRCxOQMAVDalnMDEyYGSA4TOnVa/3gXAAU3U2HStfoPul24m+dTMjH0/jzFf3Mr5qFv73p3HyL7cR+24e7Lif8Z0PwO6HVM/78QOPwYlnGMt6ltGsZxnLeYbTJ54hvudJzBsfwrLjCXRfzqJ5xeP4dS0KLGfOaoD9aZ1fwU3VCKNnRqSjmMor8VgEm81MYWE+hQWFk3GW8VHyjh/i8M7VlBXnqkPpxg0B1+DQEMWlFRSVVlJSXkdZeQN79x9gz+6dqiHgmxXfcPllv1Ru3g3XXMHVl1/MFRf/gssu/BkX//w/uehn/0tZT5cIpH75n0piZV2WgpbA64qL/4vLLvxPrrr0QqWrL72Qyy76Bcsfe5jmmgpiATcRr12tSm3tbsZn6VbuoqSyuk96xR8FLq+RgL0Hn9NMfzyqFng1d7cQsOvxW/XYdG30NFWp+eztnQ0YmsoJW9snVvzRpnHu0NZddPbg1rcT9DhVwZTyIJ2vz89H/78oXZanlun///Xf5Y3/7txPX5cGV5oJ5/+G83XBWZnZckLDnD019JMaPTuM3+eks6EGn64JT28jXQ3l5Gcd5/jhAxw/tI/DB/Zy9PBB6msqsfR2YOhopLa8EL2uS4PhqUFtGM+pQe2+I4OcGRlUQ3rEGjs9NMCZkSEGEjFaCw9Tsv51Cr9/jfLMrwj98CvGNs5hTNy/bUvxfDkH54f3MLJyBpbPZ2D6cq4aK3g+oP6ZRmUY0JalnP5+Ic73phH9+zV4XrqG6Pt3Eft4BsZ3bkP/5Xz69zwIGU8zfOJ3OLY/RNf3y+ltLFM118hwn/reaZ36ZxrqU+BX4FKddqVbSYJA0Es0EuD0UP/EtSMDSU6r6zW4D50eUYF8Y84+Wj58mrIXrkX3yg0EP7qL4j/egvFzbZJC6ffFtvu1jqs7H2D8hwdBrK/dDzF64AnGDj3O2IHHGd39MH2yOO2mZbR+Pp+CDx8jaOlS3+nM6R+/9wmJGzNVU/NGSvIuz44MMX72lJL08+vp0aVGN4hLeJasI/s4uGMV9dWydo82uZ/Wf2mc/qFBSssqKS6ppqi0jvKqJnLyCvngg/dUK+abb73Nf/3Hv3Lpz/8tpf/FJb/4Ny775b9z6YUCpn9PWVL/rmB11cU/4/KL/ourLvsl1119GVddcRFXXn4Rl138C2645iquvfJKrrr8Un715GPUVZVj6unCYzcTctsIOEwq/7qNnbgM7SpQL7A6B15es3IbAza9Gt5ms5pora/BY9bht/bis/RgbJf5t2pU37CuukLsXTUpK0uDl6Sy4o8sYSZz1DsMneq5ybOUjq1SNn5K4smcm8f6J3T+teq9nP8+laS8T5b/c4yWc7hwvv45J36s8z87VZPXjZ4eYUysQwGXGDJDA5P6id9/gWQ0TcOp9LwMOjKoMmUs7MNu6MKqa8XSXoe3q5bG0hyO7N/Dgf17OXxoP/v37OTE0QMUZh+jp7EMY1sNlXnHyT15TLUenlUFQwPXGbG65CGrB59UBTYt+bL9yTh1FXkc3rmOmtw1dK99gOjKexhcN5e+dfPQfzAd/du30/Pm7di+XYDr6zmMbv4xoH4sLfY1tmUeZ7YsxvvlLAIvXU/4H9fheutW4p/cg/GtO2l7/w7aPp2pZiQdP/wYZ08sJ7TncYxrl1B7eBWDI6cYGpAOtdKzP6F994nt1H5Kw0oyEkCGQg1y9sxZkskEwaCXSMinrlejBfoTanqV4UG5vp8RGVAuA80low4P47ObaNn1GdWv30XRn66h+R3przaXsc2y+OwSNZ302JaljG9bCjuWKZDJ7BOj2wRmDzK+/QHGtixhdPNiAmsXUfnGPRSve5XBgQijp05zRmJwqTGiqoKZkgfUu1Juf+q8bKd0dvi8PDM8wNjpYTVaQlog090cJI6ZcXgP+7d+y6G9O4lGopolprA1xsjpERobWzlxPJeiklqqqpvYs+8Qr772iupL9uCy+/nFz/5VuXvK5btIrCzNHRQr6spLf861V1/KjddfyfXXXMY1l/+SS8QtvPhCrrrqcv793/8v/sf/+H/zb//Xv3LxxRdy9/S7+OKLz/C6HXD2FCGfG4OunaDLQshtxWHsxiJWl7kbc1cjLoMMtrakAGYi4rWQ9FrwmbsI+JxqmFpnayM9bQ1qIdmgtQdXbzvd9RVqDntXbyO6hkL8xuaJKZy1KZ21dRfFjfQaW1W/yCHJC4N9E/lCjSCZkqd+pHTe+4nr1HsbEYBNvtvJ95su/1LxaFaeSLannjtXP2bE2RG537l5RpNw5Z/p3GtHBYgjw6r8KxgPJDWdbwgM9nGBUF1JQKK2tR81NZNKJjT2dlFbWaLm5za2NWBuryP72H4O7N3FoUP7OHHkAId376S6IBNjQyE9tfnUlObSXJZHSXYGDrtFjd/SLCwZhJ1kuF8r1PKSRPJytDSpMoFkhtXffMHJPR9i3fcsyZUzOb1xMcObFmD79E6s707D+slMer9eTN+6JVrv+B+BagqwJloWFzC6dTHx1ffhfPU2+l+6BtfLNzDwxQx63pqG4/OZmD6fT8+XM+CgDGh+hLHDj3Lq4HJM38ykcdOfcFos6nsOJmNTFE8pxpAarqRJtodk8Lj8vr4EA31JouEQoYBbtbSqz0gra5/2uZ+U3GtkiHg0ii57G43vzCYhw4W2zOP0xqVqLnz5fTLHF5uXMrZVk9Y/TebWT52XmTDWL+TMmnnUvz6D+owdjI2fTlUik7W2qrmnKJ1h0vvnWJpDmsRSTG9LfoqG/GoKnXSPcLG8so7t4cDWlaz44mOOHjuigOT1+rXOsKoPV5zKqjrKy2vYs3c/GzZupKy8nOamJu68/WYuFHD94j+58uJfcO2Vl3DzDddwy43Xce1Vl3PpJb/ksksv5pJLLuRf/8//yf/r//g/+Jf/+S/813/+O7fdcguPP/Ior7z0DzasXUtRQa6Kw47I7xnRCspAIoq+u0MBK+pzEHJbMHU24k3165JuDhLjmgjUp8Dlt0jroonR00Oqz2JTXQVOfRtBq04F+M0dDfTUl+HWt2DpqELfVKLmoVfwmjIXvbK8nDpt1lWPjZGhvh/lgzTEzj9+bj48N0+qCjE1ccG577JPlcWf0gQXflLnAlDT+ddomgTaT+knwHdqgNMj2ndM/7bzQSy/54LTQ0LkJKdEEn9S0qwgkVhEUoMKROpqyinJyaShrIiK4lwOH9zHnj0/cPLIfpori6jMz+DEgR20FJ9AV51DS0UOzRX5FGYeR69r4+yI9rBkyM9QMqZSVbglTR3TFGW4PwJjI+RnZ7J301u0bP0VfRLLkUHI25fg/+Y+et6bTmjdYgxfzOXUOrE45v0EsDRJMH5MrBIpwFsWcOr7RbjeuoO+f1yP5x/XkPxkOv6PpmP45G4S6+fS9vE8DGsWMCCzle5aBnsf5PSeB3Guuo+2lU+iqy/n1PBIKnNEGUxEtVS6eyQimuIpJSIMJjUNJCNqrKaMHEhGA/SrFlcZXZC6x/lK3zul4cF+IqEQxuKd+NY+zNh39zG2aa4GKDVaQIYtaeMtx6RbiJp7bL6aM0zWjxyT2V83zGfgy7up++RhrIZOTp8d4tSgTKTXp953WprlqEmzilPb6Rpe9lUqmSvOsKg/pnRqMEEk4KFHp5uwqqSlLOvobo7s/I7C7BPo9V1kZZ1kz+495OXk4Xa5Jqwzg8HI5q1b1Bz68ldSVMgN117JrTdew+033cBVl17CRT//Ty78xc/5j3//X/zLv/wP/uVf/j/87Gc/49ZbbmX58qd59713+OjDt/jo3VcpLcwmGQswemoQxk/D6AhnR8SqTWh5r0++dxy/205vRwsBl5Wg26bcPUtHEwFrj5r91G1sn+yQ6hFX0UTEaVQDqof7IpwZ6cdq1tPRWIXP2q1iY2Kx6ZurVWXv7G2it6kYR3ctUeePV/+JOnsImpuxG1pVVxlVyaee+6TV9WNwTZadKflR4sqpPCS/bbJ8p8u2VvbP0cRxKatTz6VAJzovn5yrc+8nDXOTIJPtqZoEXPre6eNyrzQXNFhPskJ+4wWnBxOIxEURjfTHGOmLckplUJmpQTt/ZihBXzyAx2FG11pPQ0Uhhw/v54ddOyjLOoqloZSe2gKKMw9xYv8O6srzaaytoLy8iLycTOorirDpO4j4nQwlpbCGVDpVg4m0ZCB2gOHBKNFYmK6GY9Rv/Q0DMvf7lnmwbSGhFbNpfuduHCsXEFp5H2ekgP43rqJ0jxgTV+p7cZUW4Pr8TiKv3kr4H9fgfftmQp/MwPrZDM5sW0h45X3kvXEP/m0PE1w9G3YsZGznEkZ3LmFkx/10fP0ADcXHOXtmWGXW4b6oem7DkvnFakpGf/Tb0r+5PybdQ4L0x4NqfyAeUoNzJyX7UyTnJyTDpvwMJSKqr5u7rRTLDy8xuGaOmh56fP0cxtfNVYPK07+ZdfOUxtfO1fp+fTcX1s4l9sld1Kz9M30pAJ0ajKTygMwGqs0Imh5bOlXy+6Zua4qq5zAkSv1WyUPRgAerZXKGT+kikX1sD4d3rqGuoljNpjCQDKHvbqO6vJTME8fZs2c37e3tKhgvPegHBgYoKyvj8cef4F/+5//g3/7t/+Tf/vX/VBbVL3/xM2beezd/fO4PrFzxFVs3f09OThYmo171CZOGnu6OOrKO/IBV387oSFJ9z4GEjJ1Nacr7kXOyb9F3YejuIOR1EXRa1ApAEnuSXvHSwiidTONei1oYNuYxE3WZ8FkN9EUlNtWvKqfulnp6WusV+HzmHtyGDjrry3D0NuPsaaK7rgSvsU0F5dOxLrVwrLQ6unqw9TSrSQ3TRoVWKcj7SahZW7XyOanz39HUvDjxfpJaXp2UvMtJqfI+EFc6Ny9MHtfOaUyYZMekph6fVDwl4UhyijSupDV5veYiyndSMO6T8jQpAfIFI/1aodOk/UD5UednYklHR8QSSygTWpqKy0vyKC/IorWyiJ6KXMw12TQUHackLwt9b5c2bU3Qj8dlp62xhqriXKpKcnDZ9Az3R7UCHAucI61wBumLR0jGw2rOImP9Lrr2/plT3y9RrpEC18o5tH00k96PZ9Avk/JtXsDo93N/BKxJCbjmMyqtiCvn4nr9FpIvX4vtlZsIfn4PHW/dRUS1zi3C+MkMsl66C/empUS+S31263zGty+BfQ/Ru3IZFVl7OHNaA5f2DDWlM8nUDCLH5fmln++QzG2eKjhTtzWQhSckg9OlMKSVjPhJRP0qTcajasygtGj5Tn7JyKqZjK6ezpk1sxW82DhPG3sp4BJorZYVtmcz9t0cte37+G4aDq9VjQZahtYK7qS0jH2utN8j14ukb95USE/9HbIf9juxmM0T4JJe95lHdnF8z3paasvVvQYTwdQzCauxew31NRw5cph9B/ZTW1/H7r17WLBgIRf+4pfcfNONLH/ycb79+kuOHzmkYCchDLHspHCH/G4GBhMT/0/GWlaX5XHiwHYMXS3qO6ef5fn5Li0BVzjgRt/VhstsICzD06x6ejsbcFkkxtuMo7dVgSviMqvgva1Lhv00EQu6VQGU8hL0ONRvlD6OPnMvAYseY3sd3U3leI3tmNtq6W2uIiiuYqqFMSb9usRldPWqwd02Q4eC7JlBAdJk5Xh+ZXK+0tdMfW/y2/vVhAf+lAL0nf/b1bs714CY+j4nNTWfpCvutCZhp+X5dL7XysAkxP57pcuLfA+t0p4sF6IUuKKMSI2jaspzC+KpVKETyQOULx50W9WyTnWVRdSXZlNbnEdrWT6tZZm01BZjNPSqsYfxWFTFSkZPDxIO+uhoaaAsPwOLvlO5TX0y4Zoo9eBkXyRfNBEM0lO8l5ovH6F802/oOfwip7ZKsHku7FyMZ+U89F/OxfeN9HiXSf8WKTD9GFgpi2vzQsa2iou4EOdbt9H/2o0EXr4e13t34v92Np5VC4htWMSpzfOoe+cOej6dj/Gr2QRWzuX0epmtYZ5yUdlzP4Zv5lN1cqfqd3b6HCClnmH/uc9QSZ5rSue+9PMVOkcCtrQmM1KQIZlCJR6mbzCmWgXt63/Dqa/uZlwGaq+aoc3ztW4+42vmMb56LuOrZoPExL69h6Ev78W08XkCLhNDqlabAh6xBJU1GFQ93SeV2k+Ie+tjICGxuYBKB+JTKpzUO5T36XdZ6e2ZdBXFejp5+Acy9m2iq7lWFYBkxEs85CER8dAfD9CfCOHzOujqbOH4kYNs3rSeY4f2U1dVhtXQTdBrV9fI4rgjg+KSiputfX+ruUfN7Zb+k3GvpQUnFSyN3S1avgp7lZIRn1J6O/29k/LdE2EM3e10tzYSdjuIeOzYDO2YuhtV0F06l3pNXaqHvIxRlHiXxLJCXptmbfZHlZXgsPTS2liOy9iN36LHY+pWHVrNbTX4DB30NFRg7agl5tApaEmMK+YQgHUpq8vc3Ug85ObUgOSvEMOSDyRP9Gmw/3HFkpJUJqlKRba1vCmVoFR62u/uS6Xy/NPH0sd/SlOvSV+nyu6U8puG31TISXkQTWz3aYxRXJkCufOZk+aQfEYBV6bFSisW4oKRZJBTfSGlye3wOTrdH+bMQIQzA1GVDkR96DpaKCrIZN/O7zXXsDhbjcmqr68hoGYzlUkBo8p0loC8dL7s7WqjvrKIkMzVHQuSDPmU+sMB+sN++uWBhL2KqNJS0/ndM3g/u4H6dQ+iP/4SZ394BLbO4+y2JThWzKb3s1kMrBdgpTqSKlcx3WP+XI1vXsD49kWEvppB5M1bGHjjRuyv3YD3y5kMbFzMwKYFRNfOJbJ6Lnkv36aAZf36PoKrFhJbJR1bF6TAtQzzitk0nNiiWklPyUuQh5wMMZwITHmGUxXmVEIqhyinROr6sFL685M697Py7NOS/yH3V5LC2xdksC9AfzKCq7MR2+a/EfvyXsYEYCvuY3zlXFg5S806MfbtLPhmFmNf3IH360X0lO4mlgJOOtMNxYMTGpRzAqWU+uOa+mJSuL30xTz0x6TAexmQQh/2apKCEPWqc26HgfY2Wd4iBZL+PjIO7+TIzjV0NdepghQNyHxtLqIBJ/GQS1ktApO+kJe430Xc76Q/KgVCwBpU30UrgF7iKQglQh71HXq62tRMI+lBpDKuNifjIAWZB7HqO5SlJRP/iQSWaXAlQlrhVdsRH/GwH7fNRHerLEEmM5oGiHlt2HtbFXw8hm7VQCUdTWUVa6+lW3U+7Wyqwm3RpfJBWD3DXulB31SLz6xXVpfEyHSN5WphWa++XXWtcfU0ai6jXafStNsYsOlU7Ex+s4JVPKQ0GJPtMCOSp/6JhmIRhuNR7TqVZ+RzWvlKKynPIOQiGXIryaiBfyZ5xvLMVCVzzrVapZOIuJWSYc85/6NfKqSIpGnJu9LyzGA0yGA0pKTCJKnKTyrHobhfe45SgcrMMjICJxKgX2LDET8XyAUThSGl8wvP+RrpCyvz3G7Vq/mICrOPcPLADg7s2kZtXa2KmwyIuSo+r7QsnBpisD+u5jEKex3Ewz5iIflhPvpCaU0+TCGs09iGbv2zsHUG9h+exJbzJmO7H+Ps5nkYP7mHtg9nYFsxl0QKKhLPETiJy/hTkt7xMkGf59M7Sbx5E6FXbyD00V04vpjJ2d0PMPbDMpxf30fnhzMoefUuQqvvw7t6Lk6x6r6eoYA5tm0J7H0Iy9czaTqyVrWAjCQkY6RBdO5znISMltGG5VqZl0wBa1JpiJ1/XD3r8++Vej8j8i7EAhJ3MuJRrZNdrRXoDrxJ3+r7Of3pHfD1dJAB2t9Oh2+mM/rJNOIrFxOq3ojH0YCpp5VE2DeRIQU66QymAHSOUi5qRMAxWfMqyMh7C7hJBj0q46oMHPVgt+hoa50EVyKZ4OThnRzauQZdW72ClsRxZFaRsN9BRMlJJCByEZPvFfZOwEagFg26VZpWXEAXdKuC0N7SgMvlmvh/4XCQk0d2U5SlgUu+u6zso8mV+t3aPWQ7ff9ExI/XYcZjM6k445mBGMNRD2GHQeufZe5R4JKVrqNuEy01xeRlHCL35EG6mqtV4RRQnO4LE/c76KivQt/WiM8iLmOPGp/YWVeKu7cVe3cjuvoSApYOYq4eojaxvvTEHXo1S4Wxs5H+qEezdmMhhkTx8xX+kdS1Kg0qYAkEJBVAyfPS5CIRdE5I1pjUQPZjCazUs5LPK9BNnouHJ5WQayfuP3ndVAhq+ynApcp/cooVLNvpa9Ogk+8urFIVajw4CS75YZPbP1b6mgmrQiywIQnWRQn73TRUFFOYdYyqilLVO14KtQTgBFzSqzoRC2O36BWd1Y8PC+010qcfZnpbwOWz6DDu+DNsvg/v1sexZL3BqT2PEfp2Jj0f3Uv757MJrlnAyLrZGpyUmzj/R8Ca0JYFDG9chPXd2+h//Ubsr9xI6POZOL+ZDbuXwq4lWL66j6Z376b3i/tUb3TfmgXYv5xNQAZub5GZSRfDnqXYP59O0/6VyprUno/2XNK1xFSljw2p/fTzFCClYXUunOTcVJ0PramSe/epjOFUmcnrc2KxNNGZsZau9c+iEzf47dsJfzgN42eLse54EXPVVsy9+RhMRbjNHQoIyuoRUIjVk5JsixWUlgKK30nUr10bTe2nj2nWkRx3EA7YiAUd2MzddHZ2TIAkloiRcXgHh3d8h1GmgvHaVeudDPEKeGyqC4AGMgdhn5OIyO+a+D+aZN+lwDYh+d8hj7K4ZDLK9F8oGOT4wZ3kHN+t5oWfsPDUZzQ4avvyG+R3avfzO004TTpMulb1feQ99ctzlrUT/bbUsB8TfQGrchEbKwvJOXGQgozDmLqbGYh4GUrlizP9YYIOEy3VEu9qxW/twSN5W7pINFao5c7M7dUYWsqJOruJO3oImNpVT3tXTyuGjlqSIQcD4p5H0/JP2f5pDcUFVOLFaBWRFPw0uGJ+eccu9Z6ngkuTI6Vzj8fFKk5XHCqPOCYUDU5K3nvMb0vJPgWKUyCY2p+Ep7w/rfJIW3TJ1HGRXCsAk980kpRypCwuobEfSYfi3lRB+7Hk+ISmFEp5GAMRHzZdK72NFVTlZ2A39ipoqelaRgYI+l0YejsJeG0kpJCpB3E+3Z30BR30ycrCMZ9au85+6DXYNgfPxgfQHf0HA7sfx/zFTELfzcX8zWy8386BbdIFIgWt88AlMyekxbZFBFfMwvPONPrfuBnrO9Nwfjmb/q2LGd/xkFqcVXrg93wgVtjdJL6bg3f1Atwr5xFaMWfCauOHRfhW3EXHwS9VnE57NvLctFrtnOc0RelnmAb/uRWDfDatqcfPv5/2rkSDMbFOJQPZiMkSWQEXwzKX2UASl6cZfWcmTTnraD70KW17PqU5ZxPd3bkYbeUYe3JwO8uJh62qwMb8ktkkE05uSz+miM8+Ka/IphRWsk/KY51Q0G0m6Dap1GrowGSSyfJS4IpFyD66i2M/bFBgkDwg94p4ral7Td4//b+mKuxJbU/5btGUYgEHVmOPGu84Aa5AkGP7t5N99Ad62uqVNRjxyedt6jPyP+UeYdkXa89nw++Qubb0hJymVGomIYVc/qfbovXhklkivGbCLqNqNTR1NqsZUDsbKrRFYsNuBiIekkGnsiwEfC5zL621ZTgNHbitvcqllLGMeplU0dBKb3MZlo4a4q5enLoG3D0NhGTK5+YKelqr8dt6FRD7wmlr5cfu3FSLRjMGtDLWHxHLRZMcm3hm/vPlUM9BpO2nASTPx37Ouah6hin5JR9NkXTSVbJOfD6u8ugk7EST+U7Le5OSfbn+XMlvG457GYl7uWAg5mYw7mEg5mEw5mEo4ZuUKpBpaaaagpXQX9yBkNTMUrva0Xc00FiaT0dVMVX52TTXlOOwGXCYe2isKqGyOE8zNwM2EkEhsWiS7EkFLbvSQNRNwKnHdPBd2DYX36YldB17mcQPj9Hz8Uxi6xfhXTmPmHQD2CqB+Z+wsKaAS8Wnti3G8dldBF6/Ef8rtxD5chaer2eqKWBGdz3A2R1LMXx2L/Uv34Tvmxkk18/CJa7imkUYP59BaNV9JDcsYnDz/QRW3oPuyMdElEugWT4TzyZVs0kGU7VEal9Ak36Osj0g5n/M+6NK4VyInfsO5D1JKs9Hnp9kjlhAMosUarvqM4ZMLH3KzOlkI6f624nHWogGGkiG6kj4K4l4y+mLtTCYaCMW1muF3yuZTTKhlumkR3jYYyYsaUoCFw0wIptaUzAt7Zh2PuKRz1oIuUw4zTo18Dr9J9s5R3aRuXcLXmsP/aqQSeFyaBWapEE7cckXExWcQ0FJFRalVEFS3zX1P71SQOyqW0U4HJ74f36vl6P7tpJ/ch/6jkbltsl3U9/PYybkMSkF1W+1KkvIb9PT53cwEHQyKC6NgpZd/a6Q9Ney6wnZDWqYjwyo9pi7cckUz7Yewk7DhEVm17dh7WnFazOQkN8ZcaHvbKCtvhKHSYfH2qsGVnc1lquxkI7eFnqayjG2VeIxNJP09mLvraeuLIvirEP0tNQQEisvrD2vSRCkC/ZUKExCJx60q+vTkmPq3SpNvlf1bn2a265cd1VZmCeUBtH5z13ySsRrIiIjCdRoArley0NKaYgpoIkmK5v0vSYA6UtLjk0FoNzHrFjTH3ExHPdxQdRvURdJAZAfmQiJJOM4SIad9EVc9Efd9EddCm6yLQ9AvkhEfoD886ATl7mHyvxsSjKOk3f0EL3tdYR8WsbwyaBTu0GBKh6U/2MlEbKRDE0+VAFWf9imNBB14nMaMBz+GLbcR3jzYvQ5bxLa/gD2r+YRWL2Q8Oq5qj8Wm/+5ezi+Rbo/zFdwG9o4D/tHdzLw7q3YXruN6Dez8Xwzg7M7FqtuDgPr59H10R00vHELw5vmcnrTbPRfzcGx5X76jz9OZP+DBH94hN5VizB8eie9+z4k4HMwLK1tKTgJjATo8nD7Qg6VCmREqlJIQyihQSgNogn/XaVTKws5p103KMCS5x8Rl06eu5YpRGEFG7NqORplhLEhE2f7Gjg70MrZwRbODDQyEm9kKFhHMlRDMtJEItZI2Kcj5NIsHslkIY9MBCkyEZZC7da2NUlBl3F8kgrMxMLSIKBZWalzbq1AhN1mBS5x19J/snpQxqHt5B7YTsDRqz0nKYjnSfJJNCD5UPKfBHxdmiascy1/aqAT4GnHe88Dl9fj4si+7ynOOoC1p13BTQqs9htMamaHgFtP2Gsm4DRiaG8g5rXSH7AzIHlSavmAg4QUJtX9waDgJEF5e0+LCtZL3y4ZsyjvW66XbhLSa14sMYGg29yjwCvvTiqAuooidG2NynIUyKm1G5sqFLjMHXW0VObj0jfT5zPQVp3H8b1b2L9tLfkn9mM3dSoAanCXwp4q4EqTgEgfl2u05yTPSPuMgCLkkg6zeoJuw+T7EjB7LQRTkncteeCnNfkZrZI7//ykJvOPST3ndCWnKsSJY5qmgvJ8pfOm/D5h0QXnklIjcURJq3XTx2M+iwJNmvgqrpKynMTFSwbtBJ0G3NZu9VASQRv9AiehpABQIBW0qbhAv6Sp86IBsbJCNoZSGonY1QKcvXmbiWxcQmTdXPS5b2Nc/xC+dUvUZIJjW6R3uAxx+ecW19iWBRq4ti1SwXbnO3cw+N6d+D65G4+4iZsWM7ZjEaMbxRq7l+Z3biH03WzGty2ErfOJrp+PZdVsgvsfZSTrV4T2Pop3wzzia++je8uLuM3SguRnIOxiQCAVE0iltyc1qI5r8EoDTNJ0wZXKYOr5qUqDTyniJq4K33kZxGsmEdHTn7QzckZmVDVq4Opr4Uxfq7K+RuINDITq6A/VMdzXRiRYQ1drER57O2GvUdXmQZWhJTPL/o8l59Ln09uq8KvPieQeKTmNqh+S1yutfNqf9Iw/eWgb2Qe2nQOudJ5SzyKSApPkq9R+WulrVaUg59R5LXgrFrvLJtNJa5M9yp/H7eTIvs2UZh/Cb9f+n+TLuFipYq36rMoDEPh77T1qzngJvkunUoFKf9ChSUDmtyn1icfgNRGwyCSD9Zg6G9Tkg1OBJql83q5vVx1RJQYoYI167fTKcLnuNrX24nDcT1IqHkuXkqO7Ua0wJFNAR506WitzObFvK4d2bqA05wg2mQM/oFna50sru5PlWKR+owAsIL95EnTy/vyOXgJOeX+T702AFnIalKa+3x9r6rs+Ny/8d/qp/JTeDrtNkzo/f6tKVKtIZVt+ywXip6cVcctQBiuRlNRNZGyW10pf0M5AxMlg1MWgFLKUxOccirsZirkYTnoYTohcjMTcDEVdDEWdDMedDMUcDEbsDEUcSoNhO4MRm6awyMpgyJKSlZjPTGdNJs3736Huy4fpynqFypVP0fvVXEZkFogtCxiT+bS2iM6NZ024iFvl3Hw1V5Xv6zkE3rqF0Lu3kVwxE+vnMxlWi7AuxPeFBPzvIbpxPqM75jO2bTFsl+4Psznz/WI8q2djWr8I94aFjO5YzMj3s2nd8kc1EmAkngKXgpdTUzj9nFwMpp6ZwGwwoj2zoahHSfb7xaVU1qxbKX1u6jWDUjil0Am03BbCLomvTJHbQl/CTDzWg9fdRdBVQ3+okpF4HWcSTYwmmhkM1RL3lRN2lWLXF6HrOInFWMhAfyd9SSNhv2ki06qM65T4zuR+SDKZOqZJCqtIYpFBlepVfEeAJMf99h6M3c24ZQBz6s9htStwZR3aps73h9OWtoAoBaOIwMlBv7LCz5OEEwQkYYd6zioNa89V4k4SpE8vZy9/LqeVYwd3qIUpxCpSn5lynz4JUQSc2Ayd2E3dajoaGaIjs0FIFwe3uQuXuUNNJBi06AhZ9ASt8tu0ylmuEdCYO+sxd9Tj7G1V5UWehcTUZNLEuspCvHJfa49yj8Wqc+g7SfhdnJJ+bAIT1QWim7g8W0eP6nyqJiBsraauJIv843vRt1YTlC4TMoGhX3PPwm7DFEnh17ZD6dSlV9tRWfDDa1HlWD4rlpZPpuOx96Yk29q+AF7Jca4CzqnbeiW/vOfzr0vlhYk8oY79M2nXaPlNnltKTiMBsQilMnBqqWiSUyYuOCdzOoW4IsnE2gXKdA5J5tAKZrpADgh8og4NWAm3gld/WOBmV6AaEXgl5OW4ONPn4nSfm9P9Hs70ezjdJ3Jzus/FqT4np/rkWifDUTtDUZvScMRCXeEB9mz6lB0r3qAl/xNa976E7vM5WsxK4KQso38uBa/tCxlctwD3x/dy6pM78b93C4EvZ2L54h7ObJjHwMpZ6D+6g/AGgdZC2LmQse1LSGyYz7BMFyMzLWyfj/XLexja/ADseZhTm+fSuul51Vv6lATKw07lWgzI7xcghwXOznM0GHYxFBH9BJwkzpiSNLsPS4UggJsAnZtkwK6Cw9JbWyoYDVomwk6ttupPWBkfsxOPtGHpLcNnLyfgKEHfcoSOOnGVcvHaSrAbcmiuOUB91R7OnJHOoSbOnDLgtDTileXlz8kPk1DS1DshcYMkYKxglZLEebx2HR6bDrelS8V0ZPRE+k+G/5w4uJm84ztVpp2wwqfAS4tzprdTgDkfYKnrJz/nUmMHgx7rFHCNY7HqyTy0Q43skFiVWGYSVxMpqzjiUcH3+spS2prr8doNDEirdtCOsV2WFqvQZvftacXV24bH2EXA1E3EoSMssJE56L1W5UrKtsSsupsqqSnK4uiBH9izfQP15bk4DW3KJRSAyPxdMsNKwGEg4XcSlgrB3kXQ1knQ3kXIplNT4Mj/dOha6Gwop6uxDLeplaTPSNxnwi4zSBjbCAjk7DqVBp0Cgh4FqzS05JwG2d5UodessoCrF5cA2tyNx9KNx9qN16abojTIJiUW6fnHpp5LS+AnLa1pSZ6YkF1S+U469RzS+Way4tMkqygJPFUFqAB3fj7Uc4H8YE3aj1cElFkdPSYSAZuyHpQiUstpNd1gVCwoTRq8HAxEJQNKrWZlKGFnOCnxHwcjSSenRApeGqjODLg4M+BW6el+2Xdzpt/N6YSbUwkXowNSeC1sXP0pn739N1p/eB1D9uvU7n2Jzq8lIK9ZU+ICng+rc8AlLuP2BfStm4/nvdsY+vQOgp9Ox/v1XIIrZnJq9Qycn88gsWEu7JIVpOcr97Hrs/sofv0ucl65E/MKbYiRd9UMImsXkty0iMDKGbRu+zses1hcXpXRxYXoD4obbFVur+b+Os6RAE1BLm2ZpfRjyE1KnnkyKPGkyRpn0irSMqiY3MmYidOn9IT9dQz22zg1bKI/3ozTnE9PxxGCvioG+9sYHu5kaLAToy6LU0OdhAJV2C352I0V+Kxdk5bTeUA6/5jIZ9WdI7FAPNYu3PYu3FYBVyPBgH8CXNLCeOLQ9xRm7FLfPSmhhKDEOlPpT6jvp85N/Zw866iLsFOvhj/JTLqy0o3MRyH/L2v/VpprC1TnZum0q2KQIa3iFeiJFWvpaaexrpKaylI6muvxWHuwdtUTsnYzmvQyrN6LmxEVw/QqV0WmZ3bq2+lpqaOlppSa0jwKMo9ydN9ODu/dwbGDP3Dy0A90NpQq1zKhxjUa1HxeMQlmy3sTsFi1dRxlGJDIJzOhGjsUuOxdjWrBjX6fmT6fkZC5HWtnHb2t1eiaK9UgbrGEpgIsLdn3KXXht8tCNnJcrCVJdbhMMvdXOw5jO06ZOlrWjbR0TUhg9n9X54JLGjgmYZXOFyJtW/KKHE8rdb181qZTUvCUawVy8p0FZHKv1HnJexcEUj/MZ5WWkW4FrbjPolzDPlUIxeKyMiBBcyVx8aQ3sZ3BmJ3hmIOhuF1pOOFIycapPofSiKT9Tk0ToBJwiZyc7ndoEssr6eBUQrbd1JVm8NjDc/j6jcexfP8wjZ/P4uinj6L7eskkmH4CVudIui9sXUh07Wxcb91M6IM7CX09k9CqOfR9O5PwF3cRXK0NIRrbuRDX6llquI/h07vxrJCl7Kdz/NVpuFfPIbJhNrpvZhHd9yjWNfNoP/gJSXHhpNaXeJ2K2VnUs1LPKwUvgZom7ZjmIovbnJLsh6ZIWWx2hlKWW8IvrqGY071q+mBNYj6nKhrJuE49yZiNeKwTgy4Xt6ORgX49jFpg3AxjPXC2F8Z0DAx2oO/No7X+MGcGewj7q+hoOYyxu0irnVWNqU0/rDKUZCyVuaZIQGXp1gqdzICQliyeKpnZ1onL3I65p00Nu0n/9fZ2c/LA9xRn7lXupsQ7kwGrgv5USVw0ETCTDEg+tKh0qs65VsVJ7aolTwZFywK0aj7VswnCrbuo+PoBcr58gua8nfTUnsTTXcRA0Ko1Ogm8BEoxDwmfA7e5l46WRqqraqipqqatoY6izCO89earbP72bfR539F+5DMqD35HYcZhck4eIePQbo7s2crh3Vs4sn8n2ScOUV6cQ3tjuerKYGivpc9vJiHQcveq5c2ko6mMR5SZIMJ2HUFzF35jp9anq61WzSJh627Co29THVGTEjN267G2SX+vSgLWboyy0EZPs/a8zV14LJ1K0jfPa+1S70IqIinTfmsnPmXRiTvcpSw7r7ldNQjIArd2fauSgpgCWbu6j7jKaXkEaGb5H9p2GkZKAq8pmlqZqe+lPtepLHqvWfusmjVDPqv25bum85LkIS0feW0pyXYKfNK/U/LfBeK/y4+UudSl1koI3SUz+SWuZZpQf8icKpha4RyMaFKuXdzKUNzGsCihaSRp55QEi/sdnBoQaDk5PZiGVRpYYokJ4OycFsglbJzpdxJydvH263/kwaV3s/Kvcyh/717aP7yT3Hfm0rHyUQ1YKsY1n7Hz+mtNlQTn2bqY8JpZ2CW+9eHt+L+egfurWUS+mk7gm5mMbl3EwKbZtH10N9Vv30HPl/fiXDmTvk0LGdqygLpPZlD27nRCq+dh+G4+Z/J+S9/BZbgKVmvDJKQQSIODApY8I00DYYG9HNOemdqXdArU0o0SA2E5r0ndRyCXuq+8E4GJwGoSXGkLWatdIz4jZ09Z8HsaMfbW09WaQ2ne9zRVHiDsqYTT3Yyf6mV0uAu/pwybOY+wvxrOGHAY8zh+dBUdjXnqvmloKXCp+aQmtydAlVrdWRWO82WW8wKuNjXxpKwGlF4oo7OjhRN7N1KSsU/9L4nviFTA2yculyV1TNtPn/9vpaxcbaaGcNDLqdGzMNpPv34H5n0P4lp7Ne5vrke/dh49GxfRtuMZdNWHCMl4QE8vUU83YVc7EXs7cXsHfmMDvU3Z1Oduo3TXp3zxwkz+suRCct68Gf+GOzB/ex2VH9zGsRV/4NAP68k8fpjKomza6srQd9Zi6m7Apm8h7OjF0llHS3UBHlM7YYlhuXqJu3pUmlDSa3Lqicl7tOsUTDrqS+moK8Fj7CAi796qU9aXrK4tVprT0EpZzlEM7fWqX5hD347D0Iqtt1lJ7uHUt54jmQRRFrj1WrT3Jqnb1I5HrC1jOy5jmxqtInKZ2pWkxVS6eoh15k5dJ8dkyTYZp5mWOqakrYykYJSS+lxK6rxYl6mVweV/yxCotGRfPiP5R2CngU77ngqa4tqq/NXFBT5LhyKxrNKb8JtIKD/aSMJvJBmY1CS8pFBazgHXYMzKUMySApiV4YRVQUiAdGrAwUi/AMzOaYGWimnZOdVvZSQpgEtJgBeX/kd2ijL38sD99/LVx3+hff8b1L13G65v7qXurbuo+2QJSZlbaqvM2CAr/pznHk5JR7ctYnTbYgICqvduw/fezTg/vR3nR9Ookb5cGxdhXzmDmnem0fbZLHQbl2Hc/BCDh54kseshDGsWY1o1n/y37qbp43uJrJ9H6MCjkP0o7pOvYeuuJREwEffJs5OYhUE9K/WcgmItyPMyMRCWVLNapSFCA5dYClqhk+vTFYSycINSKCV+lQaJjFuTmlLW7dMkQVypPeMuPXG/gUi8nZyak3y2eyfbsvdTVH6Q+rpj9PQUMzSoY+xMF2dHOjF351KQvZ5YoF6iToR8lWRlbaCtMVflgzScNEBJmrK4phxPwysNsKnym2T+qS6cplblgo0MD09YXC0t9RzfvYG8wzvUOLypABJopfVT+1M11eJKKCtM1jnswedzqZWxI+ajGDOeJJD1AL4j9xPcOAPHqmvoXXkVHatuoXPzMjq2PE7dxl9h2P9nTLt/i2HrIzh2LsO+bQHuzTPwbJ+NY+O9mFfejGP1rUS+vxHb6qvpWX0HnavupH3FzbRv/y2mlgJ89k7ltXitnbTVl9JUU4KxrRa/Webb6sKjb8LcXoND14CntxmfxLzM7UjZ85ra8Bnb8Jna1ESD+tYq2msK6agrpqexHF19GYbmKrUquuQFfVutmhpo//b1GDvqFSgktuYwtCl4iSSmJqASYAnENKUgJsflvKmdgF2nAKsqQhVzEokrpsWhxFoTCyhtucn7VkA5T3JMWWgpOE2FkQBLLDj5fgJcBVA5rlLtWmkMSQPWbdSOC8Q0MMo9W3GZ2rR9sf5MnRKc75ooeMmAVvjUdtBAQqDlN5EMSMGSAmlUhXAwYmYwqqVDUQHWVGngOtWngWtEADVFcnykz6rANZzUNJSwMBQzMRyV+9n44v1/8NRjSyjK28m4bS/mnU9R+uE8dB/fQ/cn92L9XObIWsr41nk/Atc52r6QgS2LsH1wB2c+ugP3u3dgfutWbB/eTtfHM6j7YBbVb96KfuMSLCf/QuDknzh1/DFOH32M4A8PEjnxDKFDj9L+xQyy3piO4cuZuNcv5uzhR4js/xX2xuMEXPKi2wg6JCOIOgg5O5XVGHbpiHp0xLx6tbCCdPFQz9OvVQwCqqkVQxpcSb+ZsENM7XYC1i4C4sZbOxS8FMAktYvp30FjQxk/5B7no6wTvFFYyN+rGvhLWQUv5ubycnYOH5eW0eZtB7o4O9RBXfVeDu79hk5nC+5QK+0tRzhxbCPlRcdxGlu1/2XpUIVKSbWqteMTCystZVl1qZlBxSqQlXAmpa2M4zQ0Y+xuUiBJ/zU21HDsh3VkHtiqLAfpCqDA5JPuB1oqzygh3TvUtiZ17p8onqpgXSYdTrsJh66Y5hPP4i9fTqDiBfpyn6Dt29v5dvnFvDLv33n78evZ8+5ialfPpXXVXZg2zMa+ZTG272ejW3UHnd/ORLf6XrpX34559c2Ett1GdOdtxLbeQnTTrfRvuxn/9zdw8u8XcvCPl9D8/VP42jMIuTSXrbYsj/zsDIryc+hsriNg6SbpMZD0GtA1FNNVW4S+qRxzRzUWXT3WHmllbE65buIethC2dREWD8jaTVhcd4tMRFhFUeZh9m3fwPZNK8k4tBN7b/OEJaSspLTFlILDBDwUMDQJtBTgjK0EHdLAoM2hr+Q0EE0p4tSriQ2l974obO8hKsecvapClcaJCTl6CNt6VMOC5E1xTdMSmHssYnHJd5PvIEsZagBLw9Wp1yxE5br2NCtNAlfUjKtXpr5uwaXg28oFWoGSFUsMxPy9JAI9JAM9JAK9JIJ6BbC+kJFkyEBf2MBAxMRg1MRAxMhgzMxgzKSBJzmpwbiJobhZAWqk38LIgIWRfpkh0shQQiSfMTM4IRMDcSMDUROO3hp2rvuQ9Sveor21BPoKCGb+mcL352L7ejaJtXMxfDCD6Jr5sF0WRJVFL1ISC2zbIsa2pVocdy4gtnYe7teuJ/rmrRheullN9+xaOZvg+gUU/uM6HNsexFX6JqGiv3D2+EOcPvY4nl33Ezr8NGNlLzBc/DuCOx+k6eN7yH79TmzfLMC1ZhZjR58k0nmSgFtH0NFG0NlG0N6mICYA89ta8dtkW4CjQUYWXxWopVNR2NVFxC1uS7dSwtNLwi2xjw5C1naCVpkCuI2Q3MMq6lASwAQsvXy0YweP7tjLH04W8HxuEX8tKePl6nperW3llZpW/l7VyG5DG2dGjTDSTU3lLg4c3cwnBflsyT1AR/MROppzaW0ux2Fq1SwBqd3MbfhNsq3te6WLQCpwLMHkdBBZHTe0TkjcEXGNHIZGdG21DA4OToCrrqaCIzvXknFgiyoI/X4JOpumyKgKuCbZnlT6GmlZS3pNqeOSWpTVFTA1YW/4DkP2C4RLf0Og7I9Yi/9M7w/z+Hz5VUy74VKuvPwSrrnyEpbOvo5Nr03HtvUOBvfcytCeOxg7fAccuh323ak0duB2xvbezviumxnbdQNsvQk2X4v7q8s49udL+Ozxi/jTfRdy+HcX0f39kxiaS1RvenGZZM75spJ88rJOUJgtUz1VYO1tpbW6kD6/ifE+Dwz54HQIzsY4k/SS9JlUa6VUGnadWGi1dNSXUZp3ghMHfmD1lx/x0RsvseHbz9m3YyONFXkThV9cKQGCU9+sdK6rOHk8rfS1ApY0tLTl1mSxW02yLetGRiQkIbFvmR/fpcXoxDubKjkWF3lkip9UA0RKEeng6xQPQcIOYqV3qP8r2yr2JlanWdxEgaz8Hvlumia3m9XMsc6eRhy9jdj1TVwQ90kw3kBcrAJfD3G/jkSwh75QL3EBWLBXAatfOjhG9AxEDUqDUUMKQCaGktJrewqEEgal4T4zQ31Ghvs1DSX1DMX16jPDYp2p8yb1mcGEkTMDdrZ99xHvv/IrNn39GgVHt2Cr/pbQgeUYvp2PSxZC3b5ITT2jf/cuAt/M5axM5bxDui2k+naJmyitjdsWMLhhLs53byfx8jXoX7wB3Ss34v3qLs7sWcrQ1vsp+2Qu1pLXCRX+lVMnn+Dsscfw//AgwaNPMVr+R0ZLfs942e/oz3wGy4YFlL87k9I3pqNfcR9jh58k2nGCoLubkLNNk6N9QkF7qwJZyN6pQcfWTsh+vuR8CnhWcQVaiLm76A/o6ff30ifvw6NTEqDFlXqIunTE3Dqizl6+zcjiL+UN/DmvlOcz8nkuM58/HM3i+eN5/KO0lpdrG3mvuZXsrhq62jPIy9nK8aw9fJSRw47aYuUuhn21tDYVYTc14TU045Fa0Sgg0lq6ZHktmcnArW/Do0ClHUvLlaoR3VIoxHowteLsbaC7pZqhoSngqirn6O51ZB/eqgrCBKh8Bg3Ynh411CXhTf/WXuJuSfUkvCLtOllFOuE2qFiR9M9KipfQs4veo4/Suvk+DDtmoDvwFIayF9n83OXcf9fVTJt2K7ffeA3XXXUpl1/0C367+BaaV80isOkaBrdfz9DW6xjZfiMjW25k+PvrGNpwJWfWXsb4ussZW38VbLoKy8dX8eyMi3l2zi9569H/4OZrLuZ3S26k/PN7aTrwGV6rXlmgmnvThr6jhobqIgpyT5J54hDZJw9QUXCMlopsOmsKaK/Op6Uyl6qCYxRnHqD45H5yj+7m2N4tHN65ke0bvmXfjg0cO7CdjMO7yDy0i5wje2msKMAu1odYTiqmJWqaIs1KEcvFpmvE3nOu5BpJPaY2zWISQLmk0UCv1opMSANdCjzaWpIawORagVcaWAIllcoxjzBEW7JtqgRk6WsEXul7TFXacpPzIadOhSzSSnsZIq9AztKOx9zOBVLLx7zdClpiaSWDvUoCq2RIn4KWkX4BVkzTYNzIYFzPYFzgZVTQGZA0KTIw1KdnINnLQKKX/ngPAwl9Sr0MxPXKuhpMWNRnlNT9ejndb+XdV1/g4Qdn8cxTD7DmuftoW7GQ6KbFmL6Yjm/VfYxuW8iZ7fMJrZpF6xvTMLx3J32r5jK6Zamaj15mKh3ZtpjwN7NwvnkLsVeuIfzSVdjemoZvxUxGZBrmXUtw736C9ryX8ee+oNzD8eNP4NvxEKEjTzNe/Dzjxb9nvPh3jJf8lrPFz2H8bj62lXM58ep06t65lbMZfyRuLCLs7iDqalGKOM9V1NlK1NlOxCHBWS0VRSW1t6mAcFjgZWslaGsh7uliIKinP6hXqdpWEDMwEDAyEDSqtF+2A3Ksh5WZWfylrIlXGrt5ta6Tf5S38qfcMp47mcPzx7L5/aETPJ9VyNvZx2npziYSrqe84BDb84v4sq6GgaEezgy20VCXTUdzKR5jC169lvEVrFJy9Uh/phacUzR5rDFlyjfh1DfiNjTj6K6hs7mKkZHJGFd1WRGH96wh//gOAtZW4p5u4m4NzHG3bIvFqSPp7SHh1WkSaHt7SXr1SgmBmEd6t0vLXA99XgN9tmxcxX/Gmv0wLV/egv3DiwjuWkjn8d/wzpJLuPvu25k/5z5uue4ybrzmcq6+8jLuv/tyDrx2Dw1fTSe4+VbiW24humUa4e9vI7jpZqKbbyO05SbCay5l/LurObv2Mnb+9pdcccUlvLH8P3nvyf/gqisv5plfzcKQ8Sw9e17Fae5V8Rll6ejqcOhqcRubsHTX01JXSkH2ETavX8GGlZ+xY/03bFv7Fd+v+oz1337Cum8+ZsO3n7AxJTmec3gH1u5q/NZWfJZWXEYZZiQWk2ZJpQFk1zVg0zVMginlbtl0TWqqaWt3vfoONlH6Wl2Dsl7EGxBgCJgiMgOrs0frEKug1EvE3UvY3UtUActwDqwmlLpeWVveSYDFvBr4NCtM04SlNgWAUy03uUb+xwTUUqmcTwNO/t8FquB5ukj4NfcwGRD3UK9BK6JJoNUX1dMfMygNxA30x3vpi/UwEBc4CaT0ClqaBFYiXeo6HcmoTqVK0R6leMRAImogFtYxFO/FZa7jxb88w5+ef4oVLy6m6r17sH0zC/3H07F+OYvEOq1DqZoDfusiNfSm9/1baHvpOkyv30bgg3vwvH079levwf3SVbj/cjHdf7oe4zu34PnmXs7sXMLZXffj2bcc3bHn0e//Na7vFxDc+QC+Hx4mfORXnCn9A2Mlv2es+FnGS37HaNHzRPc/jv6LmQxsXkTF23eT96drGC35lIS7mZi7mXhKMVfThKLO5pRaiDhaiDraJmVv1WRrIWJrIWhpIuZsZzDQw1DQQL+/hwF/D/0BSXtTSllh3h76fXr6fF3q3l8dO8pfy5t4ubadl2taebm2jdfqO3mlupW/Fdfyx9xylu8+yp8OHcEc0cGYnt6uAnKry3i3rJJ6l8S/zPR2F9JYl49PXFFzOwFjm4q3eHpbcPdI2qpSl64ZZ3fjueqZlBQGWYbL1l2DvqtRrc6d/isryuHw7tUUntylYB1zyUKo0sAgwOom4e5KSbalFU7OdWnw8vSoNOYWK1Tc6h76fDoGrCex5f2FQO6jDFX9lpLPptH0zmX0rL6b6g3LeHfpfzDrnmncMf0ubrj2Ym677gquv+YKpt1wMV8/ew21qxZi2Xovw0emc/ro3YwcvZPhY3dx5uQshnLmY/v2Ok6tupRTq65k3wtXcvtNV/CrOT/nNzN+xt23Xcuurx7CeHw55oxv8dkMuPVNyupU8NA14NQ34TW14De1Ye9poq2+hIKM/ZzYv4WTB7aoDrIZB3aSeWgnBSf2UZ5ziLrCk7RW5qk+WxKwl/cgkw26pVLQNylrVgL9ovRzVyASIHXXY++WVDumoNZdh7WrFnt3LQ5dXSqV62SCw1YFrIhD4lidKlX7Tp2K0UZE8szF8k1JunIoqa4dU7YVgHrU9Wmlu35IVxBxJ9PdQJRrKQ2CHgMJ5fYbJv+HR9xO6T6SgtnE/9TuF3f3yFjFTmK+bhXbUm6iX4OXinWFe+iL9NIfFYD1Knj1peGV0NMvVlRS29YsLbG4NOsqDbO+WBfJaMekIh0kwm3Ew630hdpIhNpJhlo43aensmg/zzx9P39+ZiH5b8yg8s076fxkJu4VM4l9N5vkurkMbp7PKRV4Xww7l6l4Vt+G2Xi/vBvzazfS/eIN9P7japwf3YHzi1nUvXwTts/v5eyOJYzuWIJ+3Xxy1zxKy/qH8W5fRmzfEvQbl6Hf8QSni34Ppb9lrPg5Rsv+wJmS3+Pd9RChDfNxfHUP0XWzKHn5ZupWPMCwOZeYt4OEu5GkUhMJZzNxJVlqvYW4o4WYo5mYo4moo5mIvUkpamtUilgbCVtl9ss2BvzdDAV7U/DqUakmOaZPSQCmU2lSKhtPJytOZPCXskZeqW1TsBK9Vt3Gq6Ladl6r6eA3R7J4aN8hcq06OCuWtCxvn8sHRaVs72jmzKkeHOYSamtyMHXW0ufqIeGUqYR1qbX/OolYdYQt3arPUUA6ShoEZo2409ZWugD1NChwOXvqMfe2cvbMmQlwleZnc3DnGk7u36xWt0mKeyiZ2CkWVxcJVyfxKRLLVBR3yr5ATGIyXcoyk88GjUdpOfwspiMPMtb4LL17F7LhD1fxzv3/wYbfXcjJd+/k0J8u5sVFl3LV1Vdw7VWXcMNVl3PNFZfwxMxLqPjgCqwrb6L1m7sJbb6N0T03ML77JsZ+uJZT268n8d21+D+4mLNf/5K+lZfSuvYu3vntbXz69C94//H/YMerd+Lcew8t715B+443MPe24zbIb2/ALa5cj7jO8pyaVcuiQMdjFEuoFlN7Jab2CswdVWo6G2tnDXZd/YT1Ki2NEjPU3HDNFZfpbtRzPg9aqsIQpcBl66pVsqdk7ayekK2rRgErLYGhACss3UOcAq1JyRJqMqW0vB8JT6hjki8EIG5x7VN901LwkummZYylNg11ShLWmJCcF8tOwhxyT6mEtBCADCpPCrAUJDWwKddVAU7Alz6eAldcWVqaBFxpqWMhnYKXKBHRkYz1aLCSGJZYVin3UAOUWFPd9Mc1K0ssLFFCQBXpIBZqJxpsJR5uIR4UtdEf7SYe1RGP6zl92sWuLV+wbNEsNv3lXjo/nskPz93Khmeu49Cfb+Pg89dz/K+3kPXSNIpfvo2mD2fQ+cksdF/MQv/1DBwrZ+BacS/2Fffh/2424fUL6Pp4FvYVcziz7X5ObZ1H6zfzOf7hYko+nU/Nh7Op/WgWpR/MxLpzGdGTv8F/eDmjAq6S33Oq5HmCex7Ht2Y23rVzMX1zH+0f3U7l+3NwV26hP9hE3F1P0t2glHDVk3BJ2kDcWU/c2UDcoSlmbyBqrydirdVkqyFsrSFibSDmaGEg0MVwWMdgsFttS6q2/SLdhPr9XQwEuhkMdDPk72Eo0M2KjAz+VtbAKzXtvFIt8JqimnZerWrj98dzeGT/cb5sqCM2pIezOqpKDrKxpIS/F1aTU59HU+0+yssPYWgvo18sHpdk2BRUnDoSjh4SDh1xe0pSK1s7lGRBk5ClnaC5jYC5hYC0kOlq6emoO2fsYGlBJod2riNj70bV8CALoMZk8jyVdiprKw2tmLNjQun9qKODhKtD9YmytxZRvet3lK+bSV/F09D8a2wHl3LolRtZ9fSFfP7wf/D1Y78g6+VryHnpGn4/4xfcc81/Mv2Gy1k67VLWP3slLSum0b7qDiq+vAX/pxdz5qt/Z/iL/2Lw0/8k8Oa/4nrt/2Lo05/Dl79g4Kuf4d94M+5ds2lbNQ3DV9fg+OY66t/8OaGP/oPOr+6lofAALkunsmqcAptUzE9cZ5dYSj31OHrqcSl3ulGlYj25eutxqbQBp7JYNbdbwWpC2rWOnjrsYjUpiykNKtmfsj0FTKKp4JoKMJHcz2/RYrFhhwYwkVhdMfskgARYsgKRSK6NOLtUnFWAJOe08ymwTQGXOjcFXgpYqeujksfcaWtaJBaXZt0JEAVy4lJqHXcFlpO6QKytuF9TMpiGl7YtQXpRMtRLItxNIto14e5pFpXmJqatqkSkXcFLXMhEpDulLhLhLgWuWKiDZLBdWVniHjotFZib9uNuP4m1PZd333yeXz84Deeqhdi+mknbJ/cR+W4W7pUzMXwyA/0nd9P8zq0UvnoHGS/ezPG/3cTxv9zFwT/cRObfp3HgL9PY9tzNHHlxOvmv3oHt65mc3bWMke2LafxgBkffuofGzxZi+2YmztUzMa1dRMe6RejWL2Yg9zcEjz5JNOMZRkv/QOLQ44TXLiC8YSHGLQ/T8dksDN/chyN/FQOeZvrdNSSdNfS5Gkg660m66tW2JgFXPXFHPQlHHXF7HRFb9RRp4IrZ6+n3tTMcFlh1MBBIyZ+S2m+fUL+/k8GgwKuTwUAXI4FOVmQe56+ldf8UXJL+/kQuTxzI5PcFFTS42oj6KmmqOcrW/JM8fayQvfW1nBrqwWYrRdeaS79Xs2gEKGklHN0k7KKuiTRu6SBu7SRu7yRm61CSuJ0AzNxeTmtDmVpLcQJchZkc3rWeE3vW4+qpwWuox2towG9qxGdsIGBuUgpamglZWyYk8cCwTdzvVga8erKP7OOT15+geNUc+sseZ7zxacYbnmGs+gk6N84i+5Ur2P2ni3n/kV+w+flL6froGvI/WMLmD5ez5v3lrH1tAXvemE7+B3fS8s1sut6/moEPfs7YFxcx/MkvGfrs55z6XPQLznzxc8588UtGv/gPhj/7BcHPLsT86SXo372MihcuovXVX8Kay4l/fSn6vX/HJgPLZQkyAZFYT8qCEsm+WFR1CmAKYioONimnWFxiSekacXRrqatHgCfWlUhgJf3BNFdPc/fqNFh1SVqLrVOsLQ1KP6Wp8BKo2Tqr8ZmkC0YnYVvHhCL2jsll02TtRwUlWYFIoCNg61DrQmprQ0plokks6bQmP5cClXxOrnd2EnOl76dJ7iP3FnAJxCR8IMfFEhe4nWu56bgg6hVXsZO4v0spIQoIyLqIB7tIhLpIhrtJCoBCHSRCnfRFu+mLdKu0P9Y9AS2xrOLhTmKhLuIR+Uy3cgmjoVYigXYiYnEF2wkGu7C2Z2I/9g8c2x8muPtXlH/7ML95agG7XlnE6e/nYPxsOp0f3a3GEA5uWUDwh9+j3/ZrbYHWnbKM2AI1VGd023yS38/BvXoWvtVzsH1xD1Vv3EblW9MY3DQPds3HtXoeNe/MwPz1LCLfzSS46j5lkYU3zCG45wmsO56gZ+P9DBU8i+fQk4QOPMHApoWE1s3Bt2spp/J/TcfaBzGe+ICIs5KEq5K4q5qEs4aEq5bkT0lgNgVcMVstUYGVWFq2GqL2Wvq9zQwH25WGAq0M+FoY8rcx6GtjwNfOoF9g1TahPtkPdNCvINbOKV8732Se5K//rcXVyu9O5PHkoZM8k1fBR0V5NDQfVa5hXkMBG2ursUfMjJ/qwm4torcth4Sjgz6njqSzi6RDU8LeScKmKS5LaVnbiVraVBqzaZKe51G7xMYa0TcXU19ZyJnTGrik93xZYRbH9m4gc/9GbJ0VOLqrsHelVan2RU5dtQJbet/VXYtXX0PA2kBDSQbP/uoJZt5xI9s/uI8zDb+B5meg/inGyx6m7+gMfLvvIH54Fh1f38DeF/6Lordux1e5i4CrA1tvPc3le6k//jnGY+8RyPqMaN7XDJV+w2D1OhJFXxMv+py+4q/oK15BsuQb+gu+InLw90TW3cbIl7+AVZcwvOpigp9fyNnVlzO+5mLG116Md/UddJUfwymtsmJZiWsnMOquxamrwamrxdVTq+131+HsqsXZVae2ZYFYday7HkdXA44u+VwDzq567Eq12HXyTKpVw4dDQCTupRzvrMXeUYO9oxpbx4+tK2saWlPAlQaZvbNGubERa6eymsUSFoVFqQYksXQ1QEmjkljB4sanXXnNEhYpmClp55XFLGASQClodRCWxipnO1E5l1rRSKzuNAQVwNT9ZVVviXOKdCQkfKGkxT8viPk6FLgEYFGvbLcjxyKeNiK+VmIBiUN1kAx3KujEg50KZGo7IPMDtRELSsyqjWiwjZBf5hJvJuJvI+xrIeppJOITtREOtuJxN6Cv241z//Oc2b0MDi2Fow+S8+EiFs+fTsUnc2H3Anq+mkXze7cytnM2XZt/R9HRNZQWbqVn7aOwTevDxc5FDG9ZSs/uv9C8/w30W57m1NbZNH9wF8WvTSP5/SJGtiyi/u1b6ZVZTNfOx7NyJuZvZmH8ejbWFffgW7cY9/4nlBvp2fM4zl2P4Fg1k8i6Bbi2P8Bw4a+h7Flqv/81DcXb6XNXk3RVEXdVkXRVk3TWkXBWE3dUEXdoacxeRdRWSdQmqaiauL1WSQAWs9cy4GvmVLiDkVC7koBr0N+s0rQGAm30+SbV722jPwW1AQGXPwWu0noVlH9Z4lpVmns41eL67ckclh/K4Jn8Sj4oryTc183YcCeFFYep7qiCszKzaDlWfQEhWz1JZytJewcJgZazi4Szk6TEpJQEYh1Ebe1ErW1aKpnb1kZcWkjNDTi7q9E3FdFQVcRoylUcGxunvDCD43s3kHdkK9aOcmydlQpgAi2Bl2xrx7VjE/vt5Th1ldSWnuSvf3iW2TOns2j2fJ5eOouiDY9gO3Y//mPzIW8+Y5n3MpY9h/iW6/B/fSGGD39J3pdL0NXnE/eKCyxxSQk8d5PwSSOUjbjMKCqzhcpCLmp6Ypl/zkQsYFGTXkb9RoK9uZgPPEPwi0sYX3cxZ9ddBmsvg++uYHzt5YyvvZDhby9Ct+dFrG21KvYnbphmRQmUqnGkIS3WjkCnUwAk8NIA5lDHUjATK0qAlJIAST6rgUvuMwmq/1YCKYFZR5WWtotS23LPzhoFV3H3I2JppS0um0CqlbBNrN1JgIVt7aljkranrpuEl0BnqtIA08AmMGwlZGvGZ2okZG7T4qc2WcVbs7rSq3tHbGl3czJmpkIWErpwdUuMS7O0NMsrDSOZLbJdA1KonUS4U8FLA1cHsYConai/lZCniYCrjrCvgYiviZCnUSnorifgrlMtbAFvM8GADEsowZDzBeE9j3F23yLGDz0ER5bh376U938/j0cXz2Llc7MIrpuFZcUsCt68h9z35vDOH5ex7uu3ydrwBp51D6g+Wmpx1u1z6f3+KQ6ufYW8kxtpPvQOp7fMo/29aRS/dgeRTUuJrbsPw1dzaXl/GqHvZnFq20JGdy6m//sF9Hw9m95PZ+BYP5+GL2dS//Esur6ei+XzWVR/cAfmHx6FkhcIH19O6b63MLZmKnD1uSrpc1fR70lbWDUknAKsSqWorZyorYKIrUJBTIHMXq0AFrUK+OoZDrZNaBJcLUppcA36munzaOr3NDPobWXQ28Kgt5kBbwsjnmblKko/rldq0xbXFMtLLK7KVp49lsNjh7L5zcliSsxtcNZI2FlMQ9MJ4nEdp5It2Iz5eI1VRK1NxFWDQitxm8Crk6RSx4QSUvNaWick0IrZBVyteHqrsHdUoG8uorm2lNHRUQWuUQFXUSbH9qyj4Ng2bJ3lKTil0q5yrJ2lWNpLsHaVYOssxdpepsDl0JXRVpvLe2+8zKMPLuPBZfNYvHA282bP4akHZvKHJ2/n/eU34No9HXJn4fvuBgJfX47t80tof++X2L64kraMNdglptRTjVtfi6e3QVmGPkMTAVPzpMzNqsUz3TAgUI55u4iaK9Bnvo7ju1s5u/pSxtZdpoBFSmc3XMbY+suIrryOjkNfY+2SYLlASFw7iTsJKCqwtAuIBRyT4EpL9m2dVTi6BFJyfSU2AU5nWvK80koBqb3qR0pDa+oxS1vlRJreFqn/2VGN3yjuosCoVXPNlXs+Ca5JWE3dP/ecBrEp16QsNEnlvOSTsKWFoKkJn6FBPe9zPj9htUmjgDQMpRsHpsTNlPXWyQVBaelytRCXFjJ/O4lgG0mxsEKyDl2nil9JmghLa6BATJMALeKXZcIbCXrqCHvqCbrq8DtlXqNqfJYy/K46rKZizIZcTO1H0R9+jf4fHoR9ixk78DCjBx+G449Q/80Snnt4JnvfXMAXLy3jsxcW8+VvZ/HSI9N565nZfPLWsxzZ8ibdq+7n7Na5jO1YwLjqdDqX0k8f5cU/Pkbh9jeI7nySs9sW0fHhnZS+fieJTQsY+H4etR/cQ+uHdzC6Yx7jOxcwunO+stYEaq3vTlNzfDWsWkqHBODfu4fOj2YSXD0H74b5uH54GF/JVzh6ckm4axjwVtHnrqTPU6FcxpijgqjIVk7MXkHckZYGMTmmWV+VRGxVJN11DIVaGYm0MRhsYUgUaFEW2ICv6Vx5mxSk0hoSV9KXApenmRFPI19nHuHP5U28WtvFqzXSW76NV2sEWi3adlUzvzuWwyMHT/BhYRGecDtnB5vRdefS0lMCZ3rxOkqpLD+Et6eGpADI0ULc3qIsK4FU3NZGwtZG0tauFLO2ErU0TUrBrpWwpRF7Z5mykAwthXS11jI+rg2xPnN2lLKiTA7/sIbcw1uwd5XjEHWWqdTeWYq9U4ClydpRgrWlCGtHKYaOUjat+YpHHljGow/dz5OP3s+DS+awaN4sZs+4i7tvv5VpN9/Al89eTWD9Tdg/uIjhNVfhX3cdVV/cRPjzKzAc/QC9WBsdYs1JwZ4s4JolM+mqpt1VpV4BnYwvrMTbsh3T9mXEv7wM1l3B2PorGF9/OWy4jJHVV+L55BK63/4vGj+/i5bigzh6mnAri6kKa2cllg6RwEssSbGaNEAJ1EQ2sTqV5Skgr1LfdRJU8rmyCVnVPdKqxCowSkmBUcAkkGopx9JagbW1QqXmljLMLaXa8bYKrO0CsQo8vfVExLKythKxtijAiGRfgKPFGTWQyf5Upa9V10tlpu4h90rfT/KGdi4dVhBrfeIztjZCFolnpu6fsu7ElRSIaetMihWmQVG+ywUBUy0Bcy0hcx0hWy0RRy0xVyNxdxNxbxNxn6SNxLzNRH3NxPxNxIPNxAPadjTYQiwgrmEjYW8TAXcDPkc1AWc1ZkMJeQfeoH7Tr/HteYaR3Ytg//2MHXqQ0UPLFLwGdyyh5P3Z/O6hGXzx17m05HxK477XKfzkIU68ejf7P/8t+3d+RcXxlTg3PsbolvsY37aAsR0LCW5epkbpP/ebByn+5H7YMU9Nxdz8/r0Uv3qrmoZZWgPbPp2J6ev7GNg4X/WyH1XxsUX0bZpLy8fSOnkvzV/OpfKD6TS/d5eaRHB8xzzc6+ajO/ImEXMeEV8ZMQUsiXGVK0UdpUTtpYRtJYSsJUTt5cQcZcQdZcRk216ujsXtFcQsArNqBoPNDEfaGAq3MhhqUftD/iYGJyQAa6Tf26D2Je41KPJrMTBRv4JXC6e8jazKPMQL+ZW8JC6iWF3iMta0ahCrbeelmiZ+cyyb5XsOUGhqZXxIeihnc7y5gO2tpVhM+RwtO8qWzH14emsZcAqYmlNqIW4Ty6uFuKWZhLVFKWZuImyqJ2KuJ2ppIGZtJGptxNMrYCjF3iHgyqeztYbxsRS4zpylXCbY272WQrG41HWlGrg6y9R2WnIPS3sp9rYS7N1lnDi8k2eeeoyH7l/Kg/cv5vGHl/HEQ8tYOn8mc2bczn133s60W6/lrpsu59Wlv6Ti7xdi/uxSOj6+BOtXVxPa+0fsDVlYOquVxaMBYdKSmRpnS0tAoUkDiEtXS6DzBPrDz+FfcwNj313G2IZrGNt4BXx/Bb7PLqH+5QspffkXVL9+IQ0bHsdQf1z1oJe4lriJ4jIqQHVWKpBZlStckYJahWrQMEsXCZVqEotTvrPI1FqKWdQmKptUa5kGopQEUmmZZfWglrLUdjnm5lLMzVIplGJtK8ecksTNwikLOixWp7mJkLlRVUZhSxPhVEOJssikwUSB6J+pVQsjKMm23LeFkKlZHRNwKaCp/9WiSSAmx5T1JQATy0+sOK2hQLmaMtrE2qoacC6IWOQL1xCx1BGV1FxFxFRN2FhNxFJFVGSV7dR1tipNjirCrmpC7lrC7hrC7kpCzmpCrgplgYV8zWQf/ZL875dj2TiT+PYlJHcuZmj3/Yzuvx8OLyO0aRGWb+/DunY+h99YwJ8fn8Fzzyzkwxfv54MX5vOP38zht4/N4703nyN37V+JbHlYm/Dvh4Wc2TqX/C8eY/VnL/HSP37Pd39bwPBWCcYvoPHdu8j82y20fnw3XZ/cg0WWnP/8LvyrZnF6+xx1jQT24xtm0/HxdDVZYM9nsyh87RZav76PrhULcf7wDIaSVYTsRSS9ZcRdJSTd5cTd5cScpcRdZalU9suICqwc5cRFTm17AmIqrWQw0MBguImBYBP9gUb6/A30+xsVqCbBpVlgQ4EmBgNNk25jyo3U4NXMsMS43A3UNeayPvswHxTk8Y+8cv5S3shL9Z28VtOlXMWXqlt49lgBz+47iM7bDPE6qrpy+WNeIU8dzODj7Rv4bs8WKqtziVkaiVubiVoalQRIEzI3ETc3EzM3EzXXEzZVEzLWEDbXEbfWEzRJs3sp5vZibG0lGJvzaGusnLS4zpylujSXY7vXU5b5A9a2ImztJedBS9u2tYvKcHaX0VyZyesv/5VHHlzCww8s5sGlC7l/0VweXDKfhxbPZc49tzH91muZduPl3HT95Vx9zUX8df5FlL/0S7xfXErsyPPYW/JUfymBwKQmLZZzXbBJcKn4WleJ+l7u7jrC5lp8NavoXT+T5IorYcN1jH9/NafWXU/420sxfnIRda9fjvmzawh8dx21m39DR102IemvJONSrU2ELOKSSj+tBrz6ejz6eg1s3dUqDqZZYenvqrnK5nYBVCnGllKMzSKZMaJkQsbmEgUokalJS7XtUkxNJRgbS9S2saEUU2MxpqZiLM3FWFq1e5oEfO0V+A2NhM1NGmTMEoNqIGiSd1tPwFSP39SAX46ZG9Q5uSYinaetrUqT4BJAiVqIiQWVOidADJtS11ibtWOWZg2UqiW5NeWiCiSlz6NmgYmFpTUQaPBSFlfUXI0oZqlRiliqNXiZq4iaK4lYKolLE761UkliN2FLGWFrKSFbKUFrCQFrCUFLPkFzIUFbEX53JU2lW8n9dCntn9yDVVr71i/FtWkxvq33E9hyP871C1WMybtxIUO77ocjD9OzfgFr332CT97+Ne++sJRXnpzBiufuo/DzhzF+vYzASq0zamD1LKLr72HjX2fw7PL72fHp7/niuXlkvzcP9i9TrZHH/3g9rpWzOLt9CWe2LCK4+m7C380kvmEeobXiCt5HdN0cdU/L+vk4dz1ExUez8BxcTsv232Oq3kosUEnYX0bEWULCWUzEV0zEU0rUXUJMUlcJMWeJsrwi9lJi9pIUqEoVvDSAlZJwV9AXqGcw1MBQsJ6BQD1JXx1xTw0JTw1JT51mYSlYSYC+ObWtxbs0YIkl1pyyyJrok21PPcPuOpK2KnqaczlYeIzvSgp5M7eQvxSW82Jtq9YB9VgWzxzN5FhrCflV+/nw6C7ePXGMjZn7qajKxNdbqUAVMtQRMqaAZKojbKpV22rfWKfOhw21BPVVBI0VhCWfSIVmrsWjq8DSVoS5pUC5eIamPJpry1LtiQKuM9RVFnBy73oqc/Ziay/G3iFQEEiVpPbT22INFGFpK2DL2hX86okneOyhZTy8bBEPLJ3HUolvzZrO/Fl3MX/mHdx1y7Xcet1l3Hzd1Vx77SVcdckveXHhZdj2PY+jrQBrl3T0LFZWXFoqfpbWOUBLS46L5PuU4eqqVqMd3O1H6dz3e4LrbmLs+ys5s+Eq9F/eQO3H1xLcOA33xum4197OwLbbcG++h84fnsBQsQOXoUkVyJhNCmyzslqiEksTpdyzdEEWa0daUcWC9errlCXsFBdWBfYl7iUuXrmSWGLK/RNrqqkMU6MGLIGVoaEYfb2oSFODlhoaijCKmosxNBdjbBH4FePW1RAyNRE0NhI0NRAw1uE31CqpbXMtfuWh1RO2iBpUJ2r5PRqAmghPWGmapXauJZb67RJesMlntOsUBC1NhKwS89JGk4QsjQTlXvJcxPpSLqQWD4s52rkgbKpEkwarsLmCiLmSsEUAJfEZLbgctpURtotlUUkkFdOJ2KTAlhCylxO2FSjLw2MtpjF3FQ3fPqpNibz/AcaPPMLZw08wevQJwruW0rtygZoWWffNXM7sexAOPcDowUdUC2Pw+Av0W3cwVPMO9k0PY/1iOqc3zyGychbOr2Zg+/IePN/eQ2z1DL7/y3384Yn76Fkxl+r35/Lhr+7lxBtzqX3nNqreuIX+9XPhh3lK1hVzyHhVPjtHLSQbWTeHU9vmqyFAgU3zcB96Cv22h7DvepRwzvO0F68k4S8n4iog6igm7iol6i0h4Skl7k6lrhKizmIlsb4SjmISdknLSKq0RLmUA8E6hiLNDIRlpZ0a+v01JL019HmqSXiqiUlLpbeO/kCDssb6/I30+ZroV8F5scgEWGJxTbqRArukr1Gd7/M0MOJuYMhZR9BYSXVtFvtKTvBxTiZ/yirkqcMZPLRjH6/u3MSm/evIKTyApSOfpKmMPqmMjBUEjaUEDZWE9CUERYZKAoYq/HpJK/Hry/D2lODuKsTfW05AX0FI8o25Cq++EktrAabmPEyNBVibS+htyqGmLIdkMqbAdfrMGeqr8sk8uJHaggOatZUClbVNav9CJWtbIbbWYpwdRbRXZvDaP/7Kow8t4/GHHuChZYu4f/Fc5s2+m5l338L0265l5l23MPueaWoA9Q1XX8S1V17ENVdeyjuvvkBPfZ5qqZP7qZhZW/EUyb6mqUCblBwvwdJWirVVLK4q4uISmxuwla/AuPZ2Tq+/msENV1Px0XUcff8WDDsXcubkHMYPTGNs5y2w61Y4cDPRvXPxVX1HTOI60t0gXbjFApNtczMRs+ZKKavE3KzAIZZOGgAKJMr6aSAk5wxyXoOMT1+Pt7cej4yNFEnXCmmhlFhXayW21qqUBVasoKVJLLFi9A0FGBsLlSQ2GZCguUifsrSMdZrVZdSsLs0Sa1TfQfsd8hu0awVkQZNcL6pVxwSEorBK5fN16jcJvCYgaWzQpM5r1lz6f8u2XJuGo1hqMXsLFwQNZSpTBg3lhIwVhPRlKvOGTSWELKVErOVKYVspYXspIUcZYUc5EYnfyLatlJC9jLhbCnQ17cXryXxvIXXvTMMmUx5vXcDQ3mWc3v8QyT0PYlmzkLr37qD8jemEv38ADjzI+P5lKlA/dugB+nffj6/8PTCtJXnoNwRW3pfqszVHxbDYMRd2yHxcCyl5fy5/eGQm2W/dw6ktc+n8dDavPX4Pnz87i5r37iaxfh5nty2g/YsFfPb8Qva8NAf/mjm4v7mPlg/vxrVmJuN7lnJ66wI8G+YRPvZbGlbNpWLTcszt+wl5ignbc4g6Coi5i0l6S0h6BGKFKRURU9DS0oSjgLiziIRYaPZi4vZi+n3Vyj2UmNZQuJmBUAN9AZnOV1RD0ldLn6+ePn+9Apco6asnIVDyNpFw1dHnkY6qArAGtS0B/n5PHX0KYKJ6dW3SXc+At5FT/kb6rRUYW/LILc/i+2P72XNiP3W12Th780k6q4laygkbSwkZSwn0FuLXFxDUy3YBgd58gnrJxGX4ekvx9BTj15fg7SnG3V2orK2gQM1QrvKOo6MYY2MOxqYcTPX52FqKMbVk0dWQRXdTGR6biYHBPuqrxeLaQE3eQaxtAq1ibO3iMhYpYGkqwNqWj6OrmIqcQ/z5ud/x8IPLePyRZTzy4GKWLp7NzOm3cOdt1zLtlqu47fqruOvWG7j3zpu5/qqLufryC/nw1RfobcxWrqZNLDcBl4KjbMv/mtxWkv0JyTENogqkqc+6dBWqE6wMz+qp3EPb9w/Qt+Z6xjZfiX7VbdRvfZCh0uWQt4Sxw3cxvvsG2HEdZ3bdxMiBG+k/Pg9z0RoCMjZQYGSWYV/ikomVolkiClrKpUq5VRJbShVkzTJpJKLA1jQBGAFYyCggkWsFBAIEgWArQWML/t4mQr0tBHoa8XfX4uqsxtVRg7OjGqe4ya1l2FolnihueoWyunz6Ony9tQRS1pbfWKcgEjAIwASc2ndR3099LwGMpoCphoCxhqCphqBRg5dAL6g+L5abnBOgyX00eAmwtXueCyxNaZjJ/9LgJdbaBf7eEkQBvWRiAVgpIUMxEXMpYUsxIbMm2Q5biwkqC0vcI7G+xOISi6OUsLsMS/V2KtY9zf6/30zlq3fQ+N49dH10N4bPZ9H16QwK/n4jtW/fi+3rOZi+msPwLrG2HmL0wDJGDyzl7KGHGd//AJ6dj6E7/ncCR54luGY241vmML5tLmMyceA2WbziPtWiOLh5MVv+PpfnH5+t5usSsLlWzWTXP2bz7jPTWfP8LNa/OJevXphN2Qfz6Fs3G/+q2eS9Pp3Xn76HlX+YRWjtfYztXERi01y6Vs6n6evZtO/6PTbdQRKufJLuIiLOXKWoM4+oI4eIPZuII1ttx+x5xJ35RB25RGxZxOzZRO25xO1FJNzl9AVkqTCJbTUyKOAKttAfbKA/VK8pWEd/UANZUkAmQAvUkQwIjOpISF8xT01qu5Z4qtOrgplXs7YUyLxyvQa1mLuBmLOGAWcFcXs5Ln0eQXM5fa4aIvZKgpYyQuYyQqYygsYy/AIvY5kCVdBYSECpFL+hBI+uGG+PwErOaTALmcRVrFbbHl0hpqYsjI2ZmJuyMTdnY23Nw9aWj70tG0N9Drr6HNoaisg8vJWcAxvoqDyBrV2gkK+BqlWUBkkB5pZcOuvzMera2bRhFcufepRHH36ARx9cwqK593LHbddw642Xc8sNl3PTtZdxw9WXcsN1lyt4ffzmX+mqycQlAf4WuVe+knZfgZGAS1QwYSWam/OxNBeklI9ZHZui1nzc3RIeaSZsbcDZWU7DwbfoWXkzw99diXv/UgZ0b0LXHxkrewIy5zC48xYq3ruOb5+/ifefvp71f7iMA2/dRu3BzwmJdSHjVKXQm9IA0MCjuVdyTArxZIxJWTwKHI0KWH59A77eOjwCmp5adVwg4NfLdZI24dU14O5uwN1Vj0v6inVWKwurvSKTlrITtFdm0lx2nMaSo8o6tYvrKa5jUyGWlinWqVQwHUXYVMVSjLNLKrNK/IZq/IYalQqQNChpcBKlj2vHZFuTfCZglGPyvQVuKasuHU9LWXkT8BKoTViXdSrGdoG/txiRuAcBQzFBYzEhU7HKvH5TAT5DPj5jgdoOmAvxW7U4VthWTMhaQNieR9hdiqXjKDVbnsW44zHqv7qfyNqluL6dhfmLe2j/6G4KXp3Ovmeux/DVLDzfzcO7bj7DO5dwetcSzux9ULmMZw4sY+zQIwzsXELnN/NpW/Mg7auWMrhzGYMb7mNg3UwGN8xkcNN9DG6Yzemtc+jbOJO1z8/kt8vuYcffZ5LctJDRLQuoff9eSt+9j9aPZ6nhQ8Gvp9P78b1kvzOHF5+ZxfNPzOb4azMoe/8eOj6+C92Xs3FtXsipk48ylPkI5uw3iDkyiPsKibnziLqyCDuyCdsyCFszCNsyidiziDmylWQ/bD1JzHqCqC2LpEeDVjJYQzxYTV+ggn5xE4P1JMXiCtaSFGCJBG6pVMHLV0PCV6vcx4RsT8TCaki4q1XnV+maoeTS9rVjompirioiTnH1S7R+ZU6Jv1WoWKV0ywhbywhZSwmYS/CZSvGbywmYyvEZSvHo83Hr8/Hoi/Dpi/FKapC8oYErZBIXsUJZWr7eEmwKTieVTI2ZWFozFbzE6rI1F2BTcBKwZdFdfVwBztaeh7UtTwHO0pKLuSkHc3Ou2pbrdbVZdDSW43GZsVm7WPPtxzz5+IM8eP9C7p52Izdddzk3X3c5N157GdddfRlXXvJzZk6/ke9XfaQaBaytuZjqczE35mKSe4sl2Jw7ATCx7CTVlI9VxeUKFOg0cMn30SSfNzXn4NGVqphfzFBLzNyIpeEYjZufRv/pVZhzlzMe/oxRy+tqzGTy+AIOvHwHD8y6gduuv5TXH/x3Xnrgv9jwp2vIe+smWo58TsQicZ16IsqlEmtDXC4pqJPWi0gKdbqQazGnlJRVpIHL2VGJo7MSR0cl9vYKHJ1VmFpK6K7No7Uig87GfIyd5XisTYQ90h9Tp032mTAznLTQH5XFWdswtJbQUn6C5vLjtFdloG/IxdiYh6EhF31DNj11mfTWy/EstW+Q5ytgTz1XkVjRjs5SnF3SWlyKq7sMT085bp2Wensr8PZW4dNrUBO4+VIATENOfvOklam5xmn31K/XnsMFvh6JWRQR6C3GpxdQ5eE35OM35uM3CbTy8Mm2uYCgpUCBK2AtIGApIGjNJ2zPx9a0l4xvn6NjwzK8B55At+p+2LWEsR2LGd2+hNFdSwmtW0DDm7fR8eksTJsWY/h+Adb1C3FsWox3+4NqltHEDw8Q3bsM/7ZF9KyZi27tfFoP/Q3LyX/g3/wAoVWzca24B9NX92L8cgbN79+J7fM7sH81k80v3Mnvl93LO8/MofwjAdcMuj++l/b3ZlDxxnQyXp/FJ8/N5s9PzeTNX88g55370H99H+3rFqD/djbhvY8ymPkUvt3L6Dv0CKGs57F1H6AvKhZTEf3hQpKBEvr8RSQ8BSQ8hSpNevJJuPOIu3JJOHJI2jOJy/lwNfFgDYlAFTF/BVFfBTFfJTFfNXF/FQl/NcmAAE2ApUmDVjVxbzUJby0JbzUxbxUxT6VS0pOGU6UK+MecWoumJtkuJ+6S4xVEnOXKrQ85yglbSvEbS/BaKghZywlaSghYivGZi/CYi/EYinD3FuDqKcDRk4+zNw+nrgCPvhCvvlCBSyDm15cqN9FvKCWgrLEiZW0Z6jIwNWRhbszG0pSLVVkwOVibszQLrDkbe0s29tYcbK05WFqylVWllIKDuSkTa1MWvTUn6KrN4tC+rRzcvZmG2lyqSo7w3tsvMWvm3dxwzaXccK3oMgdAMBIAAMPySURBVK689JdcccmFLFs4k93ff461PR9TczYGKVh1mSo1NEiaiaFRClqOkhQ2Y1O+kkmsrJRVpilPgWqq5Dt6u0sIm6sJS0OFpRbpRtR4dCUZ78/CUPgS9K1hLPENmF8h47PZLLjzapbccyF/WfhzPnrsX/nj4v/i6HdP0rr2Xireux3dia/wGGs110/FebT4TyhVcDXrow6fXgq5uOVSsLVgubhdbl21gpV0PeltLKStJku1YFq6K/Damwl62+mPmTg1aOfMKRdnT7kYPeVm/LQXzqR01gdn/Vp62svosJuIr5ummkxqS4/SVHaUzqoMDPV56OtzFLh66k7SW5+Z2s+mpz5bQUzUW59Fr9rPxdCYp7Z763MmpG+Q5y/vXSoOrTHG2VWOq7tCgc6tE8AJ3Crx6QVqGqSUBZaKo6WBdoGnOx+Bl1JvPl59rpIGr1x8hhx8+lx8xlwC5jwC5nxCYnVZCwjZC7G3HqJ96wsUv30vQ9m/wvTDE1R+Mh/23M/4ThlXuAR2Lya5cT4Nb95O6+dzSGT/lrHqFxgt+yOnC//AYN5viWUsJ35iOT2bFxI8+ChnCn7FSN4zNG17gmOfLKN1xUL8q+cwsmUxY9IlYu9CTJ/dhfWz20munIX9k+nkvHwrrz45jecevZunlt3FE0vv5NmH7ub5h+/mL0/cxxu/msX+l+6m9qN7aPl8Bp6dD3A67wlOZy8neewJPFsW0frhdGyr5mDf+Rj2ujUM9LfTF60mGS0nGalVQEqEqkmEa+gPVzEYLmMgVEZfsJS4v5h+Tz5JfxHJYAV9wQoSgVJi/iKi/lIi3jIi3gpingqSvir6AtUaqHxVxL2aBGgxbyVxbyURtzQOlBFxVxBxSVyxREkaApQm3PWU624vUw0mQUsRIVuxqmjUO7MU4TUW4ugtwGssUha0z1iorCtxI526HNyinkKc3QW4uguwd2bh6DyOpzcLb28KYPoizaVUkhhVLoaGDIyi+gwMdScx1WdibszE1CAwO4m5MUPtq2ONGRibMjA0nNQ+I2BJwcTaeJLaikz2Zx/m+/UruX/BHBbOnMbBbV9QU3aUirJC/vanP/PZB6/xxOPz+cW//0/uuvl6XvvzM9Tk7cXamq3uPwEqUX0GvXUn0ddnYGzMxtg01XLQrIZ0qkkrWPqmbAxN2ZiUBKy5msUlLazmauUmB03V+HTlFO36mNJdzzEW/o7xsX0EDZ+x6oVbeX7+f7LuN//GB0/8B/Pv+AVXXXEhmbuepb/1RZo+voq6t26gfs+bykWOiJsnjSDKFRdITbpVYo0o10vFm7Sgt3Ty7W0tIuBuJxrQMZg0c3bENQVGkqblmwRVSgKv8dMeOF9n3Or6sdM+kjEzutZSGstO0FB0hK4aebbZ6GpP0queXzbdtRl01WWgq8tIQW1SutoMJQW3uhxlRXfXZE5I9uXcJNgm4Wds0iqWtGsvDTjpPn9uXSWenioNXF5dAV5dPh6dBi1fryZvbzYBgVhvDn5jTqrLQx5BUy4hSx4hWy66ihWUrFiK6fulUPxrnLuXU//ZXMZ+WMyZbYsZ2yHgWsLgxgXUvXITxrULOF30B8aqfstY1R+g8jnGK//AeOVzUPUnjDsfYzDzN1D8LJT8mrOFv6Xoq8Xs/NudZL90C9VvTFOT+gXXzKHhvZvRfTQN99d30/bBHXR8NAPzF/dS9d4Mtr1wG1temMaa397OV0/eyKG/3kXlu3fR+tndmDcsZPD404wVPMlY/jP0nXwKz4ZFDG9bgHf1bJJb5mFfMZtA9t8YSdYyEG+gP1pFf6SOZKSG/mgt/bE6BqI1DMVEsl3LQKiCQW8hA558+tz59LslzVOWWNyRR8JVSNJVRNJTSr+vgsFAJf3+ShK+SgUxBbJADX1BTQIvgVzULSon7CgmIo0BrmKirlJi0gnWWaaBy55q4bUWEVLxyEK8hgw8+uP4TXn4TYW4DRrA3L25ClZOXTZOXRYuXTZuUU8OLgWwXNy6DKzte7B37Mcr+aKnCL++CL+hSIUUBG6GxhPo649jajyJoe44+rpjGMVlTEFLjlvEfWyS+FcmJpHAq1HAdUKDS5NmmbVVZnC4t521FgvPfPgxt91xC2+9+Ay1OfvpaKojGvXSVJdNU/UxPvvgRZ59bCkHNn+JqSETe1seBoFWfSam+iwlowKXWAby/7JSAMrD2CjWgAAqG329FMBJiQtkaNTcWmOTgE6st2yMDfJ8JA5cSdAg3UWk1b0Oj6We5mMrqPr4dnyFL0D/TtqK3+T4679g9W//B4/NvYRbrr2cSy69iNm3X47uuzsZq16Of/scbB9dRNHLv6Rg3e9wtOQQM7cSMFXhN1aoVlwlvbTmSstuNb7eKoJ6GVRdhq6lgHCgi3GBzBkvowKds17Gzwh8PIwLgM64GT/jUjoXZFN02qMAltbYaSdjp5yMn3bDqA/GgiTCPfS0FSnrq7H4ID21mrvYI1KA0tQzAS8NWN01x+mqPpE6PwmtruoMpTS80ufS9+muOUlPnQa186VZbZo1d4GnOxevLk/Jo8vB25tLQKwtfZ6CV8CQi0+fTcCQTdiUS9icS8iUQ8RWgL11H/q8N6hau4TY8Weg+Df0Z/8O357HGDzwKMGtS3BuXIRn3Wz0X9xL/af3ksz8FeNlzzFW/hzjVX+G6j8zXv0XqPkz47V/wHLgSfqzBFq/51TxbwgfehTXloV4Ny3CtmYujZ9Op+Stu6h+exqlr99B2RvTqH33Turfv5u2j8Q1nE7bO7dj/mQalk/vwvD5DCxr5mKWRWG3L6L/6COQv5zxvKcZzX+SswW/xrXzQSIb58CeRWrGiLO7F9C/cTae7csZ8WUx3NfEULyG4Xgdw/F6hhN1DMXrGEo0MBirZyBeS3+0gn5fIUPeQgY9eQy4c+lzZJO0Z5OwZhO3ZZN05NDnzKXPKS17+fQ78+lzFhCXbhSuEtUiGXWJC1qidXr1lhP3aWBLKveySkt9lcrdlOlpIt5y1TAScZYRFuvMVaq2g1ZxBfNw67NSFnMeXmMubkMO9q4MrB0ncPVkKWA5uzKV3N3ZeHqkwspVqa39COaWPbi7s/DoCvD1imWeh18vMQ3JfAfprjmEUVlQJzDUn5gAlrkpA3PTSSySNmaoY5PHMzCJGjKxNB6nteoAR5trOXr6DEfG4YOGJp5c8SW7ju8jN+Mwn7z/HoW5B2muPkL2we8oOraZrqrj2DtyNSurTmJsYhEIvMSS04Al7qJJQUtgJBZZLsaGHCUFLbEQxdVVbmQKWk3Zys2VzymANcjnpFxI40UlYenrJo0TEudqLaBl14vUvHERzavu4UzzK1iO/5r1f7iYBdMu5KrLr+WKSy7n3nsu5fBHd3N233TG9kwjtuVOIl9cg+uTn1P3yVUYMl7H01mo4jhicXl7yvHoyvH1CChrJuTuKEbfLNDSwXiA8VEvY2c8jJ52MX42BarUNmcFWGnJ/v9eAjwFvxQExwSAY34Y8xH16zC0l1BXdICm0gPo6o7RW5dBb41AJgUugVrdSXS1J+ipE2iJW6mdF4h1Vp2cAFcaWgKkqVbY1O30+angSsNrAlw+XT7+nnwCvXkE9dIcnqdtS8yrN5NAbyZBfTYhQw4hYzZhewGmku2UfXw/jp0PMlbyHJQ/x1jVXzlb8UdOlzzPUN6zxLOfJX7yaQKHlxM88WvGy55P6QXGqv7EeM1foOFFqP8bYw0vYD2ynIGc33Cq8LcE9z5MdMf9jO5dCocfgEMPMnbwYfp2LiKydSHBTYtxbliMde1CzKvmKUA5183Hs2kxwe334/thKbGDD3A68zHGc5+Agmcg72nGc55iLPdxxnOfYix/Of2ZT+LZvITA+tkkNs1mbNd8+jfNwrXhIYbN+zg93MpIso6RvkZO9bcwIiDra2K4v5nhZD1DiWqSwUKSnlwG/QUM+vMZ9OUy6M5hwJXLgCuffqU8lQ448+h35NJvzyVhyyFuyyNmzSViyiJqySRqySFmyVNDjcKmPCKWAuK2IuL2UqWk9A9zlxH3aG5nXNxPZX2JFVZG1FWuWn+D9mICtlQ8y1KI2yTdIbIVuGydJ3F0a8BydGZg7zipUken7Gfi7MzC2ZGBvf0wrq4MPAK4zgxcnSfwdGVhbjpOT80hJX3dcTW8ReClXEOBkgLVcQUv2bc0i9Wlpda0GjLRVR4jp6GEg4kYJ4Fd0QR/zinh70ez2HniGH/6/dPcetOlfPfN29SXHqGr6gSOdgkES0YWq00AmIE5ZeUZmjIVbHrrsjRrq1ncPYl1aW6kXgqbcnc0CZzELZywsJoEdJmqEUGsNNXNozEbv14aO2qI6SXOVY+lajuuPc8Q3TaD4A/3YjvxK/oKn2Po5EPs/us1PLPgah6753LeeeJaGtfdy9nyhVBxP2ePyyQCVxP7/DLG11yE76tLMK+dhvvEs7jq9uExNOAx1OCRmE9PZco1qsDdU05PUx42YyOjZ3yMj/kYG/UyesbNmIKTUwOQcvcEPj8G0/9WymITd9KXssI0l3Jcjo2HlGUX8rTR3ZhLXeF+VXn01JxIWaxZ9NSIa55Bb4NYZGI5TYJLLKnumklgnQ+lqfrfnRd4XeDrkRiXWFgFhAxFhCQVcAm0evMIG/OJGLMJCbT0OUQMuUQM2cQdJbTmriX/k4X05/0B2v7BWPPfGWt6iVFJG/6mYETjS1D/V5D9ur9B1Z8Zr/wj4wKt6j9BrQau8eaXGG15Ecux5SSyfq2C5IltSxnbv4zx/UtVXy8OCrweSKUPaSA7/BCjIulWceQRxk48zviJxyDzMch9EnKfgpynGM9+ErKehJwnIW854/nLIf8ZxnKXczp/Oe4jv6Z1xwPY181ldOcCxn6Yh2vtDFx1Kxk93c0ZBatGRvqbOTXQwnBfM8P9jYz01TEcKWPYn89QoJDhYJFKh/x5DPnyGPTkM+ApYMBVqNTvKmDAKfDKp98hAMujz5ECmCWLhDmbhCWXpCWfhCmPuDGHmDGbmKSGPKK9OcTkPehzCBtytYpEn6MqlYCqWHIJSwuwSWpwzW1MdxQO2wtVI4vXkIdHn6u5ht1ZExaXo0vAdRJ75wnsnScVpFxdx3F1ncTdlaUsMndXBpbGw/RWH6C35gA9VfvprTlCb+1RBa80nDRQndRA1ZKFvS1HpWlJkN7enEFpxTH2uN0cBw4NDPBKSTkvHM5h7YlsXv3zs9x81YX85tnHaMzfjaX5uArsG2uPoas6hL72SMrK0+JoYsGpFsqmHC0wX6/FuiRWZVQuagb6enFvRbKdiokpeGkWl+Yqap+RlkgBm6UlR3XIjUrQ3NyAoXIPzh8e4PTWq2H7NYzlPUik/V08FX9nKOtprCunk/fG9bStupHYjtvhyAzGs2dyunwRIyXzGdp7K6e+vQxWX8jZby8j+sWFGL+5Gsuuh6k78gVFOfuozNpFWcZO8o5sIu/wRnIObyDryGbqq/IIePWcHhFryMPYqIfxUQGVC0bFxfNMSVM6H1D/TBPg+rGU9aXu5+NUvx2nqZ660sO0VR1TsS6xtlRMS+KK9QIsSTVQiQWlAUeDzlQwnQ+oyfPy2bQLORkPS193ga87F58uj4B0QOwtIKjLI9ybT0RfQNRQSNSYT8yUS9QoylFp3CTWQil1hz+mfe9T0PUmo92iNxjveI3xrtc1db7GWMfr0PEq4+0vMyZwa/07o80vMiZqFCtL4Cb7f2es42VMJ36Fe/djDOy8n/H9DzJ24H7GpPf9gYcYPyAW1wOMybZA69Ayxo88CEcfVb3zOfY4HH+S8eOPwYlH4MSTkPk0CLQEWDnSQfBXkLuckawnSZx8HP+x5ViPPU2k/lWSXW9h3rKYEekrdmAJ3lV3Ysl8k9Hhdk4paDUy1NegUnEfR5I1jMTLOBUq4lSgYAJaYnUNKZDlM+QXiBUz7NM06BFXcorchedALGHLI27LV0rY8klac0lYBWo5xM25RA3ZClqRniwiukzC3ZmEdZkEe7II6DKVfOLadWbgFXVl4unKxNudgacrA7dYTV2anJ0ncXYIoDKUO+jWZeHpkWC8xHSyFNQ8Pdn4xeqWwHxvibLMLY1HMNQeVNLXHERffQR9zRFM9cc11zBtWU0BlcjSnKXiWdLKaGvOxdWaQ2PtMQ5b9BwYOcP7dU38/kgmf8gq5m879vLAU08y+4/P8+KG9bRUZeFsk5bHbMwSR5PYmkhc07TV1SiWoLh2Et8S9zELc0M2ZmlJVBaVxNSkgUDApLmCGtSyNMusOQd7WwHOjnxsHQVYpFe96qIhFUQ58d4q1Y+rau9rBNddA7uvZ2zndUQPLsbT9TGJ2HoirW9g+PYuet67HNsXl+L++mps315PfOvNBLfcgm3znYxsvpnx1Vdw9rsrGf3uEsZWXsTQNz8jsuoijrx2F3//y6/ZufFLjmz9lv2bP2Pfps81bfycXZu+pTj/BCZDC0P9dsYFXgpaAiiJSwlgUvv/T8GlJNf/WKNn3YxKDExiZuKinnKr9SeM3WXUlxyiq/qkcuEkPiXPXdx0LYgvrp20MObSW6e5elOtqkmlY2WadabFyU7SVn6Ejspj6r7SeCJSFpfAKqQvVAqLtdWTr8ClpM8nIrW8KZeEJY+YSZRL0lZIUJdJw/aX8Zz8DejeYKzzTca632RM9ybjve8wrn+XceN7YHiHccM7jJneZcz8DmPGt8H4NuP6NxntfYNx3RugQPcKYz1vYst7juZV84hvn8/pA0sYk9kk9gm8ZHC2WF1ap1WOPKQGaisX8ujDcGyKTj4KmY9DllhbT0PWckazltMvK1Tve5jQ/kdw73kA8/YHCeX8juGmvzHe/hrjrS/i2vcEge/n4107m9b3b8N5+O+M9TcyONicchHrGelvYKSvgVPRUkaC+QwHCxgJFjIU0MA14BN3MU9zGRW4ihjxFzHkLVAWmIqDqViYgEussZT7aM+l31FAv6OQpD2fflseA9Yc+qzZ9Fmy6TPnkJR3Ycwjbsglqs9SihnEEpb3lUewJ4dgdxaBzgx8nSfxdp7ELXBqP4Gz7TjO1mPYm49gazqMtfEQlobDEzI17MfSdBB76xFsrUextYsFJvEtqdwKCehL8HUXYGs+ibXpBJaG45jqjmISq6fuOGZl/YjLeBSLXCOW1xQLTLo72FokGC9dJHKxNOfibs2gpj6XFVVV/Pp4Pr/LKOf3mSX84Xgxz+4/ye/2HmHtod0Y67MxtWUqwJjFikq5h5YGaQAQ11RcxCzVLUNibmKJGcXiqpWAvcSsJCA/GcfSuk2krC4BXGMu9tZcuiqOUp6xndwjG6jK+EEFpc0dhQQlMG8sIWKtouKH97GsuZmzW29gYNO16L6+hdrjfyI5shfcn8PuWQx+cQk9b/yM8DeXM7D6MsJfXkn4qysZWX81fH8lrL8M1lwBqy6HlZfAmssYXXcZdR9cy6+X3cavl9/Phi/fUg0Qezd8zp71n7Fr/Sfs/O4ztsrSZUcP0NVaQ3/SyviYFssaPxvQAvP/D+Ja/3clcTOBloqlqf/lgjEvo6ecuCx1tFQcp6PiBL214pZLHFHrfKyvl5Zc6U6hwUvgNtXqmgqudItkGlyy3Vl1XEkL2mutmQpcmluouYYRQ8rKMhSqbZn1UVxDAZcAK2bKJ2HJZ8Bdgq15D7Wrl5PY/zgU/I6xwt8zVvY8o1V/ZrT2b4zViUX1EuMtLzPe/qqyvsa732S8523Qv82YQQD2DuMpjRneYdTwHn0db6I/+jTm/cvxHHmGyMnfkDj5K8IHHsGzfTHuLYsIfL+A6LbF9O1awoBIWi33LaV/31KS+/6/3P1ncFzntiUIKmIiJmL+9MTMdE139Xtd5r161XXfNe/KXFmK3hOgFylKorylkShDUSIlikak6L33HiC8S3iPhAfhvUcC6b1BAqBbE2t/5wAQ771d7kVV9fzYcU6ePHkyE8hcufb61t57HhxX5sJ8cQ4GLsyB6eIcOK4tgPPaQinybjs+G/0XF8J7ZyUepq3GI8NqPEpfhUeZb+BR5lvouroUzcdno+7gDORueQ41599C0JyN4HA9RgLVGPVXYixQihFvPobtWQJaZFYKqLhPxkUQ0xgX00cGwWyQqSOFe4JVhqSNimmlwd+bKjGeRnLbl45QTxoCXakKuLpS4es0wNeRDg/Biykk03ZhwupHhuDlaE2DvSVFgkzM0pgMS0OyYmB1iTDVxmNgHMRi0VfFbQy6KqMlDSSodVVEobM8Cp0VMeiujkdPdSL6apPF82dryxLrzEBDCvrrktFXRz2M+ynoq02S6L3HdFCxrp4asi21ukjGxW1PJVlYEnqqEtFXkYS7ydfw9a27WBWbiXeSc/FeSg7WJBqw5/Yt1BdFo78yAR1VSuhvL42X6ChLmAAuMiiyJ4IV7y+PRytFYppeudpIOwQZ2bixlKuKCWgxxgtLqy2Iwe0LB/HFuo8RsSQCWz9bgrKDi1F65n3UGU6L2ZNFxs6eUpRmnETVhUXoO/I0LEf/HQb2/2v0n30RttL1cJZuROjqFODIv4Zz19+gZ+e/xeixf8Do0b+H/9Dfw3vwH2DZ82/Qvf1v0bv1f4Nzx9/AsfN/hXXX38Bx+B/hOvcMLm98Fq+89HusWjYX+7ZvwrWTu3H56E84t38rzu7fijMHtuLY3u9w7dxxGAsy4XK04+For2JC1KdEYP9z8PlnD2F0Q8AjK5yWRjRVpqMy967GsAxoLk0T4NLBhqxJ93opoJqsXekiv1rh1S0VShujqB+vAZpicU8RnCRaCVLpAlrujmy427PgakuHm18QflE6FWj5esgY8tGaewY1v8yXVO7xzQg8vBGJh7cX49GdpXgUtUJG1D+OW4WHiavxKHkNkPoWkP42Hme9h8c5H+Bx4YdA8UeA8WM8Lv8Ej5kuVmzAo5ovgIZvMHLvG3jK1sNXsQGBio1wFX2Koax30Zf2FnoT38BA4hpYk9+CI/FNOGNWy+xDy6UIDJydi74TM9F3ZDr6j87A0LGZcJ2ahcDZuRi7tAC4swSPoyLwKGohHkYvwIO7i/EwbjkeMb1MWAHT1UhU7n0VQ6fno/XwbJT8MhOWhmsywmssUIYxpozeQoRdGRixMzIlyK4ma1yKbWlgZslAmKI9xfshg4BWaEBPEwleZFppwrqod/n7UhHgCmRvKgLdDIJWMnyigSULYHk7qHklwdWaBHdbMtySyhsk5MdG2zpaU2FvUWFrToG1iSml2pobkmBpTMFQXRIGaxMwWMcUMwkmghuZFm+Tdd1LRM89rjpywSAPzq48uLpzVBlYVzZsHdlwdObIcWdnDlzc72CxdpawNMZgYyYGGzNgajCgvy4N/fdSMFCbKkNS+qsJdokwZtzEnqireCs6CWsSs7Dl9i1U5MVgoDZRMTwCFFcQab0wxglACdvTNS6mfmRcZQloLY1HS0ksWkp4HtNJAifZnnLqk53RS0aDbFVuDPZu/xJvL5uDz1e9jG/efQUlZ6mFTsPYpd/CcmkmbEV74aJzvqsGTYXX0Zj3NYquLUbfqeeAK78HrvwGoQu/hfXsc7Cd/CMcR/49zD//Pfp+/Bv07Pp7GDf/78ja+L8h7/N/hfR1/wpxn/wtijf/a/Tv+w8wH/5HmI//BwSuPAPEv4i4LX/AjKnPYMa0F7Bi0Uxs//oTxF0/gbSY88hJvYb8jOsoyb0NY34M7lXlobG+DAM99Rgb6QMeDah0blywfwLEJqeQT8aTwPRXQiwW2mPI8B5SB3tow7C/Bx31eajJi0ejMQ0tLOAuT9ec90zxCFoT9pPJtocJ8+rEbXW/AjQFdBPa2FP2VoOI8Y72DEkVmSLqrEt+1dsM8LWnw0vg6kmHv8cAX18WauIPoHnvLIB1hjcIXovGA7cigVuLZfvodgQe3YnEY4nFeBS9DI9iVuBh7ErRoh4nrACSVuJx6ut4mPoGHhrW4FHWm8rHlU+f1wfi9ULJR0DFZ0D1euDeRjyoXIcHFevwsPQTPCz6AA8z1mIsdgVGby7Cw5sRgMRCgCuSV2YDV2bJ9vHV2Xh8bS4eXafgvxCPRehfhkd3l+FxzGIEry9C7rZXYNzyHLK++iPq983BcNtNPBirk5XFUV8BRt05GHVlYdShQIsRtinQYqiVRT1VVKuMFOqHudI4lIqQyYBhkwGhAYOAlVplVFtfb7K47yV6kuDvThbgCtBO0ZUIT3sCfJ0pEp72JHjaeEwHrgkdkux4AsQUc3a2pcLRqlgYQczWlAxbU6qwMQt1sPo0mGoJZmlIvX0Idy/vgY32BzKr+iQBKW8/O4OwUaLeLDEPrh6WFHGbB3d3HtwdNFVmCYC5u/PhYffXznzZd3WxdIbdJ7JhYylRRw7MLDlrUroqgeVcSgy+vnUDGZl30H8vEb1VZGbJwtLI1trEA6ZiXOPSDLCtRgLbxJbg1mpUAMYVRd0q0WyMRVtpLBqL45F6dQ9ST6xE7fnZsN2aAdetqXgQNwtIeAm49Rvg+u/gv/YCgrlfIdBqwFBDIdJub8ftHdNwZsOriP9xOtoO/w7DF38DXP0PeHD5twhe/Ed4Tv8eruO/g/X4b9C+/x/Qvv836DrwG5iO/EamZYeuP4MHd14Aol8G4p4HYv4E+8U/4qe3fovpr/wJs2c8j2kvPYM5rz6Pc8d3I+jpxOhwL+6P9OMxfViwiPZktTSjpbECna2VGA51iWivQKtfCe5/AXz+OYPC/WMC5COzuPM7mvJRlhstANNKvYtsqywdLcLElNlUF9v/eujnTD53gqE9JWkhAUuCH3SuImbA1Z4poOVtM8Dfng5/VwZ8PRkImHLg6slA9c2vYD1CMIjAw6sL8fjaAuDaQuD6AuDGQgGOxze4IkhhnV0gIpTYHhWJx9GL8Tg6UnSqx3fJgCLxMHopHsUQ1JbiUdwyPIpbiUcJK/A46TU8TngNjxJfw6OUVZLeEeQep60BDG/ikWZvIPiBHq3bixRgXZ8vDQdxmdOvOVxjpmzZuvnx1TnA1QV4zNdJ3YyAeytSxP+xa/PF3d+zZyrsB19E6NJCPOiKwn0K9BTj3dkYcWVhzJktorwCLQrzTBNVKMDSQUsdC1sMEgJeJlokaJVQQSAjiAX6UuDvS5bwccuax64k+DqTBLgC3UlyO9CTBj9XHql5EcQ6UuDWwtmWBEdbsoDURCjgUuxrIoW0NSXC0pQsbIws7NaZndjz/Qc48NMnWPf+Cry2ZDauHtmKvuoEODoz4TMVSkjrahNbWKvwcvJRf6E0S/Sy5VFXDszNdJunwNGZBR+P9xbB31cEb08BfAxtuIivtxBeDhPpKYS/uwDDPSzezUZ7Hf2CGXB15MDVmg9XWz5s7E5RZ0Bfbdr4KuW4fqbtM30kWE2Odq4iamljc3Esmkti0CyLCfG4e+kQos9+htHWr4B77wBZC4CUqRi7/QJKd/8TTnz6LI6t+wN2vfEHnP9qCqrjt6M4/Tq2bfkGG9Yuxyfvv4uPP/sA33wwB8c+/gPSv/kHVG3/t3Cc/i1GLv0jHt74LR7d/B1w62ngzjPAHW6fBe48D0S9iIc3n8fo1T9g6OTvkbb5N/h22T9g7ou/xZTn/4RXX3oaU19+Bk//7h/wxYa3MTbcB8A27q0SgHo0JKuKPk8X6moK0dxQBq+3HY8e9igdikbSv8qqJtsolHl1QpD/c4D6T4pHZoyNDKCzKQ8VuXelJEiJ8WloMlLb+k8BrYnVw8kxeTXyKSdF+GYD7E0G+QDzw62HAFc7+zZlwNeZAX9fDkY85RjoTEPhsdUY5fivS/NV//dLLO+Zp8p8rszHYwLDVbrmCSJkPosE0B6zkPr2UoywsJpsjSDGFcFo2huWANyn8E4QilmCx7HL1D4BLnYpHscvU0xND95HsZ6MjuBIMCKIXpkn7XDYTeLx+RkSYHcJgtgl1XNeXh9Lk67Nk/Y2BLuH1+bLWDLf4anAuZm4f3Y6hpsv4H6oDmPuPIy4s4RtjTgyfwVc1LPCNgOGrakIWlIREt1LAy5JFRVoSQwaxkN5vZInRSoC/QrAyLgEuASsyLoIZilKxO8xwN+pgxed10kSzvYEONoS4WgleDEIZgq4JkBLAZe1mSuQSXC1cKUtFmdO7sfihVMxZ+rvMX/as5jy3D9h3vSXkR59QuZIhtiCx1SMwGAJAoPFCA6xBz/3jZOCY9vIyug5y4OvvxD+ASMCA6UIDZZKy50RcwXGLJUYYfNEdrbgpKS+EgG2YF8hhk3FCJuK4R0oQqCvDMFeI/w9hfB05cPSxMWkLAE0ZzvZG4PmULI4djrJgqk+HX21Keip0aKaptJk5dovS1Du/rI41BdE46fvPse6t2eh7PLrGE1fgQdRU9F39Fkc+eR5RM56EbNeeRmLIqbj07Vv4OzBHxB9cRe2ffU+3n3rbXz00SfY+Nl6bPj4Y7z55juIXBiJ5TOew1uz/xFfRfwDjr37d4j5/N8gbdPfIfOrf4fCLf8e5T/8BqU//RaZW/4dkr7+t4j9/O9xYe3f4Yu5/4AFr/4RL71EwHpOA62nMfWlZ/H8M7/Ft199IEI4gUoAQtI0TYTXLBFmcyMaG+6hubEGdlsTRkd7lFWCYPeYAKY99r80/iL4/TpoiH30wIIHY4NoayyAMSsaLVxtFFf8r31ckwHqSbH+SdDSXfe8j/tPOZsNYLia0+FqoU+IS+6psuxOH5FEF8XiHIRtJRj1VWKg04DCY+/Ce3QWHpybhkfnpylWc1mNDCNwsbe7gMfledI25tFV1hjOx6NrCzF6eQkGj82G9SRXDxfBdnoOfBfnwH5hPpwX5yBwbR5Gby3CA1ofotmIMBKPyc4IZDFLVcQuxUMCGYGP591aJKuPimnNBS7OBnTQOjsdODMdODcLj+S4YmEE2cd8bTz/OgF3Frwnp6J//ytw7X0OwUN/gvnMQriaL2DMX4RhVw7CjgyEHekI2dLGBfiwvrUTrHjcMImB0RJBXTB9XJznymKI3i6WBZF19Scj0J8sIDY8kIZQfyqCfQSqJAR7kyUIWsE+ruimwtuborZdKfB0Ku+Xm9oXb3clw9WRBBfNrB3JcLYr9sUU0d6SpOldabL6aGliupgCV3MSOqsTkZ2RiC82vo9Nn72F7za9hy3ffIwdP32HzNSL8PQXIDBUiMAg++4XIzBULL3GgmYCWul4EMgUM+NgEIJWEQImI4aHOJqtEO1VdE5HoZPerto0DDRwkcIo3VxDgxUIDJarISEDFTINKUjQ4+BdYWuF8HTnw92VLyDm7S6Au5sdeovg7i6SrbOzAI4OpqRkfkVwsJsFawBbCWrshJKFoaYsAcCqnNv4+N03sWLBbFzZtQTezLfRdGYWtqx+BSsi5mHtG8ux6eM1OLJ7MxJvnkDMlSNY//4azJ76J7zx5hp89umnWLd+Az7+5FOsfWMVFi+ahdkzXsH0KX/C9Feexyymey/9HpHTfodVc36PNbN/i7dm/gbvzfkDXp/+W0RO+S2mvfAbvPz8H/HyC3/Cyy8/i+kvPYdZLz+LmS89ixkvP4sZLz2HF5/+LXZsWw/AqliW+LS4stevWR/U7ZFwL1z2PvR296O9pQX9vfcQ9LUg4G3DWLhPAddjCwCyNepSk0GI13nCbf8kSP0V5qZKjLRyozE6+U14/NCMsfDAeLlQU3GC5vVKRuO4/UGBkA5IOhPTj08AGfeVSK+XBT3laEyFXSINjiaCGJfZ00Qz4UoiQSs0kIcRewlGnKUIO4wIOctQn3scaVtnofbQInSdXoHOQwvQvmcq+va8AsfBlxE8MQ1jZ9g7SwM0shumaNdmwX18GkLXlsF9YwWaDs9B0+GZGDy3AFU/T0PDvpkyYfre7pfR+ssr8FyYp/Sx25HKCsGIJkMjaJFtRar0kKyOz0E9i6DE/vNkWDponZ6BR2em48H56XjESUEXpuHRRXZIJdjOgv/kqzCdiUTFidVovbgWllsfoiPqC/RXXkTIlYdhdybCrkwM2w0CWgJcNoMwrlEtdFE+aGYfr2R4+hMRJJBZ0hEeypCVRQZtEao0iOBFvSsdIcaAAeGBNAz3p2K4LwXDfakI9acgpIGXv5erj2lSOuTtUaVEUk7URdMqf2DSxO/FlNHVnqyYV1uiAi6WbDG44tiaBittE01JsDfSD8YGgHeRl5OMzJwkuFw9GLvvYMNlDhbDQN89DHVkIjiUi+BgHgLs3jpUJMAljRLNxvEYtpQKmMk5pkKEBosRNpcibCmF4e4JfLI2Eu+tnoeNH6zAe6/Px45v34epKR0P7eUIDxoxPFiBkKkCwcEyDJvKERwoQ8BUJozN32+Er6/kiSiFp6cE3h6jbN3dxX8x2IZcBzlXVyH8vUWoyr6ND995DbdOrcUD588YGdiOiwdew6J5M/Dzzm3Iir+G9LtnYYg6g4yYczi4axNmTH0ec2a8hHfefgOffrYOG9avwycffYA3X38NixfOwpwZL4uwPvPVpzHr1Wcx69U/Yearz2PGFC1e/hOmM8iqXnwaU55/GlNeeBZTXn4Or055FtNffhbTXv4TZrz8PGa8xPOexUtP/w77dn8DwKUBFa0IDN2zRSamwCYc7IXHM4ihwUF0d3SgqiwTpXl30dmYB7upBg5LHdzOJowMcxXSrMBQ2BjBRr/ugLJY6ODGEMAks1PWiAkQ4zl8vEUFr8XXxfNhw1i4H1VF7PkVrcp5xusUJwquWQqkm1SfZF/q2MQKo26TeMpWnwxbQwpsBK7mdLipc7UwvUiRUpOAKV+YFgEr7CjBsK0YI64yDHWmoThhH+oLLqKp9Caq0k+iLHY3Km5vRdXtb1B3/XM0XPgQTcdfQ8P++Wjc/Qo697wC58GpMB+ZDdP5JTCdXoCSn15B9b7Z0v2h8MeX0XF4FkzHZ6Jt10to3v4CzIdpBo1Uwv8NbjXwImDdoSk1QgR4SfvI8i6qZoMCTmen4tHpV/H49DQ8PjkDj05NA86+DFyYDlycjvtnXsXQwVfQcGAB7l3ZgI6SCzD3ZmKoPwc2SyGG/VV4MFyBUV++pIdjzgyMujLHWRcZ1qiDIr0S6nVh3t2XBHtXHBzd8QiaDWKHGBbAStfASxPrhwyyyjiRNqYh3J8m4MUYGTBguD8NwZ4UhJgiTrJN+KlzEcR6UuETEEuDp5ulQqnwTAIuuwZcYiLuIIApGYApo6MlEdamBNG66nKv4Mr5M4i6fQ293TVoaTKiqCAVRQUGZGcmoKUqAYGhfAQG8xFkZwthXCUIWhTjGtYYV9haJkEAGzYbEbaVS3tqU0c+Lp/ZizdWzMOSeS9j9qvP4I+///dYs2oBqgqjcN9ZiRFrKcLmMgwzhSRwDakIDfJ2OYIagE2OIMHNVIHAQDn8/WXjQUDz9hbD21sCLwfxdlNHK5Jj1NOC/UWoL07EjXObYOneAfgPoDbmLby1ai6WLJyN5PhomHtbkZ90E8k3jyPj7mns2/klZkx7EXOnv4i1b67Bp+vWYcOGz/DxB+/ijZXLBPBmz3gJM6c+i9mvqpgz9TnMmfonzH71T5g1hfEcZr6isamXn8a0F5/B1BefxasvP6uA65XnhGXNeOl5TBfwehpTnvsjjh34AYBTgdSDfgUyGkMSX5UAz6CUAo0M98Dv6YfFbMJAfx9MfW3obqtGXVUOjPmxqC1PxUBXBcx91RjiaEJXEx6M9uHhgwExs3L74P4AHrIOkiVF3D5QtYuqxEgJ8g/vD2As3IvR4R4MB3sQ8ncg6OtAyMdtO4LedridLag2JqE8NwYNJSloLNYZ1kTa+GR94pO3J5cN6baIpwhawriYLramw9OaLozLS01rqBDDNiOCthKEbEaErPygFiNoKULAViAdE0ZdZVJ8TEPm/VANwt5q+GzlsPTmoK81CR33YtFUfAW12UdQm/oLOlP2oNvwM2xxn8J6bC6qt09B+hfPIPuLZ1C95TlY978M78EXgTPTEDo+Fe6jMwGCFbUrpoGa8K9WLnl8kaZp6enhDBXnZgBnpwGnpgAnpwCsQTz1CkaPPo/+3c+h9MdXUXf+HbSm7UJr+VXYrCUYfdCIh2P1eDRchwcjtRgLlmPUXYBRTy5GqW2JvpWDEWc2hh1ZCFPfEp2LmpduPiXbSpX2NuKYt2ZjxJqNsKSKSt8KD6UhbE7F8FCK7Is4b1KiPdNEpovhwTSEycL66OcyIMTQViCZMhK8FGhp0Z0GX3cGfGRenXTZpwpQEcBctEvQPtGeAldrinLfM1oSYWtMgL0lAXW5F3H9/HHcvnEBGz55E28un4/li17F3t1fIzbmKorSr8PHNNGch4ClSMAraC2Rz8SwtRQhq1GBmMUotwleI7YyhO1l6G7NRV9PNRy2LtRUZSMl4Qr2/bwZ7761Alu+/gRJt4/JCLdRnm8xIjREQFJbCUkjyxA08fgEkKmoQGiwUrYEMQIYgYzHuNXD318qDI1AxtbV3oESuDpLMVR2CqPFn+Fx3Gxc+ugFzJ81BZ+8+zoqy0ow7Pegt6kKOfGXYbhzEheP78LyJXMx4+VnsGxJJD7+5BNs2LAOH773Nl5fsRgLZ0/FnGkc4kGgem4cvNS+Ai3GDAGoZzDtpT9i6ot/xNSXnhHgmvoqU8znNFAjeP0J0174owDZjYsHFXCJIM8gqzGptA9kOhTsB/H4gQKg4VAfhkz16B9oxkB/O9pbqlHD6eKFCSjNiUZx1m2kRJ9Gwp0TKC+Mha2vCvaBGlh7K2HprYClpxKWngpYJSph76uCa+CehHuwVsI5UANHXxVs3ZWw9VTJBKDB9lJ0NRSgpjgR5XmxyEy6gvyUG2goSkFTcQoaJgGXbm+YDFQ649KPTRxXKSN1MoLXU476NAVcLWRcZFvpcHfnIDhYLB9G+UDyAyrAxQ9oqYDZsLMEIacRYXsxgvYiBB1FCDuLMeoy4j7DW4oxXynuB6oxFqjBaLASAV85fC6jNNW7X7JbNDDP0anSCLCPrWr2vKAA59QMSe+8+59H6ffPo/Ln6eg+MhPec/MQPjcbo+fn4AEHu16ZLuneo/Oz8PD8DDw8Nw0PzryMB6enYuz4NIwcm4LQiekw/fIqyr//E/J2zkHFpU9Ql7EHrVVXYRnIRDhYjUcPG3F/rAb3w5UYG2ZU436Arz8bY65sPHDlCqsacTJVzMGwTcWIg5pXFkJMEUXPUuU+ZF4jVuWWH7FkY9SShTFrBkaEXaWq0ET5YQ3M1OrihHAfHmJkYNiUIe562iWG+1WENN+Xr4flQCnK70Xzam82hum872HamCFpPjVK+r2crYlwSdBpz7KhJDibEuHgyl9bElpLbqKyOAGFRQZ88vHbiJj1EtYsno7NG1dh1w/rEHPjKFymQgRtBQhaixEieFmLELIVq8+DfD6MKnW08nYZRjjVyFqC4rwopBpuw2pvB+AHEIJ5qAmpKdeQmnIVeYZLMteA7Co4SL2LUYygvghgMkoEBkoEvCYD1/BQhUTYXCnbXwNWJUIMATUFfNTTAqZSePvLMNxfiWC7AS1XP0P0B/8HPo54AXNnvIpt33yOzo42eL0u+JwWtNcZYbh7Bkk3jmHXj59j9qwpmDbleaxcvgSffPIRPnxvLV5fEYlFs6dgztTnBaT+GnCRbU2f8iymvfIMXn3pj3hVgOtpTH3lOUyd8rzYIGiBmPrCP2HqC89gyp9+L9dMjj0HwCHpGUtvRkPdcNsa0NtZjKa6TNRXpaHamICyAoLSTRRlXEdu0gWk3T0Fw92zkvJmxJyWSI0+geTbx5Bw4wgSrnN7DEm3jiM9huedQ1q0So0z7moRcx6Z8ReQm3RJzkm8fVIi4eYJJNw6gdhrx2XQb8zVYyhKvYWKzGgUp9xASepNGNNvoTovFo0lyePApbpEqE4Rfw5Qf76aqGtfqq+XpnE5GzNgb6I5kcW6BhmxxRQgwHbCFF/5IdU+nPKBtJdIUO8StuVgkTHTyGKMOEsw6i6V/lTDLuN4BOyFCDkLEHQXIug1YthXjb6cX+C9MB+h41Ng/uUl9O6agsE9zwGnX8HDo1MwdnQqrAdmoDHuO7Q3x6O+5DJq0g6gPHobCs6vQ/qB1UjfuRBZ2+cge/sc2Wb9OBN5u2aj8MhyVFz9CDV3N6Mp4xc0Fp5G573bsPZmwmUrQTBUhYcP6vBwrA4PwjUYC1ULWI0FqzA2XIUxfxnGPIW478nGfVcmxrR0UFYQHdnimB+2c5uNkC0TQWsGghTgCVqaCZXANSrglanCTJ2LAJWirRymysqhAilqXIpxDQ+mY8ScIaGAK1OB10A6woz+dAzT80WTan8Ggr0GDA9koLHoAlKv70J9/hXYmmMRklIhA7zdGeLzImi52xhkXclwtiTB2cxIhKs9AeaGOFQU3MC92kLs/eUnvLNqPr79bBU2fRiBDe8uws/bPkVfWxaCdjKrIoQEtIrksyCsy1aKoMUobEz/kRtzVaG/JROZqddw59YJfPv1h9i393vkZsfh3r1cVNekwZByBSnRx1RaSJ1ssAShoYngDyhXNGmf8PYWwt9foqWRlRjhyqSlSkKBlgIyHagC/dTI1L7O2AhcQa5wDpSIdha2VKGz6i6OfPcBPl41BXNnvYL9P2+H1WyC02GF22GHx25CS3U+DFGnEXf1EPZs/wqLI2Zj5vQXJT18fcUSLI+cj4WzXsbcac9rqeFzonHpqaIOWpImTnlGwItWh1eZKore9QymvPA0Zk55QTSxxfOnYfWyOfh47Qrs/H4DMpIvob46FRVFMcjPuIqMuHNIizqFpJvHEH/9CBJvHEX89cPy+mKvHEDs5f2Iu3IQCdcOS8RfO4SEa4cQf+0g4q8zDiFRgOsoYi4fwp3zvyDq/D5EXzwgcfvcL7h19hfZMm6e24vrZ37GlZM7cfH4T7h4gtsduHjsJ5w/th1nj2zHtbN7UGy4gZoCdk6NRyMFeQKP2CAITH+uYU1mWeNRohdfTzjtJ+tfrF18ytvN1ZkcVTLSlSGTmkNDRQgNUnxlapCPgDl/4oOqxairHGPuCow4yzHiNGLUVYIRl1FimA32XCUIuYrHt2FXEYKeYvg9JQj5yuDoS0XVpXdh3jcN/bv+iO4fnkbPj09j+EQEhs6uRuutdejJOQrvUBZGwlUIeivg91TA5y6TLqQuSwGc5mK4BvPh5pRpBntYsWeVQz1P0FcstYVjgUo8CNUBowSrcoyNKGZFFjgSrMBYsAL3gyzlqVLF1O5cjLiyMerKFtuDbjIleI3ZsyVGaDYVkNJKesQxz2PZGLHnYMyWLYCl61ojQwSvLIQ1UV4F79dBKl2B2GAmwoNZGBnK+hVojQPXQPo46/L3ckvNKx3XT/yAZXNewIqIqTh/6Cv01cTC2sIVxzQEuunDSxO3PVNFghfd9s5WMq8UuFsT4GtPRE3eFRiLUnDs2H6sWjIV36x7DeveXY7318zHx+9GIjnmmLSV5o9Z0Foomid/wEYcZFelkiIKqFkKMeYshXeoCPF3T2LrF+/gs3cisGzBK1i+cCreeTMCmek30dSUh282vY+UO0dw31EhGldoqFhpYxYl6DOYLiq2RWCjDlaOEUsFRq1PABcBStJJDaCEdRGwCHa8zX2K/ZycVIxhnjNUCr+1Cpa6WJz/egYWTH8OF04fhdfthMNugdNugdfpgN9lQ2d9CXJiziPt1jFcOvUzvtr4HpYsmIaZ017Cqy89i2kvPi1p5Kwpz2LWlGcwe+qzmDX1mQmRnimi2Bz+iCkv/lH65z//9O/wyvP/JOC2cuE0vP3aAny/6QPE3z6D9LjzSLhOcDmCpJuHkHTzMBIJPlcPIJ6gdOUQkq4dkUi8eliAKubiPkSdJ9jsxa0ze3DzzM+4qW1vsFBbtj/j5mm1vX5qN66d3CXB/asndkpcPvaTxKWj23Hp6I+4eHQ7Lhz9EReObsflEztw7dQu3Dj7M+5c2o+4m0eRGnUKWQkXUZ5zB410uZNBFROEktBEGwQZ1ySQ0q0Qk8FrMjjpx5SvS29UyBQzQcqzngoMFMHXmwdHO/tvJUubFKlJ7M6CuzsTru4MePsy4R/IQWAwB8GhHATNORi2F8sHV0R7JwGqGCFnEYbdRQi5ixEkULkKZT/sNSLkKcawFkFPAYLeYrRWXkLjlXVoO7MKrSfXoP7Cp+gqOAYT3eLeMgSCZdI2ZsxrxJjfiFEWNgeqcD94T7bDgXKEQ5UYJVsKM2owQgY1fA9joXsYCdTg/vA93A8y9avE/WA5xoZLMRKswmioQpjWKB8fKsf9QAXus4DaVSAaFrWsMSdTRAKRAi3GfYIX9+2ZGLNlCUAx7ttzMGrLxahVxZgtB6PCtAhMmRgzZ2PMkj0OXhMF1wq4xlnWYNakUMA1HgOZ4xHqy5BaxpGBdDQWXcLHb87HWyvnYnnkVHyx/i0UZMWiqzFPujmEerKkdMjfmQ4fKyA6UqW+UWocW1PgaUuCv52lPndRkHUDhw7txntvL8WH70Tg6w3vYdcPX2Dbd5/gzKnt6GzNxRBNojSZduXA1KZa5Th6s+Bn+mgrgs9cAFt3JqoKrmP9x6vwyZsL8MW7i7H+7cVYu3wWvtr4Jro6S3H58kFs+fpD1BqjMWIlWBkxbC7RYgK8VPpYKqyMoEUBP2zRtnKbqaIKJebTfqEL+8o/plJLpo0qdWSE+0sx3F+C4cFSjJhL0RD1I758KwKJd6MQ9Prgcg7B5bDAY7cj7PdiJOhEZ70R+fHnkXrnKGKvH8WFY7vw9cb38PqK+VgyfxrmTvsTXn3xDzL38ZUX/gmvvvhPkhK+8sIf8PLzf5DUcMYrz2DejBcRMXcKXlsyE+veX4k9P2zApePbcffSPiRcP4zU28eRFnUUabePIPnmQSTfOIiU64eRfO0wEq8cROylA4g6t0/iNoHo5E7cOLkD10/8hBsEoRO7cINxcrfEzZM/4+Yphnb71M+4oYHW1ZM7ceX4DomrJxSIXTu5E9cJTqcJaLtw/cxu3Dq/F9GXDyL+5lEk3TkOw91TyIo7h4z488LgbpzbjVsXDyA/9Sbqiw2oL05Tq4Vi/k0VfeovpYSTQepX9xnp/1IdJ/Q6Rj2e8rJXE8t9mlMkJurcUuFsp+uax5QfiL4g8Qr1qLFcPjbHG8yC35yFgDUHQVsugrY8+O15CDjyJD0cdhVi2K2BGtsfu4vg9xQi5CkS5uVzFsPalwkzC4u9JdLjathXhpCX21KE/SUI+8vkGIP7I4EyAcWgIw8j/jJhTqNBNvmrxKhfaWrsm0U2FWYnB7m/UpoAEvDG2OkhxMfVYCzIFLEcY/5SjHoKMObMwagjF2POPIw68rTb+srhRMrIOsVRm0oHx8OcgzFLjrClUXOWANd4WPV9si+mjRPxa+Ai4yJgKdAavz3Ifl6qrxfrHMMmAlsuwn3pSLy6G+s+XIF33ojA7OnPYd+e7+B2DWHs4Qgq+IEpvCYgF+xKRaDLIIXa4s9rT4WvLU3C354Gb1sSspNO4eTJn7Fzx1c4eWwH6mvz4bR3orWlHB0dlQgGTHA522E118M0UIPODiN62ovR114E+2AV3JZqZKeew8lDm7H924+EYb2/Zh4+fy8Sn7+7GB+9tQg5GbfQ3V2GnOxo5GRcR33ZbRHmuTKpgsAzwbiGCVBD5SoEtCYxMlmF1ADMUq7SzaEShKnF8lpDTB8VaA0PkZlxAniV0r5M5QgNlAnz4jmBniKUZUShoYbM3gu3k2miGV67BQG3FQ/GfBgLe9BRU4S0O8eRcO0Akq8fQvKNw4i+uB+nD/yAHVs+xbcb3saXn76Fde+/hnUfrMaGD1Zh/XsrseH91/Ddxvew57v1OH/oR0RdOQBD9EkUJp5HXuxZZEQdR/KNQ0i9eQSGW8eQcoNM6hBiL+5HNFO5s3twmwByZjeun94tDElA5SQBasd4EMQYt07twq1TPwuw3ZLYLft39OucZsucXYi9fEDSy5hL+xFLYCI4Xj+KpBtHJRVNvn0CKXdOiM6XGn0K0ZcPIObqAcRdP4ILx/dg2/df4u03lmNx5CxELl2I79a/g3uxu9BReAWNxlQZflJfkoyGEoruv04RVRqoC+/6SiJZGgEvVYCrpVQVak8+/6nBBvp56N9KhbOF7mrdOa+7rrm0ztWpFLhYVtKZCm+3Ab7uZKmj87Lwt0t5jHSDJGcL+vrTVJg4EScLATNBLRdBZy7CrnwMOwsx7CnCsLcIYV+JCm+JMLKQrwTDPva8Kkc4UIphn1FSPt5mP6xRApi3FKNeI0YJTNIfq1xC2FSwWovKX9/Hxn+BCg3ESjHmZ2pYjfs+I8bcZFq5EoplqbpDWTEkm3JMjmxNx1L6le7PIvAQmBQYTQASAWuM6eSk45PZWJjpMNPDQaaHEwxLTxEZ0kVV75xKoZ4xmA1fVwqK0y9hoL8GZeUGfL9tIy5fOYXhcACjYwG0thQjK/k8SjPOSYF2kMK9GItVGddoXzaGezIR7smCuzkFMVf3wpBxEy2txfD5egH4tPAA8AKPOZnapfYlKLb7MDZmw8iIGeHhISQlXMWNaydwaP827N/7PbZ8+QHef30u3lk1F+++GYnmpkI43fUYu9+NltpUDLWl4YGrHCNWBoFJAyRzqbJIWPRjKniOOpdAptJGhgCcBmrqnDLtvkqEzVUYpoBv5n4FwoNlCDPtpF42WInwQBnGZPxbNQbNfejqbEJ/eyu8Did8DisCbgvuD7uAx2E8HPOjraYAGVEnkXztkIAX2VD67WPIjT2DwsQLKEw6j/yEM8hLPIPCpLMoST6PkuRzKE27hHLDVbldlHIWZWkXUJ5yAcbEc8i6dQTxZFxXDyD20i+IPrcXUWf34s7ZvQp8Tu3CzVNkQjsFrPT0jvsCVqdUEJBun96FO2d/RtQ5xh5En9+Luxd+QdzlA0i4eggpN48hI/qUvOasu6cFfNNuHkHqraPC9lJuHUeyxAmk3D6B1KiTAlpJt4/jxpl9uHp8B37Z8Tl+/nwF9rz3Cna9+Qz2vfcidrz/KqI2Pw/PxRcwHLcEpqz9qDcaUGc0oHnyqiIBrCRFZmDqTExATfStJDQa6dki0PH2RFqpb58aqEmGXStwdbLgWpzVymWtg5dqaZMmjew8/LXuSodHfEOq5TDBSi3R07CqSlQIZu72BDg7k+DqJpCpPut+tjKm6ZLCM9vFWLLht2Yj4MhFyF2AsLcQw+y+QLAiA/NzWZrMS4FPiADmLZeWyWRb6jjBSXUnHQtxBZMdShVo6eCl2Jp+m8ysDGPeSox6yzHiylPpn5OrhLkaWKlSnhHqWXYemxRcUWRaaMueEOAFjAwYtaRrMRmcMjAsmpZaKeRxXZCnGM+0UDEsHifLYqSLMXWYmpYWAmDsINGbKu1umCaamhNw8eR2NDfkyHK5x9eCkpIkFBako7wsC73dlbh57Qi+37QWidf3wNqciOFerjymo6PiDgy3f0F1zhXcy7+Ge4VR6OksxfAwzYMKmB4+duLhIwcePXTg8SMn8NiJx48ceMytFo8eO9VSPVe94BZWRhAbMN1DWXkSrl8+gg/XLsfGT9/Cz7u+QlzUCYyOdcHUX4LGing8cNZizF6OURvBSNO1mC5S9Nf3aZOw8JjOtsjCCG5lCA0xxdQBTgM1SzlGBdw0HcxciRGCnBY0u4YHSyRGOP17sAKjplKZlGTqbEJfVTS6S87DYeqH3+UQxjU67MSjR8MAHsE91I2i5MtIvLIPKdcPwnDrMDLuHEbO3ePIiz2JnOjjyIo6Jrfz488iO/Yssu6eQkb0MWFU8Zf3IfHqAQELw62jAn7xV/Yj7vK+ibi6HwnXDiLh+kEkXj+E6At7ce3EdpUSjqdySre6c+5nuT/mEh93QIT4pBtHJBJvHEbKrWMCSIaoE0i7TdA6ieyY08iMPon0O8eRxtdwg0zrIJKvMTWlrnZMVlKT+Ng7JxV4RZ1E4p3j2Lf9a2z6+A2Un12C4ehpCF9/GaNXn0fo8h+ltz5uPg1c+Uc8uD0F7qxv0Mc22pXZaDbSFpGEFm4JSsVKA5tgW5rGVZygaWOKfT2ZYj5lbaQRkYDFImv2dNI7CWheH3Fb6wCmGJcwr64keBjdrKnjknyK1NH5WE8nJSk8nqwc3r0sU+EqmjJT0gU+3M9QLI0DJMgoCGZhNtyzZMFvz4Sfhk57jqScIbcRI/SLeRnloncxFSQISVooqaHOtKqld5awLa1rKQGOaaI6VwnxY75yWT1UGla2FE4rpsWtCqaN3PIYxXcdqEatStsas9LqoNLCMUuWeLJYLK2ngWrVcCLlGyW7EpY1AVwjvJ9AThCbnEYSwAaobT0hzPenYaQ3HWN9GSjNuYSP3l6GDe8tQ0zUUQSDXRgdNaGnpwJXLx2Rbpqb1q3BNxvXYMuXaxF1fgfqC67h2M+f4dMPluCd1fOxf+dXiL99Fukp13H/AQHILyAlwCRbAhJBS9uOg5R+XJ2rgxrBSzE0JwYHa2FIu4VbN4+hpYVFwNmoK09AeLgTLY2Z6KyNxSNnNUYsBCGuJBYLU/IP5sHamQRPf45y5Gtp5KgAHIX5CoxaKgW0/AOF8thfpY06ExNDrBEj5jKMEqD04G05xijHyGAZxswErzI4+1tgK94Jf85G2Btz4LEMIuCxIxx249HDMB4/fghzdzPyEs4j4epeJN84gLRbCoAMt4/CcOsI0m8dRWb0CeTFnUZB/Fnk3D2F7KgTyItVx4oSL6CAYEbWE3UCKTePCGgwkq4fkiBgJVw/gKRbh5AeexIp0ScRLYDG1cFDiLt2EHEU6+XcQ0i4cQiJNw8j6dYRJN8++meRcucYUm4fVaxKgOqQXNsQdQzZMSeRG3cG+QnnUJJyAaUpl5Bz9zTSo47DEH0CaXdOIu02Qe+EvK/Tx7Zj00dr0RT1NlC6EjAsBGJeAaL+CNx+Cbj5R4xd+j08Z/4I29l/giP1UwxUJ8LUVIS+2lz01+Wi914WujjAt5qDZdNkfBwHl8hKogj8iRJ6edBkXewpW7OqW7MTvKQnF9NC1ddJpYh62khTI/tyZQjrcnfSkR0Hd0eC1MexwFd6pksZCgErGd7epAng6tEa5ZGd9SYj1Jso9Xm0BkjJy4AqOFahdVDglo5yfsmFoWUJsJH1jLnyJb0Lu4skxeQYMbKoUQr6QQ3UgmWSajJGAqUYJQMjM5OVxnKMMT116quGuRo4kWWpFFHpWSot1GNc19JEedmXVFABEl8zi6R1bxaDoDQylD2ufY2ZFRPTU0wd4HT/lm6dIOsaGcgaB6zJK4pkTSN9GSjOuYIP312KNyKnYMXCqfhp+wYMmGrw6LEdHk8b7tw+gc/XvYVNG9Zgy9dr8ePm9/HFRysxZ/rz2LlrK86fPYBPP1qDS+cPw+XuUUAljGoySP2XhhsjYROqOR+v24hgsBV97ZkI2KtgHqpEYd4dGfIxSosNLThS21iA4SEK5jSLZiNEz5+jDA8cFXjkrMJ9ewVGbBUYs1fivo1sSqWEwtZEsJ9IHZkSSjrJ9HGoTIq6R2RrxKiZUYqRwXKMSpRhxFSK+0PlcPZWYrD6GvzGHXBXHoKlOQNeuw2hUQ8ePwjj8aOH6GypQF7SFTRWGFCQcg0JVw4g4cp+JFzZh+TrB2C4fQTpt48i/eZhJN8+jNQ7h5FMxnL3BHJjTwgLy4o6JauEMZf2Iv7yL4i/wjRxv6SKOnglkS3dOYashHPITr6IjLizooul3D6GpJtHkHzrKFIkvdOCt58ErMmhgRZXRlNvH5GpSdmxp1GSegm1ObfQVRYPc10aXC3ZMNUaUJl5DelRx5AVcwYZ0afFiJt25wRS7x7H8QM/4sCG2Wg7NRePohcAUdMwenUK3GefhvHnP2Lf+8/h4+Uv470Fz2Dvhy/g5PYPUJUbBwsnWLeqaUamxmyJwaYcmJpyZX6lqTEXpoY8DHASdn0ueuuyZKISB/Zy5qKMJ6NjXvVnSoCtmUW4EwI9QUv6nMvABtbBqWaCCrgUWMm2KwWO9iQJV6euhVHIpw6mWg9Ti1HBguEEBPvi4O9NFC/TRIsXzT1uSsOoKR2jJgNGTAaEeUwrPh7RfE6ShjHlYstkggrZETUqVx5G2FKZlgZPPsLUrsiqfEUY8Rfjvr8YY4ESaQbI80Zt6dIv/lfmUQEuxbJUKNDiOSMU1yUycZ+riQJYE5YGAapBgs+EvqUDm0of00XvGp30GL3NjZT8aGyLLns650co0I8DVxaG+zIR6k2XCPakwZh7A7t3fYl9O9bju8+W49KhL9FYFo2h3kKMhGn4dKG6Kgvvv7MEKxdPx7qPl+GDtYvx+vJ5yM2JxcOHbhw/vB1fr1+Lro5K0asIXI8e2v4CEP21oOb15/uPH7vw6LEDDXU5YkLtbEqDoy8Po956dHbkI+XuCXHWh+2scWSUCMiM2tiFIheDnO/Zmg5LWwb6G1PQXRsPWyf/N0wDS8WZr4PWmL0CYwQ0W5XYJMQqIVuVfo4zLrMRY6ySsBgxxucyl2LMXI6xIQVeo0OVcHUXob+lGO66W/AWvA9P1icwd1Yh4HcDjx/g8YMHaK4pRGHKTQS9FjjMXchPuoy7F36WFI/tls8c3Ib929Zj6+fvYvMX7yHq2GYU3NiPJLKky7sRe3kvagpTUFWYhJjL+xBzcS9iLtPmQA1KARdTN4JMZuxpFBquIM9wGdlJ55Eee0rSPRHxyfBuH4OBq3xa8D6K+wQnA9PDycHjN49KpBAUbx5C1t2TKEu9hIa82+ipSIStIR2BzjyMDpSgvyZVzuUiQdL1I4i9tB93z+9D1MV9uHn6R2QdWgHHnQg8TI0E0heh59IUHPrgFbw2byrmzpqKWTNewcJZ0xAx+wXMm/kSPn17JbLiL2tDbjk3skCCw0isLfnSItvaUghLS5GMZ5NoKYC5NR8Wnt/GKdfFeMrODgGNCXA0x0rtGrsIqEZ0Kl0cBy02rpP0UAGSh74g9qHvTJWxWva2BDjaEycJ+CxFmVyaojoaqC3TSTbM0+rupA8V000ClFZ0LC5z3dvEpX9+ufnFzkSYpTRMyyz0TXF1j5GptlbqTNwq8ZzARs/VCAV3J9PBDIz48jDszZNuD8M0lNomOpiOEKisueLHkseK1qVqEFnOo/fVGrEqwFPsKA0jrEkkkLKNjcakxCYh6SQBjuxMGVF1wOLqor6vG1HFKsGuEZISpqqC634WXlOQz1BB4OLUoF4DirOvITbuIkw9pfB2p2O0PxfhnjTYm2PQ05AMp6MJBQXR+Pbrj7Htu/XYuX09fuTK15cfIjv9lqR750/9hLXLpuHS6V8QCLCMxC2M6zEceARunwCqv8bGxo/rWw8ePnYjLysGp478hOvn9+Da6Z+QnngWJYUxMNw9iRFnBUYcpXhgrwA8NYCvRlhYe0MWWhvKcO3sIezash6bPn4dn723DEl3juCxqwZj1LPIsmxKG2MKKcBFhkU7hInm1UKVJtrKJK0ctRDUFOjxvPsSfEwF7lsqMWapwNhQBe6bK+HoKMZgRwM8lUcwnLYGrtorMNUlY2Q4gEf3x1BrzEBh+h3cH+XCxQN47N0oMtzExcM/4vtNH0qniFlTX8DC2S9g78cv4d6xl9B3bQ6ST2/EjdM7EXthLzobaBMaQn7qDcRc2IP4q4eEgRG0mDoStNhSKDPuDApSLiI/+Tyy4k/BEE2AUmlp+h0VBKSJ0ICJjOzGYSRfP6JC83wlXVPHuGXwebJjTqEo6QIqDFdRk3kTDXl30FJ8FzU5t5Fy/YiI+vSOUeSPPvMzbp3ci+TrOxCo/hJo+RiPa9+HKWYpbu2YjzcXz8TseTOwJHIOlkdMly6uKyJmY9nCOVg06xW8tzoSxYY78PZVw0YAa9WG7HZoQ3BbimBtIysrVlO923i7SCaIW9uKYSNwcVqMvSkBrpYEKQNhBwEBKwEuvZumQYBKtU3RCno7DYp5SQcJNVpLBzYCFkFKxHoCFcGLBcECYgQu3m+Qbqo0T6qVMqaQkzqCag7z0GAqQkwnpX7PIHoQ067wUDaGuSXzIiBIMM1Lk8EVI1b6qAhgBJh0jAioZeE+9SyK//oKpgx6ZeF4PkacqmxpRMy0+QJsNKJKmQ+BktqUuONVyxphVEPpkvqNkUFJiY/mlBempd9meqhSSukOweuYFesaHU8bFXiNaFqYrCL2qc4QIYrxvUwP05Rrvpc6WgZC/emoLr6LW7dPoae9EMGedIS7MxHqykS4KxPBjkx0V8Ui+toeHNn/HeLiL6K3rwYd7dXIyY1BXm4cHjy04dKZ3Xhz8avY8MFKFBWmiihPpiSiPHWrJxmViPE8po6Pi/QP7Xj8yD4OWryO3dEh4vz6j9/EiogZWMkP8ZKZ+PKLtUiPOw6M1OG+hzaGMnRVJyE38RTi75xEb08PwiNj+PH7r/Hys/+IqS/9ATNn/AkXz+zEA2clRqmHWUp+xbruM6iVmYrhpzexIw1+pqLUw6zVGLVOsDH2AxNNi6mlpI8qePu+uVyEelOzEbb+BvhrzmE4+310Z3wBi8WC+yNBVOcnobIkBQ8eBACMSSeN4pxEXPj5I9zasQjffzgDi+bOwdHvIjGSMg+IfR6Pk15AwsGl2Lb5M8ReO4WeVlZueDHYWStpWNzlX8aZFkNpXAclnUu9cwxpt5niEdCeiJtHBFxSCEjXDiHx6kFhbrGX9kkQdGhOJfDowWPCni7uk9XG6Au/IPbiPsRd3IfYiwfGH5NI5/2k8wlcXAi4fmI3Um7uRrBlO1D7MYYTFuH0l7MRMX8OFs2ZitciZ2LF4llYEjENEfNnYOmiuVi2aBZWRMzC/Okv4sBP38DWVgpnZzlsbUbY2wrh7CiEncDEAbidRtg7jTIx3NFZCnt7GRwdZbC3c9+Ip9jmxNmqUkOyLXq2dODSVxHVqqIS5XVGpa8uSnSTYakWKzpgTS4A1u9TwZbEio0RvFStnWJcBDB9+Z86kV4eI62ONTOmiNzmbKV3cTupXQzBYDKIcdahMCNO4rEaMGzLVeI+VyS9RjHGsh1z2F+KoPjEOMWnWjSycLBUDK60YoQ9hRjzsA6zCCOuQoy4CxF2FmDEnocxO8eT5SrtjWxLWtYYBIhk1qLWBUIxLJU60k2vVhNVyOqhaGLsCsFj2vQf/j3YGULsD0wNFYAx/D3pCPamoaooGjGx59DfngN/RxICnakIdZJ55SDcSwBLh70pGQUpJ3D57E+4V5OOh49d8Pm7kZV1B4MD1Ti2bwtWLZmB1UunY8f2TSgtM6C4KAW+QD+AoAZCOlA9EcKy1L7oYo8pYLsxONiAnJxo7Nm5CWuWzcSn761ESsI1nDu1Hwvnvoq5M5/FxVM/Ij/9PPKSzyHm+mEB1zdej8TuXT8iGPShsqoMX37xISLmTMHihTMxY/qL2LV9I/qakvGA5WZMATULhaSLjkpJGUfEbU+NrEDMqLrLfhy0rJW4b63CfQEwNjWcDF7lGDOX4aGlXJoVdjQaYe9tRrD4G/RnboHNbEM44EFZViw6msrw8NGogFZ3Z5PUMVbeeh2PDdPQcW4a9m6ORGfca0DcPwFxzwL5c5B1KhInt0TAeGsznH1NGA2EEHJZ0NNYitTbx8YBh1aG22d3I+riXsQSiK4fFkCarH8lcsVRXPT7BVRiCEDn9uDuuV8QdW4v7pzZI54t3Qqhh4APr697uTQbBUeg3Tq7B3f4+Au/iAuf1x0HOe2xLAG6fnoPMi5uhS9mFR6e+j3yvvonvLkyAovmz8SKRTOwfOEMLF0wDWtWLsCHa1di9dL5WLpwJpZHzELknGnY8N4qNBTHwddXAWeXEY62Ygl7W5FiX53FcHYVw9lZAkeHUQDO1VUOZ2eZxFOOtkw42jIgWxHnVarIUECmGJcOXirS4O5kgW86PJIu/lqcnxDpU0Tf8vI+rUMnQ4HVBCtTwYZ6bGGsjepiMz1ZbUzTPE0qxDKgOcspdsuK3biRkywmR1b8qCWNCHBlqLpBsjBXgTjtR4JG3Kc4H6iQoFivzK4VCPsqlalVjtdghEAm+zS4lmOMdgqaYNkNQ65BewbBjcCWjxFHHoZ1ywTb2chwWNYyquk/ZIjSVFBa2nBhQtUaynvXuz9oHSAk2O1UwiAtm6lr0QrBtjah7jQYsy8jKeUyuhpSEGhPQpDO+JZkJFz+AT9//y4u7P8aveV3ZKAsfXotpbfQU5uA9soENBbfxlBTIjLiT2H9x6uxYsl0vPP2Ymza9B52bP8a8XGXUVSYjLq6AvT318Ht7kQ4PITRETMecBSWMC833K4OWMxNsm+ztqGsJA2193KRlxuLta/NxVvLZ2LPTxvh8XaiuCQNq5YvwLtvLsaR/Vvxy09f4uCOb/DLj19j+3cb8MaaSGzf/hWys2NhSLuNwoJ4ZBpu4tjhH7H2rSVYv/4tVBbF4oG7UlJDCvLjjMtRhTFHNUY1AX/UViMsi+eM2Xh+1URoACZB9qXtK1G/EvftNdKocLA2A0PtTbD3VWLoXjT8HjfctiEUs2jc1AHgMUIBOy6dPYUtX74OU/brgOFlDEc/ja60N4CiNdKuOZzwMjoSFiPx/Gqc/3YOrq/7DUwZmzHqaEHI54Hb2iO2g1tnaCjdgWvHfxK/lpTvSB0hQUcDoEv7JKIv7kX0hT24c56mUhW3BZD2SLmPMp3uEQCjHyzqLAFtz5/FxGP34Na5X3Dn3D5EX6DupoBLQPHiPgEtni81jGf3487BL1D1w+/R99O/w94P5mB+5CIsXUDgmomli2bik3dX4PCur3D2wI/4ectGrFg4A8sWzkTkvOn44I1IVOfegn+gXADKRtBqLxHQsrWRLRfA2VkEV2cJnJ2lcHUTsBT74lZ6zrukx3yGmqHIARmdGVL2wx70rGH0dGZqx/TZigY4CWCdBrg6CWJ01SeOA5O+yshOnJ6OBPF1cWttipbWwtLNQOtwoIZEqJFc419aAS419YbpkJo7SCY22ZhJm4DyOynQUmbOUTNBS3VkuK/pSRzKStCicZU2Co4X47SeUV8FRnz0hLHwu0iYV9hXrhgZwcpXibBPWSs4xZrApvxgE2ZW3eDKWYvqmuUYozfMZ0SInjTWS3pZClWIYdo6bLkT7W7Y6pktnVm/yIk/pnRlGeHfQAy9atoPOz8ENJbK0p1Qj5r8M9yVisbS28jJjUKd8S6C7akY6clE2u3DiJz7Cl557ndSUhJ14yhaKtNgqk+Bue4ubA3R8HckY6SHP1QJiLq1D++uXYn5M1/G2+8sw65dX+DL9e/gtcUzsHP7FygxGnCvNh95+fFIz4xCVk40jMZk1NzLRUdnNZITr+LShQMoLzWgqDAJg6YGjI7a0dZajHdXL8DapTOwb/s6mM01KChMxFurl+DtNZH49stP8PP2zdj5/RfY+f3n+GXnZsTFnkdrayEczkaEw914/HgQxpIE7Ny+EZ9vfBfffLsehTmJcPUV4IFDrSSOA5d9EjgRiGRfsbBfA1elYmg8ZqUVQ2djKpVUon41PN3FsDVmYaA+A73t1fDZTXj08AGG+jpRnH4HXif9bkBH2z188s4H2L99LYLlHwKJL+FBwku4X/chxjIWomL/M/jlwxfw9oppWLF4JhbPewURU/4RW9Y+j+LUMwj6HLANdSLmyiFcP/mT1Aqy/IYGU1XsTLDYI/WHt89xy9usQaSHS4VefyghtYk8h/WKNK8SvMjAfhEGpoypf87ECE6SOk5iWnpMBq6os/tw68QepF7YBqfhfZTsn433X1uCJZFzsWzhNCyZPxOvr1iIAzu/1MqJduLs/u1YHTEHyxbMwMLZr2DTp2/KRB8yLkdnCewdjGIJR6fSu5wdBK0yOLtKFStjEMi6jHjqyaEKBCx9Qoy+rywQ+mqiGhDLXk9OcdOTgTG9TBTDKe0RbgKXgJdiWwJcNKO2xQugKZ2LqSF1HIYaSz8BZmRaZF86SCkmxvTpV7V7WupIwBJ2xU6joiOpY9SQmGKGaZ/wlshMxBEvJ1CX/SqGWUspZlemhgQnFTSxhn0VCLiK4bbmwDKQBp+zECEv3fylCHl5vmJro8FyKdQmEIqz31+GkN+IEFNNf6mYaIOeIngcOfDZaLYtFpYWchVI6VLAnivboC0HIYs28VrmL2YK25JVxL5M0bGGe6h3GTDczdFesagoS0Z+2iWM8P/UnoATP2/G5x9/gE/fex3vvLkI77y1DOdOHUB1ZR5uXtyHqye2oCHvMirSTsOQdBr79n2DxQvnYsHMl3H8xG4MWqpx5th2zHr5D4i6eQpjD+x48MCB8IgFoeFBhMKDcLk70dRcguvXz2DzVx9i0+dv46sv30Vy0g08uM/UMYi2liJ8tjYSry94Bft2bYbF0iiu+Ts3T+HYYbrqv8XXX7wnZTH1tZm4/8CMR49tePjIilCoC6FgB6yWKpw//zM2fvw63nxtAQ4c+hH1dflorEiCrz9fbBL37QStcjxwkClNBC0Tesgx3q8FDa8qCGgTIQAmPrFK6ZRqbcyBtSkTA40ZGOyoRjgcQk9nE0pz4zASYgp9H7l5aVgwfyn2/PQ2grUfA4mv4mH0s+iNmYOoXfOw4c3p0nViwZxpovMsj5yB5YvmIWLuDLyxciGS4+6gr+0e4glcJwhcP+HK8e1SL0jw0YukCVY0nLJ+UA+yMrWviqYnh/44AhdLfwhet3n7zO5xljUZxHQgm5wi/iXgEo3r5F7k3diKx2VfIHn/G1gWOQ9LF8zFyojpiJw3Q36cTh/ciuunduDy8R348ZuPtRRyltRpHv75Gzi7y+DtJeNSgGRnWigMix1rS+Du4ji4Urg04NLPI4A9RdOpMp6SdSkDKkt+lAl1Qu9iaii+LhZhy7FkWWmkMM9SEm9HEnwMsq4ujXkxOjg+KxHu1ni4tVVHthemvqUPQ9VHc/0KuIR5TYCZNNMj62JblyeBSzov0IKgVvcmgquEuRj1FkuJDwutxetFcCFLIsAIcBGIOJ26CiFPBfwu1lASdCox7C2DfcAAc3cS7AOpAlxBj1GCjwu4S2RLoOK1WIrExooENwVwWo2ltxR+VyHcrjwEPWRi1NjKEXSXwu8sRsBZhCBrOj0ENE4TYpugYilmH7YWYNhahGE2cWSnjqFsBEzZGB7IRn9dAgrz7yL60j7c781Cb1W0fCh2btuCn77fhDWr54sVYvM3H+BO1AXcjbuOzz5bi6URr2Lt6/Nw+dJuFJfEYtfOH7B62VLE3LmMxqZMXDq3G7On/B6Jsec1jUsv+9HNpW7YHe24G3ULP36/CYvmT8HcmX/Ct998hPa2UgGu8LAJd66fxDfr1uDCmZ/Q2pwHy1DduHn14aMh2GxN2L5tA+LjzsLnbYfLXo+h/lK01iWhoz4Jg53ZOLhnI95cOhMrFk7Dju1fYMjcAGNRLEwtGbhP1mXjyqFRAZGjYiLItP5icCWyFGN2xdRYJ6mC1yrDmHjCKuHsKIClKQfW5mzxcnEIx2BbOWqNmagry8aDh8N4/HgYN69exOq5TyP54lsY7vgKSJ2O4et/wLUf5+H1JRHyRX4tchZeWzwHKxbPwcrFM7Fq8RysipiD5fOn4+1Vkbh79STiLu2XLzonVhO4yLxuntk73sWBIEUwU0FGpsp/1FavXSSw7ZYC6usEsFMsqFYhqaOma905u1sATAVBTYuzPysGdp6iPYX6/Yi7RODS6iU11nfl1F5kXv0BSFuL3gOvYOOKPyFi3mysiJyDJQtnYuWSOdj65Xs4uONL/PDVx1iznBrXDETOmYk1kfOQl3ABI5ZauHuYBk6EAFSnUZo8ughgXSp4TDEzMjKuKrZyPBnnKGbD3cG0UQn1kg5qTEzSR2lIlwZ3axo8tEe0c7ZfqnQaENDqTISvM1mNiafm1Z6oQEsLL4MrjyLkU9vifMb08eDkZqZJPoakktqEZ9F5lG9JtwOQfSngSkfYlIER8TulYnQwFWOD6bLSR6tBiNqWtwij/hJlOiVY+Ys1wFJueknztNSPRd+6y17ul3SxXPqJsVB81K/AiGAVJECRdbnZ8YIgVIYgActThqCb+0YEpO6SbM4oLn0uBAT9ZGAEO9ZmlsvjuFAwwqJydzmCTvYz4zGyQx4rxYiHXWbLEHaVqnCXIsQ+aI4SuEwFiIo6gZuX9uKhORctFUk4ffpn7Ni+BVu/+Rw/bP0cQ0NlsFiNqKlNQrExBob0qzhydCu2bP4Q761diI8+WInDhw/hs48+QNSN86gsT8Lxwz9g5pTfIS35qgZa2soibRJ0xz92YaC/AVE3r+HOzbOYN+tFWf1btWIWCvLvwu3qRGNjHupqUtFaH4/BrjR0NaWhpz0PQ6ZSWM2V6OksRmdrIW5fP4iYm/vR1ZiKjtp4DLXzf1ci/i4CUE7iaSye9SdMff532PDZm2htK0FnVylaqhIRHCoSy0PYVopRRxlGHeXjISzMpmKCYakYByuuOOr72vH7ZFyWCjjb8mFuzoSlJROW5kzpEszhtPfy76C1Jgs+zxAe3A+jtCAZeScX4r5xBdD/LR5kzEHWgdn48N0VWD5/NlZHzMRrkbOxPGImIhZMRcS8VyWlWrV4NlZGzMTS+dPwyTvLx1vP6G1luJ3cemaic8NE8BjP+xVwsaaR3SLIxgTgdqj6RhHglRh/+wwLsFl0rVJJFRNsTIHZXtw9vx+xFw8h5sIBRJ/bJ+nm7TP7pbVN8p0TGKs4D0fUp9j2/kLMnT0FSyKmY7m81xlYEfEqVkfOxJK507B04WwsZsyZipO/bIGjk/3VqFcVwdnBdtpl8HSXKYYloMUg++L9RXC0q60eT1HXUtpWhjYIlsxLpYL6QFFJIdvUcFg9xicA0SrRrpgWWwb7pfMAwSxZAEwdT5JJzH6uMGorjQJSvRkSfrbN6TXIfXoQyLiyGBDjaQaG+zMQllBWgQmdSw2YCA+kYtSUihGK+dS9mDK6NJAiyIjuRNG9WEAs5FUpnrAiDbgknaNNwm8Upz23ZFLUwuQa2vkSwtSUY5/ANeJRqSVTzKCnTO6fHHwO6Xqhg5+Hz8WicQr9vE4Zhj0ESSP8bM7nYjPGMowQxDzcVz3OOB5uxFOJkKsCYVcZAo4yxMWdwPVrezHsyEdvRxkqa/Jx/sxRfLXhY3y58X30dBbi8eMu1eJXWv0O4uHDLgwNVePkiZ/w7trluH7tKHLz7qCpKQeFhVH46YeNWPfJahQWJsHj68f9+zSkkm3pxdVeDAzUIyPjFkqK4rB43hRMe/63WLpwKk4c+Qnxd8+gpOAaOhpj4DDlyvthXai9Nwt9zYkYaEtHy70k1JbeUYM4bEUYcxkx5irVensVC4satZfC2pWFG2e34/KpHbh1+QCMxckwWxukV71voEDE+DABiGzKWYZRNrl0luK+nexJhexPilG7MrqSXUlqKG58Le0UL1gpHG25sDaly1Bca5MB1kYDzE0Eshz01aWhpz4Pbms/LH01MJduAcpW4VHPJjiz3sCezWuwbBHZ1VysjJyO5YvYGHA21n20Chs/XIM1S+dgZSQBbRaWLZiOt15bgPNHfpCCaR24qHMx3dN7ZOna18TtyQBG5qVvVejnXTuhOkiwMPrq8Z9wjf20TrAFzg5cPfoTrh7Zjqvss3X4B9w4/pMwMq5Oxl8+iJgL+xDNQm+NkbHw+8653bhxfAeyos/D2VsGn6kSpYabWPtaBObPfhXLmQ5HzMKyRdOxdCHT4xmInD8NS+ZNx56tn6OrNhPevlINkKhlcYJTmYS7U6WHehC8XB1ss830kWI9o5ipIm0Q2iBYDoeVUO18ucqoB/vQj4MWZy0KQLE5nWJf7O3kbTfA16Hu48w/gheDwEZWxlFanm61qijgpXm5AvRy9aZPWmHU08hUVccoPddTpdRFeq+Lv0kLMWcyUhAeSELYlCw+qREBLcVoGMNkLEzrPCzkphhP8KLuZBT2JLd9ZcKS2CtMlQoZBaxG5BoEv0nA5eFtPgfZVqlcX+wUXgVe7AXGVUmK+3JcS0n1x6p0s0RuM7UcZuNDVxG81kJ4LPlwDeUj6DBixF0uLIutsUPOEoQJZO5KDLObgnSgLYepMxcdDanSSLGmPAtV1Xloa6vFhXPH5IOz/sPlSLx7CF1taehsz4TbVYPHj7sxPNyKtNQruHLpICqrEvEI/RgZ7UJxwTWU5F5AZfEtlBdHoSj3JnIyryM/5w7KSlNRW5OL3t57aGwuR0ZWNDLSr8kX9O3VkVj34ZtYu3qxrCYe2bsR+3d/hh83vwdD4glp+zzqKMR9dsrle3EV4767DA9dZEilGKaDnj3e7CUyoIXgxWADS3bfhfceuurikZxwFX2meyjJvQl3byHGHFViRGWQoY2zLjsBicdVejgRBK4ijNqLBbxUuqiJ/NZS3GdLHFMRHG1ZsDZnqGhSYWnMhLk5A0PN6RhsSMFAcy5qSlJRlXkA92s/wcOe9aiP+xCfvbMaS+bPEnDiKtvqxXOwa8s6XDn+E64e24kfvvxAWBcZF60Db62cj5P7vpXU7tfA9fOvemVdPqb2KXhzXzX8U8f0xn+Xj23HlWM7ZP/ikR9x6fAPil2d2SOta+iAT711HDlx55Abdw6FiRdRariGktSrqEi/iaqsO6jOvoO6/GjU5NxCZeYNiaqsm7iXexv3cm+hOvsW2krTYG9XqZunpxQZdy/inVWRWDx7iqwuLp4/G5ELZmLJ/KlYHTkDFw7+iN7aPARMNXBx8lIHwahYgMvdxQlNimFxrBz3eczF0PQuBV4qnmKv+YnQQUzTuah5afFrxqW6aRKw2ElTOmpKQzqCGvs9cVCpYl6/mrhMPUzKflLh6+I05hT4u3hOirRbYXM8hqSE1LOob0kvdRovtQk4DBYxM/qT1Biv/lSEB7hNQngwFSPsAybCOUGB4MK0jCkd2+jwPu6XIKQ1PeTQjwCBw8O0jj4vFVxtJCiNi/jUtSQtJGjxGO+jF0zdH/aUI+RWzIk6mlxj3C+mnUOA1DQyppxMLYddFQi6ShBwFsBvL4LXUgwXB5WQcXnKEXaXY9hdIaAVchgRtJcgSFZCfYfpjbMKj/216G01IC8nAR0d5QiPuHDt+gUsmvMiImc/j+jrP8PnKILdlI2hjlR0VN9FduIJ7N/5OS6f3Y20hFNoqIhCa0U0eqtvIzxA4ytLwGIxVH8XXfduoasuCgMtyWiviUFDRTRKCmJQXVWCM+cOYueOH3Dj2gVcvHAC7737Oqa8+AwWzXkZkXNewbypz+Ht1XNxr+yGzCEIOtScgoCVq6xs/VyqdVVVraBVT3tuVS/7oINpciUeuCrh7s9FUuw5abtTnH8LQ2009NKIqgEXwWo8CGiVGOFKooj0EzqXWlVU28lBBvbAVoZgf4FYhOwtWSLOq0iHpTkF1uZ0WHi7OQuDTenorEpBd2UUwo0/4nHnBlTEvIPXl04XTe61yKlYsuBVbPrkLVw5thN3Tu/A3bN7cGDbRgEtGjLJSN5etRDnDn4vad5k4Lp2cjcuHSUgKVAiEFHsJmO6dGQrLh76XlI/iufsAJETdx6FyRdRlX0LDUWxEvUFMWgq4hTveHSUJaKtOBYthXfRWc4p4Cnork5F77109NVlou9eBnpr0tFdlYZuuY8DdVPRW5OGnuo0OV+G7N4zYLAhT8DHw7Svuwi+biPu5d7FmYNb8fnHr+P9N5fi63VrpfdYefotONuLEeqvhKe7FG4JBU4KoNTYOJpQnZ2FcptbBq0RXGXU2dafARcLrgW8WtIln2cPej1k1mJLKlwMTrluJ5sicCVpQxiSBMDIvPQtQ5+0zCCITY5AV4qK7lQEuwlOmQj3q3o8vUZPCor7DAj3ErBSEZaZg6zdI8tih4kkhNi7XabjsOyGdYrssqr3+GIRdhGGKYgTuLQtQSLg5LzEQgRcBfBzSyDxKsuEsCthaDpQkRUZ5ZgOZvoxAhNXEnUgk6JvHQDlsZMBT7EuYVx8nW4jQq4yBJ1G+B18XUYEHKUIOssEBHlfyEXgUixr2EmgMyJkL0XIVomgvRwhsgh3FTqb0pGZHo2unnIEAg789ONmrF4+Axs+XIHywuvSX5+P9fdmwc3yrqZ49FdEoTn/IkxV0XBJT/oEBNhwsDMZgc4kBLv5o0L/GIEsGcMsmO8me45GT00M+nrbkZ6dDp/fD5/XhaT4O/jwndVYOPtlrIx4FWuWzMSqiFlYuWgq8jNOSe+zoD1fImyliZetwCdmG8h8AzIvG4eylKpaRup+ZJ+OUow5K5GVeAZVlemoLk3CUFsywrZCYVgTwruuWVUIsIcFqP4CSOmMTIysqocXNS+mioG+QgEte0s2bM2TwSsLtpZM2JozYGlOF/CyNfN2LgJN13D/3idIPT4PqyLYpno6VlHDWjgd32x4F1eO78Kd07tx7dgObFm/FkvnT1Vi9qJZ8iUXwf3ETwJOFw5vw8XDP6g079QuaVTIomqOSStMvYryzOsyibujPAmdFcnoquS07lT01KShr9YgFg5TfQYGG5Sdg4N3++vS0V+bgb6adPRVGwSICFBdlany+M7KZHRWJKGrUl2PXRt4zU7t2p2Var+zUp3Td4+uA8WWKKC7O4vh76mAo60EA7VZcr+pIUtAJzBQBh9nX3YzFeS2FL5e6lql6hhBjDMwZSXRqER5Td/iIgkH/f4KuKxNKZgcqhcXu0WkwiGz97jVGg2yQ6reKbVFDVwg0yJocYw7hzC4WKTdwuEMZGEEMaaKKgh0ZF5kWb6OZPjbE+ULQtASxtWbMR5KiM+U7ggjbFfcl45wrwEjBCxJGZk6cmiqNjiVxdh0xmt97hW4sG00W0jnI+hiaxwO7CjQwEu1kQ5xgIenEH7e56ForkBrmOkbhXEtTdRBTBfjJ0BMt1WUC0gp0NPYlbTgKUXQVQy/g2VGCvAISFxNpD2Cq4ghlxFBhpOsqwR+bctjAl5uMrkqhJzUtSow7CSAMbhfgSDHejkr0NmUjarKTLR3lGNgoBepiZdRU3YHg72Z8DvILAkQBfAylW9Lgb8zRbNW8IcjRYAqwCJ4MmFZaEnWWLHaV2DG+6lZxsPRlozOxkKUlpdhyGxFW1sbzp8+jvfeWIVl817F6xFTsXrRVLw2fyreXjYTpZlnMcbBKUMsocpDyJqHYVuhpILCIh0MdstV4BXiiqoMZtHahNtL8dBTg5riW8jMvImKskTYe9hG2yjCvLBPDbSkFMiuhd4Gx6rVMwqIsVSoVDt/ArjErGophb+3QAMkApMKAhdTRZU+Uvti8L5s2JvzYG9Ox2jNEeScWYrIOS9h6SKVKlLvWfvaQuzY/CkO/rQJW9a/jTVLZmHFouly39JFM/DTlnW4QWH8zE5EndstnSZSbx1GRfZ1dNca0FufjoE6A0y16RisS4epLgMDEpmyVaCUjr57BgkypL57aeivnbitgoBlEMAicPE2QwewzgqC2F+LFHRXpUqQhZGR2VryBEioVdnbCuBoZ2qnAMrLQb0y17JEhvV6NOBS4FUiwOXrLdeAi6uHBEF9RXGCjXkE1FTKqMdTNm3CD7fszWVpJICpOYsKlFQa6CJQacClh0xBbk6FqykJboJVM6ciJ8LVnAg3QY2TZATQEoSZ6aE0MTr04+FqS4CHq5KSMtJgqVJLDnhQAJaJoObzEitEPwErUVhWiF4mFh/T72XLkXQw6GPKR2tBIXzOXHht2Qi46JvKR9Cdh4A7HyHRuRS4CRC52Va6EGF6q7hiN860FEApgGOo1HIycKlzCXhkTgQ7Ahcd+OWS/jF4jtgd2JefK5LucgTcFOj5Wgm0vI9sq3AiHJyMpIvxVQi7qzSgKkeAU3TsZeO3mTKGrGVoqTWgs6MUPf33UFtbhZY6A8IsUfISFMsRchSIP87XlgxHY6L8wAi7kuDfXWmRYmvhggsXWPhj054EPxdYdDBj2i8LL4mwNCWjkDpX4g0k3z2LxJgb2PDZp1izci4+e3eZGFl/+PZTHN/3jUwgYgND2mlY++ruSYe3NxO+/ix4BhjZ8A/lImApkFRymLqeo1hG4Q1zkpSTo+8q4ezNR1LiOeTk3IG1k73+qWcpRiYMTWNrUoBtr9RCFWLrbEu1hKa+pQBMdU7lJG3VXNDXky+Mi8Bkb86Cg5YIpopNnAJOvStbwIu6lwBXUy4stBY1ZaIrewfWrX4JS+fNwIrIeWLkXRnBEhimjdNkgg9XGVcumYWI+a9iy8a1KEg4C2PaJdGPOsriBXAG6R1rIHMySAzWZwpoDZFJ1WXBVJeJ/nsZCqxq0zBA8LqXhl4Jsi+meSnjYKYATDEtHYx0AFORIdFVaUBX5cQ5KhQ7YxrJ0NnaEPuVdRsnCe2TRPRJ6Z4ayMtp4wq0eL8OTBPgpDMuxcJ0gNMZmqebIFch8ZS1MRXWpjRYGlJhrkvCYF0iLA3JAmSscXMQsDiDTwMuSRVbWD5CdsVjZF3JMnDB1RIvwX0PU0d5XIIE00lHM7dkX1x1pNk1CW7xeRG8aJng6qS+GqnYGUO3T4hIL3oX00XW72UqQDNnyZefJlLdqU6g8rsK4KG5U1gV+90XipfKL2kigUKFgBIfz+EeMuCDKaU22IO97bVgeknwUWCkgEsNBNG1shL4eb+I7uUIuGidUCuaBEn1WAKVztz42EJJESWo+3BOpZOhza10c1GhEsPOSqV1uWiFoO5TKmkjt2GCks2IxntpaGsthdnSCkNqFHraEjHiJmiVwessRcCer9oMtROQDPC1s31JhtpKK2dlZeH/geGnRkmQ4SzG1gR42xPh4/+JVpf2BPg6E+DvjMdQ7S30Vt6Ate42SjJu4NTJg8jNv42s7DvIzo5BY1Mu+jvz0VkRBS/7utFiI2PSOGWIvd6S4GhJgIM/cPxRYwF/D+0xmQj0Z8PbnwuvKQ/+oQIMm4swPFiM7LSLyM6+DUsnu9FyJbIEo5JOlqsQoKqU+sXRSd4uHcDYKVW1hlYsTTUcLJU6R7a68XbnCeNytGSPh40gJX3rqH3lTEojs2BtzIKlKQODrblwNCYj/fw3eCPyVUQumCUFx7Q+rNAKj+nnYrF5xNxX8OWna1CTcweu1jxY5BpZGGrIwCAZ1j2DABH7YpnqyLgyhFUN1PL+DGFfJt5fp7Ewpoi1aejn4+oMAl69NalyHXUtgpZiS8KYNP2qp0ad11NNQGIoVjY5utnwr4r3UQNj8X4GuiszYarPFXDxaoA0nvL9hZB0UgBMnaOAjUI8j2taVyfBi0A2Cbi61W218lgu8RT7zVPbsjamwdqULK19rU1JsDYna+wrWbVxbiajUqDFfYKQgzP5mCaKvqWZTMmg+OFsT9FWFZUOplYW+cUwwN+l+p2rgaUc1kAbBVkYmVnC+Cqk+MKkp5fqripFxtrKojTUY1kMnfHsXy+MSInuYRHh82V1kPYGBtlNwE1BXIniZDh+BwGMgKSzHQITU0oCkZpSpKYVqeNy202wYbqpwE0HLZlsJAyKz1UMP6/P+3yqA0WITE7TtQhcYbFQKGYnupaTupZxXHwPSPpEEZtCfBlCdgIXPVxlam6lgBYBjGbVCvgthairTkNLUwkamopgLIyB15In1ySg8jUFzHnwdxkEjAKd6QJMvvYUBVDc1ywsKj1U6aKXab78bxO0MWYp8LarEi5vFz16sRL+rkRJO0sN5xFz5yhGRtphszfCWJoGi6UaQ30FaC+7BY/G4NWCjiYlyPX1SIa7JUViYup2KhwCdqzayIC/Jxt5yWcQE3UcPfVJCJhoys3HsKVI6xahenUppkWdS/m7FKCx/xdTRCNGrCUYoxFV/FxME40YtbDlDfWYPNhbMuFsYRpIDxfTRpUmErgcrdS/CF45sLWQdRlEsGeJEEHO2pCC2As/4d3V8xE5b6qYL5kS0su1ZN408Tft3bYe1dm3YWvOgaUhU5jUUH0mzI0Er0wBJFOdYRLL4r4BQ3Kb+ykw1aZisDZNAZcGcv0ErzrFwghI/TVpEgOSPmrsi+fxnDpqYhpD01jUXw8FYDrAdVUyNc0UpkXg+pVWpYNVtw5Mal+tGBbD20v2pYvyZF8KsCaD15OhgxnjKQKWpTEZZF7SDbUpBZaGJJgbkjTgSlENBpsIXHqKmCitcKQdDlvhyGBRMi6dmdE+oVYcJSUUYOOXgqlghgAXx2T5u7Pg78qCn6uWrcqoyi+ODlw6eAUoDPclqZbPtELo5lT6vOw5km6RKRFkVPqm6VpkWR4CCDUsMi6ClwZgrgL47DnwO3IEsMZTPk3HmgCuCUalgCtXUk4CI8FrAuQ4N1KtSnKrnpNj2Hh8YmQbGRaBh4BC0KG+xRQz6CqF31ECpykHjv4s+KycYqTpPhTimQ6Kt0tpbyGK905uS8UW4enPQ2lRIurr85AQfxYtdcm4T2c+WR4ZJJllX7aa9NOZIlvWK3r5f6GZWCIJ3jbFqHQtiwxL0sSOFHipi5GZka1pzJg/No7mGOnn5utIxWB9DLJTT8LjbcCguQY57HhprkF3ezbaSm/KZKHJA2n5mXELI4/XJIVkATdhZtILLlVMzwyv+Am55Riru7Ia2lx0E27dIM2a2q5seLqzwelVvn6KwoUIDLK1c7Eyqmpj0EashRi1EehKZDSagJ00MSzDmJVfjmzVzrw5Q4bJUL9i2Mi2WjMVWFGkl+CPP9NGJeBbGjPgaM8WcCtMPIv9P36OD99ajLdXzsWnby/FL9vWS7O/3mqSgiwBGwKVWSId5sZ0mBsMMDdkyDEFaAQuxawGBKAIVmkYrCfjStFATWNddQYR4wfqCVIKtFSkou9J8KJYf4/p35+zLF0Lm0gp1TFdE9PD0pwzLprrjGo8JoGNgJt2nMDl62P6p7OvCavDXwOuyfGUpYFARW2LKWOq7OtalwBaE7ujMnVMGg9rY6LWfJAfPrKvFNjZ16uZlF/TvSSlVFOT9dRQrTLSsKo+lF42I+xMEZc9mZYOVHTZ67/8suKodUWQzghalwQ3rRKWHLEykN3obCsoGlIx/E6mYHmychgYF+c1gJHIn7hfSwHHtSuvKr1RWlmxjFTjl19ui5WB4MRQDItlQKJhaaK6iO0elvgQwIxS0uN35Eo9IrfC3iRdzVXPrQnTPlsRnIO58FDjIftiWkjGZCuGnytuLoIXwUg57EMO2iOodRml+V5lmQGFRQnISDmNwU6DDOkVJsn3a85BoCMZwfYkBDoIQMnwtSUh0J4it32tSfC2JsJH4NLSQgKWl0Xxom+pfQIZdS9lMuaWPzD6wgt10rsozLgIj7cZFmudjCDrHyhHV3smOitu/wq4XAQusnZh74rBUxOV+7hS3ZYkY/EmOpYos7S/PQWD9anIT7qE7rI7cDbxtSuTtPIjpouRmmVszvZMuDqy4OrIhLszC+4uRjZ8vfkICLAVIcie9YOFGDGz3z3bSFOXIYviDzl/2FNhZVZCVkWgInC1kn1xVVGFrDI2KtBicJ4lfWDujnxJ95qNMWgsjkKz8S66qhOEudlaCFCpGJLzM4SxKR3NAHMj9aN0ATSlc2WodLGeIrxKCUX3akhXWw20VFrJ+5lScqsxMC1VFODSo5q3ucKoopdsqjINPQQpbitTZdstwKXEeIaeaup62VBj1jhzYkwGLi8Ba3LoOle3Si/HAW0SwCnWpV+PQKbrXmoVUoBLVhMbDdo/SE8P9UjSgIugRhDjbRUU5h1MIxs1QGtOhJ1L7JJWKsovaSCHy8oMP4ZuWFWWCX4YmQawcNsn8/5U14MAC7C7ua8F00QBsFQpLuYKpN+aKyDDVTtdJBcRnEDhMsq0ax+BiUDhzFfFzLQ9OPIVWIynh4pV6ZqWWCV0piarjQQuplqFCHgLxg2oIq6zztBVAretEB47NSpqU0Yp2WFaqK5TDJ8zHz4bB4Bw8AcXCTQgpAWDAMvHOUpE3wqQYbmMAmI8RoZFhzwBTNJDO1NJxbaob3F/2FkK91A+7t0zwJB6E01VUQjT4MlrUi/j36OP/4cE0bcC7anwMz1vI2gRwBLhoTbZGg8vf0AYAlITK4xMD0W0F6CixqWxYhH0dSBLhrUhFqU5N+DxNmJwoAr5eTHo6C5AVyt/7aPho7Yp+hZXnhUT577M9WzSF354jDJEIhxtaksW5mnLhLstXdihpz0D3RXxsDQkyPmeVor+BAuCl1YFonU9mdhn8wAGQY1pYLqsmIvBWmsqwPbk7m6WoeXA150roOdoS4e1JU2EeUtLOqytGbC2aiDTSKAheCnAsghLosOeX2gDLBT3W3PgbGNaqawTfKy5JQOmRppY+fgMDDURvJgmagCmC/N6iLUhE6aGTAVe9akwNTAIaJmKad2jnpWmBfdT0X8vVVJBnWX11zD01NGAgRoyOIr66egngFUZ0E9WRcAqT0FPRapENy0RYpNQoQMYtwRSgoxaPZzQsNhdw9s1KbqNspLoZbdeLZ4ELBpZ/yzd1AR7FVqqaGkkg+IvC1NFpoUEqQnwoiFVebx0IFPhpGWCAEbwkl71WrB3fUOcpABiQuUvZcuESVW3SvBX1d6aCDs/vASzDmpfBllVJEBN1lq46kU9y0fHPdu6DOUKMIgTXVbulOgtuhXDyVCaVcClWFXQlScMS+laZEd66pevMbIJUZ6AQmGfQauEAqACAS8uAEgqSCHeTYBkx4dC2VJcV6I9U9FiSU/J0gS47Nnw2wikZEDUwBQg0vpANqWDl/JtlcGnsSxd51KCvFE7poDMbyuBn+ZNexHs/ZmorEhBfOx5tNy7izHqYRr7C1kLpBSLTQbZ+sbHHxX+f1qTBbyEZbXFw9cep0WsbAlM/MGQVURdCxsX79WWK8IELgKZ0jkT0Fx6By5HNXq6KmEsTkRlZTy6auPl/0/GJZ8FLfQfMSfZeYtKCZXMoFayCWqSKkqdLFe69cdrcxEEAAlq7IyhNQqQUXsEq0ypv1XBtkwTocCL59JsbZDRfDJPlPpaJwv3i6U/PbfhwSIMm8jOCuDvz4e3Lx/ungK4OwhsOXAyLWxT/i6aVMmWLMxemgzKaa+DWQNvpyuQas7AoOynK8DSgvfJ/Q3UsdKVCC9BZsXHZKrVRp1liUWCoKX0LQVaSei/l6CiJhF9tVxZJHipVUemjAJcBLdqBWKKhRG0dPDSGJgGXD0a43oSuPSwt+XD00uwohm1GJ4uLToL4eksUEEg6zFKjSLTRKaLutalWJdKIQmA7kl62F9KIQW4uKJoF/OpZo3QggysvyYWptp4WBo10Z7sqiUZttYUWFvYa14VYnMSEFmXtTEe9ka2gWahNVcflR6m0gO1sij6hvS3j4e9NQ5OKcjmr7buuleF2xTmycDo8/J3p8lQDp8pEwGyIB+nWXOlTK3CKcCgB6hQlv25gqbSxDxZYRQ7hItbXbciy6LITnAiG9PtChNTt2WlktqYl+BFIGJaSHAshtdhhI8lOs58Ca5eks0JGDoJZAXwOvLhc+XBx9dhL9SCTJAsjOBFhlgqwjxTTIr0QVcZ/PZSeKzF8FpZAlSk2JcwrVIEbAQqo2JnNor4pQhYC+EazEFJUTyibh9DV2McRpgyEySt+VJWFexIwXB7GkIs0+Jqb2OcbMXPJemjHsmyZTdVYVeTVhJ5W9khFNOSrh9cEdYqKOjVoxbGH7L2etWAMDP7NgoyL6K/Nk7Ac7I5maGAhyvUlBb4I8fPjNrXV7HdrRkKtNoU8IloT5YmEoOq2HC1kHHpwMXGARowaeEmiD0Rcp+wfh3sMkTHcnfmITzEkWbFCA8VyyrmyGCJABmHeuhTtLkCOWLmBKEShEzFCPQXwd9XIFYKT1euXMfVkQ9Xex5skxz4Q41pGGyk3cEAUwPTPYNKCwlaAkppMmmH7ItAZWJozItgJ+fXZWKIq4tMGWsp0k+ki/01/N4mybavJgV9tTrrIjiloK86GX1VSeiT8yZpYNWKbfVVpUn0MlUsTxHmpUyuyeMsSwcu5ahPhbmJumIJ/IyuYvg6iuDrpJuegJUPb1e+uOt5jk8DJ7Izbn19mudLuy2srZspp8bedIPrJJFe5ipS29LHlJFlKW2Lgl8cuspvo6/6LobqJ8CLmhdXHRl26ZI6CbiaOC0oWbqn8hfMLsvcvJ8rRIr2j0c7NQzVgFAHLrIuVbytyoTo7QpqaaSfAyIcdLmXwCf6jbYSp4XSmLQU0EE2pRk8Rdui+XQCvBRw6bYHJZqPsy4K9W6mfGo10k/Q4qqcp0RSUBXcL9IAqgBeO1lVPry2PAmHJUPC48iF18mFgBIR330MpwqmtHrKyaJruU0mZafeVQyftRg+gpODxdRKoCd4+a3FEvRz+VkSYyuGy5SD7MzbiL97AqaOJFmsCND6McQFECW2+1uVvYGCvIAW9S0CVxv3E+U+CUnxCQhcIVZ6l6SOnUr3UsK8rnEpMFGpIku50uV/WZFzCRVVWUhOvYjs2MPwd2bIeQrk1LkqReSPmb4yrYn24wZmxdR1Cw6BkakmgYrXkJZL3CdLI+gJSBG8FNuaaJCpNxCYHFoLJxnBx8eq8xzNHHacp5lTSzCqDaAlSCnvl5qyrQ+flQG00sxQjUTT20SrKduc8chJ2SUI9hch2F8sjnxfVz7c7ezGws7DSh8zNxowVJ8qrGyoLk0FBfbGTBHamSKKQE8xvjZFaVy0Q4ielaIxLT0VnEgZJe2jLUKLPgr09HYReKqS0Vul9iUqGcnorUhCTzkjGb3lyeimO788UVz1k1nWuNZVRaygS6AIAQJXdwl8tEgQwISBFcLbWSj387Z+zMPoIUAVwa0xM19PMXw9RfD3aucSzDRRX6WfBLhSMi4CFZkU00SVHvKYuSFZgIuAxbA2TNgkyLTUSDMCF8GOj6fGRcAiWJG9EbhSYG9NEN2BQzjc1EWodbUp7UtvTigTgTQDqirQVquO/BLQNuHrNsDPDhF0WROwHCXK80QNh+zFTobFhnxFsu9zMNUrlnYy4/qXVsRMRqWc8foqorpfv08do25G9qOlhUzpKPi7i+F1Us8iyyoQ9kXmxK3XXgivrQBeWz48tly4rNlw2XLhcRTAbS+Ay5YPlzVPwkNNTNPFPAQyXZMjmNlV2sj355MtgUwFS3vItpTfqwhBSRVZ81cI91AusgyXkZp4Ei5OxiZYkx0OcHgGUz2CVYqs/On2B+XT0gymXD1kNQNDM5rqDEttyYCTlHWBzEfYcboqqtd1TJlTwP9bGhqNN1FckoKcnBvIjTsoP0gqBVTgxRC5oEkt8tibYmGpj5Z92mkUM1PamaSL2m1hatoqo0oduSLN+tl0uFqpX00GLE2op67VliEsawLU9IYCBDW9PjddSt58Pblary7NTc++9lIapPxfugdseIiAxlbPnByk2j6PA5ecZ1Q2C4KgpVTa6zxkSZG5DGOcoG0qRHigEKHeIgS1IKh52nPhasuR7hSWVs4c1NJKCvb1XLlNgakuFaY6riiqFUYFWgqU+mv04G3l0eqtSZHgbT166YDXwKqfJTwVybLfU54o4NVboYFZRbKAXDdLfSpUmjg5eqhzVXN2RZ4GTCz9McJH/xULsOnV6iiEuyNP0msyUU9XPpwdeXB2FcDdXQh3ZwG8XQS3Qg2wiuDv4XUIZCqFVAxM6V5iQFUriUrnUgJ9slgihurjYG5IgLlBY1tMK5uSJQS0pDxoQvvSZzKqQm3FwqhjEcz468jGhOO/jjI9O1nKRtj6mS1xaIoU1tWpLBMS7KHelwEfPUl0UpMFUVOy5sFny4fXmguPORteSw58Vjrl8+EleEljvgnRXsDIxQJo9rhiWxhqSTymgZTYFXSnO0GLQjnNqgTGIgFDrs4x/SMgucmsCF4ughePF8In4JUPtyUXbmsR3JZiOC2FcFn5mBw4LFlwWrPhthXAZcmHw5wHhzkfDkuB2poL4DTnwWXOg9ucPykKZKXRay6G18L0sQA+WwH8BEpLvhZ56OtMQS/Zj10tQvgGs+SLL54tpuCaE37ct0XdimI9tSyWXum1o1pMOOWVSC/HyKy0VWJlayGAqZBuIe3p8LdzInE0klNuoLQkCjU55+R+J7WoSSmiYluqVMzeFAdTzW2RElSrJPUck1ejdc10cnuliSBw6VPYdSBSn0UdxNSsUNWO3NWWBWerFgJwWo1uS4YAl+6mV8BFEFKMS9z1Zo4+KxbnvX5cufEVwxJgGzIiLBO4tXNkAK0R91lSJFO0S9VUIX2eIydpc1AHB3aYjAgPlGB4oBTBgVIE+ilqF0n6KSuk7Yxs2FtpWFWrkNTDhGHVKG+X2ufKoWYupYueQZZVmaKYlgZeBKd+ATAVim0RuJLQQ9CqSEJ3RaI6TuDiOVqa2MttdYrczzSYrEqKrrsmgxeBK1/0QL5+d2c2XJ05sLfnSg0iGRfTyHGg0liZus0qBuphpfDwb9BTAFdXPu0QaTCzF3k93fMqTWTQx0XQUulh4viKI131vE8YGO9roNOeni9lnXC0qA+LAjXqYRx5ZlB6GDWtljjYW+K1GY4EsxQ4O1TayF/a8Y4S/PDyQ8svhzlXMSkyK67C2fIErDyWbHjN+fAM5UtLF7aE8dsoyrOjqNK+WLcoAr445JkCEqyYVk5EgLYFMjmmarxP83Dxy+8y58JN4yZBzFEoK4gua4GElyuJAlhkWkwRNdCy0NKQL+EczIJjMANOSwGcAlYMgliuAJd9iKFAyzqYC+tgDuxDufJ+XOZ8OHn/YC4cQ3lilSCzEqCyEtBy4RrKhmMwG25zDvxOesyUBkc9zd+biQC7dbRnaCt5BAUCUpqEiPUEpE6GMvuq/mmq8aO+iijA1c2ieL04nluV1itNUoWki7QrtFEPiUb0rVOor4xFb+UdEdP5Q6bY2uSVRX1VMQHWhhgBMMoIk7UwCvIeMnWydK7+cWSeFmxqyWuThenMSQcuMawytI4n+hAYGbkn6aHq6Ku3LXeyZKeFLZbypL2NmiI0URJEECJoqa0ek9NIdUzVPJaKPubuyoClhSP6qJuVYHSoRCZpU0Njzy+OQxslWA1yqjbBzIhR3mcqQdhkVJO2h8pl39+dB09HNgI9+RjuL0aojyyNqWce3O0qXG25yixLL5j4vjTXPYGMGlc19SvqWJqeRXFeu91XaUA/TaUValVRgVYyuglc5QSvJGFoPWRlVSkCWhT1ue2qTJKFBB20Jocu0CvGlT8u1lP/I9PykGl18/Oqp9OTAYyMiwBI8b4Inu4CuDvz8ZS5Lhnm+mQM1SXBVJsoJT+DtQlKkNc8XuLraqJYmApLfQqsdcmw1SeMx2BtPAbrCHJkYbrIrxiZiJ/tNO4lw9IcD2tTLGzUvcQRzV9BtoXWnPVMDYR90QiZAg9TRCtX/RQT8jMdtOUjYCuAj8BgzoVXvsj8kvNLnAufhQI4gYoaFbUvplUUzMmoKIITrLhVWpiI8qKZlSrtic8jIEWQVGBJcVwHTqZ3TOskxZO0jR4t6ls58DI1JANkTy1rgQCey5wDpzkLDkuOAixzDmzmTNgtWXAMZctrdlrIvHJhM+XAOpgN+1AOXIO5cA7lC6jZBhW4ybUGs2DvzYC5Ow22gQzYTBmwD5HJ5cJDQBfNrRDewRzFishi+aWVFExphoFurt4SeJTFhP442k44ZZzzASaAS9Ul6kClL5zwceP6lubfUpoXBXqCIj9L0Yi6cgjdDWmyWMNWSHTBq9VH6mdcSU6TdFFZaGhojoOtMVa6VijdS3kA9R5wDLmO6FJaSLkZz2HqSZY/4eWaaMWk9vXGmGRcapWSKSnBi14xhmJpgT7OYtSLsFUB9ngtozAozcTKmYxaqhgcNCJgKpIQ8BoyioZlqruLwYY4eLpzEOovxDBTw8FiYWxBUyGGCWYEL/PEIFvOhWQ/MO4T3BjDJiMCPQUCUgq4isbBy9/N4wUI9BQi0EOjcaEAGs8LiL5UBFdrPpwtLATPg60pD5aGHJjrs0TkN93LRH91JvqrMgS0GD3lqegqozDPVUVljehiG5zKpAltTNO36PFiATY7UzjbmfLpgEX2RdDSxfkCASg9FZStlh56unhfPnx8j3wfvQq89PMVk5u45lODtYkCWtwO3EuE6R73EzBwL06OEdQEwJpSMdREkEuCjbWM9Qmw1iVgqCZGzhWnPVNIMi5hXXrveiV+ivYlmhe9Oez1xV9DfoDojiZQ0cFNpsVfbvalT0NgMFcZMKWbAi0BNGvmSorEGAcujZk4zfniOPeLB4qrg5qx00qxXonjBBVqR9KNQWdjuiiud2ZwsLUMWZvmsyKQkVUJcLF4uwRegpzUGCoWKKAmgFUEt43PUyQpnpssaygLDnMaHBaDhKSDQ7mwD6TAYUqCYzBdVgWdg5nq2GC6xtTItvJgNeXCMpADiykTjsEsDLQloLM+CpZeA+w8jwyPfw9rARzWPDgJil0sdI8TY69eluUR8XzCI8eOtBy+wSCg6V1rVTcIppOqllFCgE5f8Z0ALQEubataHCmg6664iTNHf0B/a7ayxvB+6RCigxGBQ/NySXcRdh1hyqhMzbIKLQxNARcZlYdaFj83MqyFXxLNE8gUVFatfw1cZFqUJKiDKTamQgcuXSsj61ILSGkilvsHClX9owAXGZRy1osQr6WOqgUOmZUS50NDRgEjznNUwFUqK4xMjfx9BKxShPpLEOo3yj6BKDRQKKK9PtMxNKBEfG5DA8UIDhSrfWFfpZJCKsCiNlaMkYESjAyUIszr8dp9BDIVwb4SORYeKMNIfzlCvWUI9pYi1McoQaCnGAGu6HHFrq0QjuYCCWtDLobqsjFYkw5TtQEDVenorzCgW0CMjIuhgIusi/tsh6N6d9FtkDspPSSITYSwJwr33aVaGqnSwUAvb/O4AiilkU2wLn8PGRlZmg5geXhqoCYeJvo9quPQVxWLgZoEBWR1CrQGa5PktrlRxVADjyfCUp+IIfYHr42HlWZUracX/TAUONWvl3Lc0xsjHyotaL2gf8bDlKCF5kJaJ5SXi+xAvmCmPIRYs+coVw506Zag0kT3UI4EgYs1en6rtgrn0FYX6YciAJER2YzwmovE80QwUukWa/hUzyvpeyWlMyytmTCBSpClideKOhcF9XwBK9oZCEwixgvT4mqixs7sRXDRniApYzZcZoJNBpymiXAMZME5kAVHXzLsfXFwmFLhGMiGtS8Jjt4YuEyJcA6lwz6UDbtZpY9kYpaBdNhNmbD3Z8DWlw4HWRnTSAK3JQd2S7aAmIssrC0eTha9ywouDaRa80emf91JCHSzlIrsSdWOshuHzqYkLewmw8qEvysTPtYH/oqpTWoOKZOcFOApPxe1s1R0V0Th5qVd6GpQMgBTTo+AljImyyINQYv/f/0z8Ct/1ySfl4jwXEnUfuzow+IqIAGJP47i9SIwai3IaUQlgLXQRkHxXlkdGLpIL4xLbxgwnl6qWkj2sWcLHLE7aPYHvWeXvq9AjPs6qE3oXUrzUm2nCWrDQ2UCPOFBTtkuRYhgQxY1yHSRIMfjZFuMMoQHyzWgI7hp0W8U4BrhY6iBmSju81gpwnyMHKM2xvPLxsEg2EewK1fRVyYRIoD1GBHqZfBYhUSotxz+rlJ4O0rgay+Gr60IbgJaQw4s9dkw1+oWDNZFpouBlakmGVjPPdokiA8Z4uPy0kQqbIuivObj0lNGbjUwE+DqKZXXyyCwKRCbDF5kXZp4TwbZVUjgStZA6y76qmMExHQWRqalszECGfcZA/fix9NDppTmukRY67kyRNcz67rYo5siPqk/W93QFZ0kTnv1C8gUgftxcDbHqnY3BC75hUyBo9uggIC2Ay7/O+hfIguif4mGTcW4yILYRZMMi/2mCDC6A13V+JFtFUnJDB/HlTiyL4+ZGhH9UVy1U6U2DF6HgKXbFRhuW5Fyxbt4m+crRue1FsNj4SIBWy0rtsPFAo81H3bqVKZs2MmgTKlwkm0xretPh53bgTTY+1NhJ3D1JsPRlwanKR32/mQ4BlLhGsyAYyhHMbWhdFj6UmDuTYZ9IBPOwWxJEXkdJ1NN0ctUOmo1kallwtlFfVGV0bhaErQfB8VqxVJAoJG0kACkLYKI0D7R5FHXrSY3flShTMI0Bo938pD+XAQwgiM1NQNsjUkoSz+Jzoqbwt6kMFt8V3qqqJV+yb7WSVdjXwrcJvq4CUPSzaSSLlLrUumfU5iSplPJVmdWNLIyleRCEAFMBf1esvqo9ZhTZUZcAacwr2SN0FChsjEIe2LqV4ywpQhhSyFCsl8ykS5qYKYL+WRcoSFVOkRQk9SSnjD6wUxkU+xuUSLivQj80kaHAKba6VDT4jRtATECnIn6FoGMUSHAJo/ndUTAJztTepkOfgSwUH8xfEzXOgrh72L6aJQI95ViuKcUoa4SBLqKNTArR7CnTCLABn+dJbINdpch0GUUT5a3o1jC1VogaaerJQ+OllzYm9jSJxtWljvVq86w9vZ86Vrq4kqipHYqqGe5OnPh6s6FpycPfupaZFR8Ld0lwgAVUE0I9CqtpP7FFJKsTdkqnhq4R1ZFXWsiVLrI48kw3UsEWRmZGEV8dSwBg3W0SWh6WHUcLLWJkkLaqYM10tcRD1PtXZjr6KRneZDqMOFs4geJDCwBruZYOJvj4KAhUvvgsezCa+LqYJ4yagr7YXeEMmFQol9pxcfCjqwFonlRsxJzqE0VJ/NcOs0ViNETVQgvV+YsBWqfgGQrhNvCdE5btWMaOQ6CTC05T1HpWmR9kiLycXw8rQySDirgoljOxztMObD1Z8Fh4j7F+Ww4hzLhGMqEbSBdQtiUyQBbfyps/QbY+jLgMKXDMZAGG9NBU45KEQcyYetNhrkrHubueLjMFOGpffGa2XBbckTX4paAxedw9vNLS6alRwI8FOXblN1BARKZDHUsvXU2dakMbeVuctdarenjJCY2GcQU45pw0pMpswDaJ6BEX6BKU8V5rxXN68Cl3PATRlRhVqJTaXWM0hJJhS4tKHlBmzSl+7cmifDqHKZ7DAKa5glj0T9BiotHUqbGLRtjaqZoyQS0Acgd6QJWol1R07Ko1I9gFhzMR3BQtdYJW7iqSJBSAKSvMgbp2SIIjYOaWl2k5kUTK8FJgZsCOIKQ3KfFuK5Fq8UgRXsCGVNJgpnOzJhCEgiph5FhEbyYZmqpJdPNXmpfxfC0F8HdVghXWwF8nbRelCLYqwGFBmgCWgQqDbj8XUYEuglk5QiwTIflPEzTNPDydBRJuNvz4W7Lga9dhbctB972fDHBcgWzvy5VCsHZ+cLalCOgZmZdJ1lxV45KITUmJjaIniIR5gN9CsAm7BCKcXErelhnATWuBI1lEahSBKh4e0hEerWvp5IK2JIwVMtUMkEBV10CBu/Fw8LUkkytNg7m2mgM3bsLS12cHGfY2LiOv27i2UlQImx9DJws1tb1Da42DeYhYKVHqVDKXaSNsYM1ehrrErc4t8pJzi6ZtEkQuJhO6u50nscyGe6TIVG0J9NikHmJT4ogRODSbAc6cCnxXW29TBN1jxVLfMjCmA7aC0VTc5oUkHhkJbFAQIfpm9NcAJu2WsjVRK408jymetSpbAOZSp+iGM+0kSyqn4I7gSsb1oEcWPuzYCdL6zPAaTIIu+J1uHUN0TJB0CwULY0Cv5MifQd1ohi4WmKl9tDTxlDF0exuKuxHm3cpepYUUCubg95yaMLioEBtYmqT0rd+DW60sdDLZZCCeVUaxH3tGmJxYRpHhz1DN5VOpIX6CuN4mkjdc9yrpepZlaGZJuaJ+8bTPL3OUAYX0/qg+wgpSfB8rXccAVG6UrCagwsA/DyydC1lvIEA54eSXQ2LD6tEWzGkb4ssid1bCWAFsg0NFY3fDpi4ndC41LZYnPbivJ8ETro4P8HGJkKxL6aRTCcV0KlQrExPJ1XKSZAiYJUgwBXG/mIFXmRXvbqYr7QhW2seHG15oi0F+8oQYDBV1IBLByyyLW79XWUSPE7wUseMAlzKXFoCrzCxAvg78uDryJfwdxZKY8WuqiR0VSeim1GTPN4brKcmCX21ySruJYuRVqoGGlV3DWcbfV56aqnSQ8XAlOAvBtXuIjylSntSMcRiT7FGJEpDQUs9hXjFqMi2KMAzRTQxTazjbcW4zA2a1kUxvyYOpupoDFTdhvleDKx18ZJCMmwNCXA0sSBWLXtb6u/CWhcNe2OcWC64yug1kUEUwm8uhp8Ao7EjxbKMSsuyFEvQOS6lL5IGKiAi2xoP3Vk+6TE+C1NFlWb6bIVybWFfVgIYUz9uCVg0lCohXlJWG8+hflWoQMtaqOwNTNOGMmE30+6QLd4sghRtDKJPWXPhtOXDaSWA0dLAyIFtcCJofZBWNgOZsPalwSrgZYC1P0NSP1s/00ICFVmWWjnlaqVKUYvgGiqAy1wAB/Wtfv4AxMDZFAdnE5s6cjVP72qqebLo69IsDbRDCGhpoQOV6Fji++L9PJcApK/86joVQwO7jmz42qmFaUAlBfX66DrVOFClqMoDpg9Y4aogdVB6+biyKCK7TItS4v14iHVB9eYSljZp4hTTQWFgml1CVh4JZAJoyh2vNDDV8FIPVWZE5qV1NpE6W1ZxGDSA0oGHAFOIYUs+wpZ8tW8uQmiwEAE2NzTlSj+woNxWERwkoOnpJI2qBD0VITIuYWUayPG8SQBF3YugJbqYtqIoKaTYKFg3SaGemlaZgM7wQJlEqJ+aWKloWgxqYgEaWglevYXwSlDoVsAV6i9HsE87v7cMgR4ClQZcnSXwdXKfaeNEUP/ytJfA066YHIHLQyDrKIG/wwh/R6k81tGaJ00Ku2tS0CkAljQBXve4+piIrqoEdFcztP2qRPTwvKpECQE1MjZWErCBY2s2HDSsduTDSTsEx5j7Bwrg7aMRjC0/MsQg5uzIhq2VLTeSMVhP0Y3ifLLaMmoJbkkw1yfAQqNqbSwG78XAVH0XA9V3MVgTA3NtnIAaz2MbHFtTHKyNsTDX34WlIRa2xhiYG2Nh5YeoPwsBSz6CFrZgKYKXK4aWPGWHkFW9IgEjASANcIRJabV8dJCL1kWQIeBZeM5k0NKAS9LFPPFCyXXIxESrouCuQnmkCBYKMJQvS5lbqWF5rEzPuIqZDYc5UzOV5mrApawNjiHuE+C4MkgGlQUbmdSkkNsDWTD3ZWGoNx2DPdSykmDtT4WVOtigQWlifTkaE+Proeiv2KEwLYrzFO/702Buj4a9KQoOpt/UD9vipR6Uy/0ECVn0kNCZEJ3ujFQJWd0VzYqsTO/RxfNTVLda0ZuSZYo593k9LqgobxXTNVoLVPompTgCGmxPM7H44u7g8/C2Vm8orZAUC2eBPv197DLCrqh6uHiuBlwEIdWVl9dRz029yzMOWnTxM+3NkM+yi8ZXrkDytVED02oh1WIRGwQkiD2HfkPW37q7MhGSTqsEqyKMcESauRghThA3K+Ai0yJYBZgdmBj5CrBMRRK0RITIkCyq7EcBVZFEQLbFcg6/dzxfaV+Fon/xcSGK9UMErAqETQzuF4kvbBzkmCJy5ZAripqQr4NWkHYIKTEqlRCWQv1IBHujiN/Uk1iew5XGQG+FRLC3EsHeCvh7yuAj4+pWW29nKbydautsLYGrtQjuVqaPRrjZG76jEB6uIIqgXgRXe66UFkkxNgGsmttE9NRwSyBLELAigAlwCTNT4MZzexg1KuS4sLZ4dNeox7Bo/KlAf4FUvYdMhfAxhoqE8fjMRfCY8uDuz4Orl5XfeXB3Z8PRmQVnZxY8dByzMFvvx0UPF0Pa3ySOU297YwqcTdQXVIE16blqQsjb/NVNl4r7wBCZVoG05/UP5cM3VAgvj3ErZk6CDcGIq3kKpLjPbgm6AK9avRjlPKVn8T6WxRDAOPZLd6DrtglqZAQqzfVuL4GHVgYLDa45AnAELIKYx5IjLn2uFHLrtebAbWVpD13wNKQqJzyFeWFS4r3KE6+WjfrWYBasg5mwEIiGaG3IhqWfoJUBU7cBpu40DPWmwdyTJjYH6l7UwJhCclo1Vx3JzDzCtvi30ECLYDaYB0cPe6PHw9Wop0XsWKpPX9K8TtK9VJX9MCaPmNPLawhoLIZmvSILppVTXhfKlZAuZT/SvpkMiWZOdb/oV/oKn15rqK0cqk4PSrtSFohkeJqTpEsFQ3pyNcXLzAK9CP/Xodsm2O9NaVUU1WV1UECSov2Eb4vgxW4RHm7ZYJBdIcQxT0GfaeYkHU00VvoKOZQ4C2FLAcIW1isWYERE+WKECWRD7LQ6kSKGhvIwPFSAsAj4SnAPaeBFC4Oke+ZSAS4R4al10aRKpkXGpYGWBEFLrBAKsIapbdF8OlghWzKsUdkqWwRXD1kiRA+Xbnsg4wr3l2G4n/YIBo9pAEdti1pWLx9HjatY9kOyyliJUE+V2hLEesoR7C5HqKcSwe4KlTZ2lsPXUQYvo80IbxtZF1NGMrOJVJJCO/UwU20GusqT0VGWhM4ysikaVhk0r7Lm8dcMi/eP1z6KK58dLVKllxi3UmMpkSLxlNBZvQOkNvWXnSE5Oips5dBMLuuy9S2nAxvHpwQPU0OiX4paFE2fg/liYfD2ZcPbnQFvTwY8PfT/ZCHI6MpAsDsTwW5uMxCglsJhF+ZcjLmKMcq+UwQeWwFCHF1lL8CwLV8mwQQYrFPU5vFR02IvdT3CbIXMkH0OViiWLftYcXw9h6py4EKYHR+krxVbH9MyoU2Uoateup0qx32I7XC4OGBl0z/Vh17fqpY4LMRWnUXZusbnKoTHqWoSaUdwkpHZC6U+0U2W5siD05Yl4bJnw2nLlfNk1VFz0dvJ3ixZsJvSYBV/lwHOIa6u5onJlSU+TFulMoB+Ni5GyMoqFyOK4O/PUfMpaW2Qv3U6QvRodTMMku4xPQx2piDUlSwxLJ03DGrKkoyHMyAkDRtTEeKg3p50Cf/kc9hpgsZVGSnH49S3UhHQUtDhnnSEewzjMdydLhHqzEBo/LUwTVURlNeUJrWU7FQRpIFVirxZnjQRsiLKtFeAl8CqVi8JyLyt3jM9Z1qHVqmlJPNSXXaD3dkI9WQiKMHPH/1mqryMPjU53p2J0aECPHSX4qHbKNv7To5EM8oINKaLHCJ7n0M7nEaMOUow5iiW+x+4ynDfVYYxBx/DadmluO8ok31uHzgrxoPfp/HhtJyybSvDA07Q1mY9cnWSjnxO1X5oL8cDeyUe2Krx0FGFh/ZKOW/UYpQW09J6x6wc+GMWjlarwJilCvcZ1jLct5TivrkUYyYjRvuNGDOxTrIMowNG3B+swJi5CmOWGoyZa3B/qAYPBqsxZqrE2EAF7psq5BzZmqow1l+F+6ZqjPZXIqylmgTHcF8ZRvsr5DEjXP00lcHVWSB9umTsWUWSDPJQ/cU4Oo2tpdPQX5+M/rokiYH6VOnYqoe08WlIVy18GrmvOmnwGOOpH77dhG3ffoEftmzCj1u+BG//8O1G/PDtBvyw+XP8+O0X+HEL7/8CP3zH2KTi+034YeuX2Pb9l9i25Qts++4LbP32c3z/zUZs/WYjvv9qPb7/Zj2+/3o9tsp2A7YyeN83GyS2bl6HbXye77/AD99/Ka9h65aN2PbdRmz7diO2bd6gtgx5/s/lfj4PX8+P+muR4Gv8HNskJl7rNj14/LsNcg6fR17zePC+jdj63ef4/jt1e+u3G/EdXzf3tZD3uOULOfY9r8HXI4/biO8lvsD3325UsYXB8z7H999uwHffrpP4fssGbPl2o4pv1uO7zRtU8Jwt67Hl2/X4dvNn+HbzOrk9fh0+jzw3n2cDtn3P16Rey1Y+L/+mX69Tf1ftby5/92/Wjf/t+b+Qc8bjM2yVx6jjWzd/hu+/+RTff/2pPO67r9bjO3kM/1/rsXXzpOuOX2s9vvuK566Tc9Vzr5sIXleO83+vXpt6rHaMwef56jP1Gr7eMHG9J2LLlxP78pq+Xo8tX36mXiOvLX8D/TU/EdpnTgVva+/9qw0SW7/m51Z93vi5+lG+D5vw43f8XH6BrZv5eV2PH+Szt0l9/vTvxZbP8SM/b/I94ufyS7lPriOfS57P75W2Zch1te/e+PdPhXweN2/UPqv8LqrnVNfld/QL7XGbsJ3X4Xd48xf48Vvufzmx1V4br8Xvnfz9v/kc2+Q7rgfP+0q22zarx/H+bZvVa5Nz+Xrlvq/ww+aJc7fynM1fTARfk4YZxIHNm9Zh8+cb8M0X67H5i3X4dtMGbN60Hps3bcC3sl0nx1V8hs2b9FiPb7/coGL8Meu0UI9/atas+ZgcM7V48tiT5/2fxuwFk4K3eXzBn903e85C7THqvpkz56mYNR+zeY5s9XP+02Py6/1L7+c/Lfj8ekwc118XX79cW3vNE4958jp/PWZPfg75G036+8ix//j1xt/br/7mT/79f31s5uyFWjx57l8I7XXI88xegBkz50lwf/acift+fUz7n4/Hn1/vPxb8bDCmz5iLGTPVNeTz8hfO/WeNWQswe+YCzJg1F7Onz8PMGXMxS/6/CzFb/kf6//o/L/T/k/55nMm/w8yFcu2ZMxdg1gztO/CrzxC/Cyp4W31e1GOmz1iEGTP42IWYrZ375HNOfm6J2RNb/l/Ua+LjVMhzzdZCP18Pua29lsn/W15j0nn6bQa/K/w8SMjtJ47J8Ukx+fhfun9SPBURsRj/vSIyconEwoURmDdvARYtipTbCxYskmMRkeqcJx/33zMWL14qW75evk799c2fv/B/uNf6zx2T3zO3k/9fCxZO/C3+a0P/XERGLsZrr63G8uUrJx3753mOvx5LsCRyMRYsWoo5C5Zi/qLFiIhcisURi7GIz/1f+/yR/JtFYNGCJZi3cAkWRizFooVLMHfBcixYsByREX/l+vwuLF6MyEWRiIhcjjeWL8DyJRGIjGAsldf4Z4/5/+P47wpcDH7hV6xYhW++2Yx9+/bh8OHD2LFjJ958c618MRhPPua/JObPX4S5c+f/V19PB9WPPvoEO3fuwuHDR7B//wF88cWmf9bX+z9S8D3xPb/zzjvYuXOnvOfdu3/GmjVvyvEPP/wYmzZ9JaDyz/X+ed2lS5fj1Kmz2LLl+/G/7V+7Pj9H+o/fk/f9Z8WiCMxduBjvrJqNQ589jc9Wz8L8RcsRsYiAwuf/C4/5z40FS/HmigXY/8lzuPzFb3F+0z/il4//hLdXzMX8hX/hfAHNSCzmD8WCCKxYugCGbf8G2z54CQv4evieFy3Gosnn/4VrjN+3aDFmzV+GeQv/rwt2T03+QPy3Dn7Y3nrrbVy7dgOJicm4cOEiTp8+gytXrmLDhs/lfp7HDzH3hYVpXyT9gzr5GPd19qbfx+MEmzVr3sAnn3wqv+I6W9DvI6BNPvbXgs/J59q5czeSk1Nx69ZtnDp1CpcuXZIv85Pn6gxl8nEd+Lid/Bonvx/e5vPo5/H2k+/pyWvq9/+1+558HfrfSf8b63/DvxR87Lvvvoe7d6Nx69YtnDx5Cjdu3MSnn66T+37+eS8uXboibFR/zfr/TH/Nk2/rr0V/j5Pfk/54BoErJiYOe/b88qtr6P+vycf4Q/fhhx+N39avr7//Jz8/fzUWLsbMectwftNvgEv/N+T8+HeIjJyP+QuXIHLRYixYyL9HJBYuisRcMqX5SxXYLIqQYwsWLsaihbzWYkQs5PuJxHx5nQowuJ0zbzkOf/osXMf/H8j/8V8h+ft/j8Zf/gUKf/q3eGf5HMyTc9V7m7tgsTzHggURWLSQzDYSry2dj9Zf/gUOfPSM3D9nwRLMX7AEkXxtEYuwcFGE7MtzLVgizHHhAr7GxfIaFy+KwDdrp+C912Zj9ly+Jr5e/k/+I3+b/4HiKf2f/98y+MT8IC1btgI3b95GdHQM3njjLcycOVtiMiAtWbJMzuWvO1MGfhD1D+r7738o5/C2fpzX/OCDj/D662/IB1z/wO7ZsxexsTF4++13tA9QhNzPLwcZw8qVq8bP5eub/Fq51b8A3377HbKzc7F16w9ye8aMWZg1a4788/la9C+J/vrIQnRA0d8Pr8XnW7v2HTk2e/ZceW/vvvu+nM/H8ziBgOfz8fz78Hz9dehfer4HnsP3zL/RZDDilvfxdaxa9fr4e9If/957H8jr/EvvWw8dIPbv34+YmBj5gE+bNv1XILl69Rp57TyPr1//n/E1r1nzlpzL18n/Cd+D/v/i+TyXoT83Xxf/J7zN49HRd4Xd8TG8zuT/78R7jZAfjuvXr8tx/Vp8Tv5d+f/lVn/NT77HyUEAWBoZgZwf/xZVu/4XNO79f+Pj1TMEIAhIiyMWYemSRZi/YDHeXDYXH6+agYWLFmPO/AisjFyA1xbPQwSBecESLJwfgSWLIrBs8VwBHYIigWfGvKU4/skzqN/z/8Eby+fi2Rmr8NHq6eg/9D/hzIY/YOa8xZjLVHLBYnywchY+WTNTUshZ8xfLNV9buhANe/8lfv7wBSxdPBcbX5+G1xZHYO58/h3Vc8+btxTzIyLwyaoZ+Pj1GervMW+ZXJPHWg/8v3Dpi98hcv6icUBeFPHnf4//UeO/C3DpX76vvvpGQIAfZn55J5/D22+//S4OHDiE48dPIikpRb6AvG/v3n24cuUaLl++Kr/0/IIQPJi+8fiZM+dw+3YUdu36WT6o69ZtQEZGFkpLS+WL8M03W+QDT1bH88+fvygA+uWXX4//2k9+LbwGXy8//ATZU6fOCMDqAKOfN3fuAtFk+Hr5/Ddu3ML16zfxySefYc6cefKlO3LkGA4ePIyLFy8Lyzx8+Cg2b94i7yM+PlG2BBlen+nX8eMn5DFkoWQffG8ECh2Uv/pqM27duiOs9e7dWOzff3Ac7PiF5d+Icfr0Wfl76n/Xc+cu4MKFS/K+yWh0wPxL/ysGwSMlJQVvvvkmZs9WPy76ffy78T3xGAHsxIlT8jfga0pKSsZPP+3A1q3bcPPmLfk/8n/Kvxvfw+7de+T5eZt/I/4P+R4Jwvy7R0VFS0rOa/PvyPdy9ux5+fvysTxn48bPkZeXj4KCQkRF3cXnn2+S98Lt1avX5f9748Zt+Xvy+F96n3rMnLME3739Emr3/i/Y/t7zqNz9L3F83T9h7oIFmDN/MT5cPhtxW/4esVv+ATk//A0a9//PSPv+32LV0tn49PWpyP7hb7H+zZcxS9hYJM6u/z2ufvV/IGLRfMxfECGp3fR5S3D009+jft+/wHsrZ+GFOUvw+rLZaP7lX+Dsht/j1TnL8daKWUj89u9Qset/RcXOf4nCHf871r/xMmbNXY7XIhegdu+/QMrWf4Osrf8axp3/EjV7/7/Y+t5LmLdgCebOi8D7K2cgfeu/RvnOv0Hprn+JjG1/i7UrZ2Pl4gUwfP93GDn3f0f/kf8nMn/8N1i7fA7mz12MeRrL+79CPKV/+P5bhv6Le+jQEfmy6V/CyecQiAhUBDZ+Yfkh5Jfr+++3CXjwV5eAxQ8mvyj84JPFMH3h8R9+2C5gRVZB5nLmzFmkpaVh06Yv5Tx+eXndbdt+EKBg+sfrEkT5BZr8WviH4jHel5ubj+++2yrA8pfe09Gjx+U98XX8/5q3tuiqqizLT/90gwRQUUZHC0rLluoWeRVJyL333PO+77whIQaSkERIIEBiIAl5QELehAAiRORpG+QVAiFAANG2ukCt0aOtai3KsrSGZVWPHqNHf/b37DHXYVu3o98FH3vce87Zj7XW3mvuudY+Z+3aUnGy8+cvypgEvitXxjE6OobKylcld3PnzgcYGXlXQJRlcvIWenr64PNp4uwff/yRgBdDNdpgfHwCg4P7oGm62IfAwFCNIXd9fQMmJq6L7pRHARPlpr5kMgQ1gjX7oJ1qa7cKYNKpafOpc8VC0CgsLMQ777yDiYmr6O8fkLa0CZ91du4RHXlNvagTwYK27+7uwb1793Do0CFUVFSitbVddORmwvFYj2DN+eM1N7Nr125IW4595swZmRuOw3kieKn5pS0IlNwQ3nrrGM6dOy825DVtTxAjMybQcxPjfNNOKtScWlw3Ct1J4MSWF3Gj6RkZc2TLC/jXjqeQCPM0NoFXV/nwp8HH8PPdT6K2KAO71y/FH4Zm4OimRYhHw/isdw7e2fY8gk4cxTkmPut7HKe2vIigzY0hhnAoBt2OY+DVRfiibyZ6qxahqSQdV5t+hA/ankZJlgXHjmKscQHudj6JuuKVqF6l4XZzKu7ufgIFWTbi4RB+2zMLv+6Zg4aSdJTna7ja/Ax+NzATJdkmEtEQPmhNxfttf4+Nq33YVJSBX+yah/faUpEVc9C07mf4dnAGRrc/i1dXaciO0B4P2DV/GZL+gH0epfJQgYsOSWfgDu66f9nBWbiIS0vLcP06HbEF6ekrZXd9++23JadUWVmJqqoqDA0NYXT0EvJyC2CaDgoKVqG2tha7d3fgzp072LatDn6/Jgl/L9SJSXjHPi9fvozNmzdLP6+91oBbt26hpqZGWInalZU8vEdnYJ88SOB1srx02uLiV3Dp0iUBQ58vIOPy3rVr1wXsYrEYRkdH0da2S56xf7IQ5oxYn30eOXIEx44dRyAQxI4dO3D79m1hTnweDOro6OjApUtjiMeyheWcP38eWYkcATJNCwqIk6Xk5ubLczIcOjOdkDZlHujq1Qk0NzeLDTdu3Cjg193dDcfxgEjtasn60dnZZ0tLmwDzlStXBZypd3t7O0ZGzsCyXFRUVAg4E5gyMnwCmpOTk2hpaUVGRqZsPswP7tmzB7puCKBRZwVcBOfLl6+gpKQUoVBYgItzyfFZyMQIsmx/8+YtbNpUK7YiQB4/flzqcH5bWwls4zK/1JNzxo2MQE0dFWOknm44jAjn2I6jIOHgo86ncL3xWawvCOJwzSJ8s286NhT44DcSqMpf+QBwliA9mA3LiuFy03zcbkmFZsbxZu1P8KvuWUhEHLSXrpDcVWV+QMBK1n4oiqAZR2/FEvz3/un4ZedcYXf/eWAm2suWwadno2Z1Br7un4Vd5UuRoWchXc9FbVE6vt37GHaXLYPjRvCr3tkY3rQQmpUFn56FdXlBfDUwE51ly1Fd4MOXfSnYXLQSmWYMASOO+jWZ+GbwMVQVaCiIO7jfl4IDVYuwLJAPx40i7DLsdhBxOe8Mmb/vt49Smaao81+zcNFwgXHBkwUlEgkYhhd6qUJGU1ZWjrGxUWFJdPTs7BwBGzr/4cOH8eabw8IqyB7oEAxZLl68iAMHDqCtrQ03btwQQKJTM6y4cOGCMA46W19fvziU1w/DpqMCGGQ2fE751OKmPAQVhoHXrl0TJ2Gfyc8pb2VllTgLQxdNM6RNbm6egAtZEXMxlJ0y0bnorGQKAwN7RT/2RSBmWMjnjY1NEp4xL8f+OWZdXR0mJq5h1aoiHD36Fk6cOCHOxzCV4OaFdOPCMmgTghdZGJkNGd+GDRtF72PHjmF4+E0pHI8Ozc2Duk+dr+Q5IzixX4bADFETiSy0tLQkAVelgDcZcSCgCwCNjV3Cjh2N8PuD0paMkyexBC7an0VtKLQdgZQMkfKcOTMimw7HZkhNdnjgwEEB8ImJCZGbtiELJHDRhpSVNr1586b0PTw8jKNHj4oNuPkoEPxOtwdsI2jE0FC8An/ePx2/7X8c/971NH7dPwf/8/rfYbj6H+HTc1CZ78f97ploL12GgJmAa0dwtm4BbrfMg+VEUZLrw2d9s9BatgwjW57HeOMzMJ0oXMdbJ44bRsCMYaByET7vSkF1nk9eaRirn4+7u+fBdMLYuW65gFTtqpUyhmbHUZqj46u+2di38WWE3Ag+7ZqD9vIlsO0YbCuGWMTCp11zsW/DIjSszcBvemejOKHDcmIw7QgKEya+2jsL9cUZeCVLw+/6ZuJgzUJkBOMIuTG4zKtZMQEsyhoigLmezI9ieSjAxeLlWkpkcQ0MDAhw0XnpnOqXodDo6EUBJN6LxxM4ffo0BgcH4fP5EAj44fdpUggQZFRkDmlpacJuCHLcabkjM5whaHA34TUZF4EsEgkjM9Mn4/G+ChMZXtIBlLwqvNi/f78AB3d+JSfbZWb6UVS0BmNjYwKaZBeZmQEJeSYnbz54XSKKS5dGsX37DmnHQwICF/VhH6p/gorHuBpx69ZtCYfIOD1m0S0hEV/v6O3pE51isSwZn88JwKdOnRZQ5D22I4iR5ZAtFRevwZUrl+XVBupNcGGynWyHehLYhYVMmS/agnWpc1pahuTmCEAMy8gwR0ZGhPGS0RG4mKtSwHX58piAsDeHWQJMPT29ck0QIgBSdzI0gvr4+NUHSXwPuBgWMkwkaDEftmJFugAmNyluagq4COKcP9qWjOvChfOIRqMP1or2Haulfmp+PaCLwHZDcGwXp2pfxC92PYWIa8OwePATwsXXnsPHe+bCsuOoyPXjfk8KdpUuRcCgw0dwtn4B3mueB9uOwHTiGG1IxX/seQKfdDyBnWVL4DO9gxLPjmFoZgx9lS/h085ZKM32IU1PoGZVGr7sScHG/EyU5fvw+4GZ6K18GWnBbKT5s7CjeAW+6Z+Fxld+hpAbwuc9s3F88wvw6VEsD2ajOt+PrwenY0fJMlQWpOOPAzOkzQotFyv1ODrWLsHXex/D2mwDxTkavhxIwWDVT7HUlweTLCZiITvmwnEdhARkQ3CEhX3fdx+FMk3R5r92sW2yGkfyOHRssh3+3759u+QjmIugwzKsqat7TRY5FyVDP7Karq4uCQmbGptRuq5c8jcMO3myxHCFDn737j00NGwXB66rq8f7778vTCsvLx8FBQU4e/acAMfWrdtkN+c4dHjmaZhYJmugQyuZ+Z+hKHNSzK+QedHRWlvbxDEpX1dXtzABOjP7pUMTiAg0BAXqwzwdnYtjcRyGzNSPY7z++iF51YAgxL6pA2VkuMdxyFD5y+c8EWSYzDxadXWN6Ebb1NRsElmY3+EpKENTHgRwAzBNS0Izgh9zbJSxsbER+fkFkodj/ovyKb3JorhQCLZ8z44ykdVdvXpN+iUQMHl+/vwF6ZuMi/rThszTkeEwVG5ubpF5IOMiAyQj4jXnhzkxMjDO0bvvviuMkMDF8S9cuIj29t0CkAxRT548JX0TqD788EORn+MQ3AjyZLasu3p1oby+QTa9bds2mVvmAAlaDL3V/EpawAkjaMawJjeIz3tn43TtjxHQsmBY3lcR29dk4Nt9MyRXVJbjwx/6p6OzfDECOpluFGMNP8LPW56GZbvQrAhq1yzH/x7+G3zS8SQiIReGQ8DyGLztuAjoEeyvehlf9KVgfZ4fPi2Kwiwdn/en4GjtC1gZTODc1udxfyAF/ZUvo7N0Cf6tJwXjjalwXReJkIPf987EF30zMFSxGDtLl+CTrsfxL61PIxG1BXSvN6Xis+452L1uCbrWL8X93hRc2DYfuh1FPGrgo465+GXXXDStW4JYyEVvxT9hcuc8kcOww3BsyuptWI9imcYF/jCKF3Y4snCYD2Gex6Pzw+LIdErmVLjDcvEzjGBdtquvr5cQh+98kaFwd+czLki2P3jwIHbu3CmLm4uTbcnWCGYnT55EeXm55IvIBnj6Rcc/ePCQODp3YPZDBybjMwzr/8mt65Y4BkNPAgrHYzhCMOHOz5CHyWSlC9kkgZIy8JWJjo4u6VedShIkCCgEMvbP5DTlIDugUzM0Zd5qaOiA9MlxyNwIEpRt/foqOTHkWAQkMjvagn2RYVE3Fjo2gZLjMmTs7u7FkSPD8h4aAZiMlfd52kkQZz1vfjy9mSt64403xO5sRxkJApSBuS6CC/+TGVFHsjzqRDDkKbAXOnrH8rxmbopjUKb29g45gd23b58wYQIj23Fc9sv+qRMBi6ehZGlMMxDs1NrgWiELZKKfoMe+GfZzfVBezi/BkzZXp61kwzIvlg3LiOKV7ABOb3kO5bl+aGYYNvXXQ8iKaZJgr1+zHPlhA8c2v4CNeRkIGiHYZhSdaxdjb8VLsC0XfiOM1TFNgOX1DS9B02MwLS/E9taQC02PYMvqdByr/gfkxYLwmy7CIRdDVQsxUL4YPiOEvEgQJ2t+gsmWVFxvTsWJrQtRFNOhGWFEQw4Obfwp+ioX4uy253CzORXn6hegJItyu1JWxzWc3LIAd5rn4VbjfByufhHZIV0+aeJnRVuLMvBe07P45y0LkBU1sKd0McZ3pGJ1VINlurBs64Hc3/fdR6FM44J4WIUCGIYlbIMLiIyEzIm7E6/5nOhKsEqurxyAjqaSuixsQ+DgoufCpXMrgFTXDBG4eNmfYnEEIo7Le8ph1fE8y1SZOY6XkwpLOwUIfO4lyXW5T8DimLxWbamP6pMyq3wL//Oe2lHIRshyGO7yFI1jMMfHvpRtWJ8Ax/rMv1F32kb1xV/qS5bDdpSRdVUftHdOTq7cU/Kzjx/SWzFC1lfjKLBVMrOeyg2q9vylvdUcJuuo5oVyep/1xGVD8ebck0HNn5pf6sK6yRsZi7pWr4KwvrJ78vyyHp8rPUVG3rdsOJaJkG3CoIyGCYOOy28XDRuuxQMbE6bFUz+uEVvqWQLsNmwnCMtwYBku3qr+Me51zEVWxBLGZsp8KHs6MGlf24BrW9LeYOEGKYdCBhwrBC3ofaeZH/OjMKLD0MIIaGEYjgnHshC2LQT1EOIhA4XxdDimAb/OccLCFIMa17KLwngQBYlMaMEQAvwm0rJgGfz+k++baUiEAjBsjukg7Bry3aNFefmt5ncyP3plmnL6h1G4aJXDcEF5+SLPqX6oTnJblVtSDqnqqvv8z37UM/WcCWJ1T43L+ixq8fO5AoAfKkqWZBmSn6k+OZaSQY059VqBiJJPlfT0TGE+zPcwd8acmdI12Rb8P9UWSgdlD3VfFfV8ajv2p2w3VWfeU3Ok7JT8LHlspeNUvVT95HlR9VS+UNmEzHZqWzW+qpf8LHkNJY+RPL+qbnIfBB+DcgfZn4VA0PI+sGZdU0eQH/UaJjT5oNmQD5z9Oh2f8pnSlgCjaQ5sK4izdfPxX0N/i/qipdAC7JttLOjJ68cwoPFDac2FpVuwdBdByhW0oWueXUV2Fo31OF+0pTeewfEpp2kjoDvwBQlU7oNxHuhi8JkNnxZGZpB28ubcEN0M+VjaFwzDx4/YCWSGg4BmwaAu1l/871Et/wcHca0wizIA9QAAAABJRU5ErkJggg==;" vertex="1" parent="1">
                    <mxGeometry x="300" y="370" width="95.57" height="100" as="geometry"/>
                </mxCell>
                <mxCell id="15" style="edgeStyle=orthogonalEdgeStyle;curved=1;html=1;exitX=0;exitY=1;exitDx=0;exitDy=0;entryX=1;entryY=1;entryDx=0;entryDy=0;" edge="1" parent="1" source="4" target="3">
                    <mxGeometry relative="1" as="geometry">
                        <Array as="points">
                            <mxPoint x="480" y="440"/>
                            <mxPoint x="480" y="470"/>
                        </Array>
                    </mxGeometry>
                </mxCell>
                <mxCell id="18" value="Throttle and Steering" style="edgeLabel;html=1;align=center;verticalAlign=middle;resizable=0;points=[];" vertex="1" connectable="0" parent="15">
                    <mxGeometry x="0.2316" y="-6" relative="1" as="geometry">
                        <mxPoint x="9" y="16" as="offset"/>
                    </mxGeometry>
                </mxCell>
                <mxCell id="4" value="" style="shape=image;verticalLabelPosition=bottom;labelBackgroundColor=default;verticalAlign=top;aspect=fixed;imageAspect=0;image=data:image/png,iVBORw0KGgoAAAANSUhEUgAAAPIAAADyCAYAAAB3aJikAAAAAXNSR0IArs4c6QAAAARnQU1BAACxjwv8YQUAAAAJcEhZcwAAFxEAABcRAcom8z8AAEoQSURBVHhe7d0HfFxXmTd+EdqGFnaBXVhgA2yW/IF0a26ZUbGqHTuJ7STel2U3u/xhN8R2bPUpkhMR9v8uLy9hKYmd4ibLRVaXbMdJKBtCEtvqXXKTSwokkADpLppz/p9zZ0aaec6555w7944kS/f5fH4fJ8YZa8qX55l7zz03Lc2t2VMYv8db0fZRT3nDp9ODTV/SQ81XeUONmVqgbYUWbLlLDTSt1wKtP1KCzds8geZmNdD6pBJoec4TbOr3BBuPqf7mM2qw6Xeqv/EPqr/pVU9F0x+VQNNrir/hVSXQ+IoSaHxJ8Tec8gSaRtWKxm7F3/Brj79xv+pv3KX4Gzco5Y3/qQbqi5SK+n9SyupzlZLma68vqb8is7L5M0r1gY+tXNnwXvgju+XWvC7F3/w5taolQwm2/5MSaKtQQ20/VoOt9Vqo9Wk12HJECba8poZakH7PY9jI+v1Yr9qHtaq9WKskaY+mDWuhVqyGWiIJRhMgaZ5KcCpaLCHya0skoVashdqwXtmK9co2rFe1YTXQiD0V9a8rFfXHVX/9s0pFfZNWvuenC8r3+D3l9d/Qyvf4vBW7/xY+N7fcmnNVXY0vWRBouEy9p01VK1tXK6GWR9RQ66/UyvYhNdT2ihZsC/u++3Oc8b1fYt93n8S+ex834Grr9xlQVYI0GJ84rEYSkU7hbeKkMRI/J4FGrAWaDPAx3N71+7DvnseMX9XyPUip2POKUrFnUCmv+7laUfeg4q/7thLYc21BWe2H09LS3gNfC7fcuqhKr27+a61yn6JX7l2tVbbvUUPtJ9TK9je0UCvy3vs4JnB91U9gL+m0pMtGu2osBt5YKLgmgG0jbjBPRX1i/A0Gcj3Ugr1VBPhe45+ViroJtXzPn9XSuhG1fM9mpXzXv2olO69Wqnd8DL5Gbrk1K8sTbPmEEmpdrgbbfqBWth9UK9vPewnWex/H3nsPYP0eMhpHR+IQgRsfq4gZkK0gpiAz8E4GIE7Inqn467Hmj3RxPUjSbEQt2/26UrHngKd0V9WCsrqFC+585P3wtXPLrRktMjYrlQc0JdT+I62qvVMNtZ/L+N6vMAGsk9E4BtfouKw4ANgqYjudmAU4lnKSusRU7MGavwF7yVhe1YaV8t2vqeW7/kct3RXUSuqvgK+nW25Nay0o3ftJPbTvdrVy7+Na5b4/G+PyfT83DkhNHYSKPxhlFquQpxGxbCeeRMyAnJDdWA80Ym9lK9Yq6rFWuutltbxui6dsZ5ZWUn8pfI3dcitlRU7BaKH2b2tV+3+jr38Me+99Euv3HIjrvDAQrgxiC5CtIKYgQ7hJIjbrxgDxZMp2Y618D9b9jcYIrpbtPq+W1zWmF++6OS0NuwfI3Ept6VX7V6qhvU8TuL7v/gJrxkEqDmBTxA4AtorYSiem4HIAG4ghWnPAidllRKuoM7q0Wl53Vinb2aSW7VgIX3u33LJdqr/lK+r6vTu19fvf9d33S6xXkfEZnsuFgXhlIEO8M4DY0U4ch5iCHEEcH81fj32VLVgt2/lnvaLux+mldZ+H74VbbiVVSmXzv2rrHxv33feLyAg9CdhpxBYgXxSI5bpxYnYa0Sr2YC/52ct2D6YXbb8VviduuSVdxnfhyr336/ceOO+tfjJuNZUAsCliBwCnEjEFlwPYgXGaTgSxWjoVcmBMLa9711Nc+38X3PnIZfA9csstbnmq939aX7+/wUuOQt8Lu7AAMgU4ETENGeKdAcSOdmJnEE9irtiD9UAD1sp2tqcXb/kSfK/ccotZBLEaan/CGKXXP+YAYoe68UWB2AZkBmK1dIcRrWxXZNQu3dlJVonB98wttxKKrMxSq9pbfd8jiOMPaAkAmyJ2AHAqEVNwOYBTMk6LEU+mbCf2BpuwUrJjNH3t9uvhe+eWW9HC71Eq234W6cQQsQAyBZiD2B2nrSOOizfQgJWS2l7Pmu1fhu+gW26laZVt/6qv34/0e91xmopw1ZYZZAjXBuISklojXn8D9hRt//m1Ra0fh++jW/O4Mqvav6hV7j1pHJ2WBWyGuLLdWGPtJRdIxK4jjr+WuLJNDDiViCm4HMCzpRPHISbRSndir78eKyXbfwLfS7fmcSlVrT8hR6inVmpJQIaAQ22RK5zW7yed9w1PoHlUCbbsVQPNtUqgZY8SaH5OCTS9rAZbwpHz0e3TjzipTgzxziziWHTy95buOO+eZ3bLKG39Y1erle0vWerGADC5NJFc7aSG2k5rodYfKf5mbcGdez+UXf3U+8jWPeQKqSvW/vSDZEcQxd/8HcXf8pTx35GL82c14mQgQ7jOI45kO9b9e7BaXNN/Q/HDn4Hvq1vzrNTKtqoM4brpKGAm4n2RkTlEuu6ea+Hjs2pB9d4PKf6mu5XK1pfI2J1axBCtALCVTjyDiGPx+vdgpagmBF9jt+ZRZQR3/aVW2f4/vu/+MslOTBDvxYq/+fvJXIZ3Q6A+Vw21niAH2Owh5kCm8AogpwoxEzIDsBBxImStfDdWiradubak5rPw9XVrnpS3svU6rXLv61MLPyBec8Tk98l3YiXUtmFlQ/I7S2rBPflqoPlV8ng0XJuIrXbjVI3TKUJsQC7ZYRz8Uoq2VcDX1q15Umqo/VZyPbH5tcRRxAzIZL8tNdBKdgT5G/i4VkutaCrTjYNfZh05ipgJGeKdBsTSkM0Q8yBDuOaI1WKSmuh4vfXZayIb/rk130oN7SubOsgFAZt04uhIrVW2n9NCrd+Aj5lMadX1f6VWNHZ479lnjpgCzEFMwZVBDOHaARxFTOHlAbaA2AA8BZks4VSLa/6kFm1zr2Oej6VV7f0e2aLHFDIDMQnZ+VINtvQvqH7kQ/Axky3F31BMNudL/J6cBOJUdmIriJmQGYCtIk6AXBOJcdCr3h2v52tpob33mkOmAU9CNvabbrkfPp6dUvx7NMXf+IpWFfuu7I7TUoij8QUbsFpSU2uc8nNrfpVWuS9Ezv8mQqbhRhJdcklWbhFsobavw8ezU9mluz6p+hs7jW5vCpiDmILLATwHxmkYY4FI8baDelntX8PX1q05XlplOw2ZApwImRyUIn/OG2rNhI9nqzB+jxZs+jk5Em4ZcSo7sRXETMgMwFYRczrxJOSynVgp3nbaU+peTDHvSq/aG0yEDPGCbhztyKrxPblFh49nt9RA4xPeajPIEO80IJaGbBGxARnCTR4xiVZaS74jv+Et2nYdfF3dmuOlV7VFIZt1YsbOHtGOrAablsDHs1NkQYnqb/gNudhCGjEFlwN4Do7TkWwzopVsx0rRlnOe4s3p8LV1a45XBDI52CWGPHUpIjmvvJcctS6Fj2en0ivqryR3PCQrxaQQp7ITW0HMhMwAbBWxZCeeglyLlXVb37qheOsN8LV1a46XWtkaMI5ah1iQGd04ej0x2Q5XDTTvg49np/SKxpVasPUcub3pjCKWhmwRsQEZwnUGsVoUhVy07ffp6zZfBV9bt+Z4aaF2Pw3ZHHDs+mFyu1Ml0PyqEmiWukhCVOSUiVrRUOMla65FiCm4HMCzZZy2gtjCOB1DbEAu3UE68iue4pqvwdfXrTleIsim2/OEWiOLQsqbtsDHTKY8gaYsxd/41lQ3ZgBOuhNDvCaQrSBmQmbgtYrYKuQo4inIW17xFD/qQp5vpVW2VSRCFnfjWIzvsqH2N5Vg40r4uFaKXIGlVDQ8HfluDOHaRcyDnEw3np2II5DJd+TNLuT5WHqwtTwC2aQTMwAnYCZHmIMtZ9RASwZ8bJnKrm74iBpoqDEWmJDVXBTeaCi4HMDCTpwM4ChiCrBDiK0AZiBWi7ZGIbsdeV5WBPKBBMim4zSVyGYAZMRWgs1nlIrGlWnV1ZfAv8Os1EDrFzz+pt0EsUYeC+K11YkhXhPIVhAzITPwWkVsFTIDsQt5npcSbDaHzO3GidvzGEex/c1nlUDzQ+nBZs/KlebXJ/sCDX+nVjTcqQaahsk4rZGLJCi8dhDzICfTjc0QcyBTcDmIEyBDvCLELmS3SFesaiuNQZYDTCOO7exB/k+AbNujBJpeU/yNTZ6KpvUef9M3FH/9Uk9g9wrFX3+34m/coPob+3RyKSRZVOKfrnHaRiem8DqIWBYwE3EEsAvZrTQ1GIFMFnlYGach4vjrh8kyT7LIxNhN0990Tgk0vKH6G94m47Pv3scjB8mM78MX69FppxFLQBYgdiHP8yKrsxIgc7uxGHFCgqRLt2CtMnoQzRihZ3jFljTkFCO20o0pxALIq13I866UQHMJuduiAZmCawOxkZm+FNFGJ6bwJovYBmAmYhrwJGSy1nqte/ppXpYSbC0mm8U72omTRWwVcqoQm0JmAOYiZkB2eJyezLotWCt2Ic/bikAm2/aYQZ7NiHmQzRDzIKcYsZVuTCHmQF63JQLZ7cjztxR/szzkScQ8yMlsz+M0Yh5kiBdApgDPcsQAsseFPD9LDbatY0M268QSiCnATiOGaB0AnErEKRynY1HIry7k+VtqsJkBGSCWGqmnCzEP8lxDzIEMELuQ53lJQZZFzITMwJsSxDYgU4AdQmxlnGZCZgB2IbvFKi3YcvcU5NnciSFaBwCnErEQMA8xAy4H8BTkGhfyfK0pyDY6MQXYacQ8yLMZMQ+yGWIOZA5iZd3mKORNLuT5WIoB2bgUMTnETMgMvClBbAMyBdghxFLdOAnEXMibXcjzvQhksv1s5EZtZKvbxI0FjCWWzDQblx7SaWKHrMH2N2ItwEoDHX8s9ZzsiaRiD9bKo78aqWMmOcQ8yFYB8xAz4E7GDPAU4inI7mg9L0sJNK4xRuvYxRIBElE3jsa4cik+sDPHpYLRnY3UJybWoctJ4rsyp0OXxeJ0J04GsSRk6U4sh9iAXFyDPXdvdtdaz8dSQ43XeIItpemBpiKPv3mdx9+4zuOvn8bsTkyZxZTEZ+c6T0ktndIda9WS2oCneMdrGoHvNGKr3VgasXicpiFvciG7NXcLY/wepWTHuE66vZOIrQCmEDPgJtGJlbWRkMd3Ibs1pys/0HCZp2THqSnIDMBJI+ZBNkPMg2wB8STkTVgt3upCdmtuVyJkBmCriK12Y2nE1sbpGOIIZLcjuzXHawryHhqwVcSpAmylE0fH6RhiF7Jb86IikGvZkJNCzIM8feO0C9mteVWLqw98jAnZCuJUduMkx2mrkPHwyg+gk0suf/fIzV/EY4u+4ERQf8EX8XD+3+EjN30SP5X9Pvh3uuWWY7X4pwc+6CnZfjIBshXEqQJspRMzxulEyORg1yNcyOjkoivR0SVd6PjSQXR0yQCVsRs5WRTJKJVBNLqoD40tehqNFTajkYKfoZHCVWjwxvR5BZt8yPKCLZ/ICLZ8WQ+0Zan+llvVQPs31cr2O/XKtm+p/rav61XtK7VQyz8mxN/ocOqtp4yX3VPxx/4Z/L50diQdtaT2NrW09ptKyY5XNLKUM2nEPMhm4zSEmyRiTie2BPn4TTfgY0sxfukWjJ+/OTFnbuJkKcaneVkS+TMvkse+CeMjizE6svi3aKTwIBotvBeNLPranER9Q3nL3yuVbUvVyr1VWmVbq1rZNq6F2t7Sgm3n1GDbhBZsRdFN45EabAlrodYJNdQ6ocQSJGkxSTOdQCxNJmmcih+m3jwVezipS0x5LLs52TWVsvjsNMmOSEpZqZ1KSW04qU6cym7swDg9lUexWrwFe+5+lAv53NEl14WPLHkXn1iK8dElUzlyoyCLMR4zy6JIRuNydDHG4zdifPpGjI8txuHhgtfDRwpr0HBBLrZwN5JZWfn/5xeXaaHWb6ih9i1aZfuovv4x7PvuzzHZjpYskyR3a9Cr9kWzF+uVezG5nYpxS5X4kJuSG2ujzRJdMy29bjq6dpq5fpqxbjq2dppaM81ZP2117TQVeu20kfLdJtlFxTLiVAG20okF43QMcQTyVuxZw4eMjy65DkHIFFoA2CriyRRGcmQRxscWGajRSOG74eH8HWg4V4E/26wvxd/8ObVqb1ALtfeqle0XMr73K+ytfgJr5HYpBB51g3GTG6pZ3Txe6iqmuCuZ4Ppoal20nauY4FVLMlcw8dZOJ3MpYjKIeZBnfpyOITYgF4kh0x0ZwnUYcSwj0ZBO/cISjI4U/BaN5Fei/oIPw59x1pWnvOHT5CZpZGwmHdf33SeNuy9EOmq0q1KAk4U8jYitbCBvdqGDFGSId5oQp7IbOzxOT+buR7G6Tgw5sSNDuDAQrixiADmGeDIFGJ9YZASNFexH/QVXwZ9z1pQSartdW7//EOm8ZAN4Mi5PAXYaMQOyFcQUZAh3JhALIFOALwLEjnbjRMQGZKMj8w92TUGWGKkpvACxKWQB4liOFGJ8ihwUKzx2YSRnCfxZZ7RuKG7+jFbVvkFbv/9d330/j47PALApYjPAPMTT2IkpuCaA3XE6hYDZiCOQt2DPmodf8ax+0BSyMVqP3fguPm4GOQXjNAQcy3A0Jxfj8JGCP6HhvH+DP++MlDfYomtV+w/5qp80Dl4lAk5FJ55GxNPWiSHeaUKcsk48hZiGzEBsQIZwxYhlIePhJdchEWQKrwxiC504HrGR/MiYPZJ3dqI/ZxX8mae19GD7Sm39Yy/4vvsLRhe2g9gCZCuIKcgQ7kwgFkCmAM92xLzvxCaQud3YHLFy9yNSkM8N8zoyhMtAbAqZhxhAhohjOV6I0dH8t/FA7jfhzz0tpYT2fkdfv/91b/WTDLzuOG0bcCoRX4zjNAX5EWnI7I7s0DhN4ZXoxDDHF2E0mvc6Gsq7Cf7sKS0l2H63VrnvrDliXieeQkxDhnhnALGjnTgOMQUZ4p0mxCnrxBYRWxmnTRDbhkzhlUEsgmwR8VA0JwoxGs47jUbyroc/f0rKU9n+Tb3qwJvee59g4BUhdqgbXxSIbXRjCvBsR5zCcZqD2BZkCi9AbAqZhxhATkAsgDych/F4IQ4P5P4an1n6l/A5OFpasHmxXrXvNXPE7jhtC3AqEU/DOE0jtgrYGmJZyInfkSFcBmIKr0XATMhmiPOmMhLtzEN598Pn4FgpobavalV7j5HllTRgUSc2QTzXx+nZgjhlndgiYofG6UTIm7FnzUNcyFMdOVWdOFnEADLJ0QIcHsp7Fw3k3gifh+3KLmr9uBpqf8J33y8vjqPTM4bYBmQK8GxHzBunGYCF3dg6YgPyOjHkSEdezIFsATEF2UHEsYwXYjSQ04FG8z4Bn4ut0irbqiPrpOFKrXk0ThuQIVoHAKcS8awap51G/DBW1jyM1bViyHi44Do0uuhdfEwA2RLgFCEejP56LB/jwZwgfC5JlxLal6mG2t8kVyvRiHmdeJYjttKJJ7sxxHuxI06mE1tEnKJOTBA7A9kMMYA8XYgHcyM5ko/DAzkvof6ML8PnY7muKXvyw0qo7Sly4QMNmIeYBxni5UC+KBDzIEO8ADIF2CHEtsdpDuTZgDjajWUhG6P16GIGZEnEFGQ7iHmQo4hJyL8fL8DhvtyfwedjubRA61p9/X6kJVy95I7TYsA8xNPViSFaBmAmYgbeZDpxCsfp+MhAZndkScSiTpwAWISYgXeyEwPIJMcKMBrI/R0azL0GPifp0quaLicbAXiZ3RjivUgQO9qJZzNiScgXFeKpcToR8qYoZM7VTxRkhxBTkB1EHMvJAhzuXfh/4XOSLi3UXmmcaqKOUkO8MpAhXg7kiwIxDzLECyBTgB1CbLUbU4g5kK0gnoZxOhHyoxYh8xDzINtBLILMAEwyQL4r52HUv/AM2bUTPi9h6VX7L1dDbSe99z4+B8ZpiFYA2Mo4LY14ujoxRMsAzETMwDtrOjGNN5KHjFiDHO3GFF4eYAZiEWAnOvFATiSDORgfJZhz1sLnJSwl2Fo+tS2PqBPPZsS878QmkLmdOBnETndiAHmuj9MOQD43XHBdOAaZAixCnARku4jjIZMcycPh/oWd+FT2X8DnZlrk7gRqqHWY6sYUYBFkiHcGEFvtxlzEAPJsQGy1G1OIOZCtIJ7mcTqGOAKZfEfe+DLvYJc9yMkiFkFm4DWDPGKM12dRX04hfG6mpQdb79Aq905E9tlyx2kKsBXEFF47iG0AZiJm4J01nfhhE8RTgCchr9uEldUPvaSu2vQV+FmOFT5acB3ZydLYBE8aMEAsApwAmYFXFnE84Pjx+hg5r5z9MHxupqWF2tun1lNDvBcDYnecvrgRy3XiWLR1m3H66o0n1e889A/wsxwr4zsyBdkCYlnIqUAcy4k8jPoWDuLh7E/D50eVek/rAq2y7eXIWA3xykCGeGcAsdVuzEUMIM8GxFa7MYWYA9kK4hkcpyFkZdWGoetXP3g5/DzHyjpkgFgGstPjNMxwLkZDue9e6M+6FT4/qrSqdr+xisvYEB7iFSG2AHkSMQ9yFDEFGcK1i5gHOZluDPHKQIZwZwBxUt0Y4nUAMRMyDTgR8sZnMtZu+RT8PMfK+I6cADkOMQU5BYgNyAy4sogHFmLcv9A4p4wGFv4QPr+E8la0fVQNtT1hjNUU3kTACYitALbdiTmQKbgcwMJOnAxgHmIGXqud2B2nE7N6oxGd3Gli9YOtWsmPLoWf6VhFIZ/FRy12YhHgVI/T8YhJyGmovoUHcXf2J+FznCxfYN+1WmX76/r6fQzEvE4M8c4A4lR24tmAOJWd2AriVHZiCrAcZG9JDfas3rgBfp7j6/xgfjoaKZhIgCxCLANZ1IlFiIWQ4xCTDOWQjvwO6so0v/WMHmy900d2/gi1cxEn3Y2tIGZChninAbE0ZIhXgNiADOHOAOKkujHE6wBiU8gMwHGIIx15G/mO7Ief5/g6P7Io00BM7sfEhJwCxAZkBtxkEZOQ3zuaS7ryd+BzjFR19SVqsK3ee88BBwDbREwB5iCm4HIAu+O0TcA8xACyFcQUXjnAJKrx3288p9618Tb4kY4vNFZwMx4nq7ogYAZiEWAZxKJOTKGFYSCOZYxAzt6Ocdp74PNM86xp+YQaaj3jJRvMm0CWG6enEXEqO/FsQGy7E0O8cbGCWNiJnUYsD5kc6PKs2niadw6ZFB4rvNOAPB2dWIRYCJmBNz6jOXiiN3sUPXkNfSM4JdCcqwZb3zUWgTAQy3djG4iZkCHeaUAsDdls/TQD8CRkCDdViHmQk+nGEK4DiE0hMwAzEEfGauNA1/8suPOR98PPdHyh0cL/TUNOAWIZyBRcC4j7szEezsHhnuw3UGc2fRM4pbIlpFfuReTexMkBtomYAsxBTMHlAHbHaZuAU4SYwmsNsDFWk1Vddz+CPase+N/w8xxfuDrtEjxS2IBPLDbvxiLAMohF66cptDAQLQBM0peN8eBCjHqzJyZ6su+AzzVNDbQ0kns3wU48N8ZpiNcEshXETMgMwNPeiSHeuFhBnMpOTAFOErKB+MG3fXdt1ODnOb7QQe1SNFIwmAjZ4U4sQiyEHD2QRQFmQCZ/bnghRv3ZP0h4ouT8sRZs6zYWgiTVjW0gZkKGeO0g5kFOphvPZsQOQk4VYlPIDMAcxCQa+btXPfC0cKweyf8HNFLwR3w8BnkGEHMhW0BMQv75GDmfnN2e8ES1yuYb1GDLi5EDXVYA20RMAeYgpuByAAs7cTKAo4gpwA4hTtk4nQzgFCGm8CYHWFm9AatryIGuR3H6mgf+34QPM6PQUMHX0UjhBeP0kxXAMogNyAy0UoCjiCm4AHA84liO5WHcm9WNnvV+dPKJ6uTm5MHWczq59tgdp00yXZ1YAnKqEKeyE1OAk4W8wYhONqVftaHfs/pB4QUEaLjgJ8ZYPWqxE09CZuBN6MYMvLKIZSBDxCRjORj1Zp5GXVlXTz5RT6C1zFf9BNaNtdWy3Xg2I+ZBTqYbz2bEHMhxiKUgpwqxKWQGYC7iWDd+CGtrN4XT79q4JkEso8iF+Ggo7xl85sYkR2oGXlnEXMg2EPdlGd+Rwz2Zb17ozZq6G4UabPlZxn2/lAQ8jYgpuBzAwk6cDOAoYgqwADIF1wSxFcBMxAy8DMRygJ1G7DzgyW5cvAV77nrgmYzgRuGNztCRhb7wUP6r5Ibi1gCLEDPQSgGOhoILAPMQkwxmYzSYjVBv5reNJ5pd/dT79FBLC9kpc+6O0zYQm0JmALaC2CrkVCFOZSemACcLeQqxuvYR8utbnrseWATRsmpiOC+ET8eN1SLEMpBFnRiipQLxMiBTgOMQx3IiF0/0ZK43nui11a0fV0Ith/V7H5foxrMZsdOQZzNiDmRTxCaQZz3iOMjkABfZ1ueuB/8LgmUVPpX9cTSU/xt8Om6sFkG2i1gIGcJNAnFvNON5GPVmPWA8WcXf/Dkl2HKabEBPw00VYgg3LhRcDmBhJwaIpQBHEVN4k0VsAzATMQOvELEZYKcRp26cJoiNVVx3PbBX+eeffgyiZRUayl+EjhaeN9ZXSwPmIWaglQbMG6eTQExyzDjgVU8WvJBzyFcqwdZ3yLY+NN5UIOZBhngFkFOF2BQyAzAXsU3IqUJ8UXRiGrGyeuNz6as2fB6CZVV1ddol4aG83fgkOXcsQOxEJ4ZoqUC4NhGTHCGQM36Fniz4cFp6cK/H2PLW9LvxbEbMg2yGmAd5NiPmQJ5ziBMhE8TpqzZ0ef7dfJdMWGikQEUj+W8a546luzED8CRiDmQKLQyECwPxSiAmGc0mR6778ZHsT5LReql+z2Mm342dRAzhxoWCywGcyk5M4U0WsQ3ATMQMvMkgvsjGafXuh2Lni59Jv2vjlRCrWZHL+9BIwS7jIonJbswDLELMwCuLmELrQCfuzYxkOBuHezNOo4Hsz6UpodZvkyueaMhOInYQcqoQm0JmAOYiBpATEEtAThXiae/EDMBCyFOIyaotcq2xZ9XG3Vet+8nfQKy8ujCctzg8UvAOPhbrxgzE0p2YgVcWMbcTS55m4kEezCKQX0c92VekeUItQbK1TyJkM8Q8yNOFmAd5liGmIEO8IsQcyLMaMQcyhTcRMlnsYXwfXrPxD567Hgh8dWXDByBUXuHu/MvQYP7T+NSNs3+ctoOYZCALo57MMOrzfY2M1vfrVQSySTe2gpgJmYE3JYhtQKYAO4Q4ATLEawOxVcjCkTpJxKaQGYAFiI3VWus2YY085qoHD3jufDALIpWpieG8e/BxsviDHKlmAHYCsRCyzVVbMoiNRBeGkP271GDrFnKwiwJsFTEFmIOYgiuDGKJ1AHAqEQsB8xAz4KYEsA3EFF4OYA5issBDK9oUubZ49cZuz5oH/s37rR9MXQhgodBAwY1opOCNyAEuBmAZxAZkBlwriCm4ALATiHuiv44sxBc6MvLSPIGWxqlTT9OAmAvZDDEP8mxGzINshpgD2QriWTxOq2sexlrR5simeas3vuVZ9cAz6uoH/yNjlXjJpVmhsUVXopGCUeN0k9k4PQmZgTehGzPwyiKWgUwBFiEGkAniScjZGPVk3ZKmBpufiEBOEjETMgNvShDbgEwBdgixVDeeriPUEK4DiE0hMwBHQw5akU0AyKqsyPdfA/egumrDg+qajbeIricWFRrL/9vwUMEzxvdi4VFqBt6LCTEFOQujbu8/p3kCzb/RKsmBriQQU4A5iCm4MoghWgcApwJxaS3WSndgrWwn1sp2Yb18Nyfkf4+G/NmE7DRP6Q4jxt+TEPJ3g5SQbOekJjHFsWzjZGskRTBbEhP7c+s2G7c7Jd3Xs2rDRPqqDa96Vj/4m/Q1G/5TWbVhqfLvP7N+025Gvd2X+1k0UvA4PhlDbAZYhJgB1wpiCi4AnBRiE8BGMjDuzcB4OIv8851paqC5K7IYJIWIuZDNEPMgzzBiAqh8F/YG6rE32IS9ZDFLSS1WimreUYq2v6YWbfutUrztjFq07aRaVDM+lW1TWQezlZ21myejJGQTO3eTPMrJI4lZE5+Hk8hDkax+aNyzeuMxz+qNg8pdGw8rqzY+5lm94RF19cay9FUb86//1g8vV9bKLa2ULTSU8/fh0YJfGOM0uSgCAp6WTpyqc8UAMkQcBxl16evS1EDTkAHZCmImZAbelCBOBrJ9xFrpTqyV78beQAPW/XVYLal5VS2pOegp3rZDKar5vqd4+1qlaNtKvbg2VyveeoNnzfYvq9/Z9oX00q2ft5VVZtkw66LftfGvryn7Ib1Fawrq/MCiTDRW0GOM0zOJWKYbU4AtIhZB7s6sINvgjmnkHLIsYgowBzEFlwM4leM0hVcW8Q6sl9dhnfxspTuwp2T7KaV0xyNK8bY7PEWbdXXdJksLFdyyX8cOLP7gxEjBuvBYwcvcA1uT4zQHMkQLQ6GVBWwHMQ9wHOIY5CECOaMyTQk0HDMWgziN2CpkYSdOErEpZAbgOMTk+6zX34CV0h2vKUXb96ql2//X9Ws2/+3KlSvfCz9cbk1PocE8HY0WtKMjhcjYKMAMcQJkBmAnOjEF1wnEADIPcSyDZLT2rU9T/E3HI5AhXoCYCZmBNyWIk4GcJOLSncb4rJbs+LNStH2rUrEjE36g3JreQkN5nvBQ/s/CI/mvT972ZSYRy3RjCrBFxBRkBuIY5G7vvWmqv+lo5EAXBJxkJ6bgcgBPIoZo7QCOIqbwChCTo8IVddEjzzvbFxRtWwg/UG5NX6HntUvRaN5N4ZH8bWis4HfG5gAJVzLxAPMQM+BKI4ZgYZLtxDzAJoi7Y5AzI5CVQNOoRhaDOIHYKmRhJ04SsSlkGm8spAsrJdtf1oq3r72mrHZaDti4NVXGJvJHl34WDRXmoLGC76Ph/F40VvCmsWne5BhtF7EAMgUXhIIri9gOZBPE8ZB7vFVpir9+kIY8f8ZpcjTa+C5cXNuhr93qhR+wVBXGC96Pji3+IDNIIvC/mcUhO1ni7ps+hMfzL8Md2Z8mp43OjxUuIFcp4eGCb6LRwnvRSGEjGik8gwjUY4XYGKHJ1UvGEWkBYulxmgMZoqUC4c4Q4gTIPgMy7vUF05RAY0ciZDPAHMQUXA7gWTROG4s3yM9TVNOWXlontfOElUK/+5cPo/HbrkHjy26bOHGzPzx+80/C47dsQyeWNaITt+xFJ5btn8rNUznOyk2JORbLUpPw/rel+9ERkhsFWczPiFkKGVn0OBpZ9Cs0XHgIjRQOoZHCl9BowYQxMp9Zgo0FHQTuEXLvYqtb1nIA2+7EEC0MRAtjhhgAlkEcA9zti4RAHsokB7vKyHfk32ihGOQkEFuFnCrEppBpwBHEOw3ESvH2Hfl3PnIZRJhM4fGVl6Fjt1yPTt+yBp1c1hgeXzaETi5/KTx+yzv4hRUY/+E2jF+9HeM/RPP7WG5LzCvxuZXOy7GsYOd3JMv5+e0yjH97CyPR33+J5GaQ2O/dhPGLvCzF+AVGnl+K8ekl2Dj3SzaMj9103Pb9mDiQbSEWQZ7GTjyJmAG5W19NOvITkQUhPMgMvEkjdhqydcQkup+cG65pyAjuT3qhPincveD9548v86LxZZXo5IqDaHz5u/jMCox/exvGL9+O8W9vxQbi08sxPrkM43GYWxJzAubmxByPz010jsWy1DxHSZaY58iNnJCjxmZZNJVRVki3jSbhrogMyCLEMt14OsZpU8gOImZ14zjIuMP7zTRPRVNzpCNDvALEFFwO4FR2YgqvDOJ6clHD0zcUP/wZCFO20PO3Xzoxvvxf0MnlLejU8teNDvvSrRg/T9CuwPhUFG4sFGCAWARYGjEDrixgLmLSQSFcBmIKrwziZDsxA69sJ+ZCtnMBhMOIWYDjIQ9nYnTIe1uaUtFUY1w0wYTMAJwM5FQhNoVM4zVCFnqQcbqk9pReVkvfJFqijFuQnFr2jfCp5c+Gz6y4gF9bifELt2J8ksCNjwXEFORkEYsgM+BKIZbsxBTeVCIWQWbAlUIs2YkpvKlEzINMFoR4C9PUQOOPDcgpRew05OQQk4NbWtnOs+q62q9DoDKFyAj9woq96PSKsPHdlgkYQKYAixAzIDuCWACZggtC4QWITSHzENuBzMAr240puBYRm0LmIQaQRYhF3TiW/gyMOrx6mlJRf68eapNDTMHlAE5lJ6bwSiAm66YDDdhTXLPZ6vWveHjlR9Cp5VXo+Vv/gH+/EuPnb42OzmaRRCwC7ARiEWAhYghXFnEcYCZiAFgaMQOuLGAuYjvjdBxgJuJkOzEDLklXND0+HO7yonMHtavTlPL6NTrZWMDfxEdsFXKqEJtCZgCOIo6N1GrJjpOe0u1fhlB59e7xm69Ap5e3RA5c3R4B7ARiCvJcQiyCnCxiDmRbiCU7MQWYAdkSYgZk0Tg9CdmLcZ8Phzv1N892eL6cpvvrbyf3RY5AZuBNGjEPchxiacjJIyZ/hlyC6Fm3LQih8ur80eUKOr2ia6oLxw5imSVZxAzI0oh5kBlwpRHzxuk4yBRgEWIGZLuIDcgMuNKIeau2UjVOMxBLd2NvJGSs7tTPoM7Mz6dpofrsSEfmdGMKrx3ENroxBVgCsdGN68gBrtHr1m75FMRqVudP3OwLn15xHL+ycuootAxiGch2ETvSjRlwHenGDiOWgSzqxhAtFYiXAZkCbBExBTlZxHGQBzPIpgJ9uDv7k2k3+OuvVv2NYY2cR4aAk0IM0ToA2AZi8u9krNZKthdDrGaFxld4wqdWnDA6sRXEFF5RJ05inJ5EzMDrCGI7p5ksAJZBbBewEDFEKwtYhJgHmIHYyjgdn5FM8h35l+QCk7SMYNOXFH/9axq5Aso2Yh5kM8Q8yDYRk4NcFXXknPFJpexRqT2i3jl56+Xo1IoO/IcYYjvj9BztxBTgFHRimdNMEC0MBReEwisLmYcYQBYhloYMEJOMkeWZ3l3GB9dT3vBpxV8/pleSI9fxkCFeGcgQrwOQKcA8xDRkX7AJK0XbfwLBsgoPr/xAeHx53VQnFkG2ME5bgswALIPYgAzhglBwLSKWgWwXsRPdGKKlAuEyECcFmdeNGYilR2oG5GNZONyh/9j48H61uuEjir/h19715IBXEp3YQAzROgDYAcTkAJdauvNNT0ntYoiWVRPHV6zFL5IllXEHtpJCbBGwTDcWAraDOFXjdBKIpQALEHMhO3SaSQRYBrEUYBPE3V6MRzPxRKdeHv344vcogcY67z37U9CJZw4xiTfQSHa27FoQaBBeFIFOrLgqfGbFaeM0ky3EALJjiDmQbSGW7MQUYBnIySIWQWbAlUIs2YkpwCLIdhCLIDMQk/SSU09aeKJD+8bkh1jx19/vqz7gMGIeZIgXQKYAW0dMfp98P/YU1TyYIJZR5MKH8Piyh/Br/4jxadFpJguIZSDbRWxAZsCVRsw7zTTLxmkDMgOuk4hNIZshZkAWIZbuxgzAsfT7MOrQfn/+sDK1FZVSvqfYW9WOtQrWWM0AnJJx2knEkeWYasn282rR9lsT1DIKjZPzxbe+gV+8TdCJ4yDbBSyNmAFXthNDsFQgXAZiCq8IsAixCWQhYAFiCi0ALIOYwisCnARiKcACxJ06xkNkaaY+ip5On7qOPt1fd6tSseescQpKBjK3E888YhJyJwdP8faXtZL6zyaoZRQ6devDCeeLKbwixACyY4g5kEWIhZAhXFnEIsgAMQXZDDEHsgixDGQKrwxiEeRkEYsgM/BOIo5CHs3A4Q7tKVyddsnkB1kta1iglNe9qJPrkm0h5kGGcFOHmNzGRa/YjZXiml9nZ1e/L0EtKHT69i+iU8tfwS9FuzGF1yJiCrIdxDzIDLjSiHnjtAgy7zRTChAbkBlwpRHzTjNdZON0DHGXjvEAWWetPZLwYb62etvH1fL6Hi9ZqmkGWIjYDPB0Io7dSI2s5tqN1eKtkUPznEKnbi01riEmmwFQeC0ing2dGIKlkuwRah5gBuIZH6ftdGIeYBFiBmQpwCLE+lR6vGRpZhh16qvh5zlNLdvTxoUsi5iCDOGmCnEc5FIyWtdhZV3tt+HzjC+Mqy8Jn7rlCWNTAArvLERsuxMnixhAFiGmIJsh5kAWIRZChnBhIF5ZyMkiFkFm4DWD3OclB7reRodUFX6m05Tyuv/UjM0FGJCTXrUF4U4D4hjk0l3Yu7YmBz7P+EInll2NTi5/3tiWhwIsQsyDbAcxB7KoG8/Iqi07iHmQGXClEfPGaTvd2CJi6W7MgGuGmKTfR74fn8DdC+jTqp7y3SvUirrzBmYKMYTLAGwFMYXXDmL63sRayU5yr+G3tJKtV8PnGV/o9LI70AsrJthjNQ+xGWATyCLEk5AZeKUQQ7Aw09SJRYCd6MQQLBWIFgbClQEsQswA7ARiCDju+zHq1HZjnPYe+JlO08t2Xq6U1/3BWHOdSsSp7MTRG4yTew0rRdtOKHfXctdX4/Hl/8c4d3xRI3bHafuIRZB5iE0g20XMgzzow6hLXQU/z0ZlVz/1PqWi7mk9FIV8sY3T8ZDLd5MVXZ2Z/2G+uR7ZPA+NL28xLo5gIU4KMm+kZgCeRMyBLELM7cZ2EPMg20FsAzIF1yJiU8hxiCnIADEFmYeYB5kBV4SYxDjQpb6LOtM98DM9WeR7sk7275IFPGOI2YDV4hojXnLFU1HNr7SSTX8Fn2Os0PNLPxs+sbwv8fsxDzHvFBMDsQjwdHRiCq4sYjPADMgiwNKdmIOYQgsD0cJIIrbUiRmAnejEEC7MsA+jw9rT6KBm+tlO85TuWqT5G7FGjlxTgGcLYgB5EnE8ZGPj+QPK2h0fg88xVudOLL0KjS/7/dQGeqlAzIGcasRcyA4hloFsF7EQcqpWbdnpxAzAk4jtQNYwHvXh8GHl/4Of54TyBRr+TinbfVwPNjEQ2xinmZAZgK0iZnTjKcjbHlPW/tQUMjp1s4ZOLose6OIhtjNOm0C2PU7zINtBLIKcLGIRZAZeKch2EPMg20EsgszAK4u4V8fhDvXNC4eVQvh5Tijje3L57q3GJY1mgK0ipgAni1gMOBFyzWO8joyOL1tkbCh/iof4YuvEDq3YogADxCLAMp1YBjEFFyCm4MoiNgPMgCwC7EQnptDCaBh3aMZYHT6sPoee9X4Ufp6pUsvrvqn5G7BGzifPGsQAMmOcpiELOvL4itvx78iyzDmEOOlObAGxJcgMvE4h5kJ2CLEMZLuIhZCjiMnR6l4do8PKvfCzzKzMsvovKqW7TujkNjIQshXETMgMwFYRC7pxBHJdFDKnI59cdgf+XbQjU4gvtnHaDmIRZIBYBrJdxFzIdhCLIDuMeBIyA+8kYh7kKGISMlYf0l5Fh9SvwM+yaamldduTh2wRsQEZwk0esSxkfOrmbxqQLXdjO4h5kBlwnURsCjkOMQU5WcQiyAy4UoijkCm8ALEp5FQg5kC2hVifQkxCFoEc1nbAzzG3tLJdNyvlu85pgQYLgKOIKcAcxFY6sWCcjmSbEQNyER8yGl/+LeNOiQmQeYAZiEWAnejEFFoYCFcWMQ8wA7EIsAxiUSem0MJAuAzEFF4RYDuIGXgnAYsQM+CyOjFJt05Wcl1Ah/Vc+Dnm1jX/8sMPK2W7evRgozXETMgMwFYRS3biScjkggm7kEWIZSDbRSyEbOcItQXEMpDtIhZChnBlEYsg8xAzIIsQ2+7EGg15OAOjQ9p+9OQ1H4afY2FppbvXGqehyuokIM8exGqRLORbLEBOAWIpyBBuChBTkFOA2IDMgHvRIuZAtoWY0Y17dIx6ve+gg9oK+BmWKrVo2xfU0t3jOtk1hIILEFOAHUJsYZyOIZaHHN+RzQAzEIsAO4IYooWBaBmAmYh5gBmIRYBlEIs6MYUWBsKVRcwDLELMG6ftIIZoYQBi8u/klNMhdR86qF0KP8PSpZbuvs9Ldg2h8CbZiQ3IEK4J4iQ6sW3IIsSWIDPwSiF2x2k5xFHIFGAZyDzEDMhOIBZCBohj3bhDexN1KdzLcYWlldRe4SnbeSoyYl8ciCOQyUUTWyQhW+jGCZAZgJ1AzO3GdhDzIKcKsQAyBXcGEFOQed2YAThViEkGfTh8UNsIP7tJladsx3d1skDEOHotGqc5kCm4dhDT4/RUtkpCJt+RyfJMScRSgG0ipuACxBRcANgUsRlgBmIRYGnEDLhSgEWIp/EUkxOIKbQwDMAGYi9Gh9Wj6LDCvRRXutR1u//GU7JjNHIEm9eJnUYsAZmBWBrysTjI0ohFkBl4nUIsA5kCLEKcBGQpxHYgQ7gwDiGWgSyF2A5kBmBjpPZi1K1NoMP6P8HPra1SynbeoZbvCatkQ7tUIrbSjSnEFiHHOjLVjWdinOZBdggxE/IMIOZCtrNqKw4xBfkiQtwV7caHPA8nbHXrRF2x9sAHldKd9d7KFgbgZBDbAMxEHAFsGfJLELIZYBPEUuM0A60U4GgouACwDGIKMEAsAiyD2IDMQCsFWNSJ58k4TX5/iIzUyrOoN0P6Xt6WKr1sz1VqGTkd1WgTMQOyA+O0ZchktE6AbBGxE50YoqUC8TIgU4AtIrYEmYE3oRsz8MoiloFMARYhTgKyFGI7kBmAYyGIO5VT5w5qN8DPq6OVXrz9DrV09wVy43DHEFvpxhRiG5ATOjJvnDaBbBexEDKEOx2ITSDbRcyFPNcQ8yAz8MYy6MXhLpVcFFEAP6spKa2k9kd6oCFybyUImIvYBmAmYhrwJGSy+d5aWcjJABZAhmBhKLQgFNwkEDMh8xCbARYhZqCVAhwNBRcAdgKxCLA0YgZcKcACxANejHrU19Bzyu3wc5qyIjiU4u0tXuPcMujKFF4OZIfH6cms2xKFvFlwPTKBvDwRsghxAmQGYJlODNFSgXAZiJmQHUbsRCeGaKlAvAzIFGCLiGUgSyHmQLaDOLIj5qsTh9L/F/yMprz01TsvV0tqn/Yap6SimCm4qULMgbxuSxxkmY5sEbJdxELIyR6htohYBvKcRMyAbBexARnCBYF4ScjvD3nJjh/PXzikLoGfz2krrWTTFWpp7SFyM3FzyNM3TscQk5B9rT1WOrI0YB5iBtqEQLQwEK0MYBHiZAELIEO0MBRaEAquE4gtApZGzIBrF3EP2ZvaOLD1zLmDN6T2wJZMecvr/l4t2fErb+w7swiyEDGvEzPwMhArViEndGIGYplOLIQM0cJAuAzEMpBFnViEOAEyA/BF24mTRSyADNFSAYDJOeIh4y4R58Jd6oNvPqf/NfxczlhpJTWfVUtqd5Mj2WRjeDFiHmQzxBzIAHHqIDPwTiLmQYZoYZIdpy0iloE8o4ijkCnAdhHzIDMAy3ZjCi0MQNzvjaydPqT1TRxSp//7sEwVlNV+WCuurdZKd72lk037SgFkWcBMxAy8HMTSkMl55BdjkBl4ZToxF7AkYgquDGAeYjuAU4iYQutEJwaAKcRmgAWQIVoYCi3IZAcmd06M3uKlUz2DOvR7UI/3b+FncdaVUrxjqVZS261X1GESA7QQMQ8yA68AcQTyTvuQRYgNyBAuCAXXImJTyGaIGZBFiGe8E/MQW4QsQiw9UjPwyiLuJndLjHRf1Kkj1KGdRF36fejZ9CvhZ3BW11Xf3vQ3Wun2/9RKal/w+huwTnYYkYUs3Y3NESvrNmO9bIcFyAzEtsdpCcQykCnAIsQAcgJiAHnECmITyEMSiAchXJABCDcJxH0QsQlkJxGTbkvS7cW412t898VjGZEta7v0F8Md6pMTnfpq9PQNpvcfuyhKX7v9enVdzY+14trnyT7T5PuzVroDa+T78yRss07MQ8zrxpujkGU68tJv4ReXsSHPBcQxyEcKMR5fjPH4IjonYilk5zhJASf5GB8zS95UjrKSO5UjrORMZSw+C9kZjSWbnZFYstgZJsk0z1CG0WWNELTk38mvPToOH9b+iDq1w+FD6paJDs9afFhdAD9vF315ih/9mlpcU6QU1TyrFG17m3xnJqjJTpd6xS4DnQF8MrWckHsfTyXxgFrNZHz+PQTyzy1Dnmvj9JFCjIYKutBQ/vfQQN59xq+xDMQnl5OF5unjJcuZ9MBk0OmKj9d6OgXp8t2HOrXvow79AdRJov4AdaiBiS7t31CHtvj8YXUBejrz4u68svXV1Q0f8RRtu04p2lasFG/boxZt7VCKth1Xira9rK7b+icSxcgWk2z+k7J2Kp64f1bWbkqIVrr9dWXt5gZvxWbTW2uYQ2bgvZg6cfwofWIRRoP5D8Ln7lZyRW4szry5+Hwucp8pssGfsnabpq7bWqCsrSkkv1rPJirpdz9yY/razdeTvwP+vbGiIKcUsWQ3pgBbRMyCPORCdmsO1yRkmZEaooWh0FoEnBRiABgiJgeyThRiNJy/we0ibs3ZMiC/EA+ZAdiJTkzhZUCmAIsQMyBDxC5kt+ZDGZCfj0FmAHYCcdLdOA4xE7IE4hjkwfwNOM2F7NYcrQjkWzA+zgBsIGbATQhECwDLIKYAixBLjNMuZLfmU3EhizoxF/Es6MSxBR8G5IIfw+fulltzpkwhG4h5kCFaGAgXZhoQx3LU6MhtaCg3Bw/lLbwwlJszmT67ycq50JWKeC2H3KXw/GFvJh7O/gh8n92a48WEzAUsQjxLxmmSuIsg0GDuufBg7htoKPf18FDuG5MZECXnjXC/WRa+Ee7PfiPcx0mvWbI4yXwj3JsxlR5BuqPpyXgLdfleOHdQuxq+z27N8WJDhnBlEYs6MW+cBpDtdmJ4JRMZsY/EZYykAOOxPHZGoxnJxXjUJCM5GA/nRH5lZXghJ9kYD0UzCJOVmAGYzKkMZmLcH81IFg53+t7GHd7r4Pvs1hwvCrKoG1NwZyHiBMiMCyBEF0Gk9Eom3gUQNq9k6s/A4W7fn9Fh37XwfXZrjlfkPPItEp2Yh9jOOM1DbGecZuBNQMzAK4UYooXhIeZBtnNNcfSqpf4MjLq9r59zO/L8q8mOLIJM4bXYiSm8IsQMyNKIOZBtIbazMQAPMQOyNGIXslsE8tjSb+EzN2N8jIHXKcSmkHmIAWQRYpluLBqnhZAhXAZiU8gOImZ14yjkcJf+hvsdeR6WEDIF1yJiCq8MYoudeBIxA69sJ+YiduguEBRiB8ZpABl1+VzI87G4kCm4sxkxB7ItxJKdmALMgGy3E7PG6fj0ZeBwp/fNc8/p18P32a05XmhsMRsyBReEwgsQm0KOQ+wEZBFiAzIDrjRi3vdiO+M0gCxCLOrGLuT5XcyODNFKd+IoZApvEoClETPgzngntgBYBrEIcGzv6V5y2xX9TdTpQp53RXVkCi5AzIWcbCdOFjEH8owhFkHmIWZAFo3Tk5DJ5nc+HO7U33Ihz8NKgEzBhYFwnUDMgGwXsQGZAVca8UyM0wzE0t04urslgdzhfTvl9xV2a/ZVwmhNwbWImAnZYcQykEXdGKKlAvEyIFOABYjJ7/VHQ7atpSAnizgRMur0vn2uy4U87yrSkW/irKF2aJwWAZZBbBewEDFECwPhChCTP0+2piXb1A7FQSbrq8nvk/XWxl7UZoBFiMF+01HIyIU8/8qAfFoAmcIrg9giZGnEPMgMuNKIeeN0Ep2Y7D09vBCj3oxT4V7fE6gv86cTPVlVEz2Z61Fv1oPh7sxfop6MFyL7SGclAZmxcXzkO/I7LuR5WHzIEC4DsSlkBxE70Y0hWioQbpKIScc9koNRX+boRF9WAA14TW+RgnoyrkHd3mrUl3ESj5HHkkVsDhl16e+Q/aXh3+XWHC825IttnLaDGKKFgXA5iMkliEPZBPF2dFC7Ar7WZoV6M74a7slsNS5ZJKM2hCsCnNCRtXfx4QwX8nwrU8gUXhnEFiFLIxZBZuCVQiyCzOvEADL5c4MLcbjX9yPcveD98HUW1R/avB8Nd/u24iFyIIyB2IDMwBufHnLTcBfyvCwaMoTLQGwK2UHE0t2YgddJxKaQQTc+koPDvZk78PBXPwBfY9nCfdkfn+jyHsCjWQzEAsjkhmoxyD0u5HlXiZAhXAZiCq8IcBKIRYBtI3boIojYga3RHIx6s46g/swvwtfXapELHlCv70WjM08ClkAchRzu0M6e7/Ckw8d1a45XAmQKrwxiEeRkEXMgixDLQKbwyiBmQO7Lwmh0IUJdvjL42iZb4U79vw3IPRYQxyAf1s4hF/L8qwjkpZxu7OA4bQkyA/AkZAZcJxGbQmZ1Y3KKKfskGsgxPTpttVCPNx11ef+IBzJouGaIpzqyC3k+FhpbvBafMoPMQxwHWAZxAmAeYgZc2U5MoYWBcBmIKbwmgGM5loNRT9Y+XF19CXxtky3csPK9qMvbaWysB/GaIZ7syPr588/pHviYbs3xQqOFATZkHuIZ6MQixELIEK4sYg5k8u8j2Rj1+v4bvq52C3d6a4yO3M1CzIHcoZ0/3+lCnneFRgtKuJApwKJubAcxDzIDrpOITSGbICYxllxm4oluXwi+rnYLdes/wP3kiLUk4ihk1KGeR53pLuT5Vmi08F/p78hmiHmAGYhFgJ3oxBRaGAiXgZjCKwBshOwlHYF8PgWQw50MyBAuTLeOw4eVCy7keVgXRhbl4xM3xh21NkMMIIsQy0C2i1gIGcKFgXhlIUevXiKrsEaycbg70/HROtyjb6NGawg3IZoLeT4XGl16FRpb/KqBmYuYB9kOYh5kBlwnEZtClkAcy9GFGHVl7HXy3su4Ie29YeNgV9xRawouQNwRg6yGzz+jaPAx3ZrjhYYL/wqPLfo1PrOUg9gMMAOxCLB0J+ZAptDCQLQwEK4MYAZich3xyEIc7s44iToyvgxf22QLdWXeEO7UI6efKLQwUcQkXZF/Rwc1H3xMt+ZBhY8s+iH+7U0MwBYRy0C2i1gIGaKFgXhlIQPEMch9mTg8ko1Qd2YxfF2TLdSh/RANZiBjrKbgmiCOdmR0yD3YNW8LHSu4GY0tehcfW2wBsh3EIsgMvE4hTgqyCeJYyM3TejJH3unRL4evrdVCXdrVqNd7xhirKbgcxCR9OkaH1efRs+mOLU5x6yIqPJ5/WXi48DB+fqkEYAZkEeAZ78Q2TjHxAMdvBjBGDnr5tuKnst8HX1/ZQgeUj6EuvR2PZDLgChCTDPkw6tB+RS6+gI/t1jwpNFpQio9HL5ywglgG8nQgloFMAbaImAe5PxOjgUwU7vL+F65Os7zKC3cv+BDq1B/GA2RtNYQrgZhkLAOHDyr3w8d2ax4VOrb4U+GhwqP45I0CyA4jnoTMwCsF2Q5ii5DNEE9ijpxXRl2+TfgZ39/B19iszj7rvTLc7W0wzhv38r4XM/DG0qNj1KmevXBQuxk+vlvzrCaGC/8DH1+E8dHoaG0XsTRkBlwpxFHIFN4ZQBzbnods1zOcSZZtDkx0+opRr/oP8HWO1blO/aqJDj2Iur3HjXFadHAL4o3PkJcc6HoWHVY+Bv8et+ZZoedvvzQ8XPAYfmEJA3KyiBlwZTsxhRYGwpVFzANsA3H8RgAjZOufTBzu8R1DnXpbuEP74cRhr3+iQw+gTvW/Uad3P+r2nsRDGTipA1vx6dbIhgJo4qD27/A9dWueFh4rXBAeLXjRGLHNEMtAtotYCBnClUUsguwA4lh6SXcmlzqSkTu63JKEfA8ezcQGYqML8zoxA25CVKMbhw8qT5Hv2fD9dGseFxrKvwMdKTxrnI6CgKURiyAz4F60iE0gx2/R00PiiyRh2SUPsWCcJoj7NIy61D+e7/BkwffRLbfS0FDeenysEONji+QByyAWdWIKLQyEK4uYB9gOYgbeScAWdvdgBsIFiHuiB7me1Srg++eWW0ZhnHZJeDDvh/jEImwcAEtAbALZLmIhZAgXBuJlIGZC5iFmQHYCsRAyhAsQd6sYD+oYHVQeJRsRwPfPLbcmCw+v/AAayft++EghMjrzRYlY1I0tIpaGzIDrFOIuLYL4sLIHd+dfBt83t9yiivy//cRArh+NFbyNx8l35hQgptDCQLQAsCliHmARYgZgJxBTaGEgXIC4V48sxTzkqcXPXP2X8P1yyy1uocH8f0Qj+eP4NLlmOa4rSyG2AxnChYF4ZSEDxDKQ7SIWQoZwQYbIog/tHOpUvo+OXfFB+B655ZZUoYG8q9FwXgs+Whj93uwinhbE3TrGw16MutVx9JxyB3xf3HLLcqHntUsnhvJWhUfyTxoHwo6S7myGmAFXCrAI8TRcBOEkYgotDANvDPAA+e81sqneHvRc+lXw/XDLLVt19lDWP4SH83+KhvJew+PkNFWBs51YBjIF2CJiGchSiDmQKbQwDMDkYNYQWVBibN3Tiw5q/3zqqey/gO+BW245Vuf7C9TwQO5WNJr/Mj4d7dAGZgZeKchzCLEQMgSsRwD3e8kijz7UqZSjYe2v4Gvullspq/O9OV40lHd/eCD3eXw0HxsZIwfEAGoKLkBMwQWAnUAsAiyNmAFXCnAcYjI+93kNvKQToy7tN6hTXY0OK5+Dr7Fbbk1b4c6ML6HB3LvCA7m/xkO5f8ZH8jE+WYiNX7mQU9WJk4AshZgDWbTsskfHeNCL8bCPHIUOo8PqS6hT34461RvxUws+CV9Tt9yasSI7ZaCRhWTs/q/w4MKn0WDO7/FxgroA4zHyXZp06JxIZLsxBXgWIobdmIzLJOQ6YzI2HyE7YxpXKx0NH1aaUYe6CnfLX7vsllszVmSFGO7PzpjoXViEhhduRwMLxwzAZPw+kofxWC7GI7kYD+dgPBSPOlXjtB3EDLgkxpVN5KIIb3RUJt91fZErnQZI59Vfx136r9Fh5f6JDu0bqMPj2K6bbrk17YXxyveikZzL0UBWJhrIXRMeWLg93J/Vj/oXvooGFr5jID6Si/GJfIyP50b+eYQAj43eMogBZMcQR6H2EqQZkcsQyYYAY5nGZgLGvZc6tQsELerQToc79SfDndr30WH9dnRQuxp1eD4BXw+33JoTRTZ2Rwe1S/Fg3pfQYM6Sif6sMtSb/XC4N+tx1JfdifqyjqPerD+g3qxz5Ibi+EQexidzMR7PjULPwXgsx7i9KdljGg9nYzxELuqPZiB2j6Yo+n5yqxdGBjKNjQCM+xITlGRjAHId8ZEsjI9mR5Nl4EVd+gTq1P+IurynUJfeF+7U/yfcqe4MH9a+hzq9/4IPqwv+PJjxl7h7wfvh83XLrXlXZNsaNOC9EvXkZKGezNtQX+Z3JnozQ+G+jPtRX9Ym1JPViHqznkA9Wc+insw+1JN5FPVlng73ZLyCejL+FO7JeCvcnXE23JN5PtydMRHu9oVRj28i3OO7gLozzoV7Mt4Jd/neRF0Zr4W7fL9DXb5T4S7fWLjb1xvu9D6LunyPo25fI+rxbUKd3vtRl7dqolNfPdGpfx116HmRrWszPgV/brfccstCGfcRJt28O/+yN3ozPoW6Mj+DhjI/j/ozv4h6sq842+m98uyhrK+cPZzxVdSb8VXU5/vauQ7f14x/7sn6ytnu7P+H3CECdXn/Hh/K/sI7T2d+Hg9nfxp3Z38Sdy+4DJ/K/gv3EsGLq/5/geYEr5K5VmEAAAAASUVORK5CYII=;" vertex="1" parent="1">
                    <mxGeometry x="535" y="410" width="30" height="30" as="geometry"/>
                </mxCell>
                <mxCell id="12" style="edgeStyle=orthogonalEdgeStyle;curved=1;html=1;exitX=0.5;exitY=1;exitDx=0;exitDy=0;entryX=1;entryY=0.75;entryDx=0;entryDy=0;" edge="1" parent="1" source="6" target="4">
                    <mxGeometry relative="1" as="geometry">
                        <Array as="points">
                            <mxPoint x="710" y="480"/>
                            <mxPoint x="607" y="480"/>
                            <mxPoint x="607" y="433"/>
                        </Array>
                    </mxGeometry>
                </mxCell>
                <mxCell id="13" value="Agent Actions" style="edgeLabel;html=1;align=center;verticalAlign=middle;resizable=0;points=[];" vertex="1" connectable="0" parent="12">
                    <mxGeometry x="-0.1034" relative="1" as="geometry">
                        <mxPoint x="7" y="15" as="offset"/>
                    </mxGeometry>
                </mxCell>
                <mxCell id="6" value="RL Environment" style="rounded=1;whiteSpace=wrap;html=1;" vertex="1" parent="1">
                    <mxGeometry x="649.5" y="400" width="120" height="55" as="geometry"/>
                </mxCell>
                <mxCell id="7" value="Coppelia Bridge" style="text;html=1;strokeColor=none;fillColor=none;align=center;verticalAlign=middle;whiteSpace=wrap;rounded=0;" vertex="1" parent="1">
                    <mxGeometry x="520" y="370" width="60" height="30" as="geometry"/>
                </mxCell>
                <mxCell id="10" value="" style="endArrow=classic;html=1;entryX=0.5;entryY=0;entryDx=0;entryDy=0;exitX=1;exitY=0.25;exitDx=0;exitDy=0;edgeStyle=orthogonalEdgeStyle;curved=1;" edge="1" parent="1" source="4" target="6">
                    <mxGeometry width="50" height="50" relative="1" as="geometry">
                        <mxPoint x="520" y="490" as="sourcePoint"/>
                        <mxPoint x="570" y="440" as="targetPoint"/>
                        <Array as="points">
                            <mxPoint x="600" y="418"/>
                            <mxPoint x="600" y="370"/>
                            <mxPoint x="710" y="370"/>
                        </Array>
                    </mxGeometry>
                </mxCell>
                <mxCell id="11" value="Vehicle State" style="edgeLabel;html=1;align=center;verticalAlign=middle;resizable=0;points=[];" vertex="1" connectable="0" parent="10">
                    <mxGeometry x="0.061" y="-3" relative="1" as="geometry">
                        <mxPoint x="14" y="-13" as="offset"/>
                    </mxGeometry>
                </mxCell>
            </root>
        </mxGraphModel>
    </diagram>
</mxfile>